<?xml version="1.0" encoding="utf-8"?>
<!-- Generator: Adobe Illustrator 24.3.0, SVG Export Plug-In . SVG Version: 6.00 Build 0)  -->
<svg version="1.1" xmlns="http://www.w3.org/2000/svg" xmlns:xlink="http://www.w3.org/1999/xlink" x="0px" y="0px"
	 viewBox="0 0 134 123" style="enable-background:new 0 0 134 123;" xml:space="preserve">
<style type="text/css">
	.st0{fill:#F3F6FB;}
	.st1{fill:none;stroke:#2B2E81;stroke-width:2;stroke-miterlimit:10;}
	.st2{fill:none;}
	.st3{fill:#E0E1E0;}
	.st4{fill:#F1F0F0;}
	.st5{fill:#273339;}
	.st6{fill:#EBEBEB;}
	.st7{fill:#2F3180;}
	.st8{fill:#FFFFFF;}
	.st9{opacity:0.3;fill:#010101;enable-background:new    ;}
	.st10{fill:#B97A65;}
	.st11{opacity:0.2;fill:#010101;enable-background:new    ;}
	.st12{fill:#A34F40;}
	.st13{fill:#DE5854;}
	.st14{fill:#9F5C54;}
	.st15{opacity:0.2;}
	.st16{fill:#010101;}
	.st17{fill:#E9B376;}
	.st18{opacity:0.8;fill:#FFFFFF;enable-background:new    ;}
	.st19{fill:#D58745;}
	.st20{opacity:0.4;fill:#FFFFFF;enable-background:new    ;}
	.st21{fill:#EEC1BB;}
	.st22{fill:#D9857D;}
	.st23{fill:#F5F6F6;}
	.st24{fill:#FAFBFC;}
	.st25{fill:#FCBF9E;}
	.st26{fill:#F8996E;}
	.st27{fill:#465B64;}
	.st28{opacity:0.3;}
	.st29{opacity:0.25;fill:#FFFFFF;enable-background:new    ;}
	.st30{opacity:0.1;fill:#010101;enable-background:new    ;}
	.st31{opacity:0.1;fill:#FFFFFF;enable-background:new    ;}
	.st32{opacity:5.000000e-02;fill:#010101;enable-background:new    ;}
	.st33{opacity:0.15;fill:#FFFFFF;enable-background:new    ;}
	.st34{opacity:0.4;fill:#010101;enable-background:new    ;}
	.st35{opacity:0.5;fill:#010101;enable-background:new    ;}
	.st36{opacity:0.25;fill:#010101;enable-background:new    ;}
	.st37{opacity:0.15;fill:#010101;enable-background:new    ;}
	.st38{opacity:0.45;fill:#010101;enable-background:new    ;}
	.st39{opacity:0.35;fill:#010101;enable-background:new    ;}
	.st40{fill:#F8A7A8;}
	.st41{fill:#384850;}
	.st42{opacity:0.6;fill:#FFFFFF;enable-background:new    ;}
	.st43{opacity:0.1;fill:#2F3180;enable-background:new    ;}
	.st44{opacity:0.2;fill:#2F3180;enable-background:new    ;}
	.st45{fill:#B26769;}
	.st46{fill:#F3908F;}
	.st47{opacity:0.7;fill:#FFFFFF;enable-background:new    ;}
	.st48{fill:#AF7562;}
	.st49{fill:#70453A;}
	.st50{opacity:0.5;fill:#FFFFFF;enable-background:new    ;}
	.st51{opacity:0.3;fill:#FFFFFF;enable-background:new    ;}
	.st52{opacity:0.6;}
	.st53{opacity:0.7;}
	.st54{fill:#884D4D;}
	.st55{fill:#C8856A;}
	.st56{fill:#B06252;}
	.st57{fill:none;stroke:#000000;stroke-miterlimit:10;}
	.st58{fill:#D51F26;}
	.st59{fill:#E6E6E5;}
	.st60{opacity:0.15;}
	.st61{opacity:0.2;fill:#FFFFFF;enable-background:new    ;}
	.st62{opacity:0.4;}
	.st63{clip-path:url(#SVGID_2_);}
	.st64{opacity:0.1;}
	.st65{clip-path:url(#SVGID_4_);}
	.st66{clip-path:url(#SVGID_6_);}
	.st67{fill:#FFFFFF;stroke:#000000;stroke-width:2;stroke-miterlimit:10;}
	.st68{opacity:0.5;}
	.st69{fill:#FBBD9D;}
	.st70{fill:#EB9A6F;}
	.st71{opacity:0.6;fill:#010101;enable-background:new    ;}
	.st72{fill:#FAC2BE;}
	.st73{fill:#EC847E;}
	.st74{opacity:0.9;}
	.st75{fill:#803F3C;}
	.st76{fill:#631112;}
	.st77{fill:#FCB574;}
	.st78{fill:#ED893F;}
	.st79{opacity:0.9;fill:#FFFFFF;enable-background:new    ;}
	.st80{fill:#C8C7C6;}
	.st81{opacity:0.6;fill:#2F3180;enable-background:new    ;}
	.st82{fill:#FDFEFF;}
	.st83{fill:#D4766B;}
	.st84{opacity:0.3;fill:#384850;enable-background:new    ;}
	.st85{fill:#F598B9;}
	.st86{clip-path:url(#SVGID_8_);}
	.st87{clip-path:url(#SVGID_10_);}
	.st88{clip-path:url(#SVGID_12_);}
	.st89{fill:#9B6E66;}
	.st90{fill:#714D46;}
	.st91{fill:#C78976;}
	.st92{fill:#935C4D;}
	.st93{fill:#EDDDD6;}
	.st94{fill:#474780;}
	.st95{fill:#E56445;}
	.st96{fill:#FCD69F;}
	.st97{fill:#FEBF6A;}
	.st98{fill:#2D328F;}
	.st99{fill:#9492C7;}
	.st100{fill:#7470B3;}
	.st101{fill:#F8A398;}
	.st102{fill:#F3C0BC;}
	.st103{fill:#7A491D;}
	.st104{fill:#FCB45D;}
	.st105{fill:#608558;}
	.st106{fill:#F47351;}
	.st107{fill:#B77E34;}
	.st108{fill:#7D6154;}
	.st109{fill:#50784A;}
	.st110{fill:#F17E65;}
	.st111{fill:#142148;}
	.st112{fill:#F8B384;}
	.st113{fill:#E38B6D;}
	.st114{fill:#758BC6;}
	.st115{fill:#46467F;}
	.st116{fill:#FCB35B;}
	.st117{fill:#C49576;}
	.st118{fill:#F7734F;}
	.st119{fill:#7772D3;}
	.st120{fill:#D19865;}
</style>
<g id="Calque_1">
	<g id="Calque_1_1_">
	</g>
	<g id="Calque_2_1_">
	</g>
</g>
<g id="Calque_2">
	<g>
		<path class="st93" d="M113.6,63.7c0,8.5-2.3,16.5-6.3,23.4c-0.2,0.3-0.3,0.5-0.5,0.8c-0.4,0.6-0.8,1.2-1.2,1.8
			c-0.2,0.2-0.3,0.5-0.5,0.8c-0.2,0.3-0.5,0.6-0.7,0.9c-1.6,2.1-3.3,4.1-5.2,6c-3,2.9-6.5,5.4-10.2,7.4c-3,1.6-6.1,2.9-9.4,3.8
			c-0.2,0.1-0.5,0.1-0.7,0.2c-3.8,1-7.8,1.5-11.9,1.5c-3.3,0-6.5-0.3-9.7-1c-1.9-0.4-3.8-0.9-5.6-1.5c-6.6-2.3-12.5-6-17.4-10.8
			c-2.3-2.2-4.3-4.7-6.1-7.3c-0.8-1.2-1.5-2.3-2.2-3.6c-3.7-6.7-5.8-14.3-5.8-22.5C20.4,38,41.2,17.1,67,17.1S113.6,38,113.6,63.7z"
			/>
	</g>
	<g>
		<g>
			<path d="M64.7,39.2c0,0-16.9-13.7-31.8,12.9c-14.9,26.7,0,43.4,18.9,36.1c19-7.3,14-41.3,14-41.3L64.7,39.2z"/>
		</g>
	</g>
	<g>
		<g>
			<path d="M84.1,47.9c0,0,3-7.1,2.5-10.2c-0.6-3.1-12.9-12.3-23.2-7.3C53,35.4,52.5,49,54.9,54.7c6.2,14.5,18.7,7.6,18.7,7.6
				S93.4,56,84.1,47.9z"/>
		</g>
	</g>
	<g>
		<g>
			<path class="st116" d="M99.3,97.4c-3,2.9-6.5,5.4-10.2,7.4c-3,1.6-6.1,2.9-9.4,3.8c-0.2,0.1-0.5,0.1-0.7,0.2
				c-3.8,1-7.8,1.5-11.9,1.5c-3.3,0-6.5-0.3-9.7-1c-1.9-0.4-3.8-0.9-5.6-1.5c0.7-15.9,1.7-31.7,3.4-33.5c0.3-0.3,0.7-0.6,1.2-0.9
				c0.1-0.1,0.2-0.1,0.2-0.1c4.6-2.7,17.2-4.8,27.6-1.5c2.7,0.9,5.2,2.1,7.5,3.8C95.6,78.5,98.1,87.3,99.3,97.4z"/>
		</g>
	</g>
	<g>
		<g>
			<g>
				<g>
					<g>
						<path class="st120" d="M82.5,64.4l0,0.3l0,5.3l0.1,4.2c0,0,0.4,0.9-4.5,0.9c-6.5-0.1-9.6-2.9-9.6-2.9v-9.6l2,0.3L82.5,64.4z"
							/>
					</g>
				</g>
			</g>
		</g>
	</g>
	<g>
		<g>
			<g>
				<g>
					<g>
						<path d="M82.5,64.6l0,5.3c-3.2-0.2-9-1.3-11.6-6.1c-0.2-0.4-0.3-0.8-0.4-1.1L82.5,64.6L82.5,64.6z"/>
					</g>
				</g>
			</g>
		</g>
	</g>
	<g>
		<g>
			<g>
				<g>
					<g>
						<path class="st120" d="M83.2,39.1c0,0,6.8,13.5,5,21.4c-1.8,7.9-8.9,7-13.2,5.8c-4.3-1.3-6.4-3.8-6.4-3.8s-3.9,1.6-6.7-2
							c-2.8-3.5-1.4-7.8,0.8-8.9c2.2-1.1,5,0.4,5,0.4l-2.3-3.9C65.3,48.1,73,27.2,83.2,39.1z"/>
					</g>
				</g>
			</g>
		</g>
	</g>
	<g>
		<g>
			<path d="M83.5,56.8c0,0-0.1,0-0.1,0c-0.3-0.1-0.4-0.3-0.4-0.6c0.7-2.6-1.4-5.2-1.4-5.2c-0.2-0.2-0.1-0.5,0.1-0.7
				c0.2-0.2,0.5-0.1,0.7,0.1c0.1,0.1,2.3,3.1,1.6,6.1C83.9,56.6,83.7,56.8,83.5,56.8z"/>
		</g>
	</g>
	<g>
		<g>
			<path d="M67.3,58.6c-0.1,0-0.2,0-0.3-0.1L63,54.6c-0.2-0.2-0.2-0.5,0-0.7c0.2-0.2,0.5-0.2,0.7,0l3.9,3.8c0.2,0.2,0.2,0.5,0,0.7
				C67.6,58.5,67.4,58.6,67.3,58.6z"/>
		</g>
	</g>
	<g>
		<g>
			<path d="M63.3,57.7c-0.2,0-0.4-0.2-0.5-0.4c-0.1-0.3,0.1-0.5,0.4-0.6l2.6-0.5c0.3-0.1,0.5,0.1,0.6,0.4c0.1,0.3-0.1,0.5-0.4,0.6
				L63.3,57.7C63.3,57.7,63.3,57.7,63.3,57.7z"/>
		</g>
	</g>
	<g>
		<g>
			<path d="M81.1,62.3c-0.2,0-0.5-0.1-0.7-0.2c-1.8-0.8-3.4-3.8-3.5-3.9c-0.1-0.2-0.1-0.4,0.1-0.5c0.1-0.2,0.3-0.2,0.5-0.2l5.5,1.5
				c0.2,0.1,0.4,0.3,0.4,0.6c0,0.2-0.4,2-1.5,2.5C81.6,62.3,81.3,62.3,81.1,62.3z M78.4,58.8c0.6,0.9,1.5,2.1,2.4,2.4
				c0.3,0.1,0.5,0.1,0.6,0c0.4-0.2,0.7-0.9,0.9-1.4L78.4,58.8z"/>
		</g>
	</g>
	<g>
		<g>
			<path d="M74.3,47.1c-0.1,0-0.1,0-0.2,0c-0.2-0.1-0.4-0.4-0.2-0.7c0.9-1.9,3.2-1.5,3.3-1.5c0.3,0,0.4,0.3,0.4,0.6
				c0,0.3-0.3,0.5-0.6,0.4c-0.1,0-1.7-0.3-2.3,0.9C74.7,47,74.5,47.1,74.3,47.1z"/>
		</g>
	</g>
	<g>
		<g>
			<path d="M82.7,45.1c-0.1,0-0.2,0-0.3-0.1c-0.2-0.1-0.3-0.4-0.2-0.7c0.4-0.6,0.9-0.9,1.5-1c1.2-0.2,2.4,0.7,2.5,0.8
				c0.2,0.2,0.2,0.5,0.1,0.7c-0.2,0.2-0.5,0.2-0.7,0.1c-0.2-0.2-1-0.7-1.7-0.6c-0.3,0.1-0.6,0.2-0.8,0.6
				C83,45.1,82.9,45.1,82.7,45.1z"/>
		</g>
	</g>
	<g>
		<g>
			<path d="M84.6,50.9c-0.2,0-0.4-0.2-0.5-0.4L83.6,48c0-0.1,0-0.3,0.1-0.4l0.9-1.3c0.2-0.2,0.5-0.3,0.7-0.1
				c0.2,0.2,0.3,0.5,0.1,0.7L84.6,48l0.5,2.3C85.1,50.6,85,50.9,84.6,50.9C84.7,50.9,84.6,50.9,84.6,50.9z"/>
		</g>
	</g>
	<g>
		<g>
			<path d="M77,51.9c-0.2,0-0.4-0.2-0.5-0.4L76,48.9c0-0.2,0-0.3,0.1-0.4l1.4-1.5c0.2-0.2,0.5-0.2,0.7,0c0.2,0.2,0.2,0.5,0,0.7
				L77,49l0.4,2.3C77.5,51.6,77.3,51.9,77,51.9C77,51.9,77,51.9,77,51.9z"/>
		</g>
	</g>
	<g>
		<g>
			<path d="M67.6,52c0,0,5.9-3.4,7.9-7.8c2-4.4,2-6.6,2-6.6s1,2.8,3.3,3.4c2.2,0.6,3.6,0.6,3.6,0.6l1.6,4l-1.4-9.6
				c0,0-6.1-2.9-6.9-2.9c-0.8,0-10.8,2.3-11.3,3c-0.6,0.6-3.4,8.6-3.4,8.6l-0.1,3.5L67.6,52z"/>
		</g>
	</g>
	<g>
		<g>
			<path class="st116" d="M57.3,109.3c-1.9-0.4-3.8-0.9-5.6-1.5c-6.6-2.3-12.5-6-17.4-10.8c7.2-15.5,20.3-22.8,22-23.7
				c0.1-0.1,0.2-0.1,0.2-0.1S55.3,98.7,57.3,109.3z"/>
		</g>
	</g>
	<g>
		<path class="st116" d="M104.5,91.4c-1.6,2.1-3.3,4.1-5.2,6c-3,2.9-6.5,5.4-10.2,7.4l-4.9-33C84.9,71.9,95.9,73.9,104.5,91.4z"/>
	</g>
	<g>
		<path class="st119" d="M78.1,75.5c-0.3,0-0.6,0-0.9,0c-6.1-0.2-10-3.6-10.1-3.8c-0.2-0.2-0.2-0.5,0-0.7c0.2-0.2,0.5-0.2,0.7,0
			c0,0,3.7,3.4,9.5,3.5c5.5,0.2,6.8-1.2,6.8-1.2c0.2-0.2,0.5-0.2,0.7-0.1c0.2,0.2,0.3,0.5,0.1,0.7C84.7,74.1,83.4,75.5,78.1,75.5z"
			/>
	</g>
</g>
</svg>
