<?xml version="1.0" encoding="utf-8"?>
<!-- Generator: Adobe Illustrator 24.3.0, SVG Export Plug-In . SVG Version: 6.00 Build 0)  -->
<svg version="1.1" xmlns="http://www.w3.org/2000/svg" xmlns:xlink="http://www.w3.org/1999/xlink" x="0px" y="0px"
	 viewBox="0 0 134 123" style="enable-background:new 0 0 134 123;" xml:space="preserve">
<style type="text/css">
	.st0{fill:#F3F6FB;}
	.st1{fill:none;stroke:#2B2E81;stroke-width:2;stroke-miterlimit:10;}
	.st2{fill:none;}
	.st3{fill:#E0E1E0;}
	.st4{fill:#F1F0F0;}
	.st5{fill:#273339;}
	.st6{fill:#EBEBEB;}
	.st7{fill:#2F3180;}
	.st8{fill:#FFFFFF;}
	.st9{opacity:0.3;fill:#010101;enable-background:new    ;}
	.st10{fill:#B97A65;}
	.st11{opacity:0.2;fill:#010101;enable-background:new    ;}
	.st12{fill:#A34F40;}
	.st13{fill:#DE5854;}
	.st14{fill:#9F5C54;}
	.st15{opacity:0.2;}
	.st16{fill:#010101;}
	.st17{fill:#E9B376;}
	.st18{opacity:0.8;fill:#FFFFFF;enable-background:new    ;}
	.st19{fill:#D58745;}
	.st20{opacity:0.4;fill:#FFFFFF;enable-background:new    ;}
	.st21{fill:#EEC1BB;}
	.st22{fill:#D9857D;}
	.st23{fill:#F5F6F6;}
	.st24{fill:#FAFBFC;}
	.st25{fill:#FCBF9E;}
	.st26{fill:#F8996E;}
	.st27{fill:#465B64;}
	.st28{opacity:0.3;}
	.st29{opacity:0.25;fill:#FFFFFF;enable-background:new    ;}
	.st30{opacity:0.1;fill:#010101;enable-background:new    ;}
	.st31{opacity:0.1;fill:#FFFFFF;enable-background:new    ;}
	.st32{opacity:5.000000e-02;fill:#010101;enable-background:new    ;}
	.st33{opacity:0.15;fill:#FFFFFF;enable-background:new    ;}
	.st34{opacity:0.4;fill:#010101;enable-background:new    ;}
	.st35{opacity:0.5;fill:#010101;enable-background:new    ;}
	.st36{opacity:0.25;fill:#010101;enable-background:new    ;}
	.st37{opacity:0.15;fill:#010101;enable-background:new    ;}
	.st38{opacity:0.45;fill:#010101;enable-background:new    ;}
	.st39{opacity:0.35;fill:#010101;enable-background:new    ;}
	.st40{fill:#F8A7A8;}
	.st41{fill:#384850;}
	.st42{opacity:0.6;fill:#FFFFFF;enable-background:new    ;}
	.st43{opacity:0.1;fill:#2F3180;enable-background:new    ;}
	.st44{opacity:0.2;fill:#2F3180;enable-background:new    ;}
	.st45{fill:#B26769;}
	.st46{fill:#F3908F;}
	.st47{opacity:0.7;fill:#FFFFFF;enable-background:new    ;}
	.st48{fill:#AF7562;}
	.st49{fill:#70453A;}
	.st50{opacity:0.5;fill:#FFFFFF;enable-background:new    ;}
	.st51{opacity:0.3;fill:#FFFFFF;enable-background:new    ;}
	.st52{opacity:0.6;}
	.st53{opacity:0.7;}
	.st54{fill:#884D4D;}
	.st55{fill:#C8856A;}
	.st56{fill:#B06252;}
	.st57{fill:none;stroke:#000000;stroke-miterlimit:10;}
	.st58{fill:#D51F26;}
	.st59{fill:#E6E6E5;}
	.st60{opacity:0.15;}
	.st61{opacity:0.2;fill:#FFFFFF;enable-background:new    ;}
	.st62{opacity:0.4;}
	.st63{clip-path:url(#SVGID_2_);}
	.st64{opacity:0.1;}
	.st65{clip-path:url(#SVGID_4_);}
	.st66{clip-path:url(#SVGID_6_);}
	.st67{fill:#FFFFFF;stroke:#000000;stroke-width:2;stroke-miterlimit:10;}
	.st68{opacity:0.5;}
	.st69{fill:#FBBD9D;}
	.st70{fill:#EB9A6F;}
	.st71{opacity:0.6;fill:#010101;enable-background:new    ;}
	.st72{fill:#FAC2BE;}
	.st73{fill:#EC847E;}
	.st74{opacity:0.9;}
	.st75{fill:#803F3C;}
	.st76{fill:#631112;}
	.st77{fill:#FCB574;}
	.st78{fill:#ED893F;}
	.st79{opacity:0.9;fill:#FFFFFF;enable-background:new    ;}
	.st80{fill:#C8C7C6;}
	.st81{opacity:0.6;fill:#2F3180;enable-background:new    ;}
	.st82{fill:#FDFEFF;}
	.st83{fill:#D4766B;}
	.st84{opacity:0.3;fill:#384850;enable-background:new    ;}
	.st85{fill:#F598B9;}
	.st86{clip-path:url(#SVGID_8_);}
	.st87{clip-path:url(#SVGID_10_);}
	.st88{clip-path:url(#SVGID_12_);}
	.st89{fill:#9B6E66;}
	.st90{fill:#714D46;}
	.st91{fill:#C78976;}
	.st92{fill:#935C4D;}
	.st93{fill:#EDDDD6;}
	.st94{fill:#474780;}
	.st95{fill:#E56445;}
	.st96{fill:#FCD69F;}
	.st97{fill:#FEBF6A;}
	.st98{fill:#2D328F;}
	.st99{fill:#9492C7;}
	.st100{fill:#7470B3;}
	.st101{fill:#F8A398;}
	.st102{fill:#F3C0BC;}
	.st103{fill:#7A491D;}
	.st104{fill:#FCB45D;}
	.st105{fill:#608558;}
	.st106{fill:#F47351;}
	.st107{fill:#B77E34;}
	.st108{fill:#7D6154;}
	.st109{fill:#50784A;}
	.st110{fill:#F17E65;}
	.st111{fill:#142148;}
	.st112{fill:#F8B384;}
	.st113{fill:#E38B6D;}
	.st114{fill:#758BC6;}
	.st115{fill:#46467F;}
	.st116{fill:#FCB35B;}
	.st117{fill:#C49576;}
	.st118{fill:#F7734F;}
	.st119{fill:#7772D3;}
	.st120{fill:#D19865;}
	.st121{fill:#507849;}
	.st122{fill:#FCA397;}
</style>
<g id="Calque_1">
	<g id="Calque_1_1_">
	</g>
	<g id="Calque_2_1_">
	</g>
</g>
<g id="Calque_2">
	<g>
		<path class="st93" d="M113.1,62.5c0,7.9-2,15.3-5.4,21.8c-1.5,2.7-3.2,5.3-5.1,7.7c-1.2,1.5-2.5,2.9-3.9,4.2c-1,1-2.1,1.9-3.2,2.8
			c-1.3,1.1-2.7,2.1-4.2,3c-0.5,0.3-1.1,0.7-1.7,1c-6.8,3.9-14.7,6.1-23.2,6.1c-1.8,0-3.5-0.1-5.2-0.3c-1-0.1-2-0.2-3-0.4
			c-2.1-0.4-4.2-0.9-6.2-1.5c-0.4-0.1-0.9-0.3-1.3-0.4c-5.7-2-10.8-5.1-15.2-9c-1.8-1.6-3.6-3.4-5.1-5.3c-6.7-8-10.6-18.4-10.6-29.6
			c0-25.7,20.9-46.6,46.6-46.6C92.2,15.9,113.1,36.7,113.1,62.5z"/>
	</g>
	<g>
		<path d="M67.6,31.7c0,0-9.2-1.4-15.8,2.7c-6.6,4.1-3.6,15.1-3.6,15.1s-10.6,8.3-11.1,17.3c-0.6,9.1,7.7,12.4,7.7,12.4l21.8-3.3
			L67.6,31.7z"/>
	</g>
	<g>
		<path class="st121" d="M107.7,84.2c-1.5,2.7-3.2,5.3-5.1,7.7c-1.2,1.5-2.5,2.9-3.9,4.2c-1,1-2.1,1.9-3.2,2.8
			c-1.3,1.1-2.7,2.1-4.2,3l-3.8-32.7c0,0,3.8,0.8,12.6,8.4C103.9,80.9,106.3,82.9,107.7,84.2z"/>
	</g>
	<g>
		<path class="st121" d="M95.5,98.9c-1.3,1.1-2.7,2.1-4.2,3c-0.5,0.3-1.1,0.7-1.7,1c-6.8,3.9-14.7,6.1-23.2,6.1
			c-1.8,0-3.5-0.1-5.2-0.3c-1-0.1-2-0.2-3-0.4c-2.1-0.4-4.2-0.9-6.2-1.5c-0.4-0.1-0.9-0.3-1.3-0.4c-0.4-16.5-0.5-33,0.5-34.4
			c1.6-2.2,7-4.5,13.1-5.5c1.6-0.2,3.2-0.4,4.9-0.4c7.9-0.2,18.1,3.1,18.1,3.1L95.5,98.9z"/>
	</g>
	<g>
		<path class="st121" d="M66.5,85.4l-5.2,23.3c-1-0.1-2-0.2-3-0.4c-2.1-0.4-4.2-0.9-6.2-1.5c-0.4-0.1-0.9-0.3-1.3-0.4
			c-5.7-2-10.8-5.1-15.2-9c-1.8-1.6-3.6-3.4-5.1-5.3C44,66.7,64.5,66,64.5,66l0.1,0.4L66.5,85.4z"/>
	</g>
	<g>
		<path class="st95" d="M64.4,67.3c0,0,3.8,5.6,8.2,8.9c4.4,3.4,6.5,3.7,6.5,3.7l-0.3-10.8L64.4,67.3z"/>
	</g>
	<g>
		<g>
			<path class="st122" d="M64.6,56.1l-0.2,10.7c0,0,1.9,3.1,8.1,3.7c4.7,0.5,6.3-0.6,6.3-0.6l-0.6-5.4l-0.6-5.3l-11.3-2.7L64.6,56.1
				z"/>
		</g>
	</g>
	<g>
		<g>
			<path d="M66.5,56.6c0,0.3,0.1,0.6,0.3,1c2.3,5.4,8.8,6.7,11.5,6.9l-0.6-5.3L66.5,56.6z"/>
		</g>
	</g>
	<g>
		<g>
			<path class="st122" d="M80.6,34.9c0,0,5.4,13.5,3,20.9c-2.3,7.4-9.1,6-13.2,4.4c-4-1.6-5.9-4.1-5.9-4.1s-3.9,1.2-6.3-2.5
				c-2.4-3.6-0.7-7.7,1.5-8.5c2.2-0.9,4.8,0.8,4.8,0.8L62.7,42C62.7,42,71.9,22.6,80.6,34.9z"/>
		</g>
	</g>
	<g>
		<path d="M71.6,39.5c-0.1,0-0.2,0-0.3-0.1c-0.2-0.2-0.3-0.5-0.1-0.7c1.5-1.9,3.5-1.5,4.3-1c0.2,0.1,0.3,0.4,0.2,0.7
			c-0.1,0.2-0.4,0.3-0.7,0.2c-0.1,0-1.7-0.9-3.1,0.8C71.8,39.4,71.7,39.5,71.6,39.5z"/>
	</g>
	<g>
		<path d="M82,39.1c-0.1,0-0.2,0-0.3-0.1c-1.1-0.9-2.2-0.3-2.3-0.3c-0.2,0.1-0.5,0-0.7-0.2c-0.1-0.2-0.1-0.5,0.2-0.7
			c0.1,0,1.8-1,3.4,0.4c0.2,0.2,0.2,0.5,0.1,0.7C82.2,39.1,82.1,39.1,82,39.1z"/>
	</g>
	<g>
		<path d="M80,50.3C80,50.3,79.9,50.3,80,50.3c-0.3,0-0.5-0.3-0.5-0.6c0.5-3.4-1-5.9-1-5.9c-0.1-0.2-0.1-0.5,0.2-0.7
			c0.2-0.1,0.5-0.1,0.7,0.2c0.1,0.1,1.7,2.8,1.1,6.6C80.4,50.1,80.2,50.3,80,50.3z"/>
	</g>
	<g>
		<path d="M81.8,45.3c-0.2,0-0.4-0.2-0.5-0.4l-0.6-2.5c0-0.1,0-0.3,0-0.4l0.8-1.4c0.1-0.2,0.4-0.3,0.7-0.2c0.2,0.1,0.3,0.4,0.2,0.7
			l-0.7,1.2l0.6,2.3c0.1,0.3-0.1,0.5-0.4,0.6C81.9,45.3,81.9,45.3,81.8,45.3z"/>
	</g>
	<g>
		<path d="M74,45.3c-0.2,0-0.4-0.2-0.5-0.4l-0.6-2.5c0-0.2,0-0.3,0.1-0.4l1.1-1.4c0.2-0.2,0.5-0.3,0.7-0.1c0.2,0.2,0.3,0.5,0.1,0.7
			L74,42.5l0.6,2.2c0.1,0.3-0.1,0.5-0.4,0.6C74.1,45.3,74.1,45.3,74,45.3z"/>
	</g>
	<g>
		<path d="M64.6,46.3l2,2.6c0,0,4.2-5.8,4.2-9c0-3.2,0-4.4,0-4.4s4.2,1.5,7.7,1.4c3.5-0.1,5.6-1.9,5.4-3.6c-0.2-1.6-2.3-6.6-13.1-5
			C59.9,30,59.7,42.6,64.6,46.3z"/>
	</g>
	<g>
		<path class="st8" d="M84.3,81.7c-0.5,0-11.3-0.8-20.2-14.6c-0.2-0.2-0.1-0.5,0.1-0.7c0.2-0.1,0.5-0.1,0.7,0.1
			c8.6,13.3,19.3,14.1,19.4,14.1c0.3,0,0.5,0.3,0.5,0.5C84.7,81.5,84.5,81.7,84.3,81.7z"/>
	</g>
	<g>
		<path class="st8" d="M79.1,80.4c-0.3,0-0.5-0.2-0.5-0.5l-0.3-10.8c0-0.3,0.2-0.5,0.5-0.5c0.3,0,0.5,0.2,0.5,0.5l0.3,10.8
			C79.6,80.2,79.4,80.4,79.1,80.4C79.1,80.4,79.1,80.4,79.1,80.4z"/>
	</g>
	<g>
		<path d="M78.5,54c-1,0-2.2-0.9-2.6-1.2c-0.2-0.2-0.3-0.5-0.1-0.7c0.2-0.2,0.5-0.3,0.7-0.1c0.7,0.6,1.8,1.1,2.1,0.9
			c0.2-0.1,0.5,0,0.7,0.2c0.1,0.2,0,0.5-0.2,0.7C78.9,54,78.7,54,78.5,54z"/>
	</g>
</g>
</svg>
