<?xml version="1.0" encoding="utf-8"?>
<!-- Generator: Adobe Illustrator 24.3.0, SVG Export Plug-In . SVG Version: 6.00 Build 0)  -->
<svg version="1.1" xmlns="http://www.w3.org/2000/svg" xmlns:xlink="http://www.w3.org/1999/xlink" x="0px" y="0px"
	 viewBox="0 0 194.2 72.7" style="enable-background:new 0 0 194.2 72.7;" xml:space="preserve">
<style type="text/css">
	.st0{fill:#F3F6FB;}
	.st1{fill:none;stroke:#2B2E81;stroke-width:2;stroke-miterlimit:10;}
	.st2{fill:none;}
	.st3{fill:#E0E1E0;}
	.st4{fill:#F1F0F0;}
	.st5{fill:#273339;}
	.st6{fill:#EBEBEB;}
	.st7{fill:#2F3180;}
	.st8{fill:#FFFFFF;}
	.st9{opacity:0.3;fill:#010101;enable-background:new    ;}
	.st10{fill:#B97A65;}
	.st11{opacity:0.2;fill:#010101;enable-background:new    ;}
	.st12{fill:#A34F40;}
	.st13{fill:#DE5854;}
	.st14{fill:#9F5C54;}
	.st15{opacity:0.2;}
	.st16{fill:#010101;}
	.st17{fill:#E9B376;}
	.st18{opacity:0.8;fill:#FFFFFF;enable-background:new    ;}
	.st19{fill:#D58745;}
	.st20{opacity:0.4;fill:#FFFFFF;enable-background:new    ;}
	.st21{fill:#EEC1BB;}
	.st22{fill:#D9857D;}
	.st23{fill:#F5F6F6;}
	.st24{fill:#FAFBFC;}
	.st25{fill:#FCBF9E;}
	.st26{fill:#F8996E;}
	.st27{fill:#465B64;}
	.st28{opacity:0.3;}
	.st29{opacity:0.25;fill:#FFFFFF;enable-background:new    ;}
	.st30{opacity:0.1;fill:#010101;enable-background:new    ;}
	.st31{opacity:0.1;fill:#FFFFFF;enable-background:new    ;}
	.st32{opacity:5.000000e-02;fill:#010101;enable-background:new    ;}
	.st33{opacity:0.15;fill:#FFFFFF;enable-background:new    ;}
	.st34{opacity:0.4;fill:#010101;enable-background:new    ;}
	.st35{opacity:0.5;fill:#010101;enable-background:new    ;}
	.st36{opacity:0.25;fill:#010101;enable-background:new    ;}
	.st37{opacity:0.15;fill:#010101;enable-background:new    ;}
	.st38{opacity:0.45;fill:#010101;enable-background:new    ;}
	.st39{opacity:0.35;fill:#010101;enable-background:new    ;}
	.st40{fill:#F8A7A8;}
	.st41{fill:#384850;}
	.st42{opacity:0.6;fill:#FFFFFF;enable-background:new    ;}
	.st43{opacity:0.1;fill:#2F3180;enable-background:new    ;}
	.st44{opacity:0.2;fill:#2F3180;enable-background:new    ;}
	.st45{fill:#B26769;}
	.st46{fill:#F3908F;}
	.st47{opacity:0.7;fill:#FFFFFF;enable-background:new    ;}
	.st48{fill:#AF7562;}
	.st49{fill:#70453A;}
	.st50{opacity:0.5;fill:#FFFFFF;enable-background:new    ;}
	.st51{opacity:0.3;fill:#FFFFFF;enable-background:new    ;}
	.st52{opacity:0.6;}
	.st53{opacity:0.7;}
	.st54{fill:#884D4D;}
	.st55{fill:#C8856A;}
	.st56{fill:#B06252;}
	.st57{fill:none;stroke:#000000;stroke-miterlimit:10;}
	.st58{fill:#D51F26;}
	.st59{fill:#E6E6E5;}
	.st60{opacity:0.15;}
	.st61{opacity:0.2;fill:#FFFFFF;enable-background:new    ;}
	.st62{opacity:0.4;}
	.st63{clip-path:url(#SVGID_2_);}
	.st64{opacity:0.1;}
	.st65{clip-path:url(#SVGID_4_);}
	.st66{clip-path:url(#SVGID_6_);}
	.st67{fill:#FFFFFF;stroke:#000000;stroke-width:2;stroke-miterlimit:10;}
	.st68{opacity:0.5;}
	.st69{fill:#FBBD9D;}
	.st70{fill:#EB9A6F;}
	.st71{opacity:0.6;fill:#010101;enable-background:new    ;}
	.st72{fill:#FAC2BE;}
	.st73{fill:#EC847E;}
	.st74{opacity:0.9;}
	.st75{fill:#803F3C;}
	.st76{fill:#631112;}
	.st77{fill:#FCB574;}
	.st78{fill:#ED893F;}
	.st79{opacity:0.9;fill:#FFFFFF;enable-background:new    ;}
	.st80{fill:#C8C7C6;}
	.st81{opacity:0.6;fill:#2F3180;enable-background:new    ;}
	.st82{fill:#FDFEFF;}
	.st83{fill:#D4766B;}
	.st84{opacity:0.3;fill:#384850;enable-background:new    ;}
	.st85{fill:#F598B9;}
	.st86{clip-path:url(#SVGID_8_);}
	.st87{clip-path:url(#SVGID_10_);}
	.st88{clip-path:url(#SVGID_12_);}
	.st89{fill:#9B6E66;}
	.st90{fill:#714D46;}
	.st91{fill:#C78976;}
	.st92{fill:#935C4D;}
	.st93{fill:#EDDDD6;}
	.st94{fill:#474780;}
	.st95{fill:#E56445;}
	.st96{fill:#FCD69F;}
	.st97{fill:#FEBF6A;}
	.st98{fill:#2D328F;}
	.st99{fill:#9492C7;}
	.st100{fill:#7470B3;}
	.st101{fill:#F8A398;}
	.st102{fill:#F3C0BC;}
	.st103{fill:#7A491D;}
	.st104{fill:#FCB45D;}
	.st105{fill:#608558;}
	.st106{fill:#F47351;}
	.st107{fill:#B77E34;}
	.st108{fill:#7D6154;}
	.st109{fill:#50784A;}
	.st110{fill:#F17E65;}
	.st111{fill:#142148;}
	.st112{fill:#F8B384;}
	.st113{fill:#E38B6D;}
	.st114{fill:#758BC6;}
	.st115{fill:#46467F;}
	.st116{fill:#FCB35B;}
	.st117{fill:#C49576;}
	.st118{fill:#F7734F;}
	.st119{fill:#7772D3;}
	.st120{fill:#D19865;}
	.st121{fill:#507849;}
	.st122{fill:#FCA397;}
	.st123{fill:#E18B76;}
	.st124{fill:#B27E50;}
	.st125{fill:#EFCB3A;}
</style>
<g id="Calque_1">
	<g id="Calque_1_1_">
	</g>
	<g id="Calque_2_1_">
	</g>
</g>
<g id="Calque_2">
	<g>
		<path class="st93" d="M63.7,36.6c0,2.7-0.4,5.4-1.2,7.8c-1.2,3.8-3.2,7.2-5.8,10c-0.1,0.1-0.1,0.1-0.2,0.2l-0.1,0.1
			c-0.1,0.1-0.1,0.1-0.2,0.2c-1.6,1.6-3.3,3-5.3,4.2c-3.9,2.3-8.5,3.7-13.4,3.7c-1,0-2-0.1-3-0.2c-0.1,0-0.3,0-0.4,0c0,0,0,0,0,0
			c-1.2-0.2-2.4-0.4-3.6-0.7c-1.4-0.4-2.7-0.9-4-1.5c-0.2-0.1-0.4-0.2-0.6-0.3c-1.3-0.6-2.5-1.3-3.6-2.2c-1.1-0.8-2.2-1.7-3.2-2.7
			c-1.1-1-2-2.2-2.9-3.4c-0.2-0.3-0.4-0.6-0.6-0.9c-0.5-0.8-1-1.6-1.4-2.4c-1.8-3.6-2.9-7.6-2.9-11.9c0-14.4,11.7-26.1,26.1-26.1
			S63.7,22.2,63.7,36.6z"/>
	</g>
	<g>
		<g>
			<path class="st16" d="M32.2,26.2c0,0-8.4,3.2-8.9,12.8c-0.6,13.8,15.9,10.6,15.9,10.6s9.4,1,12-5.9c2.6-6.9-5.7-11.1-5.7-11.1
				S35.4,23.7,32.2,26.2z"/>
		</g>
	</g>
	<g>
		<path class="st108" d="M56.4,54.7c-0.1,0.1-0.1,0.1-0.2,0.2c-1.5,1.5-3.2,2.9-5,4C51.1,59,51,59,50.9,59.1
			c-0.1,0.1-0.2,0.1-0.4,0.2c-3.8,2.2-8.3,3.5-13,3.5c-1,0-2-0.1-3-0.2c-0.1,0-0.3,0-0.4,0c0,0,0,0,0,0c-1.2-0.2-2.4-0.4-3.6-0.7
			c-1.4-0.4-2.7-0.9-4-1.5c-0.2-0.1-0.4-0.2-0.6-0.3c-1.3-0.6-2.5-1.3-3.6-2.2c-1.1-0.8-2.2-1.7-3.2-2.7c1.9-5.2,6.7-15,16.9-16.6
			c0,0,0,0,0.1,0c0.7-0.1,1.4-0.2,2.1-0.2C49.7,38,54.6,48.8,56.4,54.7z"/>
	</g>
	<g>
		<path class="st108" d="M50.9,59.1c-3.9,2.3-8.5,3.7-13.4,3.7c-1,0-2-0.1-3-0.2c-0.1,0-0.3,0-0.4,0c0,0,0,0,0,0
			c-1.2-0.2-2.4-0.4-3.6-0.7c-1.4-0.4-2.7-0.9-4-1.5c-0.2-0.1-0.4-0.2-0.6-0.3c-1.3-0.6-2.5-1.3-3.6-2.2C22.3,54,22.3,51,22.3,51
			l10-7.4l4.9-3.6c0.1,0,0.1,0,0.2,0c2.7,0.1,5,0.6,6.8,1.3c0.3,0.1,0.6,0.2,0.8,0.3c2.5,1.1,3.8,2.2,3.8,2.2S49.9,51.5,50.9,59.1z"
			/>
	</g>
	<g>
		<g>
			<path class="st101" d="M36,34.7l0.2,5.6c0,0,1.1,1.6,4.3,1.7c2.4,0.1,3.3-0.5,3.3-0.5l-0.4-2.8L42.9,36L37,34.9L36,34.7z"/>
		</g>
	</g>
	<g>
		<g>
			<path class="st16" d="M36,34.5c0,0.2,0.1,0.3,0.2,0.5c1.3,2.7,5.8,3.7,7.2,3.7L42.9,36L36,34.5z"/>
		</g>
	</g>
	<g>
		<g>
			<path class="st101" d="M43.7,23.3c0,0,3.2,6.9,2.2,10.8c-1,3.9-4.6,3.4-6.7,2.7s-3.2-2-3.2-2s-2,0.7-3.3-1.1
				c-1.4-1.8-0.6-4,0.5-4.5c1.1-0.5,2.5,0.3,2.5,0.3l-1.1-2C34.6,27.5,38.8,17.1,43.7,23.3z"/>
		</g>
	</g>
	<g>
		<path class="st16" d="M39.7,26.7c-0.1,0-0.2-0.1-0.3-0.2c-0.1-0.1,0-0.3,0.1-0.4l1.6-0.7c0.1-0.1,0.3,0,0.4,0.1
			c0.1,0.1,0,0.3-0.1,0.4l-1.6,0.7C39.7,26.7,39.7,26.7,39.7,26.7z"/>
	</g>
	<g>
		<path class="st16" d="M41.5,34.1c-0.1,0-0.2,0-0.3,0c-0.9-0.3-1-1.3-1-1.3c0-0.1,0-0.2,0.1-0.2c0.1-0.1,0.2-0.1,0.3-0.1l2.1,0.5
			c0.1,0,0.2,0.1,0.2,0.2c0,0.1,0,0.2,0,0.3C42.7,33.4,42.2,34.1,41.5,34.1z M40.8,33.1c0.1,0.2,0.2,0.3,0.5,0.4
			c0.2,0.1,0.5,0,0.6-0.1L40.8,33.1z"/>
	</g>
	<g>
		<path class="st16" d="M35.7,32.3c0,0-0.1,0-0.1,0L32.8,31c-0.1-0.1-0.2-0.2-0.1-0.4c0.1-0.1,0.2-0.2,0.4-0.1l2.8,1.3
			c0.1,0.1,0.2,0.2,0.1,0.4C35.9,32.3,35.8,32.3,35.7,32.3z"/>
	</g>
	<g>
		<path class="st16" d="M33.2,33c-0.1,0-0.1,0-0.2-0.1c-0.1-0.1-0.1-0.3,0-0.4l1.2-1.2c0.1-0.1,0.3-0.1,0.4,0c0.1,0.1,0.1,0.3,0,0.4
			l-1.2,1.2C33.3,33,33.3,33,33.2,33z"/>
	</g>
	<g>
		<path class="st16" d="M39.7,23.7c0,0,1.6-0.2,3.3,0.8c1.7,1,2,2,2,2s1-2.6-1.2-4.9c-2.3-2.3-6.6-2.9-9.1-0.2
			c-2.5,2.7-2.3,5.1-2.3,5.1l3.4,3C35.7,29.5,40.9,28.4,39.7,23.7z"/>
	</g>
	<g>
		<path class="st16" d="M34,22.5c0,0-3.2-6.1-6.5-3.5c-3.2,2.6,0.4,7.8,3.6,8.1C34.4,27.5,34,22.5,34,22.5z"/>
	</g>
	<g>
		<path class="st108" d="M34.6,62.6c-0.1,0-0.3,0-0.4,0c0,0,0,0,0,0c-1.2-0.2-2.4-0.4-3.6-0.7l1.7-18.2l0.1-0.6l3.8-4.4l0-0.1
			c0,0,0,0,0,0c0.1,0.2,0.5,0.8,1.2,1.4c1.3,1.2,3.6,2.6,6.7,1.3c0.5-0.2,0.8-0.1,0.8,0.3C45.2,43.9,39.1,54.8,34.6,62.6z"/>
	</g>
	<g>
		<path class="st104" d="M41.4,42.1c-3.7,0-5.5-3.4-5.6-3.4c-0.1-0.1,0-0.3,0.1-0.4c0.1-0.1,0.3,0,0.4,0.1c0.1,0.2,2.6,4.6,7.6,2.6
			c0.1-0.1,0.3,0,0.4,0.2c0.1,0.1,0,0.3-0.2,0.4C43.1,41.9,42.2,42.1,41.4,42.1z"/>
	</g>
	<g>
		<path class="st100" d="M36.4,34.5c0,0.6-0.4,1-1,1c-0.6,0-1-0.4-1-1c0-0.6,0.4-1,1-1C35.9,33.5,36.4,33.9,36.4,34.5z"/>
	</g>
	<g>
		<path class="st16" d="M40.4,29.6c-0.2,0-0.3-0.1-0.3-0.3v-1.2c0-0.1,0-0.1,0.1-0.2l0.5-0.5c0.1-0.1,0.3-0.1,0.4,0
			c0.1,0.1,0.1,0.3,0,0.4l-0.5,0.5v1.1C40.7,29.4,40.6,29.6,40.4,29.6z"/>
	</g>
	<g>
		<path class="st93" d="M125.7,37c0,3.4-0.7,6.7-1.9,9.7c-0.9,2.2-2.1,4.2-3.5,6.1c-3.3,4.2-8,7.4-13.3,8.9
			c-2.2,0.6-4.5,0.9-6.9,0.9c-0.9,0-1.8,0-2.7-0.1c-0.6-0.1-1.1-0.1-1.7-0.2c-0.6-0.1-1.2-0.2-1.9-0.4c-0.1,0-0.2-0.1-0.4-0.1
			c-1-0.3-1.9-0.6-2.9-0.9c-1.6-0.6-3.2-1.5-4.7-2.4c-0.5-0.3-0.9-0.6-1.3-0.9c-0.9-0.6-1.7-1.3-2.4-2.1c-1.8-1.8-3.4-3.8-4.6-6.1
			c-2-3.6-3.1-7.8-3.1-12.2c0-14.1,11.5-25.6,25.6-25.6S125.7,22.9,125.7,37z"/>
	</g>
	<g>
		<path class="st16" d="M93.7,26c0,0-2.5,2.1-2.7,4.1c-0.2,2.1-0.2,2.1-0.2,2.1s-2.9,0.9-3.8,4.5c-1.2,4.8,2.1,6.5,2.1,6.5l25.5,2.7
			c0,0,3-2.6,2.4-6.8c-0.6-4.2-3.1-5.6-3.1-5.6s0.4-2.7-1-5.4c-1.6-3.1-4.8-3.2-4.8-3.2L93.7,26z"/>
	</g>
	<g>
		<path class="st123" d="M120.2,52.8c-3.3,4.2-8,7.4-13.3,8.9c-2.2,0.6-4.5,0.9-6.9,0.9c-0.9,0-1.8,0-2.7-0.1
			c-0.6-0.1-1.1-0.1-1.7-0.2c-0.6-0.1-1.2-0.2-1.9-0.4c-0.1,0-0.2-0.1-0.4-0.1c-1-0.3-1.9-0.6-2.9-0.9c-1.6-0.6-3.2-1.5-4.7-2.4
			C86,57,86,56.2,86,56.2l4.1-13l0.4-1.3c0.2-0.8,0.7-1.4,1.4-1.8c0.3-0.2,0.7-0.4,1.1-0.5c0.8-0.2,1.7-0.4,2.8-0.5
			c0.3,0,0.7-0.1,1-0.2c1.1-0.2,2.3-0.3,3.6-0.3c0.8,0,1.5,0,2.3,0c0.3,0,0.7,0,1,0c0.4,0,0.8,0.1,1.2,0.1c0.4,0.1,0.9,0.1,1.3,0.2
			c1,0.2,2,0.4,2.9,0.8c2.4,0.9,4.6,2.9,6.3,5.1C117.7,47.6,119.3,50.8,120.2,52.8z"/>
	</g>
	<g>
		<path class="st104" d="M103.9,37.4c0,0,1.8,0.6,2.3,1.4c0.6,0.9-0.5,3.4-3.8,5.3c-2.4,1.4-4.4,1.9-4.4,1.9s-2.1-2.8-2.5-4.6
			c-0.4-1.7,1.1-4,1.1-4L103.9,37.4z"/>
	</g>
	<g>
		<path class="st16" d="M94.4,29.2c0,0-2.2-3.3-2.1-4.9c0-1.6,5.4-7.3,11.1-5.7s7.1,8.4,6.4,11.4c-1.8,7.8-8.7,5.5-8.7,5.5
			S90.4,34,94.4,29.2z"/>
	</g>
	<g>
		<g>
			<g>
				<g>
					<path class="st124" d="M96.7,37.3l0,0.1l0.4,2.7l0.3,2.1c0,0-0.1,0.5,2.3,0.1c3.3-0.6,4.2-2.2,4.2-2.2l-0.5-5l-1,0.3L96.7,37.3
						z"/>
				</g>
			</g>
		</g>
	</g>
	<g>
		<g>
			<g>
				<g>
					<path class="st16" d="M96.7,37.4l0.4,2.7c1.6-0.4,4.4-1.4,5.3-4.1c0.1-0.2,0.1-0.4,0.1-0.6L96.7,37.4L96.7,37.4z"/>
				</g>
			</g>
		</g>
	</g>
	<g>
		<g>
			<g>
				<g>
					<path class="st124" d="M94.1,24.7c0,0-2.2,7.4-0.6,11.2s5.1,2.7,7.2,1.7c2.1-1,2.9-2.5,2.9-2.5s2.1,0.4,3.2-1.6
						c1.1-2,0-4.1-1.2-4.4c-1.2-0.4-2.5,0.6-2.5,0.6l0.8-2.2C103.9,27.6,98.1,17.8,94.1,24.7z"/>
				</g>
			</g>
		</g>
	</g>
	<g>
		<path class="st16" d="M95.4,33.6c-0.1,0-0.2-0.1-0.3-0.2c-0.7-1.5,0.2-3.1,0.2-3.2c0.1-0.1,0.2-0.2,0.4-0.1
			c0.1,0.1,0.2,0.2,0.1,0.4c0,0-0.8,1.5-0.2,2.7c0.1,0.1,0,0.3-0.1,0.4C95.5,33.6,95.5,33.6,95.4,33.6z"/>
	</g>
	<g>
		<path class="st16" d="M103.7,33.1c-0.1,0-0.1,0-0.2-0.1c-0.1-0.1-0.1-0.3-0.1-0.4l1.6-2.3c0.1-0.1,0.3-0.1,0.4-0.1
			c0.1,0.1,0.1,0.3,0.1,0.4l-1.6,2.3C103.9,33,103.8,33.1,103.7,33.1z"/>
	</g>
	<g>
		<path class="st16" d="M105.7,32.3c0,0-1.4,0-1.4,0c-0.2,0-0.3-0.1-0.3-0.3c0-0.2,0.1-0.3,0.3-0.3l1.3,0c0.2,0,0.3,0.1,0.3,0.3
			C106,32.1,105.8,32.3,105.7,32.3z"/>
	</g>
	<g>
		<path class="st16" d="M97,36.2c-0.1,0-0.2,0-0.2,0c-0.6-0.2-1-1-1-1.1c-0.1-0.1,0-0.3,0.1-0.3l2.6-1.3c0.1,0,0.2,0,0.3,0
			c0.1,0.1,0.1,0.2,0.1,0.3c0,0.1-0.6,1.7-1.4,2.3C97.4,36.1,97.2,36.2,97,36.2z M96.4,35c0.1,0.2,0.3,0.5,0.5,0.6
			c0.1,0,0.1,0,0.3-0.1c0.4-0.3,0.7-0.9,0.9-1.4L96.4,35z"/>
	</g>
	<g>
		<path class="st16" d="M99.2,27.9c-0.1,0-0.2,0-0.2-0.1c-0.4-0.5-1.2-0.3-1.2-0.3c-0.1,0-0.3,0-0.4-0.2c-0.1-0.1,0-0.3,0.2-0.3
			c0.1,0,1.2-0.4,1.8,0.5c0.1,0.1,0.1,0.3-0.1,0.4C99.3,27.9,99.2,27.9,99.2,27.9z"/>
	</g>
	<g>
		<path class="st16" d="M93.2,27.9c-0.1,0-0.1,0-0.2-0.1c-0.1-0.1-0.1-0.3,0-0.4c0.1-0.1,0.6-0.6,1.2-0.6c0.3,0,0.6,0.1,0.8,0.4
			c0.1,0.1,0.1,0.3,0,0.4c-0.1,0.1-0.3,0.1-0.4,0c-0.1-0.1-0.3-0.2-0.4-0.2c-0.3,0-0.7,0.3-0.8,0.4C93.3,27.9,93.2,27.9,93.2,27.9z"
			/>
	</g>
	<g>
		<path class="st16" d="M103,29.8c0,0-3.3-1.2-4.7-3.2c-1.4-2.1-1.6-3.2-1.6-3.2s-0.3,1.5-1.3,2c-1.1,0.5-1.8,0.6-1.8,0.6l-0.4,2.1
			l-0.2-5c0,0,2.8-2,3.2-2.1c0.4-0.1,5.6,0.2,6,0.5c0.3,0.3,2.5,4,2.5,4l0.3,1.8L103,29.8z"/>
	</g>
	<g>
		<path class="st16" d="M99.1,29.6c-0.1,0-0.2-0.1-0.2-0.2c-0.1-0.2-0.2-0.4-0.4-0.4c-0.3-0.1-0.8,0.2-0.9,0.4
			c-0.1,0.1-0.3,0.1-0.4,0c-0.1-0.1-0.1-0.3,0-0.4c0.1-0.1,0.7-0.6,1.4-0.5c0.2,0,0.6,0.2,0.8,0.7c0.1,0.1,0,0.3-0.1,0.4
			C99.2,29.6,99.2,29.6,99.1,29.6z"/>
	</g>
	<g>
		<path class="st16" d="M93.6,29.7C93.6,29.7,93.6,29.6,93.6,29.7c-0.2-0.1-0.3-0.2-0.3-0.4c0.2-0.5,0.5-0.8,0.8-0.8
			c0.6,0,0.9,0.6,1,0.7c0.1,0.1,0,0.3-0.1,0.4c-0.1,0.1-0.3,0-0.4-0.1c-0.1-0.2-0.3-0.4-0.5-0.4c-0.1,0-0.2,0.1-0.3,0.5
			C93.9,29.6,93.8,29.7,93.6,29.7z"/>
	</g>
	<g>
		<path class="st104" d="M103.7,37.8c0,0-3.5,3.3-5.5,3.3c-2,0-1.8-1.7-1.8-1.7l0.3,3.9l1.8,0.6l4.5-1.8l2.5-2.8L103.7,37.8z"/>
	</g>
	<g>
		<path class="st104" d="M100,44.1c0,0,1.5,2.1,1.8,5.4c0.3,3.3-1.6,7-1.6,7s-3.1-3.5-3.5-6.1c-0.4-2.6,1-6.3,1-6.3
			s-1.4,3.1-1.7,5.1c-0.3,1.9-0.8,4.4-0.8,4.4s-1.9-2.5-1.7-5.4c0.1-2.9,3.3-4.8,3.3-4.8L100,44.1z"/>
	</g>
	<g>
		<path class="st106" d="M99.6,45.1c-0.8,0-1.9-0.3-2.1-0.3c0,0,0,0,0,0c-0.1,0-0.1-0.1-0.1-0.1c-0.2-0.4-1.1-2.7-0.5-3.4
			c0.1-0.2,0.3-0.3,0.7-0.3c0.3,0,0.6,0.2,0.7,0.4c0.5,0.8-0.1,2.3-0.3,3c0.6,0.1,1.6,0.3,2.1,0.2c0.5-0.1,0.8-1.8,0.6-2.8
			c0-0.1,0.1-0.3,0.2-0.3c0.1,0,0.3,0.1,0.3,0.2c0.2,0.9,0.1,3.1-1,3.4C100.1,45,99.9,45.1,99.6,45.1z M97.5,41.4
			c-0.1,0-0.2,0.1-0.2,0.1c-0.2,0.3,0,1.3,0.3,2.2c0.3-0.8,0.4-1.8,0.2-2.1C97.8,41.4,97.7,41.4,97.5,41.4
			C97.5,41.4,97.5,41.4,97.5,41.4z"/>
	</g>
	<g>
		<path class="st106" d="M99.5,49.5c-0.2,0-0.4-0.1-0.6-0.3c-0.7-0.9-0.1-4,0-4.4c0-0.1,0.1-0.2,0.3-0.2c0.1,0,0.2,0.1,0.3,0.2
			c0.2,0.6,1.2,3.5,0.6,4.4C100,49.4,99.8,49.5,99.5,49.5C99.5,49.5,99.5,49.5,99.5,49.5z M99.3,46c-0.2,1.2-0.3,2.5,0.1,2.9
			c0,0.1,0.1,0.1,0.2,0.1c0.1,0,0.1,0,0.1-0.1C99.9,48.5,99.7,47.2,99.3,46z"/>
	</g>
	<g>
		<path class="st123" d="M93.8,61.8c-0.1,0-0.2-0.1-0.4-0.1c-1-0.3-1.9-0.6-2.9-0.9c-1.6-0.6-3.2-1.5-4.7-2.4
			c-0.5-0.3-0.9-0.6-1.3-0.9c-0.9-0.6-1.7-1.3-2.4-2.1c0-0.1,0-0.1,0-0.2c1.4-6.3,4.1-10.2,6.3-12.5c2-2,3.9-2.8,3.9-2.8
			c0,0.1-0.3,0.1-0.3,0.2c-0.2,0.8-0.3,1.9-0.3,3.3C91.7,48.1,92.7,55.6,93.8,61.8z"/>
	</g>
	<g>
		<path class="st93" d="M183.4,37.4c0,4.6-1.2,8.9-3.4,12.6c-0.1,0.1-0.2,0.3-0.3,0.4c-0.2,0.3-0.4,0.7-0.6,1
			c-0.1,0.1-0.2,0.3-0.3,0.4c-0.1,0.2-0.2,0.3-0.4,0.5c-0.8,1.2-1.8,2.2-2.8,3.2c-1.6,1.6-3.5,2.9-5.5,4c-1.6,0.9-3.3,1.6-5.1,2.1
			c-0.1,0-0.2,0.1-0.4,0.1c-2.1,0.5-4.2,0.8-6.4,0.8c-1.8,0-3.5-0.2-5.2-0.5c-1-0.2-2-0.5-3-0.8c-3.6-1.2-6.7-3.2-9.4-5.8
			c-1.2-1.2-2.3-2.5-3.3-3.9c-0.4-0.6-0.8-1.3-1.2-1.9c-2-3.6-3.1-7.7-3.1-12.1c0-13.9,11.3-25.2,25.2-25.2
			C172.1,12.3,183.4,23.6,183.4,37.4z"/>
	</g>
	<g>
		<g>
			<path d="M157,24.2c0,0-9.1-7.4-17.2,7c-8.1,14.4,0,23.4,10.2,19.5c10.2-3.9,7.5-22.3,7.5-22.3L157,24.2z"/>
		</g>
	</g>
	<g>
		<g>
			<path d="M167.5,28.9c0,0,1.6-3.8,1.3-5.5c-0.3-1.7-7-6.6-12.5-3.9c-5.6,2.7-5.9,10.1-4.6,13.1c3.3,7.8,10.1,4.1,10.1,4.1
				S172.5,33.3,167.5,28.9z"/>
		</g>
	</g>
	<g>
		<g>
			<g>
				<path class="st125" d="M175.6,55.6c-1.6,1.6-3.5,2.9-5.5,4c-1.6,0.9-3.3,1.6-5.1,2.1c-0.1,0-0.2,0.1-0.4,0.1
					c-2.1,0.5-4.2,0.8-6.4,0.8c-1.8,0-3.5-0.2-5.2-0.5c-1-0.2-2-0.5-3-0.8c0.4-8.6,0.9-17.1,1.8-18.1c0.2-0.2,0.4-0.3,0.6-0.5
					c0.1,0,0.1,0,0.1,0c2.5-1.4,9.3-2.6,14.9-0.8c1.5,0.5,2.8,1.1,4,2C173.7,45.4,175,50.2,175.6,55.6z"/>
			</g>
		</g>
	</g>
	<g>
		<g>
			<g>
				<g>
					<g>
						<path class="st102" d="M166.6,37.8l0,0.2l0,2.9l0,2.3c0,0,0.2,0.5-2.4,0.5c-3.5-0.1-5.2-1.6-5.2-1.6v-5.2l1.1,0.1L166.6,37.8z
							"/>
					</g>
				</g>
			</g>
		</g>
	</g>
	<g>
		<g>
			<g>
				<g>
					<g>
						<path d="M166.6,37.9l0,2.9c-1.7-0.1-4.9-0.7-6.3-3.3c-0.1-0.2-0.2-0.4-0.2-0.6L166.6,37.9L166.6,37.9z"/>
					</g>
				</g>
			</g>
		</g>
	</g>
	<g>
		<g>
			<g>
				<g>
					<g>
						<path class="st102" d="M167,24.2c0,0,3.7,7.3,2.7,11.5c-0.9,4.3-4.8,3.8-7.1,3.1c-2.3-0.7-3.5-2-3.5-2s-2.1,0.8-3.6-1.1
							c-1.5-1.9-0.8-4.2,0.4-4.8c1.2-0.6,2.7,0.2,2.7,0.2l-1.3-2.1C157.3,29,161.5,17.7,167,24.2z"/>
					</g>
				</g>
			</g>
		</g>
	</g>
	<g>
		<g>
			<path d="M167.1,33.7C167.1,33.7,167.1,33.7,167.1,33.7c-0.2,0-0.3-0.2-0.3-0.3c0.4-1.4-0.7-2.8-0.7-2.8c-0.1-0.1-0.1-0.3,0-0.4
				c0.1-0.1,0.3-0.1,0.4,0c0.1,0.1,1.3,1.6,0.8,3.3C167.4,33.6,167.2,33.7,167.1,33.7z"/>
		</g>
	</g>
	<g>
		<g>
			<path d="M158.4,34.7c-0.1,0-0.1,0-0.2-0.1l-2.1-2.1c-0.1-0.1-0.1-0.3,0-0.4c0.1-0.1,0.3-0.1,0.4,0l2.1,2.1c0.1,0.1,0.1,0.3,0,0.4
				C158.5,34.6,158.5,34.7,158.4,34.7z"/>
		</g>
	</g>
	<g>
		<g>
			<path d="M156.2,34.2c-0.1,0-0.2-0.1-0.3-0.2c0-0.1,0.1-0.3,0.2-0.3l1.4-0.3c0.1,0,0.3,0.1,0.3,0.2c0,0.1-0.1,0.3-0.2,0.3
				L156.2,34.2C156.3,34.2,156.2,34.2,156.2,34.2z"/>
		</g>
	</g>
	<g>
		<g>
			<path d="M165.8,36.7c-0.1,0-0.3,0-0.4-0.1c-1-0.4-1.8-2.1-1.9-2.1c-0.1-0.1,0-0.2,0-0.3c0.1-0.1,0.2-0.1,0.3-0.1l3,0.8
				c0.1,0,0.2,0.2,0.2,0.3c0,0.1-0.2,1.1-0.8,1.4C166.1,36.7,166,36.7,165.8,36.7z M164.4,34.8c0.3,0.5,0.8,1.1,1.3,1.3
				c0.2,0.1,0.3,0,0.3,0c0.2-0.1,0.4-0.5,0.5-0.8L164.4,34.8z"/>
		</g>
	</g>
	<g>
		<g>
			<path d="M162.2,28.5c0,0-0.1,0-0.1,0c-0.1-0.1-0.2-0.2-0.1-0.4c0.5-1,1.7-0.8,1.8-0.8c0.1,0,0.2,0.2,0.2,0.3
				c0,0.1-0.2,0.2-0.3,0.2c0,0-0.9-0.1-1.2,0.5C162.4,28.4,162.3,28.5,162.2,28.5z"/>
		</g>
	</g>
	<g>
		<g>
			<path d="M166.7,27.4c0,0-0.1,0-0.1,0c-0.1-0.1-0.2-0.2-0.1-0.4c0.2-0.3,0.5-0.5,0.8-0.6c0.7-0.1,1.3,0.4,1.3,0.4
				c0.1,0.1,0.1,0.3,0,0.4c-0.1,0.1-0.3,0.1-0.4,0c-0.1-0.1-0.6-0.4-0.9-0.3c-0.2,0-0.3,0.1-0.4,0.3
				C166.9,27.4,166.8,27.4,166.7,27.4z"/>
		</g>
	</g>
	<g>
		<g>
			<path d="M167.7,30.6c-0.1,0-0.2-0.1-0.3-0.2l-0.3-1.4c0-0.1,0-0.1,0-0.2l0.5-0.7c0.1-0.1,0.3-0.1,0.4-0.1
				c0.1,0.1,0.1,0.3,0.1,0.4l-0.4,0.6l0.2,1.3C168,30.4,167.9,30.5,167.7,30.6C167.8,30.5,167.7,30.6,167.7,30.6z"/>
		</g>
	</g>
	<g>
		<g>
			<path d="M163.6,31.1c-0.1,0-0.2-0.1-0.3-0.2l-0.2-1.4c0-0.1,0-0.2,0.1-0.2l0.7-0.8c0.1-0.1,0.3-0.1,0.4,0c0.1,0.1,0.1,0.3,0,0.4
				l-0.6,0.7l0.2,1.3C163.9,30.9,163.8,31,163.6,31.1C163.6,31.1,163.6,31.1,163.6,31.1z"/>
		</g>
	</g>
	<g>
		<g>
			<path d="M158.6,31.1c0,0,3.2-1.8,4.2-4.2c1.1-2.4,1.1-3.6,1.1-3.6s0.5,1.5,1.8,1.8c1.2,0.3,1.9,0.3,1.9,0.3l0.9,2.2l-0.7-5.2
				c0,0-3.3-1.6-3.7-1.5c-0.4,0-5.8,1.3-6.1,1.6c-0.3,0.3-1.8,4.6-1.8,4.6l0,1.9L158.6,31.1z"/>
		</g>
	</g>
	<g>
		<g>
			<g>
				<path class="st125" d="M153,62.1c-1-0.2-2-0.5-3-0.8c-3.6-1.2-6.7-3.2-9.4-5.8c3.9-8.4,11-12.3,11.8-12.8c0.1,0,0.1,0,0.1,0
					S151.9,56.3,153,62.1z"/>
			</g>
		</g>
	</g>
	<g>
		<g>
			<path class="st125" d="M178.5,52.4c-0.8,1.2-1.8,2.2-2.8,3.2c-1.6,1.6-3.5,2.9-5.5,4l-2.7-17.8C167.9,41.9,173.8,42.9,178.5,52.4
				z"/>
		</g>
	</g>
	<g>
		<path class="st119" d="M164.2,43.8c-0.2,0-0.3,0-0.5,0c-3.3-0.1-5.4-2-5.5-2c-0.1-0.1-0.1-0.3,0-0.4c0.1-0.1,0.3-0.1,0.4,0
			c0,0,2,1.8,5.1,1.9c3,0.1,3.7-0.7,3.7-0.7c0.1-0.1,0.3-0.1,0.4,0c0.1,0.1,0.1,0.3,0.1,0.4C167.8,43,167.1,43.8,164.2,43.8z"/>
	</g>
</g>
</svg>
