<?xml version="1.0" encoding="utf-8"?>
<!-- Generator: Adobe Illustrator 24.3.0, SVG Export Plug-In . SVG Version: 6.00 Build 0)  -->
<svg version="1.1" xmlns="http://www.w3.org/2000/svg" xmlns:xlink="http://www.w3.org/1999/xlink" x="0px" y="0px"
	 viewBox="0 0 134 123" style="enable-background:new 0 0 134 123;" xml:space="preserve">
<style type="text/css">
	.st0{fill:#F3F6FB;}
	.st1{fill:none;stroke:#2B2E81;stroke-width:2;stroke-miterlimit:10;}
	.st2{fill:none;}
	.st3{fill:#E0E1E0;}
	.st4{fill:#F1F0F0;}
	.st5{fill:#273339;}
	.st6{fill:#EBEBEB;}
	.st7{fill:#2F3180;}
	.st8{fill:#FFFFFF;}
	.st9{opacity:0.3;fill:#010101;enable-background:new    ;}
	.st10{fill:#B97A65;}
	.st11{opacity:0.2;fill:#010101;enable-background:new    ;}
	.st12{fill:#A34F40;}
	.st13{fill:#DE5854;}
	.st14{fill:#9F5C54;}
	.st15{opacity:0.2;}
	.st16{fill:#010101;}
	.st17{fill:#E9B376;}
	.st18{opacity:0.8;fill:#FFFFFF;enable-background:new    ;}
	.st19{fill:#D58745;}
	.st20{opacity:0.4;fill:#FFFFFF;enable-background:new    ;}
	.st21{fill:#EEC1BB;}
	.st22{fill:#D9857D;}
	.st23{fill:#F5F6F6;}
	.st24{fill:#FAFBFC;}
	.st25{fill:#FCBF9E;}
	.st26{fill:#F8996E;}
	.st27{fill:#465B64;}
	.st28{opacity:0.3;}
	.st29{opacity:0.25;fill:#FFFFFF;enable-background:new    ;}
	.st30{opacity:0.1;fill:#010101;enable-background:new    ;}
	.st31{opacity:0.1;fill:#FFFFFF;enable-background:new    ;}
	.st32{opacity:5.000000e-02;fill:#010101;enable-background:new    ;}
	.st33{opacity:0.15;fill:#FFFFFF;enable-background:new    ;}
	.st34{opacity:0.4;fill:#010101;enable-background:new    ;}
	.st35{opacity:0.5;fill:#010101;enable-background:new    ;}
	.st36{opacity:0.25;fill:#010101;enable-background:new    ;}
	.st37{opacity:0.15;fill:#010101;enable-background:new    ;}
	.st38{opacity:0.45;fill:#010101;enable-background:new    ;}
	.st39{opacity:0.35;fill:#010101;enable-background:new    ;}
	.st40{fill:#F8A7A8;}
	.st41{fill:#384850;}
	.st42{opacity:0.6;fill:#FFFFFF;enable-background:new    ;}
	.st43{opacity:0.1;fill:#2F3180;enable-background:new    ;}
	.st44{opacity:0.2;fill:#2F3180;enable-background:new    ;}
	.st45{fill:#B26769;}
	.st46{fill:#F3908F;}
	.st47{opacity:0.7;fill:#FFFFFF;enable-background:new    ;}
	.st48{fill:#AF7562;}
	.st49{fill:#70453A;}
	.st50{opacity:0.5;fill:#FFFFFF;enable-background:new    ;}
	.st51{opacity:0.3;fill:#FFFFFF;enable-background:new    ;}
	.st52{opacity:0.6;}
	.st53{opacity:0.7;}
	.st54{fill:#884D4D;}
	.st55{fill:#C8856A;}
	.st56{fill:#B06252;}
	.st57{fill:none;stroke:#000000;stroke-miterlimit:10;}
	.st58{fill:#D51F26;}
	.st59{fill:#E6E6E5;}
	.st60{opacity:0.15;}
	.st61{opacity:0.2;fill:#FFFFFF;enable-background:new    ;}
	.st62{opacity:0.4;}
	.st63{clip-path:url(#SVGID_2_);}
	.st64{opacity:0.1;}
	.st65{clip-path:url(#SVGID_4_);}
	.st66{clip-path:url(#SVGID_6_);}
	.st67{fill:#FFFFFF;stroke:#000000;stroke-width:2;stroke-miterlimit:10;}
	.st68{opacity:0.5;}
	.st69{fill:#FBBD9D;}
	.st70{fill:#EB9A6F;}
	.st71{opacity:0.6;fill:#010101;enable-background:new    ;}
	.st72{fill:#FAC2BE;}
	.st73{fill:#EC847E;}
	.st74{opacity:0.9;}
	.st75{fill:#803F3C;}
	.st76{fill:#631112;}
	.st77{fill:#FCB574;}
	.st78{fill:#ED893F;}
	.st79{opacity:0.9;fill:#FFFFFF;enable-background:new    ;}
	.st80{fill:#C8C7C6;}
	.st81{opacity:0.6;fill:#2F3180;enable-background:new    ;}
	.st82{fill:#FDFEFF;}
	.st83{fill:#D4766B;}
	.st84{opacity:0.3;fill:#384850;enable-background:new    ;}
	.st85{fill:#F598B9;}
	.st86{clip-path:url(#SVGID_8_);}
	.st87{clip-path:url(#SVGID_10_);}
	.st88{clip-path:url(#SVGID_12_);}
	.st89{fill:#9B6E66;}
	.st90{fill:#714D46;}
	.st91{fill:#C78976;}
	.st92{fill:#935C4D;}
	.st93{fill:#EDDDD6;}
	.st94{fill:#474780;}
	.st95{fill:#E56445;}
	.st96{fill:#FCD69F;}
	.st97{fill:#FEBF6A;}
	.st98{fill:#2D328F;}
	.st99{fill:#9492C7;}
	.st100{fill:#7470B3;}
	.st101{fill:#F8A398;}
	.st102{fill:#F3C0BC;}
	.st103{fill:#7A491D;}
	.st104{fill:#FCB45D;}
	.st105{fill:#608558;}
	.st106{fill:#F47351;}
	.st107{fill:#B77E34;}
	.st108{fill:#7D6154;}
	.st109{fill:#50784A;}
	.st110{fill:#F17E65;}
	.st111{fill:#142148;}
	.st112{fill:#F8B384;}
	.st113{fill:#E38B6D;}
	.st114{fill:#758BC6;}
	.st115{fill:#46467F;}
	.st116{fill:#FCB35B;}
	.st117{fill:#C49576;}
	.st118{fill:#F7734F;}
	.st119{fill:#7772D3;}
	.st120{fill:#D19865;}
	.st121{fill:#507849;}
	.st122{fill:#FCA397;}
	.st123{fill:#E18B76;}
	.st124{fill:#B27E50;}
	.st125{fill:#EFCB3A;}
	.st126{fill:#EFADA3;}
</style>
<g id="Calque_1">
	<g id="Calque_1_1_">
	</g>
	<g id="Calque_2_1_">
		<g>
			<path class="st93" d="M113.5,63.2c0,9.2-2.7,17.9-7.3,25.1c-1,1.5-2.1,3-3.2,4.5c-0.1,0.2-0.3,0.3-0.4,0.5c-0.9,1-1.8,2-2.7,3
				c-1.5,1.5-3.2,2.9-4.9,4.2c0,0-0.1,0.1-0.2,0.1c-0.4,0.3-0.7,0.5-1.1,0.8s-0.9,0.6-1.3,0.9c-0.1,0.1-0.2,0.1-0.3,0.2
				c-1.3,0.8-2.6,1.6-3.9,2.3c-0.3,0.2-0.6,0.3-0.9,0.5c-1.5,0.7-2.9,1.3-4.5,1.9c-2,0.7-4.1,1.3-6.2,1.8c-3.1,0.7-6.3,1-9.6,1
				c-0.7,0-1.3,0-2,0c-0.8,0-1.5-0.1-2.2-0.1c-0.1,0-0.1,0-0.1,0c-1.4-0.1-2.8-0.3-4.1-0.6c-0.8-0.1-1.5-0.3-2.3-0.5
				c-2.2-0.5-4.4-1.2-6.5-2c-1.8-0.7-3.6-1.5-5.3-2.5c0,0-0.1,0-0.1-0.1c-0.2-0.1-0.4-0.2-0.6-0.3c-0.6-0.3-1.2-0.7-1.8-1.1
				c-0.5-0.3-1.1-0.7-1.6-1.1c-1-0.7-1.9-1.4-2.8-2.1c-0.1-0.1-0.2-0.2-0.3-0.2c-1.3-1.1-2.5-2.2-3.7-3.4c-0.3-0.3-0.6-0.7-1-1
				c-0.7-0.8-1.5-1.6-2.1-2.5c-0.1-0.2-0.3-0.3-0.4-0.5c0,0,0,0,0-0.1c-0.8-1-1.5-2-2.2-3.1c-4.8-7.3-7.5-16-7.5-25.4
				c0-25.8,20.9-46.6,46.6-46.6S113.5,37.5,113.5,63.2z"/>
		</g>
		<g>
			<path class="st16" d="M87.8,73c0,0-0.9-46.1-17.2-47.8c-16.3-1.6-18.2,9.9-18.2,9.9s-4.1,1.4-4.9,7.6c-0.8,6.2-1.2,30.9-1.2,30.9
				l36.8,2.1L87.8,73z"/>
		</g>
		<g>
			<path class="st7" d="M104.8,90c-0.6,1-1.2,1.9-1.8,2.8c-0.1,0.2-0.3,0.3-0.4,0.5c-0.9,1-1.8,2-2.7,3c-1.5,1.5-3.2,2.9-4.9,4.2
				c-0.8,0.6-1.7,1.2-2.6,1.8c-0.1,0.1-0.2,0.1-0.3,0.2c-1.3,0.8-2.6,1.6-3.9,2.3c-0.3,0.2-0.6,0.3-0.9,0.5
				c-1.5,0.7-2.9,1.3-4.5,1.9c-2,0.7-4.1,1.3-6.2,1.8c-3.1,0.7-6.3,1-9.6,1c-0.7,0-1.3,0-2,0c-0.8,0-1.5-0.1-2.2-0.1
				c-0.1,0-0.1,0-0.1,0c-1.4-0.1-2.8-0.3-4.1-0.6c-0.8-0.1-1.5-0.3-2.3-0.5c-2.2-0.5-4.4-1.2-6.5-2c-1.8-0.7-3.6-1.5-5.3-2.5
				c0,0-0.1,0-0.1-0.1c-0.2-0.1-0.4-0.2-0.6-0.3c-0.6-0.3-1.2-0.7-1.8-1.1c-3.1-12.3-4.4-23.5-0.5-28c0.2-0.2,0.4-0.5,0.7-0.7
				c0.9-0.8,1.9-1.5,2.9-2.2c0,0,0.1,0,0.1-0.1c1.7-1.1,3.5-2,5.4-2.8c0,0,0,0,0.1,0c12.2-5.1,28-4.3,36.6-0.7
				C92.7,70.5,99.5,80.6,104.8,90z"/>
		</g>
		<g>
			<g>
				<g>
					<g>
						<path class="st102" d="M59.4,56.5v11.3c0,0,2,3.3,8.7,3.8c4.9,0.4,6.5-2.1,6.5-2.1l-1.2-9.9l-12-2.6L59.4,56.5z"/>
					</g>
				</g>
			</g>
		</g>
		<g>
			<g>
				<g>
					<g>
						<path class="st16" d="M59.4,55.8c0,0.3,0.1,0.7,0.3,1.1c2.5,5.7,11.4,8,14.3,8.3l-0.7-5.6L59.4,55.8z"/>
					</g>
				</g>
			</g>
		</g>
		<g>
			<g>
				<path class="st8" d="M95.3,95.9l-0.5,4.6c-0.4,0.3-0.7,0.5-1.1,0.8l0.6-5.6c0.8-7-2.7-15.6-2.7-15.7c-0.1-0.3,0-0.5,0.3-0.6
					s0.5,0,0.7,0.3C92.7,80.1,96.1,88.7,95.3,95.9z"/>
			</g>
		</g>
		<g>
			<g>
				<g>
					<g>
						<path class="st102" d="M75.9,33.8c0,0,5.9,14.2,3.6,22.1s-9.5,6.5-13.8,4.9s-6.3-4.3-6.3-4.3s-4.1,1.3-6.7-2.5
							c-2.6-3.8-0.9-8.1,1.4-9c2.3-1,5,0.8,5,0.8L57,41.7C57,41.6,66.4,20.9,75.9,33.8z"/>
					</g>
				</g>
			</g>
		</g>
		<g>
			<path class="st16" d="M74.9,51.7c-0.1,0-0.1,0-0.2,0c-0.3-0.1-0.4-0.4-0.3-0.6c0.9-2.5-1-5.4-1-5.4c-0.2-0.2-0.1-0.5,0.1-0.7
				s0.5-0.1,0.7,0.1c0.1,0.1,2.2,3.3,1.2,6.3C75.3,51.6,75.1,51.7,74.9,51.7z"/>
		</g>
		<g>
			<path class="st16" d="M58.4,52.4c-0.1,0-0.3-0.1-0.4-0.2l-3.7-4.1c-0.2-0.2-0.2-0.5,0-0.7s0.5-0.2,0.7,0l3.7,4.1
				c0.2,0.2,0.2,0.5,0,0.7C58.6,52.4,58.5,52.4,58.4,52.4z"/>
		</g>
		<g>
			<path class="st16" d="M54.3,51.2c-0.2,0-0.5-0.2-0.5-0.4c0-0.3,0.2-0.5,0.4-0.6l2.7-0.3c0.3,0,0.5,0.2,0.6,0.4
				c0,0.3-0.2,0.5-0.4,0.6L54.3,51.2C54.4,51.2,54.4,51.2,54.3,51.2z"/>
		</g>
		<g>
			<path class="st16" d="M77.9,40.3L77.9,40.3l-2.6-0.5c-0.3-0.1-0.4-0.3-0.4-0.6c0.1-0.3,0.3-0.4,0.6-0.4l2.5,0.5
				c0.3,0.1,0.4,0.3,0.4,0.6C78.4,40.1,78.2,40.3,77.9,40.3z"/>
		</g>
		<g>
			<path class="st16" d="M67.5,41.6c-0.2,0-0.4-0.1-0.5-0.3s0-0.5,0.2-0.7l3.3-1.6c0.2-0.1,0.5,0,0.7,0.2c0.1,0.2,0,0.5-0.2,0.7
				l-3.3,1.6C67.6,41.6,67.6,41.6,67.5,41.6z"/>
		</g>
		<g>
			<path class="st16" d="M76.8,46.1c-0.2,0-0.4-0.1-0.5-0.4l-0.7-2.6c0-0.2,0-0.3,0.1-0.5l0.8-0.9c0.2-0.2,0.5-0.2,0.7-0.1
				c0.2,0.2,0.2,0.5,0.1,0.7l-0.7,0.8l0.6,2.3c0.1,0.3-0.1,0.5-0.3,0.6C76.9,46,76.8,46.1,76.8,46.1z"/>
		</g>
		<g>
			<path class="st16" d="M68.7,46.6c-0.2,0-0.4-0.1-0.5-0.4l-0.7-2.6c0-0.2,0-0.3,0.1-0.5l1.1-1.2c0.2-0.2,0.5-0.2,0.7,0
				s0.2,0.5,0,0.7l-0.9,1l0.6,2.3c0.1,0.3-0.1,0.5-0.3,0.6C68.7,46.6,68.7,46.6,68.7,46.6z"/>
		</g>
		<g>
			<path class="st16" d="M79.9,38.8c0,0-3.9-0.8-6.7-0.7c-2.7,0.1-2.7,0.1-2.7,0.1l-1.1-4.4v4.8c0,0-1.9,0.3-3.9,1.3
				c-1.9,1-3.2,2.2-3.2,2.2l-1.8-3.7l0.8,4.7l-2.2,2.6l-3.4-3.1l2.1-6.5c0,0,5.1-7.1,5.5-7.2s7.7-0.5,7.7-0.5s6.3,2.5,6.4,2.7
				C77.6,31.3,79.9,38.8,79.9,38.8z"/>
		</g>
		<g>
			<path class="st8" d="M68.9,71.8c-2.9,0-6.5-0.8-10.3-3.4c-0.2-0.2-0.3-0.5-0.1-0.7s0.5-0.3,0.7-0.1c8.7,6,15.6,2,15.9,1.9
				c0.2-0.1,0.5-0.1,0.7,0.2c0.1,0.2,0.1,0.5-0.2,0.7C75.6,70.3,72.9,71.8,68.9,71.8z"/>
		</g>
		<g>
			<path class="st7" d="M62.6,109.7c-1.4-0.1-2.8-0.3-4.1-0.6c-0.8-0.1-1.5-0.3-2.3-0.5c-2.2-0.5-4.4-1.2-6.5-2
				c-1.8-0.7-3.6-1.5-5.3-2.5c0,0-0.1,0-0.1-0.1c-0.2-0.1-0.4-0.2-0.6-0.3c-0.6-0.3-1.2-0.7-1.8-1.1c-0.5-0.3-1.1-0.7-1.6-1.1
				c-1-0.7-1.9-1.4-2.8-2.1c-0.1-0.1-0.2-0.2-0.3-0.2c-1.3-1.1-2.5-2.2-3.7-3.4c-0.3-0.3-0.6-0.7-1-1c-0.7-0.8-1.5-1.6-2.1-2.5
				c-0.1-0.2-0.3-0.3-0.4-0.5c0,0,0,0,0-0.1c3.3-8.3,7.6-13.7,11.4-17.2c1.3-1.2,2.5-2.1,3.5-2.8c0,0,0.1,0,0.1-0.1
				c2.8-2,5-2.7,5.4-2.8c0,0,0,0,0.1,0C50.5,68.8,62.6,109.7,62.6,109.7z"/>
		</g>
		<g>
			<path class="st16" d="M73.5,56.1c-1.2,0-2.6-1.2-3-1.5c-0.2-0.1-0.2-0.4-0.1-0.6c0.1-0.2,0.3-0.3,0.5-0.3l4.6,0.1
				c0.2,0,0.4,0.1,0.5,0.3s0,0.4-0.1,0.5c0,0-0.7,0.7-1.7,1.3C73.9,56,73.7,56.1,73.5,56.1z M72.5,54.7c0.5,0.3,0.9,0.4,1.1,0.3
				c0.2-0.1,0.3-0.2,0.5-0.3H72.5z"/>
		</g>
		<g>
			<path class="st8" d="M59.4,56.3c0,1.3-1.1,2.4-2.4,2.4c-1.3,0-2.4-1.1-2.4-2.4c0-1.3,1.1-2.4,2.4-2.4
				C58.3,53.9,59.4,55,59.4,56.3z"/>
		</g>
	</g>
</g>
<g id="Calque_2">
</g>
</svg>
