<?xml version="1.0" encoding="utf-8"?>
<!-- Generator: Adobe Illustrator 24.3.0, SVG Export Plug-In . SVG Version: 6.00 Build 0)  -->
<svg version="1.1" xmlns="http://www.w3.org/2000/svg" xmlns:xlink="http://www.w3.org/1999/xlink" x="0px" y="0px"
	 viewBox="0 0 134 123" style="enable-background:new 0 0 134 123;" xml:space="preserve">
<style type="text/css">
	.st0{fill:#F3F6FB;}
	.st1{fill:none;stroke:#2B2E81;stroke-width:2;stroke-miterlimit:10;}
	.st2{fill:none;}
	.st3{fill:#E0E1E0;}
	.st4{fill:#F1F0F0;}
	.st5{fill:#273339;}
	.st6{fill:#EBEBEB;}
	.st7{fill:#2F3180;}
	.st8{fill:#FFFFFF;}
	.st9{opacity:0.3;fill:#010101;enable-background:new    ;}
	.st10{fill:#B97A65;}
	.st11{opacity:0.2;fill:#010101;enable-background:new    ;}
	.st12{fill:#A34F40;}
	.st13{fill:#DE5854;}
	.st14{fill:#9F5C54;}
	.st15{opacity:0.2;}
	.st16{fill:#010101;}
	.st17{fill:#E9B376;}
	.st18{opacity:0.8;fill:#FFFFFF;enable-background:new    ;}
	.st19{fill:#D58745;}
	.st20{opacity:0.4;fill:#FFFFFF;enable-background:new    ;}
	.st21{fill:#EEC1BB;}
	.st22{fill:#D9857D;}
	.st23{fill:#F5F6F6;}
	.st24{fill:#FAFBFC;}
	.st25{fill:#FCBF9E;}
	.st26{fill:#F8996E;}
	.st27{fill:#465B64;}
	.st28{opacity:0.3;}
	.st29{opacity:0.25;fill:#FFFFFF;enable-background:new    ;}
	.st30{opacity:0.1;fill:#010101;enable-background:new    ;}
	.st31{opacity:0.1;fill:#FFFFFF;enable-background:new    ;}
	.st32{opacity:5.000000e-02;fill:#010101;enable-background:new    ;}
	.st33{opacity:0.15;fill:#FFFFFF;enable-background:new    ;}
	.st34{opacity:0.4;fill:#010101;enable-background:new    ;}
	.st35{opacity:0.5;fill:#010101;enable-background:new    ;}
	.st36{opacity:0.25;fill:#010101;enable-background:new    ;}
	.st37{opacity:0.15;fill:#010101;enable-background:new    ;}
	.st38{opacity:0.45;fill:#010101;enable-background:new    ;}
	.st39{opacity:0.35;fill:#010101;enable-background:new    ;}
	.st40{fill:#F8A7A8;}
	.st41{fill:#384850;}
	.st42{opacity:0.6;fill:#FFFFFF;enable-background:new    ;}
	.st43{opacity:0.1;fill:#2F3180;enable-background:new    ;}
	.st44{opacity:0.2;fill:#2F3180;enable-background:new    ;}
	.st45{fill:#B26769;}
	.st46{fill:#F3908F;}
	.st47{opacity:0.7;fill:#FFFFFF;enable-background:new    ;}
	.st48{fill:#AF7562;}
	.st49{fill:#70453A;}
	.st50{opacity:0.5;fill:#FFFFFF;enable-background:new    ;}
	.st51{opacity:0.3;fill:#FFFFFF;enable-background:new    ;}
	.st52{opacity:0.6;}
	.st53{opacity:0.7;}
	.st54{fill:#884D4D;}
	.st55{fill:#C8856A;}
	.st56{fill:#B06252;}
	.st57{fill:none;stroke:#000000;stroke-miterlimit:10;}
	.st58{fill:#D51F26;}
	.st59{fill:#E6E6E5;}
	.st60{opacity:0.15;}
	.st61{opacity:0.2;fill:#FFFFFF;enable-background:new    ;}
	.st62{opacity:0.4;}
	.st63{clip-path:url(#SVGID_2_);}
	.st64{opacity:0.1;}
	.st65{clip-path:url(#SVGID_4_);}
	.st66{clip-path:url(#SVGID_6_);}
	.st67{fill:#FFFFFF;stroke:#000000;stroke-width:2;stroke-miterlimit:10;}
	.st68{opacity:0.5;}
	.st69{fill:#FBBD9D;}
	.st70{fill:#EB9A6F;}
	.st71{opacity:0.6;fill:#010101;enable-background:new    ;}
	.st72{fill:#FAC2BE;}
	.st73{fill:#EC847E;}
	.st74{opacity:0.9;}
	.st75{fill:#803F3C;}
	.st76{fill:#631112;}
	.st77{fill:#FCB574;}
	.st78{fill:#ED893F;}
	.st79{opacity:0.9;fill:#FFFFFF;enable-background:new    ;}
	.st80{fill:#C8C7C6;}
	.st81{opacity:0.6;fill:#2F3180;enable-background:new    ;}
	.st82{fill:#FDFEFF;}
	.st83{fill:#D4766B;}
	.st84{opacity:0.3;fill:#384850;enable-background:new    ;}
	.st85{fill:#F598B9;}
	.st86{clip-path:url(#SVGID_8_);}
	.st87{clip-path:url(#SVGID_10_);}
	.st88{clip-path:url(#SVGID_12_);}
	.st89{fill:#9B6E66;}
	.st90{fill:#714D46;}
	.st91{fill:#C78976;}
	.st92{fill:#935C4D;}
	.st93{fill:#EDDDD6;}
	.st94{fill:#474780;}
	.st95{fill:#E56445;}
	.st96{fill:#FCD69F;}
	.st97{fill:#FEBF6A;}
	.st98{fill:#2D328F;}
	.st99{fill:#9492C7;}
	.st100{fill:#7470B3;}
	.st101{fill:#F8A398;}
	.st102{fill:#F3C0BC;}
	.st103{fill:#7A491D;}
	.st104{fill:#FCB45D;}
	.st105{fill:#608558;}
	.st106{fill:#F47351;}
	.st107{fill:#B77E34;}
	.st108{fill:#7D6154;}
	.st109{fill:#50784A;}
	.st110{fill:#F17E65;}
	.st111{fill:#142148;}
	.st112{fill:#F8B384;}
	.st113{fill:#E38B6D;}
	.st114{fill:#758BC6;}
	.st115{fill:#46467F;}
	.st116{fill:#FCB35B;}
	.st117{fill:#C49576;}
	.st118{fill:#F7734F;}
	.st119{fill:#7772D3;}
	.st120{fill:#D19865;}
	.st121{fill:#507849;}
</style>
<g id="Calque_1">
	<g id="Calque_1_1_">
	</g>
	<g id="Calque_2_1_">
	</g>
</g>
<g id="Calque_2">
	<g>
		<path class="st93" d="M113.6,65.7c0,7.2-1.6,14-4.5,20.1c-3.7,7.8-9.5,14.3-16.7,19c-2.2,1.4-4.6,2.7-7,3.8
			c-5.6,2.4-11.8,3.8-18.4,3.8c-5.9,0-11.5-1.1-16.7-3.1c-3.7-1.4-7.1-3.3-10.3-5.5c-3.9-2.8-7.4-6.1-10.2-9.9
			c-5.9-7.8-9.4-17.5-9.4-28.1c0-25.7,20.9-46.6,46.6-46.6C92.7,19.1,113.6,39.9,113.6,65.7z"/>
	</g>
	<g>
		<path class="st116" d="M50.3,109.2c-3.7-1.4-7.1-3.3-10.3-5.5c-3.9-2.8-7.4-6.1-10.2-9.9c4.6-9.5,14.3-25.5,26.4-25.5
			C69.4,68.4,56.7,96.6,50.3,109.2z"/>
	</g>
	<g>
		<path d="M74.1,41.1c0,0,13.2-3.6,23.1,8.5c9.8,12,3.7,26.9-11.9,26.5c-15.6-0.4-19.2-16.4-19.2-16.4L74.1,41.1z"/>
	</g>
	<g>
		<path class="st116" d="M92.4,104.8c-2.2,1.4-4.6,2.7-7,3.8c-5.6,2.4-11.8,3.8-18.4,3.8c-5.9,0-11.5-1.1-16.7-3.1
			c-3.7-1.4-7.1-3.3-10.3-5.5c0.9-13.3,2.3-26.1,4.5-28.9c3.3-4.1,7.1-5.6,11.6-6.5c2.4-0.4,5-0.7,7.7-1c4-0.5,8.9-0.4,13.3,0.1
			c4.3,0.4,8.1,1.2,10.1,2.1C89.3,70.2,91.2,87.7,92.4,104.8z"/>
	</g>
	<g>
		<path class="st121" d="M57.1,58.9c-0.6,2.5-2.1,4.3-3.4,4.1c-1.3-0.3-1.9-2.6-1.4-5.1c0.6-2.5,2.1-4.3,3.4-4.1
			C57,54.1,57.7,56.4,57.1,58.9z"/>
	</g>
	<g>
		<path class="st116" d="M109.1,85.8c-3.7,7.8-9.5,14.3-16.7,19c-2.2,1.4-4.6,2.7-7,3.8L75,67.3c0,0,0.8-0.1,2.1,0
			C82.6,67.6,97.1,69.8,109.1,85.8z"/>
	</g>
	<g>
		<path d="M54.3,51c0,0-3.8-4-2.8-10.3C52.1,36.4,54,35,54,35s-3-5.8,5.6-5.6c8.6,0.2,15.7-0.5,19.6,6.9c2.3,4.4,1.4,13.9,1.4,13.9
			L54.3,51z"/>
	</g>
	<g>
		<g>
			<g>
				<g>
					<path class="st120" d="M73.3,57.8l-0.1,10.5c0,0-1.9,3-8.1,3.5c-4.6,0.3-6-2-6-2l1.2-9.2l11.1-2.4L73.3,57.8z"/>
				</g>
			</g>
		</g>
	</g>
	<g>
		<g>
			<g>
				<g>
					<path d="M73.3,57.1c0,0.3-0.1,0.6-0.3,1c-2.4,5.2-10.7,7.4-13.3,7.6l0.7-5.2L73.3,57.1z"/>
				</g>
			</g>
		</g>
	</g>
	<g>
		<g>
			<g>
				<g>
					<path class="st120" d="M58.1,36.5c0,0-5.6,13.2-3.5,20.5c2.1,7.4,8.8,6.1,12.8,4.7c4-1.5,5.8-3.9,5.8-3.9s3.8,1.2,6.2-2.3
						c2.5-3.5,0.9-7.5-1.3-8.4c-2.2-0.9-4.7,0.7-4.7,0.7l2-3.8C75.6,43.9,67,24.7,58.1,36.5z"/>
				</g>
			</g>
		</g>
	</g>
	<g>
		<g>
			<g>
				<g>
					<path d="M73.6,47.8c0,0-5.6,1.2-9.7-5c-4-6.2-3.7-8.8-3.7-8.8l-3.8,6.6c0,0-1-4.5,0.8-7.4c1.7-2.9,3.6-2.3,3.6-2.3l12.5,2.9
						l3.5,9.9L73.6,47.8z"/>
				</g>
			</g>
		</g>
	</g>
	<g>
		<path d="M58.9,53.3c-0.2,0-0.4-0.1-0.5-0.3c-0.9-2.8,1-5.7,1.1-5.9c0.2-0.2,0.5-0.3,0.7-0.1c0.2,0.2,0.3,0.5,0.1,0.7
			c0,0-1.8,2.6-1,5c0.1,0.3-0.1,0.5-0.3,0.6C59,53.3,58.9,53.3,58.9,53.3z"/>
	</g>
	<g>
		<path d="M74.3,54c-0.1,0-0.2,0-0.3-0.1c-0.2-0.2-0.2-0.5,0-0.7l3.5-3.8c0.2-0.2,0.5-0.2,0.7,0c0.2,0.2,0.2,0.5,0,0.7l-3.5,3.8
			C74.6,53.9,74.4,54,74.3,54z"/>
	</g>
	<g>
		<path d="M78,52.9C78,52.9,78,52.9,78,52.9l-2.5-0.3c-0.3,0-0.5-0.3-0.4-0.6c0-0.3,0.3-0.5,0.6-0.4l2.5,0.3c0.3,0,0.5,0.3,0.4,0.6
			C78.5,52.7,78.3,52.9,78,52.9z"/>
	</g>
	<g>
		<path d="M56.1,42.6c-0.2,0-0.4-0.2-0.5-0.4c-0.1-0.3,0.1-0.5,0.4-0.6l2.3-0.4c0.3-0.1,0.5,0.1,0.6,0.4c0.1,0.3-0.1,0.5-0.4,0.6
			L56.1,42.6C56.2,42.6,56.2,42.6,56.1,42.6z"/>
	</g>
	<g>
		<path d="M65.9,43.9c-0.1,0-0.1,0-0.2,0L61.8,42c-0.2-0.1-0.4-0.4-0.2-0.7c0.1-0.2,0.4-0.4,0.7-0.2l3.9,1.9
			c0.2,0.1,0.4,0.4,0.2,0.7C66.2,43.8,66,43.9,65.9,43.9z"/>
	</g>
	<g>
		<path d="M56.3,48c0,0-0.1,0-0.1,0c-0.3-0.1-0.4-0.4-0.3-0.6l0.6-2.1l-0.6-0.7c-0.2-0.2-0.2-0.5,0.1-0.7c0.2-0.2,0.5-0.2,0.7,0.1
			l0.7,0.9c0.1,0.1,0.1,0.3,0.1,0.5l-0.7,2.4C56.7,47.8,56.5,48,56.3,48z"/>
	</g>
	<g>
		<path d="M62.9,48.5c0,0-0.1,0-0.1,0c-0.3-0.1-0.4-0.4-0.3-0.6l0.6-2.1l-0.8-0.9c-0.2-0.2-0.2-0.5,0-0.7c0.2-0.2,0.5-0.2,0.7,0
			l1,1.2c0.1,0.1,0.2,0.3,0.1,0.5l-0.7,2.4C63.3,48.3,63.1,48.5,62.9,48.5z"/>
	</g>
	<g>
		<path d="M60.8,56.7c-0.3,0-0.6-0.1-0.9-0.2c-0.2-0.1-0.3-0.4-0.2-0.7c0.1-0.2,0.4-0.3,0.7-0.2c1,0.5,2.9-1.1,3.5-1.7
			c0.2-0.2,0.5-0.2,0.7,0c0.2,0.2,0.2,0.5,0,0.7C64.3,54.8,62.5,56.7,60.8,56.7z"/>
	</g>
	<g>
		<path class="st120" d="M59.4,67.8l-5.3,0.9c0,0,0.1,7,10,7.9c9.9,0.9,16.5-9,16.5-9l-10.4-1.3L59.4,67.8z"/>
	</g>
	<g>
		<path class="st121" d="M78.5,59.5c0.2,2.6-0.8,4.7-2.1,4.8c-1.3,0.1-2.6-1.9-2.7-4.5c-0.2-2.6,0.8-4.7,2.1-4.8
			C77.1,54.9,78.3,56.9,78.5,59.5z"/>
	</g>
</g>
</svg>
