<?xml version="1.0" encoding="utf-8"?>
<!-- Generator: Adobe Illustrator 24.3.0, SVG Export Plug-In . SVG Version: 6.00 Build 0)  -->
<svg version="1.1" xmlns="http://www.w3.org/2000/svg" xmlns:xlink="http://www.w3.org/1999/xlink" x="0px" y="0px"
	 viewBox="0 0 134 123" style="enable-background:new 0 0 134 123;" xml:space="preserve">
<style type="text/css">
	.st0{fill:#F3F6FB;}
	.st1{fill:none;stroke:#2B2E81;stroke-width:2;stroke-miterlimit:10;}
	.st2{fill:none;}
	.st3{fill:#E0E1E0;}
	.st4{fill:#F1F0F0;}
	.st5{fill:#273339;}
	.st6{fill:#EBEBEB;}
	.st7{fill:#2F3180;}
	.st8{fill:#FFFFFF;}
	.st9{opacity:0.3;fill:#010101;enable-background:new    ;}
	.st10{fill:#B97A65;}
	.st11{opacity:0.2;fill:#010101;enable-background:new    ;}
	.st12{fill:#A34F40;}
	.st13{fill:#DE5854;}
	.st14{fill:#9F5C54;}
	.st15{opacity:0.2;}
	.st16{fill:#010101;}
	.st17{fill:#E9B376;}
	.st18{opacity:0.8;fill:#FFFFFF;enable-background:new    ;}
	.st19{fill:#D58745;}
	.st20{opacity:0.4;fill:#FFFFFF;enable-background:new    ;}
	.st21{fill:#EEC1BB;}
	.st22{fill:#D9857D;}
	.st23{fill:#F5F6F6;}
	.st24{fill:#FAFBFC;}
	.st25{fill:#FCBF9E;}
	.st26{fill:#F8996E;}
	.st27{fill:#465B64;}
	.st28{opacity:0.3;}
	.st29{opacity:0.25;fill:#FFFFFF;enable-background:new    ;}
	.st30{opacity:0.1;fill:#010101;enable-background:new    ;}
	.st31{opacity:0.1;fill:#FFFFFF;enable-background:new    ;}
	.st32{opacity:5.000000e-02;fill:#010101;enable-background:new    ;}
	.st33{opacity:0.15;fill:#FFFFFF;enable-background:new    ;}
	.st34{opacity:0.4;fill:#010101;enable-background:new    ;}
	.st35{opacity:0.5;fill:#010101;enable-background:new    ;}
	.st36{opacity:0.25;fill:#010101;enable-background:new    ;}
	.st37{opacity:0.15;fill:#010101;enable-background:new    ;}
	.st38{opacity:0.45;fill:#010101;enable-background:new    ;}
	.st39{opacity:0.35;fill:#010101;enable-background:new    ;}
	.st40{fill:#F8A7A8;}
	.st41{fill:#384850;}
	.st42{opacity:0.6;fill:#FFFFFF;enable-background:new    ;}
	.st43{opacity:0.1;fill:#2F3180;enable-background:new    ;}
	.st44{opacity:0.2;fill:#2F3180;enable-background:new    ;}
	.st45{fill:#B26769;}
	.st46{fill:#F3908F;}
	.st47{opacity:0.7;fill:#FFFFFF;enable-background:new    ;}
	.st48{fill:#AF7562;}
	.st49{fill:#70453A;}
	.st50{opacity:0.5;fill:#FFFFFF;enable-background:new    ;}
	.st51{opacity:0.3;fill:#FFFFFF;enable-background:new    ;}
	.st52{opacity:0.6;}
	.st53{opacity:0.7;}
	.st54{fill:#884D4D;}
	.st55{fill:#C8856A;}
	.st56{fill:#B06252;}
	.st57{fill:none;stroke:#000000;stroke-miterlimit:10;}
	.st58{fill:#D51F26;}
	.st59{fill:#E6E6E5;}
	.st60{opacity:0.15;}
	.st61{opacity:0.2;fill:#FFFFFF;enable-background:new    ;}
	.st62{opacity:0.4;}
	.st63{clip-path:url(#SVGID_2_);}
	.st64{opacity:0.1;}
	.st65{clip-path:url(#SVGID_4_);}
	.st66{clip-path:url(#SVGID_6_);}
	.st67{fill:#FFFFFF;stroke:#000000;stroke-width:2;stroke-miterlimit:10;}
	.st68{opacity:0.5;}
	.st69{fill:#FBBD9D;}
	.st70{fill:#EB9A6F;}
	.st71{opacity:0.6;fill:#010101;enable-background:new    ;}
	.st72{fill:#FAC2BE;}
	.st73{fill:#EC847E;}
	.st74{opacity:0.9;}
	.st75{fill:#803F3C;}
	.st76{fill:#631112;}
	.st77{fill:#FCB574;}
	.st78{fill:#ED893F;}
	.st79{opacity:0.9;fill:#FFFFFF;enable-background:new    ;}
	.st80{fill:#C8C7C6;}
	.st81{opacity:0.6;fill:#2F3180;enable-background:new    ;}
	.st82{fill:#FDFEFF;}
	.st83{fill:#D4766B;}
	.st84{opacity:0.3;fill:#384850;enable-background:new    ;}
	.st85{fill:#F598B9;}
	.st86{clip-path:url(#SVGID_8_);}
	.st87{clip-path:url(#SVGID_10_);}
	.st88{clip-path:url(#SVGID_12_);}
	.st89{fill:#9B6E66;}
	.st90{fill:#714D46;}
	.st91{fill:#C78976;}
	.st92{fill:#935C4D;}
	.st93{fill:#EDDDD6;}
	.st94{fill:#474780;}
	.st95{fill:#E56445;}
	.st96{fill:#FCD69F;}
	.st97{fill:#FEBF6A;}
	.st98{fill:#2D328F;}
	.st99{fill:#9492C7;}
	.st100{fill:#7470B3;}
	.st101{fill:#F8A398;}
	.st102{fill:#F3C0BC;}
	.st103{fill:#7A491D;}
	.st104{fill:#FCB45D;}
	.st105{fill:#608558;}
	.st106{fill:#F47351;}
	.st107{fill:#B77E34;}
	.st108{fill:#7D6154;}
	.st109{fill:#50784A;}
	.st110{fill:#F17E65;}
	.st111{fill:#142148;}
	.st112{fill:#F8B384;}
	.st113{fill:#E38B6D;}
	.st114{fill:#758BC6;}
	.st115{fill:#46467F;}
	.st116{fill:#FCB35B;}
	.st117{fill:#C49576;}
	.st118{fill:#F7734F;}
	.st119{fill:#7772D3;}
	.st120{fill:#D19865;}
	.st121{fill:#507849;}
	.st122{fill:#FCA397;}
	.st123{fill:#E18B76;}
	.st124{fill:#B27E50;}
	.st125{fill:#EFCB3A;}
	.st126{fill:#EFADA3;}
</style>
<g id="Calque_1">
	<g id="Calque_1_1_">
	</g>
	<g id="Calque_2_1_">
	</g>
</g>
<g id="Calque_2">
	<g>
		<path class="st93" d="M113.6,61.8c0,6-1.1,11.8-3.2,17c-0.9,2.3-2,4.6-3.3,6.7c-1,1.6-2,3.2-3.2,4.7c-0.5,0.6-1,1.2-1.5,1.8
			c-2.9,3.4-6.2,6.4-10,8.8c-1,0.7-2,1.3-3.1,1.8c-3.6,2-7.5,3.5-11.7,4.5c-3.5,0.8-7,1.2-10.7,1.2c-0.8,0-1.6,0-2.3-0.1
			c-5.6-0.3-11-1.5-15.9-3.7c-0.1-0.1-0.2-0.1-0.4-0.2c-0.9-0.4-1.9-0.8-2.8-1.3c-1.5-0.8-3-1.7-4.4-2.6c-0.2-0.1-0.4-0.3-0.6-0.4
			c-1.7-1.2-3.3-2.4-4.8-3.8c-0.1,0-0.1-0.1-0.1-0.1c-0.1-0.1-0.2-0.2-0.4-0.3c-1.1-1-2-2-3-3c0,0-0.1-0.1-0.1-0.1
			c-0.7-0.8-1.4-1.6-2-2.4c-6.1-7.9-9.8-17.8-9.8-28.6C20.4,36,41.3,15.1,67,15.1C92.7,15.1,113.6,36,113.6,61.8z"/>
	</g>
	<g>
		<path class="st116" d="M77.7,107.1c-3.5,0.8-7,1.2-10.7,1.2c-0.8,0-1.6,0-2.3-0.1c-6.8-0.3-13.3-2.1-19-5.1l5.8-30.8l11.8-5.5
			l13.7,1.9L77.7,107.1z"/>
	</g>
	<g>
		<path class="st119" d="M56.5,66.4l-8.2,38.1c-0.9-0.4-1.9-0.8-2.8-1.3c-1.5-0.8-3-1.7-4.4-2.6c-0.2-0.1-0.4-0.3-0.6-0.4
			c-1.7-1.2-3.3-2.4-4.8-3.8c-0.1,0-0.1-0.1-0.1-0.1c-0.1-0.1-0.2-0.2-0.4-0.3c-1.1-1-2-2-3-3c0,0-0.1-0.1-0.1-0.1
			c-0.7-0.8-1.4-1.6-2-2.4c4.3-8.5,12.8-15.5,15.6-17.9C51.5,67.4,56.5,66.4,56.5,66.4z"/>
	</g>
	<g>
		<path class="st116" d="M54.4,35.8c0,0,0.2-8.6,12.9-9.7C80.1,25,84.4,36.7,83.7,37.9C83,39.2,82,39.6,82,39.6s0.3,8.6-4.9,10.1
			c-5.2,1.5-11-1.8-11-1.8L54.4,35.8z"/>
	</g>
	<g>
		<g>
			<g>
				<g>
					<path class="st126" d="M69.7,57l0,10.5c0,0-1.9,3-8,3.5c-4.6,0.4-6.2-0.7-6.2-0.7l0.6-5.3l0.6-5.2l11.1-2.4L69.7,57z"/>
				</g>
			</g>
		</g>
	</g>
	<g>
		<g>
			<g>
				<g>
					<path d="M67.8,57.4c0,0.3-0.1,0.6-0.3,1c-2.4,5.2-8.8,6.4-11.4,6.6l0.6-5.2L67.8,57.4z"/>
				</g>
			</g>
		</g>
	</g>
	<g>
		<g>
			<g>
				<g>
					<path class="st126" d="M54.4,35.8c0,0-5.5,13.2-3.4,20.5c2.2,7.3,8.9,6.1,12.8,4.6c4-1.5,5.8-4,5.8-4s3.8,1.2,6.2-2.3
						c2.5-3.5,0.9-7.5-1.3-8.4C72.5,45.4,70,47,70,47l1.9-3.8C71.9,43.1,63.2,23.9,54.4,35.8z"/>
				</g>
			</g>
		</g>
	</g>
	<g>
		<path d="M55.2,52.6c-0.2,0-0.4-0.1-0.5-0.3c-0.9-2.8,1-5.7,1.1-5.9c0.2-0.2,0.5-0.3,0.7-0.1c0.2,0.2,0.3,0.5,0.1,0.7
			c0,0-1.7,2.6-1,5c0.1,0.3-0.1,0.5-0.3,0.6C55.4,52.5,55.3,52.6,55.2,52.6z"/>
	</g>
	<g>
		<path d="M70.6,53.2c-0.1,0-0.2,0-0.3-0.1c-0.2-0.2-0.2-0.5,0-0.7l3.5-3.8c0.2-0.2,0.5-0.2,0.7,0c0.2,0.2,0.2,0.5,0,0.7L71,53
			C70.9,53.1,70.8,53.2,70.6,53.2z"/>
	</g>
	<g>
		<path d="M74.4,52.1C74.4,52.1,74.3,52.1,74.4,52.1l-2.5-0.3c-0.3,0-0.5-0.3-0.4-0.6c0-0.3,0.3-0.5,0.6-0.4l2.5,0.3
			c0.3,0,0.5,0.3,0.4,0.6C74.8,51.9,74.6,52.1,74.4,52.1z"/>
	</g>
	<g>
		<path d="M61.1,47.5C61.1,47.5,61,47.5,61.1,47.5c-0.3,0-0.5-0.3-0.5-0.6l0.3-2.4c0-0.3,0.3-0.5,0.5-0.4c0.3,0,0.5,0.3,0.4,0.5
			l-0.3,2.4C61.5,47.4,61.3,47.5,61.1,47.5z"/>
	</g>
	<g>
		<path d="M53.8,47.1C53.8,47.1,53.8,47.1,53.8,47.1c-0.3,0-0.5-0.3-0.5-0.6l0.3-2.4c0-0.3,0.3-0.5,0.6-0.4c0.3,0,0.5,0.3,0.4,0.6
			l-0.3,2.4C54.3,46.9,54.1,47.1,53.8,47.1z"/>
	</g>
	<g>
		<g>
			<path class="st8" d="M66.8,69.5c-0.1-0.3-0.4-0.4-0.7-0.3c-5.4,2.1-10.5,0.6-10.6,0.6c-0.1,0-0.3,0-0.4,0
				C55.1,70,55,70.1,55,70.2l-7.2,34c0.2,0.1,0.4,0.2,0.6,0.2c0.1,0.1,0.2,0.1,0.4,0.2l7.1-33.7c1.5,0.3,5.9,1,10.7-0.8
				C66.8,70.1,66.9,69.8,66.8,69.5z"/>
		</g>
	</g>
	<g>
		<path d="M72.1,47.9c0,0-4.2-0.8-5.5-3.7c-2-4.4,0.7-6.3,0.7-6.3s-3,0.7-5.5-0.6c-3.1-1.6-3.6-4.1-3.6-4.1l-3.8,2.6
			c0,0-1.1-5.6,2.4-6.6c3.5-1,7.5,2.2,7.5,2.2L77,41.1l-1.2,6.1C75.8,47.2,75.1,46.9,72.1,47.9z"/>
	</g>
	<g>
		<path d="M59.4,56.6c-0.1,0-0.3,0-0.4,0c-1.2-0.2-2-1.5-2.1-1.6c-0.1-0.1-0.1-0.3-0.1-0.4c0-0.1,0.1-0.2,0.3-0.3l4.6-2.3
			c0.1-0.1,0.3-0.1,0.4,0c0.1,0.1,0.2,0.2,0.3,0.4c0,0.1,0.4,2.3-1.6,3.8C60.4,56.4,59.9,56.6,59.4,56.6z M58.1,54.9
			c0.3,0.3,0.6,0.6,1.1,0.7c0.3,0.1,0.7,0,1.1-0.3c0.9-0.7,1.2-1.5,1.2-2.1L58.1,54.9z"/>
	</g>
	<g>
		<path class="st116" d="M59.4,29.5c0,0,5.6,0.6,9,8.1c2.8,6.1,3.7,10.3,3.7,10.3l5,1.8l1.5-12l-11.5-9.1
			C67.1,28.7,62.4,27.1,59.4,29.5z"/>
	</g>
	<g>
		<path class="st119" d="M107.1,85.5c-1,1.6-2,3.2-3.2,4.7c-0.5,0.6-1,1.2-1.5,1.8c-2.9,3.4-6.2,6.4-10,8.8c-1,0.7-2,1.3-3.1,1.8
			c-6.7,3.7-14.3,5.7-22.4,5.7c-0.8,0-1.6,0-2.3-0.1c-1.3-17.6-1.3-38.5,5.1-44.7C73.3,60.1,93.4,68.2,107.1,85.5z"/>
	</g>
	<g>
		<path class="st115" d="M72.5,48.3c-0.2,0-0.5-0.2-0.5-0.4c0-0.3,0.2-0.5,0.4-0.6c0,0,3.2-0.5,5.5-2.8c2.2-2.3,3.2-4.4,3.2-4.4
			c0.1-0.2,0.4-0.4,0.7-0.2c0.2,0.1,0.4,0.4,0.2,0.7c0,0.1-1.1,2.3-3.4,4.7C76.1,47.8,72.7,48.3,72.5,48.3
			C72.6,48.3,72.5,48.3,72.5,48.3z"/>
	</g>
	<g>
		<path class="st115" d="M71,43.4c-0.2,0-0.4-0.1-0.5-0.3c-0.1-0.3,0.1-0.5,0.3-0.6c0,0,4.8-1.5,7.2-3.1c2.6-1.7,5-1.8,5.1-1.9
			c0.3,0,0.5,0.2,0.5,0.5c0,0.3-0.2,0.5-0.5,0.5c0,0-2.3,0.1-4.6,1.7c-2.5,1.7-7.2,3.2-7.4,3.3C71.1,43.4,71.1,43.4,71,43.4z"/>
	</g>
</g>
</svg>
