<?xml version="1.0" encoding="utf-8"?>
<!-- Generator: Adobe Illustrator 24.3.0, SVG Export Plug-In . SVG Version: 6.00 Build 0)  -->
<svg version="1.1" xmlns="http://www.w3.org/2000/svg" xmlns:xlink="http://www.w3.org/1999/xlink" x="0px" y="0px"
	 viewBox="0 0 134 123" style="enable-background:new 0 0 134 123;" xml:space="preserve">
<style type="text/css">
	.st0{fill:#F3F6FB;}
	.st1{fill:none;stroke:#2B2E81;stroke-width:2;stroke-miterlimit:10;}
	.st2{fill:none;}
	.st3{fill:#E0E1E0;}
	.st4{fill:#F1F0F0;}
	.st5{fill:#273339;}
	.st6{fill:#EBEBEB;}
	.st7{fill:#2F3180;}
	.st8{fill:#FFFFFF;}
	.st9{opacity:0.3;fill:#010101;enable-background:new    ;}
	.st10{fill:#B97A65;}
	.st11{opacity:0.2;fill:#010101;enable-background:new    ;}
	.st12{fill:#A34F40;}
	.st13{fill:#DE5854;}
	.st14{fill:#9F5C54;}
	.st15{opacity:0.2;}
	.st16{fill:#010101;}
	.st17{fill:#E9B376;}
	.st18{opacity:0.8;fill:#FFFFFF;enable-background:new    ;}
	.st19{fill:#D58745;}
	.st20{opacity:0.4;fill:#FFFFFF;enable-background:new    ;}
	.st21{fill:#EEC1BB;}
	.st22{fill:#D9857D;}
	.st23{fill:#F5F6F6;}
	.st24{fill:#FAFBFC;}
	.st25{fill:#FCBF9E;}
	.st26{fill:#F8996E;}
	.st27{fill:#465B64;}
	.st28{opacity:0.3;}
	.st29{opacity:0.25;fill:#FFFFFF;enable-background:new    ;}
	.st30{opacity:0.1;fill:#010101;enable-background:new    ;}
	.st31{opacity:0.1;fill:#FFFFFF;enable-background:new    ;}
	.st32{opacity:5.000000e-02;fill:#010101;enable-background:new    ;}
	.st33{opacity:0.15;fill:#FFFFFF;enable-background:new    ;}
	.st34{opacity:0.4;fill:#010101;enable-background:new    ;}
	.st35{opacity:0.5;fill:#010101;enable-background:new    ;}
	.st36{opacity:0.25;fill:#010101;enable-background:new    ;}
	.st37{opacity:0.15;fill:#010101;enable-background:new    ;}
	.st38{opacity:0.45;fill:#010101;enable-background:new    ;}
	.st39{opacity:0.35;fill:#010101;enable-background:new    ;}
	.st40{fill:#F8A7A8;}
	.st41{fill:#384850;}
	.st42{opacity:0.6;fill:#FFFFFF;enable-background:new    ;}
	.st43{opacity:0.1;fill:#2F3180;enable-background:new    ;}
	.st44{opacity:0.2;fill:#2F3180;enable-background:new    ;}
	.st45{fill:#B26769;}
	.st46{fill:#F3908F;}
	.st47{opacity:0.7;fill:#FFFFFF;enable-background:new    ;}
	.st48{fill:#AF7562;}
	.st49{fill:#70453A;}
	.st50{opacity:0.5;fill:#FFFFFF;enable-background:new    ;}
	.st51{opacity:0.3;fill:#FFFFFF;enable-background:new    ;}
	.st52{opacity:0.6;}
	.st53{opacity:0.7;}
	.st54{fill:#884D4D;}
	.st55{fill:#C8856A;}
	.st56{fill:#B06252;}
	.st57{fill:none;stroke:#000000;stroke-miterlimit:10;}
	.st58{fill:#D51F26;}
	.st59{fill:#E6E6E5;}
	.st60{opacity:0.15;}
	.st61{opacity:0.2;fill:#FFFFFF;enable-background:new    ;}
	.st62{opacity:0.4;}
	.st63{clip-path:url(#SVGID_2_);}
	.st64{opacity:0.1;}
	.st65{clip-path:url(#SVGID_4_);}
	.st66{clip-path:url(#SVGID_6_);}
	.st67{fill:#FFFFFF;stroke:#000000;stroke-width:2;stroke-miterlimit:10;}
	.st68{opacity:0.5;}
	.st69{fill:#FBBD9D;}
	.st70{fill:#EB9A6F;}
	.st71{opacity:0.6;fill:#010101;enable-background:new    ;}
	.st72{fill:#FAC2BE;}
	.st73{fill:#EC847E;}
	.st74{opacity:0.9;}
	.st75{fill:#803F3C;}
	.st76{fill:#631112;}
	.st77{fill:#FCB574;}
	.st78{fill:#ED893F;}
	.st79{opacity:0.9;fill:#FFFFFF;enable-background:new    ;}
	.st80{fill:#C8C7C6;}
	.st81{opacity:0.6;fill:#2F3180;enable-background:new    ;}
	.st82{fill:#FDFEFF;}
	.st83{fill:#D4766B;}
	.st84{opacity:0.3;fill:#384850;enable-background:new    ;}
	.st85{fill:#F598B9;}
	.st86{clip-path:url(#SVGID_8_);}
	.st87{clip-path:url(#SVGID_10_);}
	.st88{clip-path:url(#SVGID_12_);}
	.st89{fill:#9B6E66;}
	.st90{fill:#714D46;}
	.st91{fill:#C78976;}
	.st92{fill:#935C4D;}
	.st93{fill:#EDDDD6;}
	.st94{fill:#474780;}
	.st95{fill:#E56445;}
	.st96{fill:#FCD69F;}
	.st97{fill:#FEBF6A;}
	.st98{fill:#2D328F;}
	.st99{fill:#9492C7;}
	.st100{fill:#7470B3;}
	.st101{fill:#F8A398;}
	.st102{fill:#F3C0BC;}
	.st103{fill:#7A491D;}
	.st104{fill:#FCB45D;}
	.st105{fill:#608558;}
	.st106{fill:#F47351;}
	.st107{fill:#B77E34;}
	.st108{fill:#7D6154;}
	.st109{fill:#50784A;}
	.st110{fill:#F17E65;}
	.st111{fill:#142148;}
	.st112{fill:#F8B384;}
	.st113{fill:#E38B6D;}
	.st114{fill:#758BC6;}
</style>
<g id="Calque_1">
	<g id="Calque_1_1_">
	</g>
	<g id="Calque_2_1_">
	</g>
</g>
<g id="Calque_2">
	<g>
		<path class="st93" d="M113,66c0,8.8-2.5,17-6.7,24c-0.7,1.2-1.5,2.4-2.4,3.5c-2.2,3-4.9,5.7-7.8,8.1c-1.1,0.9-2.2,1.7-3.3,2.5
			c-0.8,0.6-1.7,1.1-2.6,1.6c-5,2.9-10.6,4.9-16.6,5.8c-1.8,0.3-3.7,0.4-5.6,0.4c-0.3,0-0.6,0-0.9,0c-3.7,0-7.3-0.4-10.8-1.3
			c-5-1.2-9.8-3.3-14-6c-1.5-1-3-2.1-4.4-3.2c-2-1.6-3.8-3.4-5.5-5.4c-0.8-0.9-1.5-1.8-2.2-2.8c-0.2-0.2-0.3-0.4-0.5-0.6
			c-1.7-2.4-3.2-4.9-4.4-7.5C22.5,79.4,21,72.9,21,66c0-25.4,20.6-46,46-46S113,40.6,113,66z"/>
	</g>
	<g>
		<path class="st94" d="M96.1,101.6c-1.1,0.9-2.2,1.7-3.3,2.5c-0.8,0.6-1.7,1.1-2.6,1.6c-5,2.9-10.6,4.9-16.6,5.8
			c-1.8,0.3-3.7,0.4-5.6,0.4c-0.3,0-0.6,0-0.9,0c-3.7,0-7.3-0.4-10.8-1.3c-5-1.2-9.8-3.3-14-6c-1.5-1-3-2.1-4.4-3.2
			c-2-1.6-3.8-3.4-5.5-5.4c-0.8-0.9-1.5-1.8-2.2-2.8c3.1-7.4,8.9-18.1,16.7-20.7c12.3-4.1,38.5,1.7,38.5,1.7S94.2,78.8,96.1,101.6z"
			/>
	</g>
	<g>
		<path class="st94" d="M90.2,105.7c-5,2.9-10.6,4.9-16.6,5.8c-1.8,0.3-3.7,0.4-5.6,0.4c-0.3,0-0.6,0-0.9,0c-3.7,0-7.3-0.4-10.8-1.3
			c-5-1.2-9.8-3.3-14-6c-1.5-1-3-2.1-4.4-3.2c0.1-12,1-23,3.9-25.6c1.5-1.3,3.2-2.4,5.1-3.2c4.3-1.8,9-2.5,12.2-2.7
			c2.1-0.1,3.4-0.1,3.4-0.1s2.8,0.1,6.5,0.5c1,0.1,2.1,0.3,3.2,0.4c6.4,0.9,13.9,2.7,15.8,6.1C89.5,79.9,90.1,92.9,90.2,105.7z"/>
	</g>
	<g>
		<path class="st104" d="M75.8,45.9c0,0,6-10.1,1-12.2C71.9,31.5,66,37,66,37s-11.1,1-15.3,6.9c-4.2,5.9,6.2,16.3,6.2,16.3
			L75.8,45.9z"/>
	</g>
	<g>
		<g>
			<path class="st101" d="M58.8,62.5l-0.6,10.2c0,0,1.7,3,7.6,3.9c4.4,0.6,6.1-0.3,6.1-0.3l-0.3-5.2l-0.3-5.1l-10.6-3L58.8,62.5z"/>
		</g>
	</g>
	<g>
		<g>
			<path class="st16" d="M60.6,63c0,0.3,0.1,0.6,0.2,1c2,5.2,8.2,6.7,10.7,7.1l-0.3-5.1L60.6,63z"/>
		</g>
	</g>
	<g>
		<g>
			<path class="st101" d="M74.9,42.9c0,0,4.6,13.1,2,20.1c-2.6,7-9,5.4-12.8,3.7c-3.8-1.7-5.4-4.2-5.4-4.2s-3.7,1-5.9-2.6
				c-2.2-3.6-0.4-7.3,1.8-8.1c2.1-0.7,4.5,1,4.5,1l-1.7-3.8C57.5,48.9,67.1,30.8,74.9,42.9z"/>
		</g>
	</g>
	<g>
		<path class="st16" d="M58.5,58.4c-0.1,0-0.2,0-0.3-0.1l-4.4-3.6c-0.2-0.2-0.2-0.5-0.1-0.7c0.2-0.2,0.5-0.2,0.7-0.1l4.4,3.6
			c0.2,0.2,0.2,0.5,0.1,0.7C58.7,58.3,58.6,58.4,58.5,58.4z"/>
	</g>
	<g>
		<path class="st16" d="M54.3,58.1c-0.2,0-0.4-0.2-0.5-0.4c-0.1-0.3,0.1-0.5,0.4-0.6l3.1-0.6c0.3-0.1,0.5,0.1,0.6,0.4
			c0.1,0.3-0.1,0.5-0.4,0.6L54.3,58.1C54.3,58,54.3,58.1,54.3,58.1z"/>
	</g>
	<g>
		<path class="st16" d="M66.1,48.4c-0.1,0-0.2,0-0.3-0.1c-0.2-0.2-0.2-0.5,0-0.7c1.5-1.8,3.4-1.3,4.2-0.8c0.2,0.1,0.3,0.4,0.2,0.7
			c-0.1,0.2-0.4,0.3-0.7,0.2c-0.2-0.1-1.6-0.9-2.9,0.6C66.4,48.3,66.2,48.4,66.1,48.4z"/>
	</g>
	<g>
		<path class="st16" d="M76,48c-0.1,0-0.2,0-0.3-0.1c-1-0.9-2.1-0.4-2.1-0.4c-0.2,0.1-0.5,0-0.7-0.2c-0.1-0.2,0-0.5,0.2-0.7
			c0.1,0,1.8-0.9,3.3,0.5c0.2,0.2,0.2,0.5,0,0.7C76.3,47.9,76.1,48,76,48z"/>
	</g>
	<g>
		<path class="st16" d="M73.7,57.6c-0.1,0-0.1,0-0.2,0c-0.3-0.1-0.4-0.4-0.3-0.6c1.3-3.6-0.4-5.7-0.5-5.7c-0.2-0.2-0.2-0.5,0.1-0.7
			c0.2-0.2,0.5-0.2,0.7,0.1c0.1,0.1,2.1,2.6,0.6,6.7C74.1,57.5,73.9,57.6,73.7,57.6z"/>
	</g>
	<g>
		<path class="st16" d="M75.7,52.9c-0.2,0-0.4-0.2-0.5-0.4l-0.5-2.4c-0.1-0.3,0.1-0.5,0.4-0.6c0.3-0.1,0.5,0.1,0.6,0.4l0.5,2.4
			c0.1,0.3-0.1,0.5-0.4,0.6C75.7,52.9,75.7,52.9,75.7,52.9z"/>
	</g>
	<g>
		<path class="st16" d="M68.2,53.1c-0.2,0-0.4-0.2-0.5-0.4l-0.5-2.4c-0.1-0.3,0.1-0.5,0.4-0.6c0.3-0.1,0.5,0.1,0.6,0.4l0.5,2.4
			c0.1,0.3-0.1,0.5-0.4,0.6C68.3,53.1,68.2,53.1,68.2,53.1z"/>
	</g>
	<g>
		<path class="st104" d="M75.8,45.9c0,0-1-2.1-3.5-2.3c-2.5-0.2-4.1,1.5-4.1,1.5s0.9,4.4-2.8,6.4c-3.6,2.1-6.2,1.3-6.2,1.3l-2.5-1.1
			L55.1,48l7.8-7.4l9.7-4.4l4.5,4.6L75.8,45.9z"/>
	</g>
	<g>
		<path class="st16" d="M70.9,61.5c-0.4,0-2.8-0.1-3.7-2.4c-0.1-0.3,0-0.5,0.3-0.6c0.3-0.1,0.5,0,0.6,0.3c0.7,1.8,2.7,1.8,2.8,1.8
			c0.3,0,0.5,0.2,0.5,0.5C71.4,61.3,71.2,61.5,70.9,61.5C70.9,61.5,70.9,61.5,70.9,61.5z"/>
	</g>
	<g>
		<path class="st8" d="M69,77.4c-6.7,0-11.8-4.6-12-4.9c-0.2-0.2-0.2-0.5,0-0.7c0.2-0.2,0.5-0.2,0.7,0c0.1,0.1,6.7,6.1,14.5,4.2
			c0.3-0.1,0.5,0.1,0.6,0.4c0.1,0.3-0.1,0.5-0.4,0.6C71.3,77.3,70.1,77.4,69,77.4z"/>
	</g>
</g>
</svg>
