<?xml version="1.0" encoding="utf-8"?>
<!-- Generator: Adobe Illustrator 24.3.0, SVG Export Plug-In . SVG Version: 6.00 Build 0)  -->
<svg version="1.1" xmlns="http://www.w3.org/2000/svg" xmlns:xlink="http://www.w3.org/1999/xlink" x="0px" y="0px"
	 viewBox="0 0 134 123" style="enable-background:new 0 0 134 123;" xml:space="preserve">
<style type="text/css">
	.st0{fill:#F3F6FB;}
	.st1{fill:none;stroke:#2B2E81;stroke-width:2;stroke-miterlimit:10;}
	.st2{fill:none;}
	.st3{fill:#E0E1E0;}
	.st4{fill:#F1F0F0;}
	.st5{fill:#273339;}
	.st6{fill:#EBEBEB;}
	.st7{fill:#2F3180;}
	.st8{fill:#FFFFFF;}
	.st9{opacity:0.3;fill:#010101;enable-background:new    ;}
	.st10{fill:#B97A65;}
	.st11{opacity:0.2;fill:#010101;enable-background:new    ;}
	.st12{fill:#A34F40;}
	.st13{fill:#DE5854;}
	.st14{fill:#9F5C54;}
	.st15{opacity:0.2;}
	.st16{fill:#010101;}
	.st17{fill:#E9B376;}
	.st18{opacity:0.8;fill:#FFFFFF;enable-background:new    ;}
	.st19{fill:#D58745;}
	.st20{opacity:0.4;fill:#FFFFFF;enable-background:new    ;}
	.st21{fill:#EEC1BB;}
	.st22{fill:#D9857D;}
	.st23{fill:#F5F6F6;}
	.st24{fill:#FAFBFC;}
	.st25{fill:#FCBF9E;}
	.st26{fill:#F8996E;}
	.st27{fill:#465B64;}
	.st28{opacity:0.3;}
	.st29{opacity:0.25;fill:#FFFFFF;enable-background:new    ;}
	.st30{opacity:0.1;fill:#010101;enable-background:new    ;}
	.st31{opacity:0.1;fill:#FFFFFF;enable-background:new    ;}
	.st32{opacity:5.000000e-02;fill:#010101;enable-background:new    ;}
	.st33{opacity:0.15;fill:#FFFFFF;enable-background:new    ;}
	.st34{opacity:0.4;fill:#010101;enable-background:new    ;}
	.st35{opacity:0.5;fill:#010101;enable-background:new    ;}
	.st36{opacity:0.25;fill:#010101;enable-background:new    ;}
	.st37{opacity:0.15;fill:#010101;enable-background:new    ;}
	.st38{opacity:0.45;fill:#010101;enable-background:new    ;}
	.st39{opacity:0.35;fill:#010101;enable-background:new    ;}
	.st40{fill:#F8A7A8;}
	.st41{fill:#384850;}
	.st42{opacity:0.6;fill:#FFFFFF;enable-background:new    ;}
	.st43{opacity:0.1;fill:#2F3180;enable-background:new    ;}
	.st44{opacity:0.2;fill:#2F3180;enable-background:new    ;}
	.st45{fill:#B26769;}
	.st46{fill:#F3908F;}
	.st47{opacity:0.7;fill:#FFFFFF;enable-background:new    ;}
	.st48{fill:#AF7562;}
	.st49{fill:#70453A;}
	.st50{opacity:0.5;fill:#FFFFFF;enable-background:new    ;}
	.st51{opacity:0.3;fill:#FFFFFF;enable-background:new    ;}
	.st52{opacity:0.6;}
	.st53{opacity:0.7;}
	.st54{fill:#884D4D;}
	.st55{fill:#C8856A;}
	.st56{fill:#B06252;}
	.st57{fill:none;stroke:#000000;stroke-miterlimit:10;}
	.st58{fill:#D51F26;}
	.st59{fill:#E6E6E5;}
	.st60{opacity:0.15;}
	.st61{opacity:0.2;fill:#FFFFFF;enable-background:new    ;}
	.st62{opacity:0.4;}
	.st63{clip-path:url(#SVGID_2_);}
	.st64{opacity:0.1;}
	.st65{clip-path:url(#SVGID_4_);}
	.st66{clip-path:url(#SVGID_6_);}
	.st67{fill:#FFFFFF;stroke:#000000;stroke-width:2;stroke-miterlimit:10;}
	.st68{opacity:0.5;}
	.st69{fill:#FBBD9D;}
	.st70{fill:#EB9A6F;}
	.st71{opacity:0.6;fill:#010101;enable-background:new    ;}
	.st72{fill:#FAC2BE;}
	.st73{fill:#EC847E;}
	.st74{opacity:0.9;}
	.st75{fill:#803F3C;}
	.st76{fill:#631112;}
	.st77{fill:#FCB574;}
	.st78{fill:#ED893F;}
	.st79{opacity:0.9;fill:#FFFFFF;enable-background:new    ;}
	.st80{fill:#C8C7C6;}
	.st81{opacity:0.6;fill:#2F3180;enable-background:new    ;}
	.st82{fill:#FDFEFF;}
	.st83{fill:#D4766B;}
	.st84{opacity:0.3;fill:#384850;enable-background:new    ;}
	.st85{fill:#F598B9;}
	.st86{clip-path:url(#SVGID_8_);}
	.st87{clip-path:url(#SVGID_10_);}
	.st88{clip-path:url(#SVGID_12_);}
	.st89{fill:#9B6E66;}
	.st90{fill:#714D46;}
	.st91{fill:#C78976;}
	.st92{fill:#935C4D;}
	.st93{fill:#EDDDD6;}
	.st94{fill:#474780;}
	.st95{fill:#E56445;}
	.st96{fill:#FCD69F;}
	.st97{fill:#FEBF6A;}
	.st98{fill:#2D328F;}
	.st99{fill:#9492C7;}
	.st100{fill:#7470B3;}
	.st101{fill:#F8A398;}
	.st102{fill:#F3C0BC;}
	.st103{fill:#7A491D;}
	.st104{fill:#FCB45D;}
	.st105{fill:#608558;}
	.st106{fill:#F47351;}
	.st107{fill:#B77E34;}
	.st108{fill:#7D6154;}
	.st109{fill:#50784A;}
	.st110{fill:#F17E65;}
	.st111{fill:#142148;}
	.st112{fill:#F8B384;}
	.st113{fill:#E38B6D;}
	.st114{fill:#758BC6;}
	.st115{fill:#46467F;}
	.st116{fill:#FCB35B;}
	.st117{fill:#C49576;}
	.st118{fill:#F7734F;}
	.st119{fill:#7772D3;}
</style>
<g id="Calque_1">
	<g id="Calque_1_1_">
	</g>
	<g id="Calque_2_1_">
	</g>
</g>
<g id="Calque_2">
	<g>
		<path class="st93" d="M114.1,62.4c0,2.3-0.2,4.6-0.5,6.8c-0.1,0.7-0.2,1.5-0.4,2.2c-1,4.9-2.7,9.6-5.1,13.8
			c-1.5,2.6-3.2,5-5.1,7.3c-0.5,0.6-1.1,1.2-1.6,1.8c-2.3,2.5-4.9,4.7-7.7,6.6c-2.2,1.5-4.4,2.8-6.8,3.9c-1.7,0.8-3.5,1.5-5.4,2.1
			c-2,0.7-4.2,1.2-6.3,1.5c-2.5,0.4-5.1,0.6-7.7,0.6c-8.5,0-16.5-2.3-23.4-6.3c-1.2-0.7-2.3-1.4-3.4-2.2c-0.1-0.1-0.2-0.2-0.3-0.2
			c-0.8-0.6-1.5-1.2-2.3-1.8c0,0-0.1-0.1-0.1-0.1c-1.9-1.5-3.6-3.2-5.2-5c-1-1.1-1.9-2.3-2.8-3.5c-5.7-7.7-9.1-17.3-9.1-27.6
			c0-25.8,20.9-46.6,46.6-46.6C93.2,15.8,114.1,36.7,114.1,62.4z"/>
	</g>
	<g>
		<path class="st115" d="M46,72.2l-5.3,28.3l0,0.1c-0.1-0.1-0.2-0.2-0.3-0.2c-0.8-0.6-1.5-1.2-2.3-1.8c0,0-0.1-0.1-0.1-0.1
			c-1.9-1.5-3.6-3.2-5.2-5C36.8,82.5,46,72.2,46,72.2z"/>
	</g>
	<g>
		<g>
			<path class="st116" d="M113.3,71.4c-1,4.9-2.7,9.6-5.1,13.8c-1.5,2.6-3.2,5-5.1,7.3c-0.5,0.6-1.1,1.2-1.6,1.8
				c-2.3,2.5-4.9,4.7-7.7,6.6c-2.5-0.2-5.1-0.6-7.7-1.2c-1.6-0.3-3.1-0.8-4.7-1.2c-1.7-0.5-3.4-1.1-5.1-1.7
				c-2.4-0.9-4.8-1.9-7.1-2.9c-11.5-5.3-20.1-11.5-20.1-11.5s-0.8-1.5-1.6-4.1c-0.4-1.3-0.9-2.8-1.3-4.5c0-0.2-0.1-0.3-0.1-0.5
				c0,0,0,0,0-0.1c-0.1-0.3-0.1-0.7-0.2-1c-0.6-3.1-0.9-6.7-0.5-10.4c0.3-3.6,2.7-8.2,5.1-13.4c0.7-1.6,1.5-3.2,2.1-4.9
				c0.5-1.1,0.9-2.2,1.2-3.4c0.7-2.2,1.3-4.4,1.6-6.6c0.1-0.5,0.1-1,0.2-1.6c0.1-1,0-2.1-0.1-3.1c0,0,7.8-5.4,16.4,0.5
				c2.3,1.6,3.6,3.3,4.3,5.1c0.8,2,1,4,1.3,5.9c0.3,2.8,0.8,5.2,3.6,6.6c6.3,3.2,12.4,7.1,12.1,13.5c-0.3,6.5,3.3,14.1,8.5,10.5
				C104.8,68.8,109.4,69.2,113.3,71.4z"/>
		</g>
	</g>
	<g>
		<path class="st115" d="M81.5,106.9c-2,0.7-4.2,1.2-6.3,1.5c-2.5,0.4-5.1,0.6-7.7,0.6c-8.5,0-16.5-2.3-23.4-6.3
			c-1.2-0.7-2.3-1.4-3.4-2.2c-0.1-0.1-0.2-0.2-0.3-0.2c-0.8-0.6-1.5-1.2-2.3-1.8c0.2-1.5,0.4-3,0.7-4.5c0-0.1,0-0.3,0.1-0.4
			c0.3-1.6,0.6-3.1,0.9-4.6c0-0.1,0-0.1,0-0.2c1-4.3,2.3-8.3,3.9-11.7c0.8-1.5,1.6-2.8,2.5-4c0.1-0.1,0.2-0.3,0.3-0.4
			c0.5-0.6,1-1.2,1.6-1.7c0.7-0.7,1.4-1.2,2.1-1.8c0,0,0.1,0,0.1,0c2.2-1.7,4.5-2.9,6.8-3.7c5-1.8,9.9-1.8,13.9-1.1
			c0.2,0,0.5,0.1,0.7,0.1c1.6,0.3,3.1,0.7,4.3,1.1c3.2,1,5.1,2.2,5.1,2.2l0.4,30.6L81.5,106.9z"/>
	</g>
	<g>
		<g>
			<path class="st116" d="M113.6,69.3c-0.1,0.7-0.2,1.5-0.4,2.2c-1,4.9-2.7,9.6-5.1,13.8c-3.3-1.3-7.3-3.4-11.1-5.5
				c-6.1-3.3-11.4-6.7-11.4-6.7l-2-4.1l-8-15.9l-2-4L73,47.8l-1.9-3.7l-0.4-0.7L70.5,43l-1.4-2.9l1.3-1c0,0,1.3-1,1.3-1l4.7-3.7
				c0,0,0,3.1,1.3,5.9c0.9,1.9,2.3,3.6,4.8,4.3c4.9,1.3,9.2,1.6,12,8c2.7,6.2-0.9,10.6,4.3,14c5.2,3.4,7-1.2,14.5,2.5
				C113.3,69.1,113.5,69.2,113.6,69.3z"/>
		</g>
	</g>
	<g>
		<g>
			<g>
				<g>
					<path class="st117" d="M70.2,54.9L71,65.5c0,0-1.7,3.2-7.9,4.1c-4.6,0.7-6.2-1.6-6.2-1.6l0.5-9.4l11-3.3L70.2,54.9z"/>
				</g>
			</g>
		</g>
	</g>
	<g>
		<g>
			<g>
				<g>
					<path d="M68.4,55.5c0,0.3-0.1,0.6-0.2,1c-2,5.5-8.4,7.1-11.1,7.5l0.3-5.3L68.4,55.5z"/>
				</g>
			</g>
		</g>
	</g>
	<g>
		<g>
			<g>
				<g>
					<path class="st117" d="M53.2,34.7c0,0-4.6,13.7-1.9,21c2.7,7.2,9.4,5.5,13.3,3.7c3.9-1.8,5.6-4.4,5.6-4.4s3.9,1,6.1-2.8
						c2.2-3.7,0.3-7.6-1.9-8.4c-2.2-0.7-4.7,1-4.7,1l1.7-4C71.4,40.8,61.3,22,53.2,34.7z"/>
				</g>
			</g>
		</g>
	</g>
	<g>
		<g>
			<g>
				<g>
					<path class="st116" d="M69.7,44.8c0,0-5.6,1.7-10.1-4.2c-4.6-5.9-4.4-8.6-4.4-8.6l-3.3,6.9c0,0-1.3-4.4,0.2-7.5
						c1.5-3.1,3.5-2.6,3.5-2.6l12.8,1.9l4.3,9.7L69.7,44.8z"/>
				</g>
			</g>
		</g>
	</g>
	<g>
		<path d="M57.8,55c-0.2,0-0.3,0-0.3,0c-0.3,0-0.5-0.3-0.4-0.6c0-0.3,0.3-0.5,0.6-0.4c0.1,0,1.7,0.2,3.1-1.8
			c0.2-0.2,0.5-0.3,0.7-0.1c0.2,0.2,0.3,0.5,0.1,0.7C60.1,54.7,58.4,55,57.8,55z"/>
	</g>
	<g>
		<path d="M55.3,51.5c-0.2,0-0.4-0.1-0.5-0.3c-1.2-2.8,0.6-5.9,0.7-6c0.1-0.2,0.4-0.3,0.7-0.2c0.2,0.1,0.3,0.4,0.2,0.7
			c0,0-1.6,2.8-0.6,5.1c0.1,0.3,0,0.5-0.3,0.7C55.4,51.5,55.3,51.5,55.3,51.5z"/>
	</g>
	<g>
		<path d="M61.2,45.1c-0.2,0-0.3-0.1-0.4-0.2c-0.2-0.4-0.5-0.6-0.8-0.6c-0.6-0.1-1.3,0.3-1.5,0.5c-0.2,0.2-0.5,0.1-0.7-0.1
			c-0.2-0.2-0.1-0.5,0.1-0.7c0,0,1.2-0.9,2.3-0.7c0.6,0.1,1.1,0.5,1.5,1.1c0.1,0.2,0.1,0.5-0.2,0.7C61.4,45,61.3,45.1,61.2,45.1z"/>
	</g>
	<g>
		<path d="M53.8,45.2c-0.2,0-0.4-0.1-0.5-0.3c-0.2-0.4-0.6-1-0.9-1c-0.2,0-0.4,0.2-0.7,0.7c-0.1,0.2-0.4,0.3-0.7,0.2
			c-0.2-0.1-0.3-0.4-0.2-0.7c0.5-0.8,1-1.2,1.6-1.2c1,0.1,1.7,1.4,1.8,1.6c0.1,0.3,0,0.5-0.2,0.7C53.9,45.1,53.8,45.2,53.8,45.2z"/>
	</g>
	<g>
		<path d="M60.6,41.2c-0.1,0-0.2,0-0.3-0.1c-1.7-1.4-2.5-0.6-2.5-0.6c-0.2,0.2-0.5,0.2-0.7,0c-0.2-0.2-0.2-0.5,0-0.7
			c0.1-0.1,1.4-1.4,3.8,0.5c0.2,0.2,0.2,0.5,0.1,0.7C60.9,41.2,60.7,41.2,60.6,41.2z"/>
	</g>
	<g>
		<path d="M51.9,41.5c-0.1,0-0.2,0-0.3-0.1c-0.2-0.2-0.3-0.5-0.1-0.7c0.2-0.2,1.2-1.4,2.1-1.3c0.3,0,0.7,0.2,1,0.9
			c0.1,0.3,0,0.5-0.3,0.7c-0.3,0.1-0.5,0-0.7-0.3c0-0.1-0.1-0.2-0.2-0.3c-0.3,0-0.9,0.5-1.2,0.9C52.2,41.5,52.1,41.5,51.9,41.5z"/>
	</g>
	<g>
		<path d="M70.8,51c-0.1,0-0.2,0-0.3-0.1c-0.2-0.2-0.3-0.5-0.1-0.7l3.2-4.1c0.2-0.2,0.5-0.3,0.7-0.1c0.2,0.2,0.3,0.5,0.1,0.7
			l-3.2,4.1C71.1,51,71,51,70.8,51z"/>
	</g>
	<g>
		<path d="M74.5,49.7c0,0-2.5-0.1-2.5-0.1c-0.3,0-0.5-0.3-0.5-0.5c0-0.3,0.2-0.5,0.5-0.5l2.5,0.1c0.3,0,0.5,0.3,0.5,0.5
			C75,49.5,74.8,49.7,74.5,49.7z"/>
	</g>
	<g>
		<path class="st118" d="M86.9,104.8c-1.7,0.8-3.5,1.5-5.4,2.1c-2,0.7-4.2,1.2-6.3,1.5c-2.5,0.4-5.1,0.6-7.7,0.6
			c-8.5,0-16.5-2.3-23.4-6.3c-1.2-0.7-2.3-1.4-3.4-2.2c-0.1-0.1-0.2-0.2-0.3-0.2c-0.8-0.6-1.5-1.2-2.3-1.8c0,0-0.1-0.1-0.1-0.1
			c0.2-1.5,7.5-25.8,8-26.3l1.3-0.8c1.6-1.4,2.4-1.7,2.9-2c0,0,0.1,0,0.1,0c0,0-4.8,26-4.8,26l23.9-1.4c0,0,1.2-0.1,1.2-0.1
			s0.7-5.9,2.2-13.3c1.9-9.3,3.3-14.7,3.3-14.7c2.4-0.1,5.1,2.2,5.1,2.2l5.1,31.8L86.9,104.8z"/>
	</g>
	<g>
		<path class="st115" d="M103.1,92.6c-0.5,0.6-1.1,1.2-1.6,1.8c-2.3,2.5-4.9,4.7-7.7,6.6c-2.2,1.5-4.4,2.8-6.8,3.9
			c-1.7,0.8-3.5,1.5-5.4,2.1c-2,0.7-4.2,1.2-6.3,1.5l2.3-20c0.3-4.3,3.6-20.5,3.6-20.5s1,0.3,2.5,1.1c3.2,1.6,9,5,13.5,10.7
			c1.8,2.3,3.4,5,4.5,8.1C102.2,89.4,102.7,91,103.1,92.6z"/>
	</g>
	<g>
		<path class="st119" d="M61.5,70.3c-3.7,0-5-1.8-5-1.9c-0.2-0.2-0.1-0.5,0.1-0.7c0.2-0.2,0.5-0.1,0.7,0.1c0,0,1.7,2.2,6.9,1.1
			c5.3-1.1,6.9-4.4,6.9-4.5c0.1-0.3,0.4-0.4,0.7-0.3c0.3,0.1,0.4,0.4,0.3,0.7c-0.1,0.2-1.8,3.9-7.6,5.1
			C63.3,70.2,62.3,70.3,61.5,70.3z"/>
	</g>
</g>
</svg>
