<?xml version="1.0" encoding="utf-8"?>
<!-- Generator: Adobe Illustrator 24.3.0, SVG Export Plug-In . SVG Version: 6.00 Build 0)  -->
<svg version="1.1" xmlns="http://www.w3.org/2000/svg" xmlns:xlink="http://www.w3.org/1999/xlink" x="0px" y="0px"
	 viewBox="0 0 247 240" style="enable-background:new 0 0 247 240;" xml:space="preserve">
<style type="text/css">
	.st0{display:none;}
	.st1{display:inline;}
	.st2{fill:#EDDDD6;}
	.st3{fill:#010101;}
	.st4{fill:#2F3180;}
	.st5{fill:#F3C0BC;}
	.st6{fill:#FFFFFF;}
	.st7{fill:#474780;}
	.st8{fill:#FCB45D;}
	.st9{fill:#F8A398;}
</style>
<g id="Calque_1" class="st0">
	<g id="Calque_1_1_" class="st1">
	</g>
	<g id="Calque_2_1_" class="st1">
		<g>
			<path class="st2" d="M232.2,121.6c0,21.9-6.4,42.3-17.4,59.4c-2.3,3.7-4.9,7.2-7.7,10.6c-0.3,0.4-0.6,0.8-0.9,1.2
				c-2,2.4-4.2,4.8-6.4,7c-3.6,3.6-7.5,7-11.6,10c-0.1,0.1-0.2,0.2-0.4,0.3c-0.9,0.7-1.7,1.3-2.6,1.9c-1,0.8-2.1,1.5-3.2,2.2
				c-0.2,0.2-0.5,0.3-0.7,0.4c-3,1.9-6.1,3.7-9.3,5.4c-0.7,0.4-1.5,0.8-2.2,1.1c-3.4,1.7-7,3.1-10.6,4.5c-4.8,1.7-9.7,3.1-14.8,4.2
				c-7.3,1.5-14.9,2.3-22.7,2.3c-1.5,0-3.1,0-4.6-0.1c-1.8-0.1-3.5-0.2-5.3-0.4c-0.1,0-0.2,0-0.3,0c-3.3-0.3-6.6-0.8-9.8-1.4
				c-1.8-0.3-3.7-0.7-5.5-1.1c-5.3-1.2-10.3-2.8-15.3-4.8c-4.3-1.7-8.4-3.6-12.5-5.9c-0.1,0-0.2-0.1-0.3-0.1
				c-0.5-0.3-0.9-0.5-1.4-0.8c-1.4-0.8-2.9-1.7-4.3-2.6c-1.3-0.8-2.6-1.7-3.8-2.5c-2.2-1.5-4.5-3.2-6.6-4.9
				c-0.3-0.2-0.5-0.4-0.8-0.6c-3-2.5-5.9-5.2-8.6-8c-0.8-0.8-1.5-1.6-2.3-2.4c-1.8-1.9-3.4-3.8-5-5.8c-0.4-0.4-0.7-0.8-1-1.3
				l-0.1-0.1c-1.8-2.4-3.6-4.8-5.2-7.3c-11.3-17.3-17.9-38-17.9-60.2c0-61,49.4-110.4,110.4-110.4S232.2,60.7,232.2,121.6z"/>
		</g>
		<g>
			<path class="st3" d="M171.4,144.8c0,0-2-109.1-40.6-113.1S87.6,54.9,87.6,54.9S77.9,58.4,76,73c-1.9,14.7-2.9,73.2-2.9,73.2
				l87.2,5L171.4,144.8z"/>
		</g>
		<g>
			<path class="st4" d="M211.6,184.9c-1.4,2.3-2.8,4.5-4.4,6.7c-0.3,0.4-0.6,0.8-0.9,1.2c-2,2.4-4.2,4.8-6.4,7
				c-3.6,3.6-7.5,7-11.6,10c-2,1.5-4,3-6.2,4.3c-0.2,0.2-0.5,0.3-0.7,0.4c-3,1.9-6.1,3.7-9.3,5.4c-0.7,0.4-1.5,0.8-2.2,1.1
				c-3.4,1.7-7,3.1-10.6,4.5c-4.8,1.7-9.7,3.1-14.8,4.2c-7.3,1.5-14.9,2.3-22.7,2.3c-1.5,0-3.1,0-4.6-0.1c-1.8-0.1-3.5-0.2-5.3-0.4
				c-0.1,0-0.2,0-0.3,0c-3.3-0.3-6.6-0.8-9.8-1.4c-1.8-0.3-3.7-0.7-5.5-1.1c-5.3-1.2-10.3-2.8-15.3-4.8c-4.3-1.7-8.4-3.6-12.5-5.9
				c-0.1,0-0.2-0.1-0.3-0.1c-0.5-0.3-0.9-0.5-1.4-0.8c-1.4-0.8-2.9-1.7-4.3-2.6c-7.4-29.2-10.3-55.6-1.2-66.3c0.4-0.6,1-1.1,1.6-1.6
				c2.2-1.8,4.5-3.5,6.8-5.1c0.1,0,0.2-0.1,0.2-0.1c4-2.6,8.3-4.8,12.8-6.7l0.1-0.1c29-12.1,66.3-10.1,86.7-1.6
				C182.9,138.7,199,162.7,211.6,184.9z"/>
		</g>
		<g>
			<g>
				<g>
					<g>
						<path class="st5" d="M104,105.7v26.8c0,0,4.8,7.7,20.5,9c11.7,0.9,15.4-5,15.4-5l-2.8-23.5l-28.3-6.2L104,105.7z"/>
					</g>
				</g>
			</g>
		</g>
		<g>
			<g>
				<g>
					<g>
						<path class="st3" d="M104.1,104.1c0.1,0.7,0.3,1.6,0.8,2.6c6,13.4,27.1,19,33.8,19.6l-1.6-13.2L104.1,104.1z"/>
					</g>
				</g>
			</g>
		</g>
		<g>
			<g>
				<path class="st6" d="M189.2,199l-1.2,11c-0.9,0.7-1.7,1.3-2.6,1.9l1.5-13.1c1.8-16.5-6.4-37-6.5-37.2c-0.2-0.6,0-1.3,0.7-1.5
					c0.6-0.3,1.3,0,1.5,0.6C182.9,161.5,191.1,181.9,189.2,199z"/>
			</g>
		</g>
		<g>
			<g>
				<g>
					<g>
						<path class="st5" d="M143.1,51.9c0,0,14.1,33.6,8.5,52.3c-5.5,18.7-22.6,15.5-32.8,11.7S104,105.8,104,105.8
							s-9.6,3.1-15.8-5.9c-6.2-9-2.2-19.1,3.3-21.4s11.9,1.8,11.9,1.8l-4.9-9.8C98.5,70.5,120.6,21.5,143.1,51.9z"/>
					</g>
				</g>
			</g>
		</g>
		<g>
			<path class="st3" d="M140.9,94.4c-0.1,0-0.2,0-0.4-0.1c-0.6-0.2-1-0.9-0.7-1.5c2-6-2.4-12.7-2.4-12.8c-0.4-0.5-0.2-1.3,0.3-1.6
				c0.5-0.4,1.3-0.2,1.6,0.3c0.2,0.3,5.1,7.7,2.7,14.9C141.8,94.1,141.4,94.4,140.9,94.4z"/>
		</g>
		<g>
			<path class="st3" d="M101.7,96c-0.3,0-0.6-0.1-0.9-0.4l-8.9-9.8c-0.4-0.5-0.4-1.2,0.1-1.7c0.5-0.4,1.2-0.4,1.7,0.1l8.9,9.8
				c0.4,0.5,0.4,1.2-0.1,1.7C102.2,95.9,101.9,96,101.7,96z"/>
		</g>
		<g>
			<path class="st3" d="M92.1,93.2c-0.6,0-1.1-0.4-1.2-1s0.4-1.2,1-1.3l6.3-0.8c0.6-0.1,1.2,0.4,1.3,1c0.1,0.6-0.4,1.2-1,1.3
				l-6.3,0.8C92.2,93.2,92.2,93.2,92.1,93.2z"/>
		</g>
		<g>
			<path class="st3" d="M148,67.2c-0.1,0-0.2,0-0.2,0l-5.9-1.2c-0.6-0.1-1.1-0.8-0.9-1.4c0.1-0.6,0.8-1.1,1.4-0.9l5.9,1.2
				c0.6,0.1,1.1,0.8,0.9,1.4C149,66.8,148.5,67.2,148,67.2z"/>
		</g>
		<g>
			<path class="st3" d="M123.3,70.5c-0.4,0-0.9-0.2-1.1-0.7c-0.3-0.6,0-1.3,0.6-1.6l7.9-3.8c0.6-0.3,1.3,0,1.6,0.6s0,1.3-0.6,1.6
				l-7.9,3.8C123.6,70.5,123.4,70.5,123.3,70.5z"/>
		</g>
		<g>
			<path class="st3" d="M145.3,80.9c-0.5,0-1-0.3-1.1-0.9l-1.7-6.1c-0.1-0.4,0-0.8,0.2-1.1l1.9-2.2c0.4-0.5,1.2-0.6,1.7-0.1
				c0.5,0.4,0.6,1.2,0.1,1.7l-1.5,1.7l1.5,5.5c0.2,0.6-0.2,1.3-0.8,1.5C145.5,80.9,145.4,80.9,145.3,80.9z"/>
		</g>
		<g>
			<path class="st3" d="M126,82.1c-0.5,0-1-0.3-1.1-0.9l-1.7-6.1c-0.1-0.4,0-0.8,0.3-1.1l2.6-2.9c0.4-0.5,1.2-0.5,1.7-0.1
				s0.5,1.2,0.1,1.7l-2.2,2.4l1.5,5.4c0.2,0.6-0.2,1.3-0.8,1.5C126.2,82.1,126.1,82.1,126,82.1z"/>
		</g>
		<g>
			<path class="st3" d="M152.7,63.8c0,0-9.3-1.8-15.8-1.6s-6.5,0.2-6.5,0.2L127.8,52v11.4c0,0-4.6,0.8-9.1,3.2
				c-4.5,2.4-7.6,5.3-7.6,5.3l-4.3-8.8l1.8,11.1l-5.3,6.1l-7.9-7.4l5.1-15.4c0,0,12-16.7,12.9-16.9s18.2-1.2,18.2-1.2
				s14.9,5.8,15.2,6.3C147.3,46.1,152.7,63.8,152.7,63.8z"/>
		</g>
		<g>
			<path class="st6" d="M126.6,141.8c-6.8,0-15.3-1.8-24.4-8.1c-0.5-0.4-0.7-1.1-0.3-1.6c0.4-0.5,1.1-0.7,1.6-0.3
				c20.5,14.2,37,4.8,37.7,4.4c0.6-0.3,1.3-0.1,1.6,0.4c0.3,0.6,0.1,1.3-0.4,1.6C142.4,138.3,136.1,141.8,126.6,141.8z"/>
		</g>
		<g>
			<path class="st4" d="M111.6,231.5c-3.3-0.3-6.6-0.8-9.8-1.4c-1.8-0.3-3.7-0.7-5.5-1.1c-5.3-1.2-10.3-2.8-15.3-4.8
				c-4.3-1.7-8.4-3.6-12.5-5.9c-0.1,0-0.2-0.1-0.3-0.1c-0.5-0.3-0.9-0.5-1.4-0.8c-1.4-0.8-2.9-1.7-4.3-2.6c-1.3-0.8-2.6-1.7-3.8-2.5
				c-2.2-1.5-4.5-3.2-6.6-4.9c-0.3-0.2-0.5-0.4-0.8-0.6c-3-2.5-5.9-5.2-8.6-8c-0.8-0.8-1.5-1.6-2.3-2.4c-1.8-1.9-3.4-3.8-5-5.8
				c-0.4-0.4-0.7-0.8-1-1.3l-0.1-0.1c7.8-19.7,18-32.5,27-40.7c3-2.7,5.8-4.9,8.4-6.7c0.1,0,0.2-0.1,0.2-0.1
				c6.7-4.6,11.7-6.4,12.8-6.7l0.1-0.1C83.1,134.8,111.6,231.5,111.6,231.5z"/>
		</g>
		<g>
			<path class="st3" d="M137.4,104.6c-2.7,0-6.2-2.8-7-3.5c-0.4-0.3-0.5-0.9-0.3-1.3c0.2-0.5,0.6-0.8,1.1-0.8l10.9,0.2
				c0.5,0,0.9,0.3,1.1,0.7c0.2,0.4,0.1,0.9-0.2,1.3c-0.1,0.1-1.7,1.8-4.1,3C138.4,104.5,137.9,104.6,137.4,104.6z M135.1,101.5
				c1.2,0.6,2.2,1,2.7,0.7c0.4-0.2,0.7-0.4,1.1-0.7H135.1z"/>
		</g>
		<g>
			<path class="st6" d="M104,105.2c0,3.1-2.5,5.6-5.6,5.6s-5.6-2.5-5.6-5.6s2.5-5.6,5.6-5.6S104,102.1,104,105.2z"/>
		</g>
	</g>
	<g id="Calque_3" class="st1">
	</g>
</g>
<g id="Calque_2">
	<g>
		<path class="st2" d="M231.6,121.7c0,21.1-5.9,40.7-16.1,57.5c-1.8,2.9-3.7,5.7-5.7,8.4c-5.4,7.2-11.7,13.7-18.6,19.5
			c-2.6,2.1-5.3,4.1-8,6c-2,1.4-4.1,2.7-6.2,3.9c-12,7-25.5,11.8-39.9,13.9c-4.4,0.6-8.9,1-13.5,1.1c-0.7,0-1.5,0-2.2,0
			c-8.9,0-17.6-1.1-25.9-3.1c-12.1-2.9-23.4-7.8-33.6-14.3c-3.7-2.3-7.2-4.9-10.6-7.7c-4.8-3.9-9.2-8.2-13.2-12.8
			c-1.8-2.2-3.6-4.4-5.3-6.6c-0.4-0.5-0.7-1-1.1-1.5c-4-5.7-7.6-11.7-10.5-18.1C14.6,153.8,11,138.1,11,121.7
			C11,60.8,60.4,11.4,121.3,11.4S231.6,60.8,231.6,121.7z"/>
	</g>
	<g>
		<path class="st7" d="M191.1,207.1c-2.6,2.1-5.3,4.1-8,6c-2,1.4-4.1,2.7-6.2,3.9c-12,7-25.5,11.8-39.9,13.9
			c-4.4,0.6-8.9,1-13.5,1.1c-0.7,0-1.5,0-2.2,0c-8.9,0-17.6-1.1-25.9-3.1c-12.1-2.9-23.4-7.8-33.6-14.3c-3.7-2.3-7.2-4.9-10.6-7.7
			c-4.8-3.9-9.2-8.2-13.2-12.8c-1.8-2.2-3.6-4.4-5.3-6.6c7.5-17.8,21.3-43.3,40-49.6c29.5-9.8,92.4,4,92.4,4
			S186.6,152.3,191.1,207.1z"/>
	</g>
	<g>
		<path class="st7" d="M176.9,217c-12,7-25.5,11.8-39.9,13.9c-4.4,0.6-8.9,1-13.5,1.1c-0.7,0-1.5,0-2.2,0c-8.9,0-17.6-1.1-25.9-3.1
			c-12.1-2.9-23.4-7.8-33.6-14.3c-3.7-2.3-7.2-4.9-10.6-7.7c0.2-28.8,2.4-55.2,9.3-61.5c3.5-3.2,7.7-5.7,12.1-7.6
			c10.2-4.4,21.7-5.9,29.2-6.4c5-0.3,8.2-0.2,8.2-0.2s6.7,0.3,15.7,1.3c2.5,0.3,5,0.6,7.6,1c15.3,2.2,33.2,6.5,37.9,14.6
			C175.4,155,176.6,186.1,176.9,217z"/>
	</g>
	<g>
		<path class="st8" d="M142.5,73.4c0,0,14.3-24.2,2.4-29.4c-11.9-5.2-26.1,8.1-26.1,8.1s-26.6,2.4-36.7,16.6
			C72,83,96.9,107.9,96.9,107.9L142.5,73.4z"/>
	</g>
	<g>
		<g>
			<path class="st9" d="M101.6,113.3l-1.5,24.5c0,0,4,7.3,18.2,9.4c10.6,1.5,14.5-0.7,14.5-0.7l-0.7-12.5l-0.7-12.2l-25.5-7.3
				L101.6,113.3z"/>
		</g>
	</g>
	<g>
		<g>
			<path class="st3" d="M105.9,114.6c0,0.7,0.2,1.5,0.6,2.4c4.7,12.6,19.6,16.1,25.7,17.1l-0.7-12.2L105.9,114.6z"/>
		</g>
	</g>
	<g>
		<g>
			<path class="st9" d="M140.3,66.3c0,0,11,31.5,4.9,48.3c-6.1,16.8-21.5,12.9-30.6,8.8s-13-10.1-13-10.1s-8.9,2.3-14.2-6.3
				c-5.2-8.6-0.9-17.6,4.2-19.3c5.1-1.8,10.8,2.3,10.8,2.3l-4-9.2C98.5,80.8,121.5,37.3,140.3,66.3z"/>
		</g>
	</g>
	<g>
		<path class="st3" d="M100.8,103.4c-0.3,0-0.5-0.1-0.7-0.3l-10.5-8.6c-0.5-0.4-0.6-1.2-0.2-1.7c0.4-0.5,1.2-0.6,1.7-0.2l10.5,8.6
			c0.5,0.4,0.6,1.2,0.2,1.7C101.5,103.2,101.2,103.4,100.8,103.4z"/>
	</g>
	<g>
		<path class="st3" d="M90.8,102.6c-0.6,0-1.1-0.4-1.2-1c-0.1-0.6,0.3-1.3,0.9-1.4l7.4-1.4c0.6-0.1,1.3,0.3,1.4,0.9
			c0.1,0.6-0.3,1.3-0.9,1.4l-7.4,1.4C90.9,102.6,90.9,102.6,90.8,102.6z"/>
	</g>
	<g>
		<path class="st3" d="M119.1,79.5c-0.3,0-0.6-0.1-0.8-0.3c-0.5-0.4-0.5-1.2-0.1-1.7c3.7-4.2,8.2-3.1,10-1.9
			c0.6,0.3,0.7,1.1,0.4,1.6c-0.3,0.6-1.1,0.7-1.6,0.4c-0.4-0.2-3.8-2.2-7,1.5C119.7,79.4,119.4,79.5,119.1,79.5z"/>
	</g>
	<g>
		<path class="st3" d="M142.9,78.5c-0.3,0-0.6-0.1-0.8-0.3c-2.3-2.2-5-0.9-5.1-0.8c-0.6,0.3-1.3,0.1-1.6-0.5
			c-0.3-0.6-0.1-1.3,0.5-1.6c0.2-0.1,4.2-2.1,7.8,1.2c0.5,0.4,0.5,1.2,0.1,1.7C143.5,78.4,143.2,78.5,142.9,78.5z"/>
	</g>
	<g>
		<path class="st3" d="M137.3,101.6c-0.1,0-0.3,0-0.4-0.1c-0.6-0.2-0.9-0.9-0.7-1.5c3.1-8.6-1.1-13.6-1.1-13.6
			c-0.4-0.5-0.4-1.2,0.1-1.7c0.5-0.4,1.2-0.4,1.7,0.1c0.2,0.2,5.1,6.1,1.5,16C138.3,101.3,137.8,101.6,137.3,101.6z"/>
	</g>
	<g>
		<path class="st3" d="M142.1,90.3c-0.5,0-1-0.4-1.2-0.9l-1.2-5.7c-0.1-0.6,0.3-1.3,0.9-1.4c0.6-0.1,1.3,0.3,1.4,0.9l1.2,5.7
			c0.1,0.6-0.3,1.3-0.9,1.4C142.2,90.3,142.1,90.3,142.1,90.3z"/>
	</g>
	<g>
		<path class="st3" d="M124.2,90.7c-0.5,0-1-0.4-1.2-0.9l-1.2-5.7c-0.1-0.6,0.3-1.3,0.9-1.4c0.6-0.1,1.3,0.3,1.4,0.9l1.2,5.7
			c0.1,0.6-0.3,1.3-0.9,1.4C124.3,90.7,124.2,90.7,124.2,90.7z"/>
	</g>
	<g>
		<path class="st8" d="M142.5,73.4c0,0-2.4-5.1-8.5-5.5c-6.1-0.4-9.9,3.7-9.9,3.7s2,10.5-6.6,15.4c-8.6,5-15,3-15,3l-5.9-2.5
			l-3.9-9.1l18.6-17.7l23.3-10.5l10.9,11.1L142.5,73.4z"/>
	</g>
	<g>
		<path class="st3" d="M130.6,110.9c-1,0-6.6-0.2-8.8-5.8c-0.2-0.6,0.1-1.3,0.7-1.5c0.6-0.2,1.3,0.1,1.5,0.7
			c1.7,4.4,6.6,4.3,6.6,4.3c0.6-0.1,1.2,0.5,1.2,1.1c0,0.7-0.5,1.2-1.1,1.2C130.7,110.9,130.6,110.9,130.6,110.9z"/>
	</g>
	<g>
		<path class="st6" d="M126.2,149.1c-16,0-28.2-11.1-28.8-11.7c-0.5-0.4-0.5-1.2-0.1-1.7c0.4-0.5,1.2-0.5,1.7-0.1
			c0.2,0.1,16.2,14.7,34.7,10.1c0.6-0.2,1.3,0.2,1.4,0.9c0.2,0.6-0.2,1.3-0.9,1.4C131.5,148.8,128.8,149.1,126.2,149.1z"/>
	</g>
</g>
</svg>
