<?xml version="1.0" encoding="utf-8"?>
<!-- Generator: Adobe Illustrator 24.3.0, SVG Export Plug-In . SVG Version: 6.00 Build 0)  -->
<svg version="1.1" id="Calque_1" xmlns="http://www.w3.org/2000/svg" xmlns:xlink="http://www.w3.org/1999/xlink" x="0px" y="0px"
	 viewBox="0 0 500 500" style="enable-background:new 0 0 500 500;" xml:space="preserve">
<style type="text/css">
	.st0{fill:#EBEBEB;}
	.st1{fill:#FFFFFF;}
	.st2{fill:#C7C7C7;}
	.st3{fill:#263238;}
	.st4{fill:#009081;}
	.st5{fill:#455A64;}
	.st6{fill:#37474F;}
	.st7{opacity:0.6;fill:#2B2E81;enable-background:new    ;}
	.st8{opacity:0.6;fill:#009081;enable-background:new    ;}
	.st9{opacity:0.1;fill:#009081;enable-background:new    ;}
	.st10{opacity:0.1;enable-background:new    ;}
	.st11{opacity:0.2;enable-background:new    ;}
	.st12{opacity:0.4;}
	.st13{opacity:0.1;}
	.st14{fill:#FCFCFC;}
	.st15{fill:#D3766A;}
	.st16{fill:#2B2E81;}
	.st17{opacity:0.3;fill:#37474F;enable-background:new    ;}
	.st18{fill:#FF99BA;}
</style>
<g id="freepik--background-complete--inject-608">
	<path class="st0" d="M114,116.4l-70.8-0.1c0,0,3.5-4.6,7.4-5.1c0,0,7.6-22.4,20.2-22.6c11.7-0.1,16.4,13.8,16.4,13.8
		S92.8,96.2,98,99s8.1,11.1,8.1,11.1S111.9,113.2,114,116.4z"/>
	<path class="st0" d="M367.2,136.4l89.5,0.1c0,0,0-5.7-12.3-6.9c0,0-11.2-25-28.4-21.7c-10.7,2.1-16.2,16.8-16.2,16.8
		s-8.1-11.6-14.5-9.3S374.9,130,374.9,130S368.3,133.2,367.2,136.4z"/>
	<path class="st0" d="M352.5,222l60.8,0.1c0,0-5.7-5.4-8.3-5.4s-10-18-19.5-17.2S371,213.6,371,213.6S359.4,210,352.5,222z"/>
	<path class="st0" d="M343.4,67.5l52,0.1c0,0-2.6-3.4-5.4-3.8c0,0-5.5-16.5-14.8-16.6c-8.6-0.1-12.1,10.1-12.1,10.1s-4-4.6-7.8-2.5
		s-6,8.1-6,8.1S345,65.2,343.4,67.5z"/>
	<path class="st0" d="M77.8,193.4l52,0.1c0,0-2.6-3.4-5.4-3.8c0,0-5.5-16.5-14.8-16.6c-8.6-0.1-12.1,10.1-12.1,10.1s-4-4.6-7.8-2.5
		s-6,8.1-6,8.1S79.4,191.1,77.8,193.4z"/>
	<polygon class="st0" points="48.2,199.2 48.2,390.2 451.8,390.2 451.8,279.4 416.8,279.4 416.8,321.9 407.8,321.9 407.8,297.8 
		363.3,297.8 363.3,335.9 357.4,335.9 357.4,185.5 318.7,185.5 318.7,271 298.8,271 298.8,301.6 292.8,301.6 292.8,282.4 
		257.6,282.4 257.6,339.7 247.4,339.7 247.4,293.1 215.2,293.1 215.2,257.7 193.3,257.7 193.3,237.5 168,237.5 168,327 159.5,327 
		159.5,228.6 117.8,228.6 117.8,282 112,282 112,238.4 69.7,238.4 69.7,199.2 	"/>
	<rect x="441.6" y="284.7" class="st1" width="5.9" height="8.1"/>
	<rect x="431.3" y="284.7" class="st1" width="5.9" height="8.1"/>
	<rect x="421.1" y="284.7" class="st1" width="5.9" height="8.1"/>
	<rect x="441.6" y="297" class="st1" width="5.9" height="8.1"/>
	<rect x="431.3" y="297" class="st1" width="5.9" height="8.1"/>
	<rect x="421.1" y="297" class="st1" width="5.9" height="8.1"/>
	<rect x="441.6" y="309.2" class="st1" width="5.9" height="8.1"/>
	<rect x="431.3" y="309.2" class="st1" width="5.9" height="8.1"/>
	<rect x="421.1" y="309.2" class="st1" width="5.9" height="8.1"/>
	<rect x="441.6" y="321.4" class="st1" width="5.9" height="8.1"/>
	<rect x="431.3" y="321.4" class="st1" width="5.9" height="8.1"/>
	<rect x="421.1" y="321.4" class="st1" width="5.9" height="8.1"/>
	<rect x="236.5" y="298.9" class="st1" width="5.9" height="6.8"/>
	<rect x="226.2" y="298.9" class="st1" width="5.9" height="6.8"/>
	<rect x="215.9" y="298.9" class="st1" width="5.9" height="6.8"/>
	<rect x="236.5" y="309.1" class="st1" width="5.9" height="6.8"/>
	<rect x="226.2" y="309.1" class="st1" width="5.9" height="6.8"/>
	<rect x="215.9" y="309.1" class="st1" width="5.9" height="6.8"/>
	<rect x="236.5" y="319.3" class="st1" width="5.9" height="6.8"/>
	<rect x="226.2" y="319.3" class="st1" width="5.9" height="6.8"/>
	<rect x="215.9" y="319.3" class="st1" width="5.9" height="6.8"/>
	<rect x="236.5" y="329.5" class="st1" width="5.9" height="6.8"/>
	<rect x="226.2" y="329.5" class="st1" width="5.9" height="6.8"/>
	<rect x="215.9" y="329.5" class="st1" width="5.9" height="6.8"/>
	<rect x="236.5" y="340" class="st1" width="5.9" height="6.8"/>
	<rect x="226.2" y="340" class="st1" width="5.9" height="6.8"/>
	<rect x="215.9" y="340" class="st1" width="5.9" height="6.8"/>
	<rect x="236.5" y="350.4" class="st1" width="5.9" height="6.8"/>
	<rect x="226.2" y="350.4" class="st1" width="5.9" height="6.8"/>
	<rect x="215.9" y="350.4" class="st1" width="5.9" height="6.8"/>
	<rect x="236.5" y="360.9" class="st1" width="5.9" height="6.8"/>
	<rect x="226.2" y="360.9" class="st1" width="5.9" height="6.8"/>
	<rect x="215.9" y="360.9" class="st1" width="5.9" height="6.8"/>
	<rect x="236.5" y="371.4" class="st1" width="5.9" height="6.8"/>
	<rect x="226.2" y="371.4" class="st1" width="5.9" height="6.8"/>
	<rect x="215.9" y="371.4" class="st1" width="5.9" height="6.8"/>
	<rect x="368.6" y="303" class="st1" width="34.1" height="5.1"/>
	<rect x="368.6" y="312.9" class="st1" width="34.1" height="5.1"/>
	<rect x="368.6" y="322.8" class="st1" width="34.1" height="5.1"/>
	<rect x="368.6" y="332.6" class="st1" width="34.1" height="5.1"/>
	<rect x="368.6" y="342.5" class="st1" width="34.1" height="5.1"/>
	<rect x="368.6" y="352.4" class="st1" width="34.1" height="5.1"/>
	<rect x="368.6" y="362.2" class="st1" width="34.1" height="5.1"/>
	<rect x="368.6" y="372.1" class="st1" width="34.1" height="5.1"/>
	<rect x="123.1" y="233.4" class="st1" width="31.4" height="5.1"/>
	<rect x="123.1" y="243.2" class="st1" width="31.4" height="5.1"/>
	<rect x="123.1" y="253.1" class="st1" width="31.4" height="5.1"/>
	<rect x="123.1" y="263" class="st1" width="31.4" height="5.1"/>
	<rect x="123.1" y="272.8" class="st1" width="31.4" height="5.1"/>
	<rect x="123.1" y="282.7" class="st1" width="31.4" height="5.1"/>
	<rect x="123.1" y="292.6" class="st1" width="31.4" height="5.1"/>
	<rect x="123.1" y="302.4" class="st1" width="31.4" height="5.1"/>
	<rect x="123.1" y="311.8" class="st1" width="31.4" height="5.1"/>
	<rect x="123.1" y="321.2" class="st1" width="31.4" height="5.1"/>
	<rect x="123.1" y="330.6" class="st1" width="31.4" height="5.1"/>
	<rect x="123.1" y="339.9" class="st1" width="31.4" height="5.1"/>
	<rect x="72.4" y="245.3" class="st1" width="33.1" height="5.1"/>
	<rect x="72.4" y="255.2" class="st1" width="33.1" height="5.1"/>
	<rect x="72.4" y="265" class="st1" width="33.1" height="5.1"/>
	<rect x="72.4" y="274.9" class="st1" width="33.1" height="5.1"/>
	<rect x="72.4" y="284.8" class="st1" width="33.1" height="5.1"/>
	<rect x="72.4" y="294.6" class="st1" width="33.1" height="5.1"/>
	<rect x="72.4" y="304.5" class="st1" width="33.1" height="5.1"/>
	<rect x="72.4" y="314.3" class="st1" width="33.1" height="5.1"/>
	<rect x="72.4" y="323.2" class="st1" width="33.1" height="5.1"/>
	<rect x="72.4" y="332" class="st1" width="33.1" height="5.1"/>
	<rect x="72.4" y="340.8" class="st1" width="33.1" height="5.1"/>
	<rect x="272" y="287" class="st1" width="10.5" height="4.9"/>
	<rect x="272" y="296.5" class="st1" width="10.5" height="4.9"/>
	<rect x="272" y="306" class="st1" width="10.5" height="4.9"/>
	<rect x="272" y="315.6" class="st1" width="10.5" height="4.9"/>
	<rect x="272" y="325.1" class="st1" width="10.5" height="4.9"/>
	<rect x="272" y="334.6" class="st1" width="10.5" height="4.9"/>
	<rect x="272" y="344.1" class="st1" width="10.5" height="4.9"/>
	<rect x="272" y="353.7" class="st1" width="10.5" height="4.9"/>
	<rect x="257.7" y="287" class="st1" width="10.5" height="4.9"/>
	<rect x="257.7" y="296.5" class="st1" width="10.5" height="4.9"/>
	<rect x="257.7" y="306" class="st1" width="10.5" height="4.9"/>
	<rect x="257.7" y="315.6" class="st1" width="10.5" height="4.9"/>
	<rect x="257.7" y="325.1" class="st1" width="10.5" height="4.9"/>
	<rect x="257.7" y="334.6" class="st1" width="10.5" height="4.9"/>
	<rect x="257.7" y="344.1" class="st1" width="10.5" height="4.9"/>
	<rect x="257.7" y="353.7" class="st1" width="10.5" height="4.9"/>
	<rect x="340.5" y="190.6" class="st1" width="11" height="7.7"/>
	<rect x="324.2" y="190.6" class="st1" width="11" height="7.7"/>
	<rect x="340.5" y="202" class="st1" width="11" height="7.7"/>
	<rect x="324.2" y="202" class="st1" width="11" height="7.7"/>
	<rect x="340.5" y="213.4" class="st1" width="11" height="7.7"/>
	<rect x="324.2" y="213.4" class="st1" width="11" height="7.7"/>
	<rect x="340.5" y="224.8" class="st1" width="11" height="7.7"/>
	<rect x="324.2" y="224.8" class="st1" width="11" height="7.7"/>
	<rect x="340.5" y="236.1" class="st1" width="11" height="7.7"/>
	<rect x="324.2" y="236.1" class="st1" width="11" height="7.7"/>
	<rect x="340.5" y="247.5" class="st1" width="11" height="7.7"/>
	<rect x="324.2" y="247.5" class="st1" width="11" height="7.7"/>
	<rect x="340.5" y="258.9" class="st1" width="11" height="7.7"/>
	<rect x="324.2" y="258.9" class="st1" width="11" height="7.7"/>
	<rect x="340.5" y="270.2" class="st1" width="11" height="7.7"/>
	<rect x="324.2" y="270.2" class="st1" width="11" height="7.7"/>
	<rect x="303.9" y="274.4" class="st1" width="11" height="7.7"/>
	<rect x="303.9" y="285.8" class="st1" width="11" height="7.7"/>
	<rect x="303.9" y="297.1" class="st1" width="11" height="7.7"/>
	<rect x="303.9" y="308.5" class="st1" width="11" height="7.7"/>
	<rect x="303.9" y="319.9" class="st1" width="11" height="7.7"/>
	<rect x="303.9" y="331.3" class="st1" width="11" height="7.7"/>
	<rect x="340.5" y="281.5" class="st1" width="11" height="7.7"/>
	<rect x="324.2" y="281.5" class="st1" width="11" height="7.7"/>
	<rect x="303.9" y="342.5" class="st1" width="11" height="7.7"/>
	<rect x="340.5" y="292.7" class="st1" width="11" height="7.7"/>
	<rect x="324.2" y="292.7" class="st1" width="11" height="7.7"/>
	<rect x="303.9" y="353.7" class="st1" width="11" height="7.7"/>
	<rect x="340.5" y="304" class="st1" width="11" height="7.7"/>
	<rect x="324.2" y="304" class="st1" width="11" height="7.7"/>
	<rect x="303.9" y="365" class="st1" width="11" height="7.7"/>
	<rect x="340.5" y="315.2" class="st1" width="11" height="7.7"/>
	<rect x="324.2" y="315.2" class="st1" width="11" height="7.7"/>
	<rect x="340.5" y="326.5" class="st1" width="11" height="7.7"/>
	<rect x="324.2" y="326.5" class="st1" width="11" height="7.7"/>
	<rect x="204.8" y="262.7" class="st1" width="5.9" height="6.8"/>
	<rect x="194.5" y="262.7" class="st1" width="5.9" height="6.8"/>
	<rect x="204.8" y="272.9" class="st1" width="5.9" height="6.8"/>
	<rect x="194.5" y="272.9" class="st1" width="5.9" height="6.8"/>
	<rect x="204.8" y="283.1" class="st1" width="5.9" height="6.8"/>
	<rect x="194.5" y="283.1" class="st1" width="5.9" height="6.8"/>
	<rect x="204.8" y="293.3" class="st1" width="5.9" height="6.8"/>
	<rect x="194.5" y="293.3" class="st1" width="5.9" height="6.8"/>
	<rect x="204.8" y="303.8" class="st1" width="5.9" height="6.8"/>
	<rect x="194.5" y="303.8" class="st1" width="5.9" height="6.8"/>
	<rect x="204.8" y="314.2" class="st1" width="5.9" height="6.8"/>
	<rect x="194.5" y="314.2" class="st1" width="5.9" height="6.8"/>
	<rect x="204.8" y="324.7" class="st1" width="5.9" height="6.8"/>
	<rect x="194.5" y="324.7" class="st1" width="5.9" height="6.8"/>
	<rect x="204.8" y="335.1" class="st1" width="5.9" height="6.8"/>
	<rect x="194.5" y="335.1" class="st1" width="5.9" height="6.8"/>
	<rect x="204.8" y="345.7" class="st1" width="5.9" height="6.8"/>
	<rect x="194.5" y="345.7" class="st1" width="5.9" height="6.8"/>
	<rect x="204.8" y="356.3" class="st1" width="5.9" height="6.8"/>
	<rect x="194.5" y="356.3" class="st1" width="5.9" height="6.8"/>
	<rect x="204.8" y="366.8" class="st1" width="5.9" height="6.8"/>
	<rect x="194.5" y="366.8" class="st1" width="5.9" height="6.8"/>
	<rect x="60.1" y="202.8" class="st1" width="5.9" height="8"/>
	<rect x="49.8" y="202.8" class="st1" width="5.9" height="8"/>
	<rect x="60.1" y="214.8" class="st1" width="5.9" height="8"/>
	<rect x="49.8" y="214.8" class="st1" width="5.9" height="8"/>
	<rect x="60.1" y="226.8" class="st1" width="5.9" height="8"/>
	<rect x="49.8" y="226.8" class="st1" width="5.9" height="8"/>
	<rect x="60.1" y="238.8" class="st1" width="5.9" height="8"/>
	<rect x="49.8" y="238.8" class="st1" width="5.9" height="8"/>
	<rect x="60.1" y="251.2" class="st1" width="5.9" height="8"/>
	<rect x="49.8" y="251.2" class="st1" width="5.9" height="8"/>
	<rect x="60.1" y="263.5" class="st1" width="5.9" height="8"/>
	<rect x="49.8" y="263.5" class="st1" width="5.9" height="8"/>
	<rect x="60.1" y="275.8" class="st1" width="5.9" height="8"/>
	<rect x="49.8" y="275.8" class="st1" width="5.9" height="8"/>
	<rect x="60.1" y="288.1" class="st1" width="5.9" height="8"/>
	<rect x="49.8" y="288.1" class="st1" width="5.9" height="8"/>
	<rect x="60.1" y="300.6" class="st1" width="5.9" height="8"/>
	<rect x="49.8" y="300.6" class="st1" width="5.9" height="8"/>
	<rect x="60.1" y="313" class="st1" width="5.9" height="8"/>
	<rect x="49.8" y="313" class="st1" width="5.9" height="8"/>
	<rect x="60.1" y="325.5" class="st1" width="5.9" height="8"/>
	<rect x="49.8" y="325.5" class="st1" width="5.9" height="8"/>
	<rect x="60.1" y="337.9" class="st1" width="5.9" height="8"/>
	<rect x="49.8" y="337.9" class="st1" width="5.9" height="8"/>
	<rect x="182.8" y="262.7" class="st1" width="5.9" height="6.8"/>
	<rect x="172.5" y="262.7" class="st1" width="5.9" height="6.8"/>
	<rect x="182.8" y="252.2" class="st1" width="5.9" height="6.8"/>
	<rect x="172.5" y="252.2" class="st1" width="5.9" height="6.8"/>
	<rect x="182.8" y="241.7" class="st1" width="5.9" height="6.8"/>
	<rect x="172.5" y="241.7" class="st1" width="5.9" height="6.8"/>
	<rect x="182.8" y="272.9" class="st1" width="5.9" height="6.8"/>
	<rect x="172.5" y="272.9" class="st1" width="5.9" height="6.8"/>
	<rect x="182.8" y="283.1" class="st1" width="5.9" height="6.8"/>
	<rect x="172.5" y="283.1" class="st1" width="5.9" height="6.8"/>
	<rect x="182.8" y="293.3" class="st1" width="5.9" height="6.8"/>
	<rect x="172.5" y="293.3" class="st1" width="5.9" height="6.8"/>
	<rect x="182.8" y="303.8" class="st1" width="5.9" height="6.8"/>
	<rect x="172.5" y="303.8" class="st1" width="5.9" height="6.8"/>
	<rect x="182.8" y="314.2" class="st1" width="5.9" height="6.8"/>
	<rect x="172.5" y="314.2" class="st1" width="5.9" height="6.8"/>
	<rect x="182.8" y="324.7" class="st1" width="5.9" height="6.8"/>
	<rect x="172.5" y="324.7" class="st1" width="5.9" height="6.8"/>
	<rect x="182.8" y="335.1" class="st1" width="5.9" height="6.8"/>
	<rect x="172.5" y="335.1" class="st1" width="5.9" height="6.8"/>
	<rect x="182.8" y="345.7" class="st1" width="5.9" height="6.8"/>
	<rect x="172.5" y="345.7" class="st1" width="5.9" height="6.8"/>
	<rect x="182.8" y="356.3" class="st1" width="5.9" height="6.8"/>
	<rect x="172.5" y="356.3" class="st1" width="5.9" height="6.8"/>
	<rect x="182.8" y="366.8" class="st1" width="5.9" height="6.8"/>
	<rect x="172.5" y="366.8" class="st1" width="5.9" height="6.8"/>
</g>
<g id="freepik--Shadow--inject-608">
	<ellipse class="st0" cx="250" cy="447.2" rx="208.3" ry="22"/>
</g>
<g id="freepik--Floor--inject-608">
	<rect x="41.4" y="382.9" class="st2" width="417.3" height="7.3"/>
	<path class="st3" d="M70.6,382.9c0.7,2.4,0.7,4.9,0,7.3c-0.4-1.2-0.5-2.4-0.5-3.6C70.1,385.3,70.3,384.1,70.6,382.9z"/>
	<path class="st3" d="M103.2,382.9c0.3,1.2,0.5,2.4,0.5,3.6c0,1.2-0.1,2.5-0.5,3.6C102.6,387.8,102.6,385.3,103.2,382.9L103.2,382.9
		z"/>
	<path class="st3" d="M135.9,382.9c0.7,2.4,0.7,4.9,0,7.3c-0.4-1.2-0.5-2.4-0.5-3.6C135.3,385.3,135.5,384.1,135.9,382.9z"/>
	<path class="st3" d="M168.5,382.9c0.3,1.2,0.5,2.4,0.5,3.6c0,1.2-0.1,2.5-0.5,3.6C167.8,387.8,167.8,385.3,168.5,382.9L168.5,382.9
		z"/>
	<path class="st3" d="M201.1,382.9c0.7,2.4,0.7,4.9,0,7.3c-0.4-1.2-0.5-2.4-0.5-3.6C200.6,385.3,200.7,384.1,201.1,382.9z"/>
	<path class="st3" d="M233.7,382.9c0.3,1.2,0.5,2.4,0.5,3.6c0,1.2-0.1,2.5-0.5,3.6C233,387.8,233,385.3,233.7,382.9L233.7,382.9z"/>
	<path class="st3" d="M266.3,382.9c0.7,2.4,0.7,4.9,0,7.3c-0.4-1.2-0.5-2.4-0.5-3.6C265.8,385.3,266,384.1,266.3,382.9z"/>
	<path class="st3" d="M298.9,382.9c0.3,1.2,0.5,2.4,0.5,3.6c0,1.2-0.1,2.5-0.5,3.6C298.3,387.8,298.3,385.3,298.9,382.9L298.9,382.9
		z"/>
	<path class="st3" d="M331.5,382.9c0.7,2.4,0.7,4.9,0,7.3c-0.4-1.2-0.5-2.4-0.5-3.6C331,385.3,331.2,384.1,331.5,382.9z"/>
	<path class="st3" d="M364.1,382.9c0.3,1.2,0.5,2.4,0.5,3.6c0,1.2-0.1,2.5-0.5,3.6C363.5,387.8,363.5,385.3,364.1,382.9L364.1,382.9
		z"/>
	<path class="st3" d="M396.8,382.9c0.7,2.4,0.7,4.9,0,7.3c-0.4-1.2-0.5-2.4-0.5-3.6C396.3,385.3,396.4,384.1,396.8,382.9z"/>
	<path class="st3" d="M429.4,382.9c0.3,1.2,0.5,2.4,0.5,3.6c0,1.2-0.1,2.5-0.5,3.6C428.7,387.8,428.7,385.3,429.4,382.9L429.4,382.9
		z"/>
	<polygon class="st3" points="41.4,390.2 93.5,389.9 145.7,389.9 250,389.7 354.3,389.9 406.5,389.9 458.6,390.2 406.5,390.4 
		354.3,390.5 250,390.7 145.7,390.5 93.5,390.4 	"/>
</g>
<g id="freepik--Plant--inject-608">
	<path class="st4" d="M420.7,317.5c5.5-11.3,15.1-17.1,25.9-13.9s12.5,18.3,4.4,22.1s-16.2-7.3-20.4-9.6S420.7,317.5,420.7,317.5z"
		/>
	<path class="st3" d="M415.4,347.5c0-1.4,0.1-2.7,0.1-4.1c0.1-2.7,0.2-5.4,0.3-8.1c0.2-5,0.7-9.8,2.8-14.4c1.8-4.1,4.9-7.6,8.7-10
		c1.4-0.9,3-1.5,4.6-2c1.5-1.5,3.3-2.5,5.3-2.9c2.5-0.5,5.1-0.6,7.6-0.2c0.1,0,0.1,0.1,0,0.1c-2.4-0.3-4.9-0.1-7.2,0.5
		c-1,0.3-2,0.6-2.9,1.1c-0.6,0.3-1.1,0.7-1.7,1.1c3-0.7,6.1-0.4,8.9,0.8c0.6-0.1,1.2-0.2,1.8-0.1c0.8,0,1.6,0.1,2.3,0.3
		c1.6,0.4,3.1,1.1,4.5,2c0.1,0,0,0.2-0.1,0.1c-1.4-0.7-2.8-1.3-4.3-1.6c-0.7-0.2-1.5-0.3-2.2-0.3c-0.4,0-0.8,0-1.2,0
		c3.1,1.4,5.6,3.9,7,7c0,0.1-0.1,0.1-0.1,0.1c-1.7-3.6-5-6.3-8.9-7.1c-0.2-0.1-0.5-0.1-0.7-0.1c0.1,0.4,0.1,0.7,0.1,1.1
		c0.1,0.5,0.2,1.1,0.3,1.6c0.2,1.1,0.5,2.2,0.9,3.3c0.4,1.1,0.8,2.2,1.3,3.2c0.5,1.1,1.1,2.1,1.8,3.1c0,0,0,0.1,0,0.1
		c0,0-0.1,0-0.1,0c0,0,0,0,0,0c-0.6-1-1.4-2-2-3c-0.6-1-1.1-2.1-1.5-3.1c-0.4-1.1-0.8-2.2-1-3.4c-0.1-0.6-0.2-1.2-0.3-1.8
		c-0.1-0.4-0.1-0.7-0.1-1.1c-1.3-0.2-2.6-0.2-3.8-0.1c0.5,2.7,1,5.5,2.5,7.8c0,0.1-0.1,0.1-0.1,0.1c-0.7-1.2-1.3-2.5-1.9-3.9
		c-0.5-1.3-0.8-2.6-0.9-4c-2.2,0.3-4.4,1-6.4,2.1c-3.7,2.2-6.6,5.4-8.5,9.3c-1.9,4.2-2.9,8.7-3.1,13.3c-0.4,5.8-0.4,11.6-1,17.3
		c0,0.4-0.6,0.5-0.7,0.1C415.3,350.1,415.3,348.8,415.4,347.5z"/>
	<path class="st3" d="M428.1,309.9c0.4-0.4,0.8-0.8,1.2-1.2c0.5-0.4,0.9-0.7,1.4-1.1c0.9-0.7,2-1.1,3.1-1.4c0.1,0,0.1,0.1,0,0.1
		c-1.1,0.3-2.2,0.8-3.1,1.5c-0.5,0.3-0.9,0.7-1.3,1.1c-0.4,0.4-0.8,0.8-1.3,1.1C428.1,310.1,428.1,310,428.1,309.9
		C428.1,310,428.1,309.9,428.1,309.9z"/>
	<path class="st3" d="M445.6,314c0.9,1.1,1.7,2.2,2.5,3.3c0.7,1.2,1.4,2.4,1.9,3.7c0,0,0,0.1-0.1,0c-1.3-2.5-2.7-4.8-4.4-7
		C445.4,314,445.5,313.9,445.6,314z"/>
	<path class="st3" d="M433.8,312.9c0.1,0.7,0.3,1.4,0.6,2c0.3,0.6,0.7,1.2,1,1.8 M435.4,316.7c-1-1.1-1.6-2.4-1.7-3.9
		c0,0,0.1,0,0.1,0L435.4,316.7z"/>
	<path class="st4" d="M416.1,317.8c0,0-7.8-9.8-22.8-6.3c-14.3,3.3-20.8,29.4-6.4,32.6s11.9-21,17.1-25.2
		C407.9,315.8,413.4,316.5,416.1,317.8z"/>
	<path class="st3" d="M381.8,325.7c1-0.9,2-1.6,3.1-2.4c1-0.7,2.1-1.3,3.3-1.6c0.6-0.9,1.2-1.7,2-2.5c1.3-1.4,2.9-2.6,4.5-3.6h-0.5
		c-0.8,0-1.6,0-2.4,0c-1.6,0.1-3.2,0.5-4.6,1.2c-0.1,0-0.1-0.1-0.1-0.1c1.5-0.6,3-1.1,4.6-1.4c0.8-0.1,1.6-0.2,2.3-0.2
		c0.4,0,0.8,0,1.3,0.1h0.2c1.4-0.7,2.8-1.2,4.3-1.6l-0.4-0.1c-0.7-0.2-1.5-0.3-2.2-0.4c-1.5-0.2-3-0.1-4.5,0.1c0,0-0.1-0.1,0-0.1
		c0,0,0,0,0,0c1.5-0.2,3-0.2,4.5-0.2c1.3,0,2.5,0.2,3.8,0.5c0.9-0.2,1.8-0.3,2.7-0.3c5.2-0.2,10.9,1.7,14.1,6s3.9,10,4.4,15.2
		c0.9,7.2,1.1,14.5,0.6,21.8c0,0.4-0.6,0.4-0.6,0c-0.2-6.2-0.4-12.3-1-18.5c-0.3-2.8-0.6-5.7-1-8.5c-0.3-2.4-1-4.8-2.1-7
		c-1.1-2.3-2.9-4.2-5.1-5.4c-2.2-1.3-4.6-2-7.2-2.2c-2.3-0.2-4.5,0-6.7,0.6c0.1,0.4,0.1,0.9,0,1.3c0,0.6-0.2,1.1-0.3,1.6
		c-0.2,0.5-0.4,1-0.6,1.5c-0.3,0.5-0.6,1-0.9,1.5c0,0.1-0.2,0-0.1-0.1c0.6-0.9,1-1.9,1.2-3c0.1-0.5,0.2-1,0.2-1.5c0-0.4,0-0.8,0-1.2
		c-2.4,0.7-4.6,1.9-6.5,3.5c-0.4,0.3-0.7,0.6-1.1,0.9c0.5,0.5,0.9,1,1.3,1.6c0.5,0.8,1,1.5,1.3,2.4c0.7,1.7,1.2,3.4,1.4,5.2
		c0,0.1-0.1,0.1-0.1,0c-0.3-1.7-0.8-3.4-1.7-4.9c-0.4-0.8-0.8-1.5-1.3-2.2c-0.3-0.4-0.5-0.7-0.8-1.1c-0.1-0.2-0.3-0.4-0.5-0.6
		c-1.8,1.7-3.2,3.8-4.2,6l0,0c0.7,0.7,1.3,1.6,1.8,2.5c0.5,1,1,2,1.4,3c0.7,2,1.3,4,1.8,6.1c0,0,0,0.1-0.1,0.1s-0.1,0-0.1-0.1
		c-0.5-2.1-1.2-4.1-2.1-6c-0.5-0.9-0.9-1.9-1.4-2.8c-0.5-0.8-1-1.7-1.4-2.6c-1,2.2-1.6,4.5-1.7,7c0,0,0,0.1-0.1,0.1s-0.1,0-0.1-0.1
		l0,0c0.3-3.8,1.4-7.4,3.4-10.7c-0.9,0.4-1.8,0.8-2.7,1.2c-1.1,0.6-2.2,1.3-3.1,2.2C381.8,325.9,381.7,325.8,381.8,325.7z"/>
	<path class="st3" d="M392.8,326.3c0.5,1.5,1,2.9,1.4,4.4c0.4,1.4,0.6,2.9,0.7,4.4h-0.1c-0.4-3-1.1-5.9-2.1-8.8c0,0,0-0.1,0-0.1
		C392.7,326.2,392.8,326.2,392.8,326.3C392.8,326.3,392.8,326.3,392.8,326.3z"/>
	<path class="st3" d="M383.3,322.6c0.6-0.6,1.3-1,2-1.4c0.7-0.3,1.5-0.6,2.3-0.8c0.1,0,0.1,0.1,0,0.1c-0.8,0.2-1.5,0.5-2.2,0.9
		C384.7,321.8,384,322.2,383.3,322.6L383.3,322.6z"/>
	<path class="st4" d="M408.8,304.7c0,0-1.4-17.5-14.5-23.2c-10.9-4.8-17.1,7.5-9.4,15C391.1,302.5,401.1,299.8,408.8,304.7z"/>
	<path class="st3" d="M387.3,284.9c2,0.8,3.9,1.7,5.8,2.7c1.6,0.9,3.1,1.9,4.5,3c-0.2-0.4-0.4-0.9-0.6-1.3c-0.3-0.7-0.7-1.3-1.1-2
		c-0.8-1.3-1.8-2.6-2.9-3.6c-0.1-0.1,0-0.2,0.1-0.1c1.1,1.1,2.1,2.3,3,3.5c0.4,0.6,0.9,1.3,1.2,2c0.4,0.6,0.7,1.3,0.9,2l0.1,0.1
		c2.3,1.8,4.4,3.9,6.2,6.1c0-0.2-0.1-0.4-0.1-0.5c-0.2-0.9-0.5-1.7-0.8-2.5c-0.6-1.8-1.4-3.5-2.4-5.1c0-0.1,0.1-0.1,0.1-0.1
		c1,1.6,1.9,3.3,2.7,5c0.4,0.8,0.7,1.7,0.9,2.6c0.2,0.6,0.3,1.2,0.4,1.8c0.6,0.7,1.1,1.4,1.7,2.2c5.6,8,8.4,17.6,9.1,27.3
		c0.2,2.9,0.2,5.8,0.1,8.6c0,2.9-0.3,5.8-0.8,8.7c0,0.2-0.3,0.1-0.3,0c0.1-2.5,0.3-5.1,0.4-7.6s0-5.1-0.2-7.6
		c-0.4-5-1.4-10-2.8-14.9c-1.5-5-3.7-9.7-6.6-14c-0.5-0.1-1.1-0.3-1.6-0.4l-2-0.5c-1.3-0.3-2.5-0.8-3.6-1.3c0,0,0-0.1,0-0.1
		s0.1,0,0.1,0c1.2,0.6,2.4,1.1,3.7,1.3c1,0.2,2.1,0.3,3.1,0.6c-0.9-1.4-1.9-2.7-3-4c-2.5,0.2-5,0-7.4-0.5c-1.3-0.3-2.6-0.7-3.8-1.2
		c-1.3-0.5-2.5-1.1-3.8-1.7c-0.1,0,0-0.2,0.1-0.1c2.3,1.3,4.9,2.1,7.5,2.5c2.3,0.4,4.7,0.6,7,0.6c-0.9-1.1-1.9-2.1-2.9-3.1
		c-3.4-3.4-7.5-6.1-12-7.8C387.1,285,387.2,284.8,387.3,284.9z"/>
	<path class="st3" d="M397.9,284.9c0.6,0.7,1.1,1.5,1.6,2.3c0.5,0.9,0.9,1.8,1.1,2.7c0,0,0,0,0,0c-0.4-0.9-0.8-1.8-1.2-2.6
		C398.9,286.5,398.4,285.7,397.9,284.9C397.7,285,397.8,284.9,397.9,284.9z"/>
	<path class="st3" d="M385.7,290.8c0.9,0.5,1.7,0.8,2.7,1.1c0.9,0.3,1.8,0.5,2.7,0.7v0.1c-1-0.1-1.9-0.3-2.8-0.6
		c-0.9-0.3-1.8-0.7-2.6-1.2C385.6,290.9,385.7,290.7,385.7,290.8z"/>
	<path class="st4" d="M418.9,301.5c0.1,0.8,2-6.4,13-12.7c10-5.7,22-20.7,12.2-30.1C436.1,251.1,415.2,267.7,418.9,301.5z"/>
	<path class="st3" d="M411.3,342.4c0.2-7.4,0.7-14.8,1.8-22.2c0.9-6.8,2.4-13.4,4.7-19.9c0.8-2.3,1.8-4.6,2.8-6.8
		c-0.1-0.9-0.1-1.8,0-2.6c0-1.1,0.2-2.2,0.3-3.4s0.2-2.2,0.4-3.4s0.4-2.2,0.4-3.3c0,0,0-0.1,0.1-0.1s0.1,0,0.1,0.1
		c-0.2,1.2-0.4,2.4-0.4,3.5c-0.1,1.1-0.1,2.2-0.2,3.2s0,2.2,0,3.2c0,0.4,0,0.8,0,1.2c1-2.2,2.1-4.4,3.4-6.5
		c-0.8-4.6,0.2-9.4,1.2-13.8c0-0.1,0.1,0,0.1,0c-0.5,2.3-0.7,4.7-0.7,7.1c0,1.9,0,3.8,0,5.6l0.8-1.4c1.4-2.3,3-4.6,4.6-6.8
		c-0.1-1.1-0.1-2.2,0.1-3.3c0.2-1.2,0.4-2.4,0.8-3.6c0.3-1.2,0.8-2.3,1.2-3.5c0.5-1.2,1.1-2.2,1.6-3.4c0-0.1,0.2,0,0.1,0.1
		c-0.6,1.1-1,2.3-1.4,3.5c-0.4,1.1-0.7,2.3-0.9,3.4c-0.2,1.2-0.4,2.3-0.6,3.5c-0.1,0.8-0.2,1.6-0.3,2.4c2.4-3.2,4.9-6.2,7.7-9
		c0.1-0.1,0.2,0,0.1,0.1c-4.2,4.8-7.9,9.9-11.2,15.3l-0.4,0.6c0.6-0.4,1.3-0.7,1.9-1c1.1-0.6,2.1-1.2,3.2-1.8s2.1-1.1,3.1-1.7
		c0.5-0.3,1.1-0.6,1.6-0.9c0.6-0.3,1.3-0.6,1.9-1c0.1-0.1,0.2,0.1,0.1,0.1c-1.1,0.6-2,1.5-3,2.1s-2.1,1.3-3.1,1.9
		c-2,1.1-4.1,1.9-6,3c-1.3,2.4-2.6,4.8-3.7,7.2c1.2-0.8,2.4-1.5,3.6-2.1c0.8-0.4,1.6-0.9,2.4-1.3c0.8-0.4,1.5-0.8,2.2-1.3
		c0.1-0.1,0.2,0,0.1,0.1c-1.3,1.2-2.7,2.1-4.2,3c-1.4,0.8-2.9,1.6-4.3,2.4c-1.2,2.6-2.2,5.2-3.2,7.9c-4.6,13.1-6.4,27.1-7.2,41
		c-0.2,4.1-0.4,8.3-0.4,12.4s0.2,8.3,0.2,12.4c0,0.1-0.2,0.1-0.2,0c-0.5-3.7-0.6-7.4-0.7-11.1S411.2,346.2,411.3,342.4z"/>
	<path class="st3" d="M431.3,282.9c2-0.9,4-1.9,5.9-3c1.9-1.1,3.8-2.3,5.6-3.5c0,0,0.1,0,0,0c-1.7,1.4-3.5,2.6-5.3,3.7
		c-1.9,1.1-3.9,2.1-6,2.9C431.3,283.1,431.2,283,431.3,282.9z"/>
	<path class="st3" d="M428.1,268c0.2-0.6,0.4-1.3,0.6-1.9 M428.7,266.1c0.1-0.4,0.3-0.7,0.4-1.1c0,0,0-0.1,0-0.1s0-0.1,0.1-0.2
		s0,0,0,0s-0.1,0.2-0.1,0.4c0,0.1,0,0.1-0.1,0.2c-0.7,2.5-1.3,5-1.6,7.5c0,0.1-0.1,0.1-0.1,0c0.1-1.6,0.4-3.2,0.8-4.7L428.7,266.1z"
		/>
	<polygon class="st5" points="399.6,345.1 400.4,354.4 402.8,382.9 428.6,382.9 431.1,354.4 431.9,345.1 	"/>
	<polygon class="st3" points="399.6,345.1 400.4,354.4 431.1,354.4 431.9,345.1 	"/>
	<rect x="397.1" y="341.4" class="st5" width="37.3" height="9"/>
</g>
<g id="freepik--Device--inject-608">
	<path class="st5" d="M137.8,59.7h224.6c5.6,0,10.2,4.6,10.2,10.2v346c0,5.6-4.6,10.2-10.2,10.2H137.8c-5.6,0-10.2-4.6-10.2-10.2
		v-346C127.6,64.2,132.1,59.7,137.8,59.7z"/>
	<rect x="138" y="85.5" class="st1" width="224.2" height="315.4"/>
	<path class="st6" d="M276.7,74.1v1.3c0,0.7-0.6,1.2-1.2,1.2h-50.9c-0.7,0-1.2-0.6-1.2-1.2v-1.3c0-0.7,0.6-1.2,1.2-1.2h50.9
		C276.1,72.9,276.7,73.4,276.7,74.1z"/>
	<path class="st6" d="M250,421.7c-3.8,0-6.9-3.1-6.9-6.9s3.1-6.9,6.9-6.9c3.8,0,6.9,3.1,6.9,6.9c0,0,0,0,0,0
		C256.9,418.6,253.8,421.7,250,421.7z"/>
</g>
<g id="freepik--Rocket--inject-608">
	<path class="st7" d="M172.5,366.2c0,3.2-2.6,5.8-5.8,5.8s-5.8-2.6-5.8-5.8c0-3.2,2.6-5.8,5.8-5.8h0
		C169.9,360.3,172.5,362.9,172.5,366.2z"/>
	<path class="st7" d="M179.6,355c0,1.6-1.3,2.8-2.8,2.8s-2.8-1.3-2.8-2.8c0-1.6,1.3-2.8,2.8-2.8l0,0
		C178.3,352.2,179.6,353.4,179.6,355z"/>
	<path class="st7" d="M304.3,363.3c0,1.6-1.3,2.8-2.8,2.8s-2.8-1.3-2.8-2.8s1.3-2.8,2.8-2.8l0,0C303,360.5,304.3,361.8,304.3,363.3z
		"/>
	<path class="st7" d="M361.1,389.3c0,1.6-1.3,2.8-2.8,2.8s-2.8-1.3-2.8-2.8s1.3-2.8,2.8-2.8l0,0
		C359.9,386.4,361.1,387.7,361.1,389.3z"/>
	<path class="st8" d="M356.8,397.6c0,1.9-1.5,3.4-3.4,3.4h0H142.2c-1.9,0.1-3.5-1.3-3.6-3.2c-0.1-1.9,1.3-3.5,3.2-3.6
		c0.1,0,0.2,0,0.4,0c0.3,0,0.5,0,0.8,0.1c0-3.7,3-6.7,6.7-6.7c1.8,0,3.5,0.7,4.8,2h0.1c0-0.4-0.1-0.8-0.1-1.2
		c0-7,5.6-12.6,12.6-12.7c1.9,0,3.8,0.4,5.6,1.3c0.3-5,4.6-8.7,9.6-8.4c3.5,0.2,6.5,2.4,7.7,5.6c2.3-3.7,6.3-5.9,10.7-5.9
		c0.8,0,1.6,0.1,2.4,0.2c-0.2-1-0.3-1.9-0.3-2.9c0-9.4,7.6-17.1,17.1-17.1c4.1,0,8,1.5,11.1,4.1c0.6-1.1,1.7-1.8,3-1.8
		c0.4,0,0.9,0.1,1.3,0.3l3.2-126.6h18.6l3.2,126.6c0.4-0.2,0.9-0.3,1.3-0.3c1.3,0,2.4,0.7,3,1.8c7.1-6.2,17.9-5.4,24.1,1.8
		c2.7,3.1,4.1,7.1,4.1,11.1c0,1-0.1,2-0.3,2.9c0.8-0.1,1.6-0.2,2.4-0.2c4.3,0,8.4,2.2,10.7,5.9c1.7-4.7,6.9-7,11.6-5.3
		c3.4,1.3,5.7,4.4,5.8,8c6.3-3.1,13.8-0.5,16.9,5.8c0.8,1.7,1.3,3.6,1.3,5.5c0,0.4,0,0.8-0.1,1.2h0.1c2.6-2.6,6.8-2.7,9.4-0.1
		c1.3,1.3,2,3,2,4.8c0.3-0.1,0.5-0.1,0.8-0.1C355.3,394.1,356.8,395.7,356.8,397.6C356.8,397.5,356.8,397.6,356.8,397.6z"/>
	<path class="st4" d="M214.2,144.2l-35.5,38.7c0,0,35.5,81.2,35.5,81.8l-5-67.7l11-11.3L214.2,144.2z"/>
	<path class="st9" d="M214.2,144.2l-35.5,38.7c0,0,35.5,81.2,35.5,81.8l-5-67.7l11-11.3L214.2,144.2z"/>
	<polygon class="st10" points="220.1,185.7 212.6,193.5 198.4,161.4 214.2,144.2 	"/>
	<path class="st4" d="M281.8,144.2l35.5,38.7c0,0-35.5,81.2-35.5,81.8l5-67.7l-11-11.3L281.8,144.2z"/>
	<path class="st9" d="M281.8,144.2l35.5,38.7c0,0-35.5,81.2-35.5,81.8l5-67.7l-11-11.3L281.8,144.2z"/>
	<polygon class="st10" points="275.8,185.7 283.3,193.5 297.5,161.4 281.8,144.2 	"/>
	<path class="st0" d="M268.5,212.2h-41.2c0,0-19.4-34.7-17.1-76c1.2-20.6,6.6-41.4,13-58.6c9-23.8,20-40.6,24.8-40.6
		s15.8,16.8,24.7,40.6c6.5,17.2,11.8,38,12.9,58.6C287.9,177.6,268.5,212.2,268.5,212.2z"/>
	<path class="st11" d="M272.6,130.9c0,13.1-10.6,23.7-23.8,23.7c-13.1,0-23.7-10.6-23.7-23.8s10.6-23.7,23.8-23.7c0,0,0,0,0,0
		C262,107.1,272.6,117.7,272.6,130.9C272.6,130.8,272.6,130.9,272.6,130.9z"/>
	<path class="st4" d="M271.8,128.4c0,13.1-10.6,23.7-23.8,23.7c-13.1,0-23.7-10.6-23.7-23.8c0-13.1,10.6-23.7,23.7-23.7
		C261.1,104.7,271.7,115.3,271.8,128.4C271.8,128.4,271.8,128.4,271.8,128.4z"/>
	<path class="st10" d="M271.8,128.4c0,13.1-10.6,23.7-23.8,23.7c-13.1,0-23.7-10.6-23.7-23.8c0-13.1,10.6-23.7,23.7-23.7
		C261.1,104.7,271.7,115.3,271.8,128.4C271.8,128.4,271.8,128.4,271.8,128.4z"/>
	<path class="st5" d="M264.5,128.4c0,9.1-7.3,16.5-16.4,16.5c-9.1,0-16.5-7.3-16.5-16.4c0-9.1,7.3-16.5,16.4-16.5c0,0,0,0,0,0
		C257.1,112,264.5,119.3,264.5,128.4z"/>
	<g class="st12">
		<path class="st1" d="M264.5,128.4c0,2.1-0.4,4.1-1.1,6l-9.4,9.4c-1.9,0.7-3.9,1.1-6,1.1c-1.5,0-3-0.2-4.4-0.6l20.3-20.3
			C264.3,125.4,264.5,126.9,264.5,128.4z"/>
		<path class="st1" d="M250.4,112.2l-18.7,18.7c-0.1-0.8-0.2-1.6-0.2-2.4c0-9.1,7.4-16.4,16.4-16.4C248.8,112,249.6,112,250.4,112.2
			z"/>
		<path class="st1" d="M262.4,120.5l-22.4,22.4c-0.4-0.2-0.9-0.5-1.3-0.8l22.8-22.9C261.9,119.6,262.2,120,262.4,120.5z"/>
	</g>
	<path class="st4" d="M272.8,77.6h-49.5c8.9-23.8,20-40.6,24.7-40.6S263.8,53.8,272.8,77.6z"/>
	<g class="st13">
		<path d="M231.8,72.5c0,0.8-0.6,1.4-1.4,1.4s-1.4-0.6-1.4-1.4s0.6-1.4,1.4-1.4l0,0C231.2,71.1,231.8,71.7,231.8,72.5
			C231.8,72.5,231.8,72.5,231.8,72.5z"/>
		<path d="M240.6,72.5c0,0.8-0.6,1.4-1.4,1.4c-0.8,0-1.4-0.6-1.4-1.4c0-0.8,0.6-1.4,1.4-1.4c0,0,0,0,0,0
			C240,71.1,240.6,71.7,240.6,72.5z"/>
		<path d="M249.4,72.5c0,0.8-0.6,1.4-1.4,1.4c0,0,0,0,0,0c-0.8,0-1.4-0.6-1.4-1.4c0-0.8,0.6-1.4,1.4-1.4
			C248.7,71.1,249.4,71.7,249.4,72.5C249.4,72.5,249.4,72.5,249.4,72.5L249.4,72.5z"/>
		<path d="M258.2,72.5c0,0.8-0.6,1.4-1.4,1.4c-0.8,0-1.4-0.6-1.4-1.4s0.6-1.4,1.4-1.4c0,0,0,0,0,0C257.6,71.1,258.2,71.7,258.2,72.5
			C258.2,72.5,258.2,72.5,258.2,72.5z"/>
		<path d="M267,72.5c0,0.8-0.6,1.4-1.4,1.4c-0.8,0-1.4-0.6-1.4-1.4c0-0.8,0.6-1.4,1.4-1.4c0,0,0,0,0,0C266.4,71.1,267,71.7,267,72.5
			L267,72.5z"/>
	</g>
	<path class="st4" d="M231.7,205.8c0,0.8-0.6,1.4-1.4,1.4c-0.8,0-1.4-0.6-1.4-1.4c0-0.8,0.6-1.4,1.4-1.4c0,0,0,0,0,0
		C231.1,204.4,231.7,205.1,231.7,205.8C231.7,205.8,231.7,205.8,231.7,205.8z"/>
	<path class="st4" d="M240.5,205.8c0,0.8-0.6,1.4-1.4,1.4c-0.8,0-1.4-0.6-1.4-1.4c0-0.8,0.6-1.4,1.4-1.4c0,0,0,0,0,0
		C239.9,204.5,240.5,205.1,240.5,205.8C240.5,205.8,240.5,205.8,240.5,205.8z"/>
	<path class="st4" d="M249.3,205.9c0,0.8-0.6,1.4-1.4,1.4c-0.8,0-1.4-0.6-1.4-1.4c0-0.8,0.6-1.4,1.4-1.4c0,0,0,0,0,0
		C248.7,204.5,249.3,205.1,249.3,205.9C249.3,205.8,249.3,205.8,249.3,205.9z"/>
	<path class="st4" d="M258.1,205.9c0,0.8-0.6,1.4-1.4,1.4c-0.8,0-1.4-0.6-1.4-1.4c0-0.8,0.6-1.4,1.4-1.4c0,0,0,0,0,0
		C257.5,204.5,258.1,205.1,258.1,205.9z"/>
	<path class="st4" d="M267,205.9c0.1,0.8-0.5,1.4-1.3,1.5c-0.8,0.1-1.4-0.5-1.5-1.3c0-0.1,0-0.2,0-0.2c0-0.8,0.6-1.4,1.4-1.4
		c0,0,0,0,0,0C266.4,204.5,267,205.1,267,205.9C267,205.9,267,205.9,267,205.9z"/>
	<polygon class="st4" points="264.7,224.6 231.2,224.5 229.7,212.2 266.3,212.2 	"/>
	<polygon class="st10" points="264.7,224.6 231.2,224.5 229.7,212.2 266.3,212.2 	"/>
	<polygon class="st10" points="266.3,212.2 265.5,218.2 230.2,216.9 229.7,212.2 	"/>
	<polygon class="st14" points="300.3,371.4 296.2,372.2 295.2,376.6 294.3,372.2 290.2,371.4 294.3,370.4 295.2,366.3 296.2,370.4 	
		"/>
	<polygon class="st14" points="260,336.4 255.8,337.1 254.9,341.5 254,337.1 249.8,336.4 253.9,335.4 254.9,331.2 255.8,335.4 	"/>
	<polygon class="st14" points="246.1,232.4 241.9,233.1 241,237.5 240.1,233.1 235.9,232.4 240.1,231.4 241,227.2 241.9,231.4 	"/>
	<polygon class="st14" points="199.7,379.8 197.4,380.2 196.9,382.6 196.3,380.2 194,379.8 196.3,379.2 196.9,376.9 197.4,379.2 	
		"/>
	<polygon class="st14" points="324.4,387 322.1,387.5 321.6,389.9 321.1,387.5 318.8,387 321.1,386.5 321.6,384.2 322.1,386.5 	"/>
	<polygon class="st14" points="167.8,395.6 165.5,396 164.9,398.5 164.4,396 162.1,395.6 164.4,395 164.9,392.7 165.5,395 	"/>
	<polygon class="st14" points="268.6,393.6 266.3,394 265.8,396.5 265.3,394 263,393.6 265.3,393 265.8,390.7 266.3,393 	"/>
	<polygon class="st14" points="251.6,329.7 249.3,330.1 248.8,332.6 248.3,330.1 246,329.7 248.3,329.2 248.8,326.9 249.3,329.2 	
		"/>
	<polygon class="st14" points="257.9,266.4 255.6,266.9 255,269.3 254.5,266.9 252.2,266.4 254.5,265.9 255,263.6 255.6,265.9 	"/>
	<path class="st14" d="M329.9,392.3c-0.4,0-0.6,0.4-0.6,0.8c0,0.3,0.3,0.6,0.6,0.6c0.4,0,0.6-0.4,0.6-0.8
		C330.5,392.6,330.2,392.4,329.9,392.3z"/>
	<path class="st14" d="M242.7,321.2c-0.4,0-0.6,0.4-0.6,0.8c0,0.3,0.3,0.6,0.6,0.6c0.4,0,0.6-0.4,0.6-0.8
		C243.2,321.5,243,321.3,242.7,321.2z"/>
	<path class="st14" d="M253.9,236.9c-0.4,0-0.7,0.3-0.7,0.7c0,0.4,0.3,0.7,0.7,0.7c0.4,0,0.7-0.3,0.7-0.7
		C254.5,237.1,254.2,236.9,253.9,236.9z"/>
	<path class="st14" d="M185.3,395.6c-0.4,0-0.6,0.4-0.6,0.8c0,0.3,0.3,0.6,0.6,0.6c0.4,0,0.6-0.4,0.6-0.8
		C185.9,395.9,185.7,395.6,185.3,395.6z"/>
	<path class="st14" d="M227.9,386.4c-0.4,0-0.7,0.3-0.7,0.7c0,0.4,0.3,0.7,0.7,0.7c0.4,0,0.7-0.3,0.7-0.7
		C228.6,386.7,228.3,386.4,227.9,386.4z"/>
	<path class="st14" d="M313.1,380.2c-0.3,0-0.4,0.3-0.4,0.5c0,0.2,0.2,0.4,0.4,0.4c0.3,0,0.4-0.3,0.4-0.5
		C313.4,380.4,313.3,380.3,313.1,380.2z"/>
	<path class="st14" d="M254.3,373.1c-0.3,0-0.4,0.3-0.4,0.5c0,0.2,0.2,0.4,0.4,0.4c0.3,0,0.4-0.3,0.4-0.5
		C254.7,373.3,254.5,373.2,254.3,373.1z"/>
	<path class="st14" d="M246,252.5c-0.3,0-0.4,0.3-0.4,0.5c0,0.2,0.2,0.4,0.4,0.4c0.3,0,0.4-0.3,0.4-0.5
		C246.4,252.7,246.2,252.6,246,252.5z"/>
	<path class="st14" d="M211.3,363.8c-0.3,0-0.4,0.3-0.4,0.5c0,0.2,0.2,0.4,0.4,0.4c0.3,0,0.4-0.3,0.4-0.5
		C211.7,364,211.5,363.9,211.3,363.8z"/>
	<path class="st14" d="M284.9,365.8c-0.7,0-1.3,0.6-1.3,1.3c0,0.7,0.6,1.3,1.3,1.3c0.7,0,1.3-0.6,1.3-1.3
		C286.2,366.3,285.6,365.8,284.9,365.8z"/>
	<path class="st14" d="M217.4,359.5c-0.7,0-1.3,0.6-1.3,1.3c0,0.7,0.6,1.3,1.3,1.3c0.7,0,1.3-0.6,1.3-1.3
		C218.7,360,218.1,359.5,217.4,359.5z"/>
	<path class="st14" d="M248.8,281.7c-0.7,0-1.3,0.6-1.3,1.3c0,0.7,0.6,1.3,1.3,1.3c0.7,0,1.3-0.6,1.3-1.3
		C250.1,282.3,249.5,281.7,248.8,281.7z"/>
</g>
<g id="freepik--start-button--inject-608">
	<rect x="206.2" y="337.5" class="st6" width="87.5" height="27"/>
	<path class="st1" d="M231,347.9c-0.1-0.2-0.3-0.3-0.5-0.4c-0.2-0.2-0.5-0.3-0.8-0.4c-0.3-0.1-0.6-0.2-0.9-0.3
		c-0.3-0.1-0.7-0.1-1-0.1c-0.6,0-1.2,0.1-1.8,0.4c-0.4,0.3-0.6,0.7-0.6,1.2c0,0.3,0.1,0.5,0.2,0.7c0.1,0.2,0.3,0.4,0.5,0.5
		c0.3,0.2,0.6,0.3,0.9,0.4c0.4,0.1,0.8,0.2,1.3,0.4c0.6,0.1,1.1,0.3,1.6,0.5c0.4,0.2,0.9,0.4,1.2,0.7c0.3,0.3,0.6,0.6,0.8,0.9
		c0.2,0.4,0.3,0.9,0.3,1.4c0,0.5-0.1,1.1-0.3,1.6c-0.2,0.4-0.5,0.8-0.9,1.1c-0.4,0.3-0.9,0.5-1.4,0.6c-0.6,0.1-1.1,0.2-1.7,0.2
		c-0.9,0-1.8-0.1-2.6-0.4c-0.8-0.3-1.6-0.7-2.3-1.2l0.9-1.6c0.2,0.2,0.4,0.3,0.6,0.5c0.3,0.2,0.7,0.4,1,0.5c0.4,0.2,0.8,0.3,1.2,0.4
		c0.4,0.1,0.9,0.2,1.3,0.2c0.6,0,1.2-0.1,1.7-0.4c0.4-0.2,0.6-0.7,0.6-1.1c0-0.3-0.1-0.5-0.2-0.8c-0.2-0.2-0.4-0.4-0.6-0.5
		c-0.3-0.2-0.7-0.3-1-0.4l-1.4-0.4c-0.5-0.1-1-0.3-1.6-0.5c-0.4-0.1-0.8-0.4-1.1-0.6c-0.3-0.2-0.5-0.5-0.7-0.9
		c-0.2-0.4-0.2-0.8-0.2-1.2c0-0.5,0.1-1.1,0.3-1.6c0.2-0.4,0.5-0.8,0.9-1.1c0.4-0.3,0.9-0.6,1.4-0.7c0.6-0.2,1.1-0.2,1.7-0.2
		c0.8,0,1.5,0.1,2.2,0.4c0.6,0.2,1.2,0.6,1.8,1L231,347.9z"/>
	<path class="st1" d="M243.6,346.7h-4V357h-1.9v-10.3h-4v-1.7h9.8L243.6,346.7z"/>
	<path class="st1" d="M248.1,345.1h1.6l4.7,11.9h-2l-1.3-3.2h-4.6l-1.2,3.2h-2L248.1,345.1z M250.9,352.4l-1.9-5.1l-2,5.1H250.9z"/>
	<path class="st1" d="M256.6,357v-11.9h5.2c0.5,0,1,0.1,1.5,0.3c0.4,0.2,0.8,0.5,1.2,0.9c0.3,0.4,0.6,0.8,0.8,1.2
		c0.2,0.5,0.3,0.9,0.3,1.4c0,0.4-0.1,0.8-0.2,1.2c-0.1,0.4-0.3,0.7-0.5,1c-0.2,0.3-0.5,0.6-0.7,0.8c-0.3,0.2-0.6,0.4-1,0.5l2.9,4.6
		h-2.1l-2.6-4.1h-2.8v4.1H256.6z M258.5,351.2h3.3c0.3,0,0.5-0.1,0.7-0.2c0.2-0.1,0.4-0.3,0.6-0.5c0.2-0.2,0.3-0.5,0.4-0.7
		c0.1-0.3,0.1-0.6,0.1-0.9c0-0.6-0.2-1.1-0.6-1.6c-0.2-0.2-0.4-0.4-0.6-0.5c-0.2-0.1-0.5-0.2-0.7-0.2h-3.2L258.5,351.2z"/>
	<path class="st1" d="M277,346.7h-4V357h-1.9v-10.3h-4v-1.7h9.9V346.7z"/>
	<polygon class="st3" points="290.1,366.8 209.9,366.8 206.2,364.5 293.8,364.5 	"/>
</g>
<g id="freepik--Character--inject-608">
	<path class="st15" d="M430.4,443.6c0.2,2.2-6.2,2.9-8.8,1.4c-2.1-1.5-4.2-3.2-6.1-5c-6.4-5.6-15.2-13.9-15.2-13.9l-6.5,2.9
		l-31.9,10.6L348.5,405c0,0,15.4-6.5,30.1-12.4c2.3-0.9,4.5-1.8,6.6-2.6l0.4-0.2c9.8-3.8,18-6.6,18.8-6
		C406.6,385.4,430.2,441.4,430.4,443.6z"/>
	<path class="st0" d="M430.4,443.6c0.2,2.2-6.2,2.9-8.8,1.4c-2.1-1.5-4.2-3.2-6.1-5c-6.4-5.6-15.2-13.9-15.2-13.9l-6.5,2.9l-1.1,0.4
		L378,392.8l0.5-0.2l6.6-2.6l0.4-0.2c9.8-3.8,18-6.6,18.8-6.1C406.6,385.4,430.2,441.4,430.4,443.6z"/>
	<path class="st16" d="M430.9,444.5c-0.1-2.3-23.4-59.7-25.7-61.3c-0.9-0.6-9.4,2.3-19.6,6.1l-0.3,0.1l14.6,37.2l0.6-0.3
		c0,0,18.7,18,21.4,19.5S431.1,446.7,430.9,444.5z"/>
	<path class="st3" d="M428.4,444.7c-4.2-9.6-20.1-48.6-23.5-58.4c0-0.1,0-0.1,0.1,0c4.3,9.4,19.9,48.5,23.5,58.3
		C428.7,444.9,428.5,444.9,428.4,444.7z"/>
	<path class="st3" d="M401.6,430.7c-2.3-3.5-3.6-8.4-2-12.4c0.1-0.1,0.3-0.1,0.3,0.1c0.3,4.1,1,8.2,2.2,12.1c0.1,0.1,0,0.3-0.1,0.4
		C401.9,430.9,401.7,430.8,401.6,430.7z"/>
	<path class="st3" d="M404.4,432.7c-2.3-3.5-3.6-8.4-2-12.4c0.1-0.2,0.3-0.1,0.3,0.1c0.3,4.1,1,8.2,2.2,12.1c0.1,0.1,0,0.3-0.1,0.4
		C404.6,432.9,404.5,432.9,404.4,432.7z"/>
	<path class="st3" d="M407.2,434.8c-2.2-3.5-3.6-8.4-2-12.4c0.1-0.1,0.3-0.1,0.3,0.1c0.3,4.1,1,8.2,2.2,12.1c0.1,0.1,0,0.3-0.1,0.4
		C407.4,435,407.2,435,407.2,434.8z"/>
	<path class="st3" d="M400.1,435.1c1-3.5,0.4-7.4,0.3-11c0-0.3-0.3-0.5-0.6-0.4c0,0-0.1,0-0.1,0c0,0-0.1-0.1-0.2,0
		c-2.9,2.5-5.1,5.8-6.3,9.4c-0.7,2.1-0.5,5.3,2.2,6C397.9,439.6,399.5,437.1,400.1,435.1z M397.4,437.3c-3.9,2.4-3.5-3-3-4.6
		c0.4-1,0.8-2,1.4-2.9c1.1-1.9,2.3-3.8,3.6-5.6c-0.1,1.8,0,3.5,0.1,5.3C399.5,431.7,399.6,436,397.4,437.3L397.4,437.3z"/>
	<path class="st3" d="M388.5,413.3c-2,1.9-0.6,4.7,1,6.2c2.9,2.6,6.4,4.3,10.1,5.1c0.1,0,0.1,0,0.1-0.1c0,0,0,0,0,0
		c0.3,0,0.5-0.3,0.5-0.6c0,0,0-0.1,0-0.1c-1.7-3.2-3.1-6.8-5.7-9.4C393.1,412.8,390.4,411.5,388.5,413.3z M396.7,419.5
		c0.9,1.6,1.6,3.1,2.6,4.7c-2-0.9-4-2-5.9-3.1c-0.9-0.6-1.8-1.2-2.6-1.9c-1.3-1.1-4.2-5.6,0.3-5.4
		C393.7,413.8,395.7,417.6,396.7,419.5L396.7,419.5z"/>
	<path class="st10" d="M430.9,444.5c0.1,2.3-6.3,2.9-9,1.3s-21.4-19.5-21.4-19.5l-0.6,0.3l-11.6-29.4l22.8-2
		C418.7,412.5,430.8,442.8,430.9,444.5z"/>
	<path class="st6" d="M387.9,435.5c0,0-69.2,15.9-94.7,11.3c-12.2-2.2-21-17.9-15.1-29.9c5.5-11.2,38.9-22.6,48.3-29.2
		c3-2.1,2.7-10.3,2.7-10.3l24.8-0.3c0,0,8.8,14,5.1,20.9c-0.1,0.1-0.1,0.2-0.2,0.3l11.2-4.3L387.9,435.5z"/>
	<path class="st3" d="M372.6,416.8c-2.8-6-5.8-11.9-8.6-17.8c0-0.1-0.2,0-0.2,0.1c2.6,6,5.1,12.1,7.9,18.1s5.8,11.9,8.6,17.8
		c0.1,0.2,0.3,0.1,0.2-0.1C377.9,428.9,375.4,422.8,372.6,416.8z"/>
	<path class="st3" d="M358.9,398.7c-1.7,1-3.3,2.1-5,3.2s-3.3,2.1-5,3.1c-3.4,2-6.9,3.9-10.4,5.7c-7.1,3.6-14.4,6.8-21.9,9.4
		c-4.2,1.5-8.4,2.9-12.7,4c-0.1,0,0,0.2,0,0.1c3.1-0.8,6.3-1.5,9.4-2.4c-1.6,1-3.2,2.1-4.9,3.2c0,0,0,0.1,0,0.1c0,0,0,0,0.1,0
		c1.8-1.1,3.6-2.1,5.4-3.2c0.1,0,0.1-0.2,0.1-0.2c0,0,0,0,0,0l1.6-0.5c3.8-1.2,7.6-2.5,11.3-4c7.3-3,14.4-6.5,21.2-10.7
		c1.9-1.2,3.8-2.4,5.6-3.6c1.9-1.2,3.6-2.6,5.3-4C359.2,398.8,359.1,398.6,358.9,398.7z"/>
	<path class="st15" d="M456.9,452.2c0.2,2.2-6.2,2.9-8.8,1.4c-2.1-1.5-4.2-3.2-6.1-5c-6.4-5.6-15.2-13.9-15.2-13.9l-6.5,2.9
		l-30.9,10.6L375,413.5c0,0,15.4-6.5,30.1-12.4l6.6-2.6l0.4-0.2c9.8-3.8,18-6.6,18.8-6.1C433.2,393.9,456.8,449.9,456.9,452.2z"/>
	<path class="st0" d="M456.9,452.2c0.2,2.2-6.2,2.9-8.8,1.4c-2.1-1.5-4.2-3.2-6.1-5c-6.4-5.6-15.2-13.9-15.2-13.9l-6.5,2.9l-0.9,0.3
		l-15.2-36.5l0.8-0.3c2.2-0.9,4.5-1.8,6.6-2.6l0.4-0.2c9.8-3.8,18-6.6,18.8-6C433.2,393.9,456.8,449.9,456.9,452.2z"/>
	<path class="st16" d="M457.5,452.7c-0.2-2.3-24.2-59.3-26.5-60.9c-0.9-0.6-9.4,2.4-19.6,6.4l-0.3,0.1l15.1,37l0.6-0.3
		c0,0,19,17.7,21.7,19.2S457.7,454.9,457.5,452.7z"/>
	<path class="st3" d="M455,452.9c-4.3-9.5-20.7-48.3-24.2-58c0-0.1,0-0.1,0.1,0c4.5,9.3,20.6,48.3,24.3,58
		C455.3,453.1,455.1,453.1,455,452.9z"/>
	<path class="st3" d="M428,439.3c-2.3-3.5-3.7-8.4-2.2-12.4c0-0.2,0.3-0.1,0.3,0.1c0.4,4.1,1.2,8.1,2.4,12.1c0.1,0.1,0,0.3-0.1,0.4
		S428.1,439.4,428,439.3z"/>
	<path class="st3" d="M430.8,441.3c-2.3-3.5-3.7-8.4-2.2-12.4c0-0.1,0.3-0.1,0.3,0.1c0.4,4.1,1.2,8.2,2.4,12.1c0,0.1,0,0.3-0.2,0.3
		C431,441.4,430.9,441.4,430.8,441.3z"/>
	<path class="st3" d="M433.6,443.3c-2.3-3.5-3.7-8.4-2.2-12.4c0-0.2,0.3-0.1,0.3,0.1c0.4,4.1,1.2,8.2,2.4,12.1
		c0.1,0.1,0,0.3-0.1,0.3C433.8,443.5,433.7,443.4,433.6,443.3z"/>
	<path class="st3" d="M426.5,443.7c1-3.6,0.3-7.4,0.2-11c0-0.3-0.3-0.5-0.6-0.4c-0.1,0-0.1,0-0.2,0c0,0-0.1-0.1-0.2,0
		c-2.9,2.6-5,5.8-6.2,9.5c-0.7,2.1-0.4,5.3,2.3,5.9S426,445.8,426.5,443.7z M423.9,445.9c-3.9,2.4-3.6-3-3-4.5c0.4-1,0.8-2,1.3-2.9
		c1-2,2.3-3.8,3.5-5.6c0,1.8,0.1,3.5,0.1,5.3C425.9,440.3,426,444.6,423.9,445.9z"/>
	<path class="st3" d="M414.7,422c-2,1.9-0.6,4.8,1.1,6.2c2.9,2.5,6.4,4.2,10.2,4.9c0.1,0,0.1,0,0.1-0.1c0.3,0,0.5-0.3,0.4-0.6
		c0-0.1,0-0.1,0-0.1c-1.7-3.2-3.2-6.8-5.8-9.4C419.2,421.6,416.6,420.2,414.7,422z M423,428.1c0.9,1.5,1.7,3.1,2.6,4.6
		c-2-0.9-4-1.9-5.9-3c-0.9-0.5-1.8-1.2-2.6-1.8c-1.3-1-4.3-5.5,0.3-5.4C419.9,422.5,421.9,426.3,423,428.1L423,428.1z"/>
	<path class="st6" d="M337.6,377.4l42.6-0.6c0,0,9,23,5.3,29.9s-43,16.6-43,16.6l54-20.5l18,41.4c0,0-65.7,14.3-100.6,10.8
		c-13.1-1.3-21.3-18.4-13.6-31.5c8-13.8,37.3-32.7,37.3-32.7L337.6,377.4z"/>
	<path class="st3" d="M395.1,402.6c-16.5,7.5-33.2,14.8-50.2,21.1c-2.4,0.9-4.7,1.7-7.1,2.6c-2.5,0.9-4.9,1.9-7.4,2.6
		c-0.1,0-0.1,0.2,0.1,0.2c2.2-0.8,4.4-1.4,6.6-2.1s4.3-1.4,6.5-2.2l2.8-1l-0.6,0.4c-0.9,0.6-1.7,1.1-2.5,1.7
		c-1.7,1.2-3.3,2.7-5.1,3.7c-0.1,0.1,0,0.2,0.1,0.2c1.7-1.2,3.7-2.1,5.4-3.3c0.9-0.6,1.7-1.1,2.5-1.7c0.8-0.5,1.5-1.1,2.2-1.7
		c2.7-1,5.4-2,8.1-3c8.5-3.2,16.9-6.7,25.2-10.5c4.6-2.1,9.2-4.3,13.7-6.6C395.6,402.9,395.4,402.4,395.1,402.6z"/>
	<path class="st3" d="M400.1,425c-2.8-6-5.8-11.9-8.6-17.8c0-0.1-0.2,0-0.2,0.1c2.6,6,5.1,12.1,7.9,18.1s5.8,11.9,8.6,17.8
		c0.1,0.1,0.3,0.1,0.2-0.1C405.4,437,402.9,430.9,400.1,425z"/>
	<path class="st3" d="M336.9,391c-4.7,2.7-9.2,5.7-13.5,9c-4.3,3.2-8.4,6.5-12.4,10.1c-2,1.8-3.9,3.7-5.8,5.6
		c-1.8,1.8-3.4,3.8-4.9,5.9c-2.6,3.8-3.8,8.4-3.5,13c0.2,2.4,0.7,4.8,1.7,7.1c1,2.2,2.4,4.3,4,6.1c0.1,0.1,0.2,0,0.1-0.1
		c-1.5-1.7-2.6-3.7-3.3-5.8c-2.3-6.2-1.7-13.1,1.7-18.8c2.6-4.4,6.5-8,10.1-11.4c3.8-3.6,7.7-6.9,11.9-10.1c2.3-1.8,4.6-3.5,7-5.2
		c2.4-1.7,4.8-3.3,7.1-5.1c0.1-0.1,0.1-0.2,0-0.2C337,391.1,337,391,336.9,391z"/>
	<path class="st3" d="M349.3,392.8c-3.5-1.1-7.2-1.8-10.9-2.1c-3.6-0.4-7.3-0.6-10.9-0.6c-0.1,0-0.1,0.1,0,0.1
		c3.7,0.3,7.4,0.8,11.1,1.4s7.1,1.3,10.7,1.6C349.5,393.1,349.5,392.8,349.3,392.8z"/>
	<path class="st3" d="M378.3,393.3c-2.3-0.1-4.5-0.3-6.8-0.6c-1.9-0.1-3.7-0.7-5.3-1.7c-3-2.3-4.3-6.3-4.9-9.8c0-0.1-0.2-0.1-0.1,0
		c0.5,3.9,0.7,8.3,4.1,10.9c1.7,1.2,3.7,1.8,5.8,1.8c2.4,0.1,4.9-0.1,7.3-0.5C378.4,393.5,378.4,393.4,378.3,393.3
		C378.4,393.3,378.4,393.3,378.3,393.3z"/>
	<path class="st3" d="M383,399.4c-0.2-2.2-0.6-4.5-1.2-6.7c-0.5-2.2-1.2-4.5-1.9-6.7c-0.8-2.5-1.8-5-2.7-7.4c0-0.1-0.2,0-0.1,0
		c1.4,4.1,2.7,8.3,3.8,12.5c0.5,2.1,1,4.2,1.4,6.3c0.5,2,0.5,4.2,0,6.2c-0.6,2.1-1.8,3.9-3.4,5.3c0,0,0,0,0,0
		C381.7,406.7,383.3,403.1,383,399.4z"/>
	<path class="st3" d="M390.3,412.1c-2.9,0.8-5.7,1.7-8.5,2.7s-5.7,1.8-8.5,2.8c-5.6,1.9-11.3,3.8-16.9,5.8c-3.2,1.1-6.4,2.3-9.5,3.5
		c-0.1,0,0,0.2,0,0.1c11.4-3.5,22.7-7.3,33.9-11.2c3.2-1.1,6.4-2.2,9.5-3.5C390.4,412.1,390.4,412,390.3,412.1z"/>
	<path class="st3" d="M307.8,345.1l7.2,1.5c2.9-3.7,4.6-8.2,4.8-12.8c0.1-1.1,1.4,5.4-1.2,13.6c7.6,1.6,18,3.9,27,5.7
		c0.9-3.5,1.8-6.7,1.8-6.7c-0.2,2.4-0.1,4.8,0.2,7.1c1.2,0.3,2.5,0.5,3.6,0.7c0.9-5.1,2.1-10.1,3.5-15c-0.3,5.4,0.2,10.8,1.6,16
		c5.8,1.1,9.6,1.7,9.4,1.4c-6.8-11.6,0.7-16.2-0.1-25.5c-1-11.1-9.8-14.5-8-22.4c1.4-6.4,4.5-18-3.2-22c-3.7-5.3-10.1-7.8-16.4-6.5
		c-13.8,2.5-12.5,23.3-14.1,27.2c-2.3,5.5-5.5,7-8.8,13.2s-1.2,11.3-1.7,15.9S306.4,344.9,307.8,345.1z"/>
	<path class="st3" d="M366.3,355.4c-0.9-2-1.4-4-1.7-6.2c-0.1-2.1,0.3-4.2,1.2-6c0.9-2,1.6-4.1,2.3-6.2c0.7-2.2,0.9-4.5,0.6-6.8
		c-0.3-2.3-1.1-4.5-2.4-6.4c-1.2-1.8-2.6-3.5-4.1-5.1c-1.5-1.5-2.7-3.3-3.8-5.1c-1-1.9-1.4-4.1-1.2-6.2c-0.5,2.2-0.3,4.4,0.5,6.5
		c0.9,2,2.1,3.9,3.5,5.6c1.4,1.6,2.6,3.3,3.8,5.1c1.1,1.8,1.8,3.7,2,5.8c0.2,2.1,0,4.1-0.5,6.1c-0.5,2-1.3,4-2,6.1
		c-0.4,1.1-0.6,2.1-0.8,3.2c-0.2,1.1-0.1,2.3,0.1,3.4C364.2,351.5,365.1,353.6,366.3,355.4z"/>
	<path class="st3" d="M329.3,286.4c-1.4,2.3-2.4,4.8-3.2,7.4c-0.8,2.5-1.5,5.1-2.2,7.7l-1,3.9c-0.3,1.2-0.7,2.5-1.3,3.6
		c-1.2,2.3-2.8,4.3-4.8,6c-1,0.9-1.9,1.9-2.8,3c-0.9,1.1-1.6,2.3-2.2,3.6c-0.5,1.3-1,2.6-1.3,3.9c-0.4,1.3-0.5,2.7-0.5,4.1
		c0,1.4,0.1,2.7,0.2,4c0.1,1.3,0.1,2.6-0.1,3.9c-0.4,2.6-2.1,4.9-4.4,6c2.6-1,4.6-3.2,5.2-5.9c0.3-1.3,0.4-2.7,0.4-4.1
		c0-1.4-0.1-2.7,0-4c0.2-2.6,0.9-5.1,2-7.4c0.6-1.1,1.2-2.2,2-3.2c0.8-1,1.7-2,2.6-2.9c1-1,1.9-2,2.8-3c0.9-1.1,1.7-2.3,2.2-3.5
		c0.6-1.3,1-2.6,1.3-3.9c0.3-1.3,0.6-2.6,0.9-3.9c0.6-2.6,1.1-5.2,1.7-7.8C327.5,291.3,328.3,288.8,329.3,286.4z"/>
	<path class="st15" d="M346.9,324.6c-7.5,11.9-22.1,28-32.2,33.6c-4.4,2.4-23.5,3.3-35.1,2.3c-4.3-0.4,0.2-23.4,5-23.5
		c3.2-0.1,20.1,2.7,22.5,1.9c4.4-1.5,20.9-13.9,32.2-20.2C345.5,315.3,351.5,317.2,346.9,324.6z"/>
	<path class="st15" d="M291.9,338.9c-7.8-2.9-17.4-7-26.7-5.4c-1,0.2-2,0.7-2.7,1.4c-4.2,0.7-5.1,2.8-5.1,2.8
		c-3.7,1.8-4.4,4.2-4.4,4.2s-4.9,0.8-4.9,3.9c0,3.4,6.9,1.6,11.3,2.9c10.1,3,25.1,10.5,27.9,11.7L291.9,338.9z"/>
	<path class="st3" d="M272.1,344.3c-2.9-0.9-6-1.6-9-2.1c-3.4-0.3-6.7-0.4-10.1-0.2c0,0-0.1-0.1-0.1-0.1c0,0,0,0,0.1-0.1
		C259.5,340.9,266.1,341.7,272.1,344.3C272.3,344.3,272.2,344.4,272.1,344.3z"/>
	<path class="st3" d="M274.8,338.5c-3-0.6-8.1-1.7-17.5-0.7c0,0,0,0,0-0.1c5.8-1.4,11.9-1.2,17.5,0.6
		C275,338.4,275,338.6,274.8,338.5z"/>
	<path class="st3" d="M276.2,335.4c-4.5-0.8-9.2-0.9-13.7-0.5v0c6.1-1,8.4-0.7,13.8,0.4C276.4,335.2,276.4,335.4,276.2,335.4z"/>
	<path class="st15" d="M271.3,353c1.2,0.9,0.7,1.5-1.9,1.5s-13-2.2-13.5,1.5s14.2,5.9,18.6,6.3c4.4,0.4,8.8-0.3,12.8-2
		C284.5,359.1,276.6,355.3,271.3,353z"/>
	<path class="st16" d="M319.9,328.9l12.3,18.6c0,0,12.2-13.3,15.8-22.6s-1.2-9.6-8-6.8S319.9,328.9,319.9,328.9z"/>
	<path class="st3" d="M323.9,328.3c-0.1-0.1-0.2-0.1-0.1,0c3.1,5.4,6.6,10.6,10.4,15.6c0,0,0.1,0,0.1,0
		C332.9,341,324.8,329.6,323.9,328.3z"/>
	<path class="st10" d="M347.9,324.9c-3.6,9.3-15.8,22.6-15.8,22.6l-8.3-12.6l23.2-18.3C349.3,317.1,350,319.5,347.9,324.9z"/>
	<path class="st16" d="M328.6,361.5l-1.4,23.1c0,0,44.7-2.6,57-3.5c0,0-12.7-45.4-26-59.9c-6.6-7.2-14.5-6.7-19.4-1.6
		c-1.3,1.3-13.6,20.7-15.2,28.3C322.4,354.5,328.6,361.5,328.6,361.5z"/>
	<path class="st3" d="M345.5,357.9c-2.4-0.2-4.8-0.3-7.2-0.1c-1.2,0.1-2.4,0.2-3.5,0.4c-0.6,0.1-1.2,0.1-1.8,0.2
		c-0.6,0.1-1.2,0.1-1.9,0c0,0-0.1,0.1,0,0.1c0.6,0.1,1.2,0.2,1.7,0.3c0.6,0,1.1,0,1.7,0c1.2-0.1,2.4-0.2,3.6-0.3
		c2.4-0.2,4.9-0.4,7.3-0.4C345.6,358.1,345.6,357.9,345.5,357.9z"/>
	<path class="st3" d="M351,361c-1.9-0.6-3.8-1-5.8-1.4c-1-0.2-2-0.3-3-0.4l-1.4-0.1c-0.5,0-1,0-1.6,0c-0.1,0-0.1,0.1,0,0.1
		c0.5,0,1,0.2,1.5,0.2l1.5,0.2l2.9,0.5c2,0.3,3.9,0.6,5.9,1C351,361.2,351.1,361.1,351,361C351.1,361,351,361,351,361z"/>
	<path class="st17" d="M353.8,317.5l-13.5,0.8l0.5-0.4l12.5-0.8C353.4,317.3,353.6,317.4,353.8,317.5z M356.2,319.2l-17.9,1.1
		c-0.1,0.1-0.2,0.2-0.2,0.4l18.5-1.1C356.5,319.4,356.4,319.3,356.2,319.2z M358.4,321.2l-21.5,1.3c-0.1,0.1-0.1,0.2-0.2,0.4l22-1.4
		C358.5,321.4,358.5,321.3,358.4,321.2L358.4,321.2z M360.1,323.3l-24.7,1.5c-0.1,0.1-0.1,0.2-0.2,0.3l25.2-1.5
		C360.3,323.5,360.2,323.4,360.1,323.3L360.1,323.3z M361.6,325.3l-27.6,1.7c-0.1,0.1-0.1,0.2-0.2,0.4l28-1.7L361.6,325.3z
		 M363,327.4l-30.3,1.9c-0.1,0.1-0.1,0.2-0.2,0.4l30.7-1.9C363.1,327.6,363.1,327.5,363,327.4L363,327.4z M364.2,329.5l-32.9,2
		c-0.1,0.1-0.1,0.2-0.2,0.4l33.3-2L364.2,329.5z M365.4,331.6l-35.4,2.2c-0.1,0.1-0.1,0.2-0.2,0.3l35.7-2.2
		C365.6,331.8,365.5,331.7,365.4,331.6L365.4,331.6z M366.5,333.7l-37.7,2.3c-0.1,0.1-0.1,0.2-0.2,0.3l38-2.3L366.5,333.7z
		 M367.6,335.8l-39.9,2.5l-0.2,0.3l40.3-2.5L367.6,335.8z M368.6,337.9l-42,2.6l-0.2,0.3l42.4-2.6L368.6,337.9z M369.6,340
		l-44.1,2.7c0,0.1-0.1,0.2-0.1,0.3l44.3-2.7C369.7,340.2,369.7,340.1,369.6,340L369.6,340z M370.5,342.1l-45.9,2.8
		c0,0.1-0.1,0.2-0.1,0.3l46.2-2.8C370.6,342.3,370.6,342.2,370.5,342.1L370.5,342.1z M371.5,344.2l-47.5,2.9c0,0.1-0.1,0.2-0.1,0.3
		l47.8-2.9C371.6,344.4,371.5,344.3,371.5,344.2L371.5,344.2z M372.3,346.3l-48.8,3c0,0.1,0,0.2,0,0.3l48.9-3L372.3,346.3z
		 M373.2,348.4l-49.5,3.1c0,0.1,0,0.2,0,0.3l49.6-3.1C373.3,348.7,373.3,348.6,373.2,348.4L373.2,348.4z M374,350.5l-49.9,3.1
		c0,0.1,0.1,0.2,0.1,0.3l49.9-3.1C374.1,350.8,374.1,350.7,374,350.5L374,350.5z M374.9,352.6l-49.9,3.1l0.1,0.3L375,353
		L374.9,352.6z M375.7,354.7l-49.6,3.1l0.2,0.3l49.5-3C375.8,355,375.7,354.9,375.7,354.7L375.7,354.7z M376.5,356.9l-49.1,3
		l0.2,0.3l49-3C376.5,357.1,376.5,357,376.5,356.9L376.5,356.9z M377.2,359l-48.6,3v0.3l48.8-3C377.3,359.2,377.3,359.1,377.2,359
		L377.2,359z M378,361.1l-49.5,3v0.3l49.6-3.1C378,361.4,378,361.2,378,361.1L378,361.1z M378.7,363.2l-50.4,3.1v0.3l50.5-3.1
		L378.7,363.2z M379.4,365.3l-51.2,3.1v0.3l51.3-3.2C379.5,365.6,379.5,365.5,379.4,365.3L379.4,365.3z M380.1,367.5l-52,3.2v0.3
		l52.2-3.2L380.1,367.5z M380.8,369.6l-52.8,3.3v0.3l53-3.3C380.9,369.8,380.9,369.7,380.8,369.6L380.8,369.6z M381.5,371.7
		l-53.7,3.3v0.3l53.8-3.3C381.6,372,381.5,371.8,381.5,371.7L381.5,371.7z M382.2,373.8l-54.5,3.4v0.3l54.6-3.4
		C382.2,374.1,382.2,374,382.2,373.8L382.2,373.8z M382.8,375.9l-55.2,3.4v0.4l55.4-3.4C382.9,376.2,382.9,376.1,382.8,375.9
		L382.8,375.9z M383.5,378.1l-56,3.5v0.3l56.1-3.5C383.5,378.3,383.5,378.2,383.5,378.1L383.5,378.1z M384.1,380.2l-56.8,3.5v0.3
		l56.9-3.5C384.1,380.5,384.1,380.4,384.1,380.2L384.1,380.2z"/>
	<path class="st15" d="M363.6,328.8c6.3,14,16.4,41.4,13.5,48.2c-5.7,13.8-28.4,26.2-35,29c-3.1,1.3-17.7-18.2-15.2-20.8
		c2.7-2.9,26.5-17,26.9-20.2c0.3-2.7-1.3-19.6-2.3-32.6C350.3,316.1,358.3,317,363.6,328.8z"/>
	<path class="st15" d="M333.8,380.7c0,0-10.3,1.8-16.9,3.2c-3.7,0.8-10,2.8-12.4,4.6c-3.7,2.8-17.3,16.7-14,20
		c3,3,13.1-10.4,13.1-10.4s-11.5,12.6-7.2,15.6s13.7-13.7,13.7-13.7s-11.5,13.2-6.6,15.7c3.7,1.8,13.1-12.8,13.1-12.8
		s-9.8,11.5-6.1,13.5c4.1,2.2,13.7-10.7,13.7-10.7c10.3,3.6,16.7,1.1,21-1.3C346.5,403.9,333.8,380.7,333.8,380.7z"/>
	<path class="st3" d="M306.9,394.1c-9.1,8.7-11,15.7-10.9,15.5c2-4.2,6.5-9.8,7.8-11.4S305.6,395.8,306.9,394.1
		C306.9,394.2,306.9,394.1,306.9,394.1z"/>
	<path class="st3" d="M313.1,398c-3.9,3.3-7.1,7.3-9.5,11.8c-0.1,0.2,0,0.2,0.1,0C305.2,407.8,311.5,400,313.1,398
		C313.1,398,313.1,398,313.1,398z"/>
	<path class="st3" d="M318.6,401c-2.9,2.7-5.3,5.8-7.1,9.4c-0.1,0.2,0.1,0.2,0.2,0C314,407.2,315.8,404.7,318.6,401
		C318.8,401,318.7,400.9,318.6,401z"/>
	<path class="st16" d="M350.4,349.2l22.1-2.4c0,0-6.2-16.9-12.8-24.4s-9.1-3.3-9.7,4S350.4,349.2,350.4,349.2z"/>
	<path class="st3" d="M351.7,345.4c-0.1,0-0.2,0.1,0,0.1c6.2-0.3,12.4-1,18.6-2v-0.1C367.1,343.3,353.3,345.2,351.7,345.4z"/>
	<path class="st3" d="M349.8,332.1c0,5.7,0.2,11.8,0.5,17.4c0,0.1,0.9-0.2,1.3-0.2c0.1,0,0.1-0.2-0.1-0.2c-0.3,0-0.5,0-0.8,0
		C350.4,343.4,350.2,337.8,349.8,332.1C349.8,332.1,349.8,332.1,349.8,332.1z"/>
	<path class="st15" d="M350,319.5c-0.2,1-5,7.4-9.6,7.1c-1.5-0.1-1.4-8.2-1.4-8.2l-0.1-0.6l-1.8-8.4l9.9-6.2l1.4-0.8
		c0,0,0.3,2.3,0.7,5.2l0.1,0.4c0,0.2,0,0.3,0.1,0.5c0.1,0.4,0.1,0.9,0.2,1.3s0.1,0.7,0.1,1s0.1,0.7,0.1,1
		C350,314.5,350.1,317,350,319.5z"/>
	<path class="st3" d="M349.2,307.7c-1.7,4.7-5.5,8.4-10.2,10.2l-1.8-8.4l9.9-6.2l1.4-0.8C348.4,302.5,348.8,304.8,349.2,307.7z"/>
	<path class="st15" d="M327.4,290c-8,12.7-1.3,18.9,1.4,20.6c2.5,1.6,11.1,6.6,20.4-5.2s5.9-19.5,0.4-23.4S335.4,277.4,327.4,290z"
		/>
	<path class="st3" d="M330.7,289.4c0.3,0.1,0.7,0.2,1,0.3c0.3,0.2,0.7,0.2,1.1,0.1c0.2-0.1,0.3-0.3,0.3-0.6c-0.1-0.5-0.5-0.8-1-0.9
		c-0.5-0.2-0.9-0.2-1.4,0c-0.3,0.1-0.4,0.4-0.3,0.7C330.4,289.3,330.5,289.4,330.7,289.4z"/>
	<path class="st3" d="M339.1,294.3c-0.3-0.2-0.5-0.4-0.8-0.7c-0.3-0.2-0.6-0.5-0.7-0.8c0-0.2,0.1-0.5,0.3-0.6c0.5-0.1,1,0,1.3,0.4
		c0.4,0.3,0.7,0.7,0.8,1.2c0.1,0.3-0.2,0.6-0.5,0.6C339.4,294.4,339.3,294.4,339.1,294.3z"/>
	<path class="st3" d="M335.6,296.7c0,0,0,0.1,0,0.1c-0.5,0.9-1,2-0.4,2.7c0,0,0,0.1,0,0C334.3,298.9,334.9,297.4,335.6,296.7z"/>
	<path class="st3" d="M336.9,296.2c1.5,0.7,0,3.6-1.4,3S335.6,295.6,336.9,296.2z"/>
	<path class="st3" d="M337.4,296.7c0.2,0.3,0.3,0.7,0.6,0.9s0.8,0,1.1-0.1c0,0,0,0,0,0.1c-0.2,0.6-0.8,1-1.4,0.8
		c-0.6-0.2-0.7-0.9-0.6-1.5C337.2,296.6,337.3,296.5,337.4,296.7z"/>
	<path class="st3" d="M330.7,293.7c0,0-0.1,0-0.1,0c-0.4,0.9-1.1,1.9-2.1,1.8c0,0,0,0,0,0.1C329.5,295.9,330.4,294.6,330.7,293.7z"
		/>
	<path class="st3" d="M330.3,292.3c-1.4-0.9-3,2-1.7,2.8S331.5,293,330.3,292.3z"/>
	<path class="st3" d="M329.6,292.1c-0.3,0-0.7,0.2-1,0s-0.4-0.6-0.4-1c0,0,0,0-0.1,0c-0.4,0.5-0.4,1.2,0,1.6c0.4,0.4,1,0.1,1.5-0.4
		C329.7,292.3,329.8,292.1,329.6,292.1z"/>
	<path class="st3" d="M332.1,303.8c-0.3,0.2-0.7,0.2-1,0.2c-0.3-0.2-0.6-0.4-0.9-0.7c0,0-0.1,0-0.1,0c0.1,0.5,0.5,0.9,0.9,1
		C331.5,304.4,331.9,304.2,332.1,303.8C332.2,303.8,332.1,303.7,332.1,303.8z"/>
	<path class="st3" d="M330,298.5c0,0-0.9,1.2-1.2,1.9c0,0.1,0.1,0.2,0.3,0.3l0,0c1,0.8,2.4,1,3.5,0.4c0.1,0,0-0.1,0-0.1
		c-1.1,0.1-2.2-0.1-3.2-0.7c0-0.2,1.6-2.1,1.5-2.1c-0.5-0.2-1.1-0.4-1.6-0.5c1.8-2.6,4-5,5.8-7.7c0.1-0.1-0.1-0.2-0.1-0.1
		c-2.5,2.4-4.7,5.1-6.6,8C328.2,298.2,329.7,298.5,330,298.5z"/>
	<path class="st3" d="M329.3,300.5c0.1,0.7,0.4,1.4,0.8,2c0.3,0.3,0.6,0.5,1,0.6c0.8,0.2,1.2-0.4,1.4-1.1c0.1-0.3,0.2-0.7,0.2-1
		C331.6,301.2,330.4,301,329.3,300.5z"/>
	<path class="st18" d="M330.1,302.4c0.3,0.3,0.6,0.5,1,0.6c0.8,0.2,1.2-0.4,1.4-1.1C331.7,301.6,330.7,301.7,330.1,302.4z"/>
	<path class="st3" d="M347.7,305.5c-3.2-1.8,1.1-12.4,1.6-13.6c-0.4,0.8-2.4,5-2.8,5c-0.1,0-0.4-0.3-0.9-0.7l0,0
		c0.3-0.5,0.5-1,0.7-1.5c0.1-0.2-0.4,0.5-0.9,1.3l-0.5-0.5c0.6-1,1-2.2,1.3-3.3c0.1-0.4-0.9,1.3-2.1,2.6c-2.4-2.3-5-4.3-7.8-6
		c-0.8-0.5-1.5-0.8-2.1-1.1c0.6-1.2,1.5-2.5,1.2-2.2c-0.6,0.6-1.2,1.3-1.7,2l-1-0.4c0.8-1.8,3.1-4.1,2.6-3.8c-1.5,0.9-2.8,2-3.9,3.4
		c-1.3-0.4-1.7-0.3-1.6-0.6c2.1-3.2,5.3-5.6,9-6.6c6.1-1.7,14.8,1.6,16.3,9.9c0,0,2.5,4.4,1,8.7S349.6,306.5,347.7,305.5z"/>
	<path class="st15" d="M345.9,304.5c0,0,5.1-2.6,6.4-0.6s-4,6.9-6.6,6.6c-1.4-0.1-2.5-1.3-2.4-2.7c0,0,0-0.1,0-0.1L345.9,304.5z"/>
	<path class="st3" d="M350.8,305.2C350.8,305.2,350.8,305.2,350.8,305.2c-1.8,0-3.5,0.8-4.8,2.1c0.7-0.4,1.5-0.2,1.9,0.5
		c0,0,0.1,0.1,0.1,0.2c0,0,0,0.1-0.1,0.1c-0.5-0.5-1.2-0.6-1.8-0.3c-0.5,0.2-0.9,0.5-1.4,0.9c-0.1,0.1-0.4-0.1-0.2-0.2l0,0
		C345.6,306.2,348.5,304.3,350.8,305.2z"/>
</g>
</svg>
