<?xml version="1.0" standalone="no"?>
<!DOCTYPE svg PUBLIC "-//W3C//DTD SVG 1.1//EN" "http://www.w3.org/Graphics/SVG/1.1/DTD/svg11.dtd" >
<svg xmlns="http://www.w3.org/2000/svg" xmlns:xlink="http://www.w3.org/1999/xlink" version="1.1">
<metadata></metadata>
<defs>
<font id="mariannelight" horiz-adv-x="1228" >
<font-face units-per-em="2048" ascent="1536" descent="-512" />
<missing-glyph horiz-adv-x="552" />
<glyph horiz-adv-x="0" />
<glyph horiz-adv-x="682" />
<glyph unicode=" "  horiz-adv-x="552" />
<glyph unicode="&#x09;" horiz-adv-x="552" />
<glyph unicode="&#xa0;" horiz-adv-x="552" />
<glyph unicode="!" horiz-adv-x="589" d="M195 80q0 41 29.5 69.5t70.5 28.5q43 0 71.5 -28.5t28.5 -69.5q0 -42 -29 -72.5t-71 -30.5q-41 0 -70.5 30.5t-29.5 72.5zM225 1434h137l-20 -1045h-96z" />
<glyph unicode="&#x22;" horiz-adv-x="915" d="M209 1434h139l-18 -525h-103zM565 1434h140l-19 -525h-102z" />
<glyph unicode="#" horiz-adv-x="1312" d="M53 393v105h215l119 438h-334v104h363l108 394h115l-109 -394h428l109 394h115l-109 -394h187v-104h-216l-118 -438h334v-105h-363l-109 -393h-114l108 393h-428l-108 -393h-115l109 393h-187zM383 498h428l119 438h-428z" />
<glyph unicode="$" d="M119 223l92 86q140 -175 342 -194v577q-63 24 -106 44t-93.5 53.5t-81 71t-51 93.5t-20.5 123q0 139 97.5 238.5t254.5 116.5v145h113v-145q246 -21 383 -213l-93 -78q-103 156 -290 178v-543q50 -19 79.5 -31t74 -34t71.5 -41.5t59 -50t49.5 -63.5t30 -77.5t12.5 -95.5 q0 -155 -104 -259.5t-272 -121.5v-145h-113v145q-273 19 -434 221zM324 1077q0 -50 17 -90.5t51 -70.5t71 -51.5t90 -43.5v496q-109 -13 -169 -77.5t-60 -162.5zM666 117q121 15 188.5 89t67.5 179q0 52 -19 93.5t-58 73t-79 52.5t-100 45v-532z" />
<glyph unicode="%" horiz-adv-x="1679" d="M82 1137q0 142 96 242t246 100q149 0 245.5 -100.5t96.5 -241.5t-96.5 -241.5t-245.5 -100.5q-150 0 -246 100t-96 242zM182 1137q0 -103 69.5 -177.5t174.5 -74.5q101 0 169.5 74.5t68.5 177.5t-68.5 176t-169.5 73q-105 0 -174.5 -73t-69.5 -176zM248 2l1048 1434h131 l-1048 -1434h-131zM911 303q0 142 96 242t246 100q149 0 245.5 -100.5t96.5 -241.5t-96.5 -241.5t-245.5 -100.5q-150 0 -246 100t-96 242zM1012 303q0 -104 69 -178t174 -74q101 0 169.5 74.5t68.5 177.5t-68.5 176.5t-169.5 73.5q-105 0 -174 -73.5t-69 -176.5z" />
<glyph unicode="&#x26;" horiz-adv-x="1531" d="M150 391q0 149 82.5 255t213.5 155q-82 82 -122.5 158.5t-40.5 181.5q0 143 101 238.5t259 95.5q157 0 257.5 -95t100.5 -241q0 -270 -342 -375l420 -406q99 160 164 410h129q-87 -311 -205 -494l285 -274h-158l-194 182q-186 -221 -473 -221q-208 0 -342.5 120 t-134.5 310zM279 391q0 -140 103 -228.5t251 -88.5q227 0 381 190l-479 451l-7 6q-109 -39 -179 -122.5t-70 -207.5zM410 1133q0 -50 10.5 -89t39 -77t49 -59t69.5 -66q153 39 229 110.5t76 184.5q0 93 -65.5 159t-170.5 66q-112 0 -174.5 -64.5t-62.5 -164.5z" />
<glyph unicode="'" horiz-adv-x="552" d="M209 1434h139l-18 -525h-103z" />
<glyph unicode="(" horiz-adv-x="606" d="M74 563q0 300 104.5 551.5t278.5 421.5l90 -74q-164 -166 -256 -394t-92 -505q0 -548 348 -899l-90 -74q-180 172 -281.5 422.5t-101.5 550.5z" />
<glyph unicode=")" horiz-adv-x="606" d="M57 -336q351 351 351 899q0 276 -93 505t-258 394l90 74q176 -170 279.5 -421.5t103.5 -551.5q0 -301 -102 -551.5t-281 -421.5z" />
<glyph unicode="*" horiz-adv-x="831" d="M41 1120l33 105l303 -113l-15 322h109l-14 -320l301 111l33 -105l-310 -86l201 -250l-88 -63l-178 268l-176 -268l-90 63l200 250z" />
<glyph unicode="+" d="M98 463v108h461v461h109v-461h462v-108h-462v-463h-109v463h-461z" />
<glyph unicode="," horiz-adv-x="552" d="M125 -328l166 498h139l-194 -498h-111z" />
<glyph unicode="-" horiz-adv-x="634" d="M41 467v115h553v-115h-553z" />
<glyph unicode="." horiz-adv-x="552" d="M176 78q0 43 29.5 71.5t73.5 28.5q43 0 72.5 -28.5t29.5 -71.5t-29.5 -72t-72.5 -29q-44 0 -73.5 29t-29.5 72z" />
<glyph unicode="/" horiz-adv-x="704" d="M33 -403l516 1939h123l-516 -1939h-123z" />
<glyph unicode="0" d="M88 717q0 160 34 297.5t98.5 240.5t165 161.5t226.5 58.5q127 0 228.5 -58.5t166 -161.5t98.5 -240t34 -298t-34 -298t-98.5 -240t-166 -161.5t-228.5 -58.5q-126 0 -226.5 58.5t-165 161.5t-98.5 240.5t-34 297.5zM219 717q0 -181 43.5 -323t134 -228t215.5 -86t216 86 t135.5 228t44.5 323t-44.5 323t-135.5 228t-216 86t-215.5 -86t-134 -228t-43.5 -323z" />
<glyph unicode="1" horiz-adv-x="946" d="M16 1171l492 263h131v-1434h-125v1307l-428 -228z" />
<glyph unicode="2" d="M154 0v115l481 510q67 71 92.5 98.5t68.5 77.5t57.5 75t34 64.5t25 74.5t5.5 77q0 125 -82 195.5t-209 70.5q-119 0 -204.5 -53t-152.5 -164l-106 65q175 269 471 269q176 0 295 -105.5t119 -271.5q0 -58 -15.5 -113.5t-39 -102t-68.5 -105.5t-85.5 -104.5t-109.5 -117.5 l-422 -440h783v-115h-938z" />
<glyph unicode="3" d="M109 229l110 70q69 -117 164.5 -170t226.5 -53q157 0 257 84t100 231q0 139 -91 227.5t-245 88.5h-250v112h213q140 0 222.5 78t82.5 199q0 124 -81 193t-210 69q-215 0 -327 -207l-107 66q155 258 438 258q183 0 301.5 -103.5t118.5 -269.5q0 -107 -55 -195t-156 -137 q132 -43 204.5 -146.5t72.5 -236.5q0 -189 -137 -308.5t-349 -119.5q-175 0 -297 66.5t-206 203.5z" />
<glyph unicode="4" d="M86 434v115l713 885h159v-885h179v-115h-179v-434h-124v434h-748zM227 549h607v751z" />
<glyph unicode="5" d="M106 229l111 70q69 -117 165 -170t226 -53q158 0 257.5 84t99.5 231q0 141 -91.5 229.5t-250.5 88.5h-396l43 725h748v-115h-627l-29 -496h265q114 0 204.5 -33.5t147.5 -92t87 -136t30 -168.5q0 -193 -136.5 -313.5t-349.5 -120.5q-338 0 -504 270z" />
<glyph unicode="6" d="M106 684q0 241 61.5 416.5t191.5 275t319 99.5q153 0 259.5 -62.5t186.5 -187.5l-104 -74q-68 107 -149.5 157t-190.5 50q-147 0 -247 -84.5t-146.5 -231.5t-46.5 -350q78 91 188 140t236 49q192 0 319 -131t127 -320q0 -128 -55.5 -234.5t-165 -171.5t-254.5 -65 q-120 0 -215.5 42.5t-166 129t-109 226.5t-38.5 327zM246 551q22 -246 123.5 -360.5t261.5 -114.5q159 0 251.5 100t92.5 252q0 139 -94 237.5t-232 98.5q-124 0 -229 -54.5t-174 -158.5z" />
<glyph unicode="7" d="M147 1319v115h975v-115l-772 -1319h-147l782 1319h-838z" />
<glyph unicode="8" d="M111 395q0 142 78.5 245.5t218.5 147.5q-108 40 -168 123.5t-60 196.5q0 159 118.5 263t315.5 104q196 0 314.5 -104t118.5 -263q0 -113 -59.5 -195.5t-166.5 -121.5q140 -44 218.5 -149t78.5 -247q0 -189 -138 -312.5t-366 -123.5t-365.5 123t-137.5 313zM242 397 q0 -143 103.5 -233t270.5 -90q163 0 267 90.5t104 232.5q0 145 -104.5 239.5t-266.5 94.5q-166 0 -270 -94t-104 -240zM313 1100q0 -117 84 -189.5t219 -72.5q131 0 214 73.5t83 188.5q0 118 -83 190t-214 72q-137 0 -220 -72t-83 -190z" />
<glyph unicode="9" d="M102 209l105 74q66 -107 148.5 -157t191.5 -50q219 0 329.5 177.5t110.5 485.5q-79 -90 -188 -138t-234 -48q-128 0 -231.5 61t-160 164t-56.5 226q0 95 33 180.5t92.5 150t150.5 102.5t199 38q120 0 215 -42.5t166 -129t109 -226.5t38 -327q0 -180 -35 -324t-104.5 -249 t-179 -161.5t-252.5 -56.5q-152 0 -260 63t-187 187zM252 1006q0 -140 93.5 -238t232.5 -98q125 0 230 55t173 160q-22 245 -124 359t-263 114q-158 0 -250 -100.5t-92 -251.5z" />
<glyph unicode=":" horiz-adv-x="552" d="M176 78q0 43 29.5 71.5t73.5 28.5q43 0 72.5 -28.5t29.5 -71.5t-29.5 -72t-72.5 -29q-44 0 -73.5 29t-29.5 72zM176 954q0 43 29.5 72t73.5 29q43 0 72.5 -29t29.5 -72t-29.5 -71.5t-72.5 -28.5q-44 0 -73.5 28.5t-29.5 71.5z" />
<glyph unicode=";" horiz-adv-x="552" d="M109 -328l165 498h140l-195 -498h-110zM176 954q0 43 29.5 72t73.5 29q43 0 72.5 -29t29.5 -72t-29.5 -71.5t-72.5 -28.5q-44 0 -73.5 28.5t-29.5 71.5z" />
<glyph unicode="&#x3c;" d="M98 455v123l1032 454v-117l-915 -399l915 -399v-117z" />
<glyph unicode="=" d="M98 240v108h1032v-108h-1032zM98 686v107h1032v-107h-1032z" />
<glyph unicode="&#x3e;" d="M98 0v117l916 399l-916 399v117l1032 -454v-123z" />
<glyph unicode="?" horiz-adv-x="1032" d="M100 1247q171 228 439 228q183 0 306.5 -120.5t123.5 -293.5q0 -186 -132.5 -305.5t-355.5 -159.5l-10 -207h-96l-17 295q482 61 482 375q0 131 -86.5 218t-218.5 87q-102 0 -180.5 -44t-149.5 -136zM324 80q0 41 30 69.5t72 28.5q41 0 70.5 -28.5t29.5 -69.5 q0 -42 -29.5 -72.5t-70.5 -30.5t-71.5 31t-30.5 72z" />
<glyph unicode="@" horiz-adv-x="1724" d="M113 514q0 153 56.5 291.5t155.5 241.5t243 164t311 61q159 0 296.5 -53t232.5 -143.5t148.5 -214.5t53.5 -263q0 -192 -85.5 -318t-215.5 -126q-74 0 -127 37.5t-72 101.5q-107 -139 -268 -139q-155 0 -252.5 104t-97.5 254q0 151 97.5 254.5t252.5 103.5 q148 0 250 -120v96h106v-481q0 -53 31.5 -88t81.5 -35q89 0 145.5 97.5t56.5 258.5q0 123 -47.5 231.5t-130.5 187t-201 124t-253 45.5q-191 0 -345 -92t-238.5 -245t-84.5 -335t83 -335.5t233.5 -245t336.5 -91.5q167 0 292.5 49t246.5 162l57 -73q-134 -117 -274 -170.5 t-324 -53.5q-163 0 -304.5 61t-238.5 164t-152.5 241.5t-55.5 291.5zM604 512q0 -110 69.5 -186t176.5 -76q75 0 137.5 38.5t104.5 106.5v228q-93 151 -242 151q-107 0 -176.5 -76t-69.5 -186z" />
<glyph unicode="A" horiz-adv-x="1501" d="M70 0l592 1434h178l590 -1434h-140l-184 451h-711l-184 -451h-141zM442 567h617l-307 758z" />
<glyph unicode="B" horiz-adv-x="1183" d="M238 0v1434h311q192 0 305 -99t113 -264q0 -104 -48 -182.5t-139 -120.5q132 -39 202.5 -134.5t70.5 -227.5q0 -185 -125.5 -295.5t-339.5 -110.5h-350zM369 115h221q154 0 239.5 77.5t85.5 219.5q0 138 -85.5 214t-239.5 76h-221v-587zM369 817h180q132 0 206 66.5 t74 187.5q0 117 -74 182.5t-206 65.5h-180v-502z" />
<glyph unicode="C" horiz-adv-x="1572" d="M115 717q0 153 55 291.5t151.5 241.5t238 164t304.5 61q186 0 341.5 -80t256.5 -217l-108 -82q-82 119 -209.5 187.5t-280.5 68.5q-175 0 -316 -86t-218.5 -231t-77.5 -318t77.5 -318t218.5 -231t316 -86q154 0 281 68.5t211 187.5l106 -84q-102 -136 -256.5 -215.5 t-341.5 -79.5q-163 0 -304.5 61t-238 164t-151.5 241.5t-55 291.5z" />
<glyph unicode="D" horiz-adv-x="1644" d="M238 0v1434h544q163 0 304 -58t237.5 -155.5t151.5 -228.5t55 -275t-55 -275t-151.5 -228.5t-237.5 -155.5t-304 -58h-544zM369 121h415q130 0 244 47.5t193.5 128t125.5 190t46 230.5q0 122 -46 231.5t-125.5 190t-193.5 127.5t-244 47h-415v-1192z" />
<glyph unicode="E" horiz-adv-x="1126" d="M238 0v1434h729v-115h-598v-533h516v-112h-516v-559h598v-115h-729z" />
<glyph unicode="F" horiz-adv-x="1044" d="M238 0v1434h729v-115h-598v-533h516v-112h-516v-674h-131z" />
<glyph unicode="G" horiz-adv-x="1675" d="M115 717q0 153 55 291.5t151.5 241.5t238 164t304.5 61q186 0 341.5 -80t256.5 -217l-108 -82q-82 119 -209.5 187.5t-280.5 68.5q-175 0 -316 -86t-218.5 -231t-77.5 -318t80 -318t226 -231t327 -86q151 0 276.5 59t210.5 164v367h-446v114h577v-532 q-102 -137 -262.5 -216t-355.5 -79q-168 0 -313.5 61t-244.5 164t-155.5 241.5t-56.5 291.5z" />
<glyph unicode="H" horiz-adv-x="1699" d="M238 0v1434h131v-643h962v643h131v-1434h-131v670h-962v-670h-131z" />
<glyph unicode="I" horiz-adv-x="606" d="M238 0v1434h131v-1434h-131z" />
<glyph unicode="J" horiz-adv-x="630" d="M-74 -193q34 -10 80 -10q58 0 102.5 13t81.5 44t56.5 89.5t19.5 142.5v1348h131v-1344q0 -412 -381 -412q-49 0 -90 13v116z" />
<glyph unicode="K" horiz-adv-x="1441" d="M238 0v1434h131v-783l819 783h168l-613 -588l641 -846h-165l-566 760l-284 -273v-487h-131z" />
<glyph unicode="L" horiz-adv-x="1044" d="M238 0v1434h131v-1313h598v-121h-729z" />
<glyph unicode="M" horiz-adv-x="1806" d="M238 0v1434h174l491 -797l494 797h172v-1434h-131v1262l-480 -770h-110l-479 770v-1262h-131z" />
<glyph unicode="N" horiz-adv-x="1699" d="M238 0v1434h176l917 -1284v1284h131v-1434h-176l-917 1284v-1284h-131z" />
<glyph unicode="O" horiz-adv-x="1724" d="M115 717q0 153 55 291.5t151.5 241.5t238 164t304.5 61q162 0 302.5 -61t237 -164t151.5 -241.5t55 -291.5t-55 -291.5t-151.5 -241.5t-237 -164t-302.5 -61q-163 0 -304.5 61t-238 164t-151.5 241.5t-55 291.5zM252 717q0 -173 77.5 -318t218.5 -231t316 -86 q173 0 313.5 86.5t218 231.5t77.5 317q0 173 -77.5 318t-218 231t-313.5 86q-175 0 -316 -86t-218.5 -231t-77.5 -318z" />
<glyph unicode="P" horiz-adv-x="1136" d="M238 0v1434h385q203 0 321.5 -106t118.5 -284q0 -175 -118.5 -280t-321.5 -105h-254v-659h-131zM369 774h256q141 0 221 72.5t80 202.5q0 126 -80 198t-221 72h-256v-545z" />
<glyph unicode="Q" horiz-adv-x="1724" d="M115 717q0 153 55 291.5t151.5 241.5t238 164t304.5 61q162 0 302.5 -61t237 -164t151.5 -241.5t55 -291.5q0 -202 -92.5 -374t-255.5 -273l149 -125q178 -146 332 -146q53 0 100 13v-117q-49 -17 -110 -17q-200 0 -402 166l-196 162q-124 -47 -271 -47q-163 0 -304.5 61 t-238 164t-151.5 241.5t-55 291.5zM252 717q0 -173 77.5 -318t218.5 -231t316 -86q173 0 313.5 86.5t218 231.5t77.5 317q0 173 -77.5 318t-218 231t-313.5 86q-175 0 -316 -86t-218.5 -231t-77.5 -318z" />
<glyph unicode="R" horiz-adv-x="1277" d="M238 0v1434h344q204 0 323 -106t119 -284q0 -127 -64.5 -219t-181.5 -135l467 -690h-155l-439 664q-58 -5 -69 -5h-213v-659h-131zM369 774h217q141 0 221 72.5t80 202.5q0 126 -80 198t-221 72h-217v-545z" />
<glyph unicode="S" horiz-adv-x="1204" d="M141 197l101 88q83 -103 171.5 -154t192.5 -51q137 0 216 76t79 192q0 73 -38.5 130.5t-100 96.5t-135.5 75t-148 76t-135.5 88t-100 122.5t-38.5 169.5q0 155 113.5 262t287.5 107q265 0 424 -230l-100 -86q-128 197 -322 197q-122 0 -196 -70t-74 -180 q0 -73 38.5 -130.5t100 -96t135.5 -74t148 -74.5t135.5 -87t100 -122.5t38.5 -169.5q0 -174 -119 -282.5t-305 -108.5q-145 0 -259.5 58.5t-209.5 177.5z" />
<glyph unicode="T" horiz-adv-x="1277" d="M78 1313v121h1122v-121h-495v-1313h-132v1313h-495z" />
<glyph unicode="U" horiz-adv-x="1474" d="M197 528v906h131v-910q0 -210 111 -326t298 -116t298.5 116t111.5 326v910h131v-906q0 -269 -146.5 -419t-392.5 -150t-394 150t-148 419z" />
<glyph unicode="V" horiz-adv-x="1501" d="M70 1434h141l541 -1307l538 1307h140l-592 -1434h-174z" />
<glyph unicode="W" horiz-adv-x="2086" d="M76 1434h135l338 -1301l403 1301h181l403 -1299l342 1299h131l-377 -1434h-182l-406 1296l-407 -1296h-182z" />
<glyph unicode="X" horiz-adv-x="1435" d="M74 0l551 750l-502 684h156l438 -592l440 592h158l-506 -684l553 -750h-156l-489 657l-486 -657h-157z" />
<glyph unicode="Y" horiz-adv-x="1339" d="M29 1434h157l484 -639l483 639h158l-576 -764v-670h-131v670z" />
<glyph unicode="Z" horiz-adv-x="1335" d="M104 0v121l947 1192h-926v121h1081v-121l-942 -1192h963v-121h-1123z" />
<glyph unicode="[" horiz-adv-x="589" d="M137 -403v1939h428v-106h-311v-1727h311v-106h-428z" />
<glyph unicode="\" horiz-adv-x="704" d="M33 1536h123l516 -1939h-123z" />
<glyph unicode="]" horiz-adv-x="589" d="M25 -297h311v1727h-311v106h428v-1939h-428v106z" />
<glyph unicode="^" d="M250 315l278 463h174l279 -463h-115l-250 394l-251 -394h-115z" />
<glyph unicode="_" horiz-adv-x="1105" d="M33 -209h1040v-106h-1040v106z" />
<glyph unicode="`" d="M436 1536h142l215 -340h-121z" />
<glyph unicode="a" horiz-adv-x="1148" d="M141 250q0 117 86.5 194t249.5 105l369 61v97q0 121 -77 188.5t-202 67.5q-98 0 -177.5 -41.5t-133.5 -116.5l-92 72q67 93 171.5 144.5t235.5 51.5q180 0 287 -98.5t107 -267.5v-707h-119v150q-65 -86 -163.5 -132.5t-207.5 -46.5q-151 0 -242.5 76t-91.5 203zM264 252 q0 -77 61.5 -126.5t163.5 -49.5q113 0 206 53t151 152v235l-342 -57q-120 -21 -180 -75t-60 -132z" />
<glyph unicode="b" horiz-adv-x="1359" d="M203 0v1536h121v-651q149 188 395 188q157 0 280 -76.5t188.5 -203t65.5 -277.5t-65.5 -277.5t-188.5 -203t-280 -76.5q-246 0 -395 188v-147h-121zM324 287q65 -103 166 -158t219 -55q182 0 298.5 128t116.5 314t-116.5 314t-298.5 128q-120 0 -221.5 -55.5 t-163.5 -157.5v-458z" />
<glyph unicode="c" horiz-adv-x="1161" d="M106 516q0 151 68.5 277.5t197 203t290.5 76.5q136 0 247.5 -56.5t184.5 -154.5l-97 -76q-57 80 -143.5 126t-191.5 46q-123 0 -222.5 -59.5t-154 -160.5t-54.5 -222q0 -186 122.5 -314t310.5 -128q104 0 190 46t143 126l97 -76q-73 -98 -184.5 -154.5t-247.5 -56.5 q-162 0 -290.5 76.5t-197 203t-68.5 277.5z" />
<glyph unicode="d" horiz-adv-x="1353" d="M106 516q0 112 38.5 213.5t107 177.5t169 121t218.5 45q246 0 395 -188v651h121v-1536h-121v147q-149 -188 -395 -188q-118 0 -218.5 45t-169 121t-107 177.5t-38.5 213.5zM233 516q0 -121 52.5 -222t148.5 -160.5t215 -59.5q121 0 221.5 56t163.5 159v454 q-64 104 -164.5 159.5t-220.5 55.5q-119 0 -215 -59.5t-148.5 -160.5t-52.5 -222z" />
<glyph unicode="e" horiz-adv-x="1193" d="M106 516q0 242 143 399.5t372 157.5q203 0 327.5 -126.5t124.5 -313.5q0 -53 -8 -86h-834v-25q0 -197 121.5 -324.5t311.5 -127.5q106 0 195 46.5t147 127.5l92 -74q-72 -99 -184 -155t-250 -56q-164 0 -293 76.5t-197 203t-68 277.5zM244 643h706q-5 139 -95 231.5 t-237 92.5q-145 0 -245 -86t-129 -238z" />
<glyph unicode="f" horiz-adv-x="770" d="M61 924v108h195v137q0 165 95 266t249 101q126 0 219 -59l-53 -103q-70 51 -162 51q-102 0 -163.5 -67.5t-61.5 -186.5v-139h387v-108h-387v-924h-123v924h-195z" />
<glyph unicode="g" horiz-adv-x="1136" d="M74 -190q0 151 159 268q-75 51 -75 145q0 59 34 110t95 87q-69 51 -107.5 127t-38.5 162q0 151 109 258.5t282 107.5q105 0 193 -43h387v-106h-258q72 -98 72 -217q0 -151 -109.5 -259t-284.5 -108q-81 0 -165 31q-45 -26 -70 -61t-25 -70q0 -84 99 -84h315 q202 0 299.5 -83.5t97.5 -224.5q0 -157 -145 -259.5t-371 -102.5q-221 0 -357 87t-136 235zM195 -180q0 -104 102.5 -166t267.5 -62q180 0 289 68t109 184q0 203 -281 203h-342q-145 -97 -145 -227zM260 709q0 -111 73.5 -188t201.5 -77q125 0 197.5 77.5t72.5 187.5 q0 112 -72 188t-198 76q-129 0 -202 -76t-73 -188z" />
<glyph unicode="h" horiz-adv-x="1277" d="M203 0v1536h121v-647q144 184 368 184q182 0 294 -115.5t112 -324.5v-633h-121v629q0 157 -81.5 243t-219.5 86q-219 0 -352 -217v-741h-121z" />
<glyph unicode="i" horiz-adv-x="526" d="M170 1450q0 37 28 63.5t66 26.5t65 -26.5t27 -63.5q0 -39 -26.5 -65.5t-65.5 -26.5t-66.5 26.5t-27.5 65.5zM203 0v1032h121v-1032h-121z" />
<glyph unicode="j" horiz-adv-x="526" d="M-186 -377q64 -22 153 -22q55 0 95 10.5t73.5 37.5t50.5 77t17 124v1182h121v-1182q0 -190 -89 -276t-255 -86q-93 0 -166 25v110zM168 1450q0 37 28 63.5t66 26.5t65 -26.5t27 -63.5q0 -39 -26.5 -65.5t-65.5 -26.5t-66.5 26.5t-27.5 65.5z" />
<glyph unicode="k" horiz-adv-x="1101" d="M205 0v1536h119v-1038l553 534h157l-436 -424l455 -608h-152l-391 522l-186 -180v-342h-119z" />
<glyph unicode="l" horiz-adv-x="526" d="M203 0v1536h121v-1536h-121z" />
<glyph unicode="m" horiz-adv-x="1968" d="M203 0v1032h121v-137q137 178 348 178q122 0 213 -57t135 -164q144 221 383 221q173 0 279 -110.5t106 -309.5v-653h-119v649q0 148 -77 228.5t-206 80.5q-107 0 -188.5 -54t-146.5 -167q6 -41 6 -84v-653h-121v649q0 148 -76 228.5t-205 80.5q-215 0 -331 -217v-741 h-121z" />
<glyph unicode="n" horiz-adv-x="1277" d="M203 0v1032h121v-141q145 182 368 182q182 0 294 -115.5t112 -324.5v-633h-121v629q0 157 -81.5 243t-219.5 86q-221 0 -352 -217v-741h-121z" />
<glyph unicode="o" horiz-adv-x="1318" d="M106 516q0 148 68.5 274.5t196.5 204.5t288 78q161 0 289.5 -78t197 -204.5t68.5 -274.5t-68.5 -274.5t-197 -204.5t-289.5 -78q-160 0 -288 78t-196.5 204.5t-68.5 274.5zM231 516q0 -181 123 -311.5t308 -130.5q119 0 217 62t152 163t54 217q0 181 -121.5 311.5 t-301.5 130.5q-185 0 -308 -130.5t-123 -311.5z" />
<glyph unicode="p" horiz-adv-x="1357" d="M203 -504v1536h121v-147q149 188 395 188q157 0 280 -76.5t188.5 -203t65.5 -277.5t-65.5 -277.5t-188.5 -203t-280 -76.5q-246 0 -395 188v-651h-121zM324 287q65 -103 166 -158t219 -55q182 0 298.5 128t116.5 314t-116.5 314t-298.5 128q-120 0 -221.5 -55.5 t-163.5 -157.5v-458z" />
<glyph unicode="q" horiz-adv-x="1357" d="M104 516q0 112 39 213.5t107.5 177.5t169.5 121t219 45q243 0 395 -188v147h121v-1536h-121v651q-152 -188 -395 -188q-118 0 -219 45t-169.5 121t-107.5 177.5t-39 213.5zM233 516q0 -186 117 -314t299 -128q120 0 221.5 56t163.5 159v454q-64 104 -165 159.5t-220 55.5 q-182 0 -299 -128t-117 -314z" />
<glyph unicode="r" horiz-adv-x="800" d="M203 0v1032h121v-147q66 83 142.5 125.5t176.5 42.5q42 0 86 -13v-116q-54 14 -94 14q-103 0 -176.5 -49.5t-134.5 -149.5v-739h-121z" />
<glyph unicode="s" horiz-adv-x="890" d="M80 135l90 74q116 -146 279 -146q98 0 155.5 55.5t57.5 137.5q0 53 -29.5 92.5t-76 65.5t-103.5 49t-113.5 50t-103 61t-76 90.5t-29.5 130.5q0 115 89.5 196.5t228.5 81.5q101 0 186 -45t141 -121l-90 -71q-43 64 -103.5 98.5t-131.5 34.5q-93 0 -147 -50t-54 -124 q0 -48 23 -86t60 -62t84.5 -47.5t97.5 -42t97.5 -46t84.5 -58.5t60 -81t23 -112q0 -132 -93.5 -216.5t-235.5 -84.5q-233 0 -371 176z" />
<glyph unicode="t" horiz-adv-x="849" d="M61 924v108h195v258h123v-258h387v-108h-387v-598q0 -132 60 -183t175 -51q85 0 152 23v-111q-70 -24 -164 -24q-346 0 -346 346v598h-195z" />
<glyph unicode="u" horiz-adv-x="1241" d="M178 440v592h121v-594q0 -172 87.5 -268t236.5 -96q145 0 233 96t88 268v594h119v-592q0 -227 -119.5 -354t-320.5 -127q-203 0 -324 127t-121 354z" />
<glyph unicode="v" horiz-adv-x="1085" d="M43 1032h129l371 -915l368 915h131l-419 -1032h-160z" />
<glyph unicode="w" horiz-adv-x="1595" d="M82 1032h121l235 -915l275 915h168l274 -911l238 911h120l-268 -1032h-170l-278 918l-279 -918h-168z" />
<glyph unicode="x" horiz-adv-x="1048" d="M51 0l391 537l-360 495h139l303 -414l301 414h142l-363 -495l393 -537h-139l-334 459l-334 -459h-139z" />
<glyph unicode="y" horiz-adv-x="1110" d="M4 -369q61 -30 137 -30q183 0 262 182l95 219l-455 1030h133l385 -880l375 880h131l-557 -1292q-107 -252 -354 -252q-92 0 -152 31v112z" />
<glyph unicode="z" horiz-adv-x="999" d="M92 0v109l660 815h-646v108h787v-108l-660 -815h674v-109h-815z" />
<glyph unicode="{" horiz-adv-x="589" d="M8 514v109h121q127 0 127 153q0 60 -59.5 222t-59.5 231q0 142 81.5 224.5t223.5 82.5h123v-106h-121q-88 0 -139 -55t-51 -146q0 -61 59.5 -221.5t59.5 -229.5q0 -150 -113 -211q56 -29 84.5 -83.5t28.5 -125.5q0 -69 -59.5 -231t-59.5 -223q0 -91 51 -146t139 -55h121 v-106h-123q-142 0 -223.5 83.5t-81.5 223.5q0 69 59.5 232.5t59.5 223.5q0 70 -30.5 112t-96.5 42h-121z" />
<glyph unicode="|" horiz-adv-x="704" d="M293 -403v1939h117v-1939h-117z" />
<glyph unicode="}" horiz-adv-x="589" d="M25 -297h122q88 0 139.5 55.5t51.5 145.5q0 61 -60.5 221t-60.5 229q0 150 113 211q-56 29 -84.5 83.5t-28.5 125.5q0 69 60.5 231.5t60.5 223.5q0 90 -51.5 145.5t-139.5 55.5h-122v106h122q142 0 225 -83.5t83 -223.5q0 -69 -60.5 -233t-60.5 -224q0 -154 129 -154h119 v-108h-119q-129 0 -129 -154q0 -60 60.5 -221.5t60.5 -230.5q0 -140 -83 -223.5t-225 -83.5h-122v106z" />
<glyph unicode="~" d="M209 340v170q0 111 54 183.5t151 72.5q56 0 101.5 -25.5t72.5 -63.5t54 -83t48 -83t51.5 -63.5t67.5 -25.5q56 0 84.5 41.5t28.5 114.5v176h96v-168q0 -112 -53.5 -185t-151.5 -73q-66 0 -116 35.5t-80.5 86t-57.5 101t-62 86t-79 35.5q-55 0 -85 -42t-30 -114v-176h-94z " />
<glyph unicode="&#xa1;" horiz-adv-x="589" d="M195 971q0 42 29 72t71 30q40 0 70 -30.5t30 -71.5q0 -40 -30 -69.5t-70 -29.5q-42 0 -71 29.5t-29 69.5zM227 -383l19 1045h98l18 -1045h-135z" />
<glyph unicode="&#xa2;" d="M129 717q0 139 59 258t169 198t253 97v164h113v-162q125 -7 226 -62t169 -147l-98 -76q-50 73 -127.5 117.5t-169.5 50.5v-874q93 6 169.5 50t127.5 118l98 -76q-68 -93 -169 -148.5t-226 -62.5v-162h-113v164q-143 18 -253 97t-169 198t-59 258zM256 717 q0 -164 98.5 -285t255.5 -147v866q-157 -26 -255.5 -147.5t-98.5 -286.5z" />
<glyph unicode="&#xa3;" d="M156 0v115l137 125q106 98 145 161.5t39 145.5q0 52 -22 104h-299v109h235q-76 108 -100 155q-47 93 -47 187q0 161 111.5 267t281.5 106q255 0 397 -232l-98 -76q-56 98 -127 144.5t-168 46.5q-117 0 -192.5 -70.5t-75.5 -187.5q-1 -49 16 -98.5t35.5 -80.5t54.5 -83.5 t51 -77.5h461v-109h-407q16 -53 16 -104q0 -104 -48 -184.5t-171 -194.5l-59 -53h772v-115h-938z" />
<glyph unicode="&#xa4;" d="M98 76l238 237q-66 87 -66 205q0 114 64 203l-236 235l76 76l236 -235q85 63 202 63q118 0 205 -65l238 237l75 -76l-237 -237q61 -89 61 -201q0 -115 -63 -203l239 -239l-75 -76l-240 240q-90 -64 -203 -64t-200 62l-238 -238zM371 518q0 -104 69 -178t174 -74 q101 0 169.5 74.5t68.5 177.5t-68.5 176.5t-169.5 73.5q-105 0 -174 -73.5t-69 -176.5z" />
<glyph unicode="&#xa5;" d="M98 1436h150l368 -514l367 512h147l-368 -516h332v-109h-414v-205h414v-108h-414v-496h-127v496h-416v108h416v205h-416v109h332z" />
<glyph unicode="&#xa6;" horiz-adv-x="704" d="M293 315h117v-718h-117v718zM293 817v719h117v-719h-117z" />
<glyph unicode="&#xa7;" horiz-adv-x="1073" d="M127 563q0 108 57 181t156 110q-82 44 -128 111.5t-46 173.5q0 143 105.5 239.5t267.5 96.5q228 0 381 -181l-80 -80q-122 154 -299 154q-116 0 -186 -62.5t-70 -166.5q0 -55 22 -97.5t59 -70.5t85 -50t101.5 -41t106.5 -38.5t101 -47.5t85 -63.5t59 -90t22 -124.5 q-1 -109 -58 -182.5t-155 -108.5q82 -46 128 -112.5t46 -171.5q0 -145 -105 -240.5t-266 -95.5q-230 0 -383 178l80 80q126 -154 301 -154q114 0 184 63.5t70 166.5q0 55 -22 98t-59 70.5t-85 50t-101 41t-106.5 38.5t-101.5 47.5t-85 63.5t-59 90.5t-22 124.5zM246 567 q0 -34 9 -63t21.5 -50.5t37 -42t44 -34t55 -29.5t58 -24.5t64.5 -24t63 -23.5q95 17 152 80.5t57 153.5q0 34 -9 63.5t-21.5 51t-37 42.5t-44 34t-55.5 29.5t-57.5 25t-64 24t-63.5 23.5q-94 -17 -151.5 -81.5t-57.5 -154.5z" />
<glyph unicode="&#xa8;" d="M340 1452q0 37 26 62.5t64 25.5q37 0 63.5 -25.5t26.5 -62.5q0 -38 -26.5 -64t-63.5 -26q-38 0 -64 26t-26 64zM709 1452q0 37 26.5 62.5t63.5 25.5q38 0 64 -25.5t26 -62.5q0 -38 -26 -64t-64 -26q-37 0 -63.5 26t-26.5 64z" />
<glyph unicode="&#xa9;" horiz-adv-x="1759" d="M113 717q0 153 56 291.5t155 241.5t243.5 164t311.5 61t311.5 -61t243.5 -164t155 -241.5t56 -291.5t-56 -291.5t-155 -241.5t-243.5 -164t-311.5 -61t-311.5 61t-243.5 164t-155 241.5t-56 291.5zM209 717q0 -137 49.5 -260t136 -214.5t213 -145.5t271.5 -54 q195 0 349.5 92t237 245.5t82.5 336.5t-83 336.5t-237.5 245.5t-348.5 92q-146 0 -272.5 -54t-213 -145.5t-135.5 -214.5t-49 -260zM428 717q0 126 58 232t164.5 169.5t240.5 63.5q114 0 209.5 -49t159.5 -132l-86 -67q-47 69 -120.5 108t-162.5 39q-152 0 -251 -105.5 t-99 -258.5t99 -259t251 -106q90 0 163 39.5t122 108.5l84 -66q-63 -85 -158 -133.5t-211 -48.5q-134 0 -240.5 63.5t-164.5 169.5t-58 232z" />
<glyph unicode="&#xaa;" horiz-adv-x="735" d="M94 983q0 74 54 124t155 67l213 36v47q0 68 -43.5 106t-114.5 38q-112 0 -174 -90l-75 55q92 123 251 123q117 0 184.5 -63.5t67.5 -168.5v-428h-96v82q-38 -51 -94.5 -78.5t-120.5 -27.5q-93 0 -150 48.5t-57 129.5zM129 541v92h483v-92h-483zM190 985q0 -44 34 -73 t91 -29q125 0 201 123v129l-190 -29q-68 -12 -102 -43.5t-34 -77.5z" />
<glyph unicode="&#xab;" horiz-adv-x="1042" d="M119 508l276 410h135l-276 -410l276 -410h-135zM508 508l276 410h136l-277 -410l277 -410h-136z" />
<glyph unicode="&#xac;" d="M98 686v107h1032v-553h-108v446h-924z" />
<glyph unicode="&#xad;" horiz-adv-x="634" d="M41 467v115h553v-115h-553z" />
<glyph unicode="&#xae;" horiz-adv-x="1054" d="M68 1020q0 123 57 226.5t163 166t238 62.5q201 0 331 -133t130 -322t-130 -322t-331 -133q-132 0 -238 62.5t-163 166t-57 226.5zM141 1020q0 -163 109 -277t276 -114q170 0 278.5 114t108.5 277t-109 277t-278 114q-168 0 -276.5 -114t-108.5 -277zM373 760v528h145 q82 0 130 -39.5t48 -107.5q0 -93 -90 -129l158 -252h-92l-146 237h-73v-237h-80zM453 1065h67q43 0 67.5 20t24.5 58q0 37 -24.5 57.5t-67.5 20.5h-67v-156z" />
<glyph unicode="&#xaf;" d="M324 1401v94h581v-94h-581z" />
<glyph unicode="&#xb0;" horiz-adv-x="847" d="M82 1133q0 142 96 242t246 100q149 0 245.5 -100.5t96.5 -241.5t-96.5 -241.5t-245.5 -100.5q-150 0 -246 100t-96 242zM182 1133q0 -103 69.5 -177.5t174.5 -74.5q101 0 169.5 74.5t68.5 177.5t-68.5 176t-169.5 73q-105 0 -174.5 -73t-69.5 -176z" />
<glyph unicode="&#xb1;" d="M98 0v106h1032v-106h-1032zM98 596v109h461v327h109v-327h462v-109h-462v-328h-109v328h-461z" />
<glyph unicode="&#xb2;" horiz-adv-x="796" d="M106 1563q110 172 297 172q115 0 191 -65.5t76 -170.5q0 -45 -12.5 -85t-43 -83t-56.5 -72.5t-77 -82.5l-248 -254h459v-93h-583v93l299 309q5 6 15 16q43 46 62 68t41 54t29.5 60.5t7.5 63.5q0 70 -45.5 109.5t-118.5 39.5q-69 0 -118.5 -32.5t-90.5 -100.5z" />
<glyph unicode="&#xb3;" horiz-adv-x="796" d="M78 975l88 55q78 -133 227 -133q90 0 145.5 47.5t55.5 130.5q0 79 -51.5 127.5t-139.5 48.5h-153v92h133q77 0 123.5 43t46.5 111t-45.5 106.5t-116.5 38.5q-123 0 -188 -118l-86 51q99 160 280 160q114 0 188 -64t74 -166q0 -66 -31 -118.5t-89 -83.5q77 -29 119 -91 t42 -141q0 -120 -85 -193t-220 -73q-215 0 -317 170z" />
<glyph unicode="&#xb4;" d="M436 1196l215 340h142l-238 -340h-119z" />
<glyph unicode="&#xb6;" horiz-adv-x="1288" d="M74 1044q0 178 118 284t318 106h190v-1837h-122v1062h-68q-200 0 -318 105.5t-118 279.5zM934 -403v1837h117v-1837h-117z" />
<glyph unicode="&#xb7;" horiz-adv-x="552" d="M176 524q0 43 29.5 72t73.5 29q43 0 72.5 -29t29.5 -72t-29.5 -71.5t-72.5 -28.5q-44 0 -73.5 28.5t-29.5 71.5z" />
<glyph unicode="&#xb8;" horiz-adv-x="1230" d="M406 -436l53 78q69 -62 147 -62q54 0 85.5 27.5t31.5 73.5t-32 71t-93 25q-42 0 -82 -21l-57 60l153 202l103 -14l-119 -151q8 2 22 2q90 0 149.5 -48t59.5 -126q0 -80 -60.5 -133.5t-156.5 -53.5q-125 0 -204 70z" />
<glyph unicode="&#xb9;" horiz-adv-x="796" d="M84 1550l299 160h102v-788h228v-93h-584v93h254v684l-244 -129z" />
<glyph unicode="&#xba;" horiz-adv-x="847" d="M82 1147q0 142 96 242t246 100q149 0 245.5 -100.5t96.5 -241.5t-96.5 -241.5t-245.5 -100.5q-150 0 -246 100t-96 242zM131 541v92h586v-92h-586zM182 1147q0 -103 69.5 -177.5t174.5 -74.5q101 0 169.5 74.5t68.5 177.5t-68.5 176.5t-169.5 73.5q-105 0 -174.5 -73.5 t-69.5 -176.5z" />
<glyph unicode="&#xbb;" horiz-adv-x="1042" d="M121 98l276 410l-276 410h133l276 -410l-276 -410h-133zM510 98l276 410l-276 410h133l277 -410l-277 -410h-133z" />
<glyph unicode="&#xbc;" horiz-adv-x="1835" d="M84 1274l299 160h102v-789h228v-92h-584v92h254v684l-244 -129zM451 0l1048 1434h131l-1048 -1434h-131zM1126 258v90l406 533h123v-533h104v-90h-104v-258h-101v258h-428zM1235 348h319v420z" />
<glyph unicode="&#xbd;" horiz-adv-x="2021" d="M84 1274l299 160h102v-789h228v-92h-584v92h254v684l-244 -129zM451 0l1048 1434h131l-1048 -1434h-131zM1331 733q110 172 297 172q115 0 190.5 -65t75.5 -170q0 -45 -12.5 -85.5t-42 -83t-56.5 -73t-77 -82.5l-248 -254h459v-92h-584v92l299 309q5 6 15 16 q44 47 63 68.5t41 54t29.5 61t7.5 63.5q0 70 -45.5 109.5t-118.5 39.5q-69 0 -118.5 -32.5t-90.5 -100.5z" />
<glyph unicode="&#xbe;" horiz-adv-x="1769" d="M78 698l88 56q78 -133 227 -133q90 0 145.5 47.5t55.5 130.5q0 79 -51.5 127.5t-139.5 48.5h-153v92h133q77 0 123.5 43t46.5 111t-45.5 106.5t-116.5 38.5q-122 0 -188 -119l-86 51q99 160 280 160q114 0 188 -63.5t74 -165.5q0 -67 -31 -119.5t-89 -83.5 q77 -29 119 -90.5t42 -140.5q0 -120 -85 -193.5t-220 -73.5q-215 0 -317 170zM385 0l1049 1434h131l-1049 -1434h-131zM1061 258v90l405 533h123v-533h105v-90h-105v-258h-100v258h-428zM1169 348h320v420z" />
<glyph unicode="&#xbf;" horiz-adv-x="1032" d="M63 -10q0 187 133 307t357 160l8 205h98l15 -295q-481 -58 -481 -375q0 -131 86.5 -217t218.5 -86q102 0 180.5 43.5t148.5 136.5l105 -66q-83 -108 -187 -167.5t-251 -59.5q-183 0 -307 120.5t-124 293.5zM506 971q0 42 29 72t71 30q41 0 72 -30.5t31 -71.5 q0 -40 -31 -69.5t-72 -29.5q-42 0 -71 29.5t-29 69.5z" />
<glyph unicode="&#xc0;" horiz-adv-x="1501" d="M70 0l592 1434h178l590 -1434h-140l-184 451h-711l-184 -451h-141zM432 1833h152l231 -277h-123zM442 567h617l-307 758z" />
<glyph unicode="&#xc1;" horiz-adv-x="1501" d="M70 0l592 1434h178l590 -1434h-140l-184 451h-711l-184 -451h-141zM442 567h617l-307 758zM690 1556l232 277h151l-260 -277h-123z" />
<glyph unicode="&#xc2;" horiz-adv-x="1501" d="M70 0l592 1434h178l590 -1434h-140l-184 451h-711l-184 -451h-141zM438 1556l232 277h161l230 -277h-113l-196 211l-199 -211h-115zM442 567h617l-307 758z" />
<glyph unicode="&#xc3;" horiz-adv-x="1501" d="M70 0l592 1434h178l590 -1434h-140l-184 451h-711l-184 -451h-141zM430 1573v78q0 79 44 132.5t120 53.5q43 0 80.5 -20t65 -48t52.5 -56t53 -48t56 -20q34 0 53 26t19 70v76h94l2 -80q0 -79 -44.5 -132t-121.5 -53q-43 0 -80.5 20t-65 48t-52.5 56.5t-53 48.5t-56 20 q-33 0 -52.5 -26.5t-19.5 -69.5v-76h-94zM442 567h617l-307 758z" />
<glyph unicode="&#xc4;" horiz-adv-x="1501" d="M70 0l592 1434h178l590 -1434h-140l-184 451h-711l-184 -451h-141zM442 567h617l-307 758zM479 1698q0 35 25.5 60.5t60.5 25.5t61.5 -25.5t26.5 -60.5q0 -36 -26 -60t-62 -24t-61 24t-25 60zM846 1698q0 37 25.5 61.5t62.5 24.5q36 0 61 -25t25 -61t-25 -60t-61 -24 q-37 0 -62.5 24t-25.5 60z" />
<glyph unicode="&#xc5;" horiz-adv-x="1501" d="M70 0l592 1434h178l590 -1434h-140l-184 451h-711l-184 -451h-141zM442 567h617l-307 758zM508 1741q0 104 72 165.5t170 61.5q99 0 170 -61.5t71 -165.5t-71 -167t-170 -63q-98 0 -170 63t-72 167zM594 1741q0 -66 46.5 -106t109.5 -40t109 40t46 106t-46 105.5 t-109 39.5t-109.5 -39.5t-46.5 -105.5z" />
<glyph unicode="&#xc6;" horiz-adv-x="1982" d="M59 0l965 1434h799v-115h-598v-533h516v-112h-516v-559h598v-115h-729v451h-580l-301 -451h-154zM592 567h502v754z" />
<glyph unicode="&#xc7;" horiz-adv-x="1572" d="M115 717q0 153 55 291.5t151.5 241.5t238 164t304.5 61q186 0 341.5 -80t256.5 -217l-108 -82q-82 119 -209.5 187.5t-280.5 68.5q-175 0 -316 -86t-218.5 -231t-77.5 -318t77.5 -318t218.5 -231t316 -86q154 0 281 68.5t211 187.5l106 -84q-97 -130 -240.5 -208 t-318.5 -87l-184 -287h-129l190 291q-147 15 -272 81.5t-210.5 167.5t-134 231.5t-48.5 273.5z" />
<glyph unicode="&#xc8;" horiz-adv-x="1126" d="M238 0v1434h729v-115h-598v-533h516v-112h-516v-559h598v-115h-729zM291 1833h151l232 -277h-123z" />
<glyph unicode="&#xc9;" horiz-adv-x="1126" d="M238 0v1434h729v-115h-598v-533h516v-112h-516v-559h598v-115h-729zM549 1556l231 277h152l-260 -277h-123z" />
<glyph unicode="&#xca;" horiz-adv-x="1126" d="M238 0v1434h729v-115h-598v-533h516v-112h-516v-559h598v-115h-729zM297 1556l231 277h162l230 -277h-113l-197 211l-198 -211h-115z" />
<glyph unicode="&#xcb;" horiz-adv-x="1126" d="M238 0v1434h729v-115h-598v-533h516v-112h-516v-559h598v-115h-729zM338 1698q0 35 25.5 60.5t60.5 25.5t61.5 -25.5t26.5 -60.5q0 -36 -26 -60t-62 -24t-61 24t-25 60zM705 1698q0 37 25.5 61.5t62.5 24.5q36 0 61 -25t25 -61t-25 -60t-61 -24q-37 0 -62.5 24t-25.5 60z " />
<glyph unicode="&#xcc;" horiz-adv-x="606" d="M-14 1833h151l232 -277h-123zM238 0v1434h131v-1434h-131z" />
<glyph unicode="&#xcd;" horiz-adv-x="606" d="M238 0v1434h131v-1434h-131zM244 1556l231 277h152l-260 -277h-123z" />
<glyph unicode="&#xce;" horiz-adv-x="606" d="M-8 1556l231 277h162l229 -277h-112l-197 211l-199 -211h-114zM238 0v1434h131v-1434h-131z" />
<glyph unicode="&#xcf;" horiz-adv-x="606" d="M33 1698q0 35 25.5 60.5t60.5 25.5t61.5 -25.5t26.5 -60.5q0 -36 -26 -60t-62 -24t-61 24t-25 60zM238 0v1434h131v-1434h-131zM399 1698q0 37 25.5 61.5t62.5 24.5q36 0 61 -25t25 -61t-25 -60t-61 -24q-37 0 -62.5 24t-25.5 60z" />
<glyph unicode="&#xd0;" horiz-adv-x="1644" d="M0 686v96h238v652h544q163 0 304 -58t237.5 -155.5t151.5 -228.5t55 -275t-55 -275t-151.5 -228.5t-237.5 -155.5t-304 -58h-544v686h-238zM369 121h415q130 0 244 47.5t193.5 128t125.5 190t46 230.5q0 122 -46 231.5t-125.5 190t-193.5 127.5t-244 47h-415v-531h401 v-96h-401v-565z" />
<glyph unicode="&#xd1;" horiz-adv-x="1699" d="M238 0v1434h176l917 -1284v1284h131v-1434h-176l-917 1284v-1284h-131zM528 1573v78q0 79 44 132.5t120 53.5q43 0 80.5 -20t65 -48t52.5 -56t53 -48t56 -20q34 0 53 26t19 70v76h94l2 -80q0 -79 -44.5 -132t-121.5 -53q-43 0 -80.5 20t-65 48t-52.5 56.5t-53 48.5 t-56 20q-33 0 -52 -26.5t-19 -69.5v-76h-95z" />
<glyph unicode="&#xd2;" horiz-adv-x="1724" d="M115 717q0 153 55 291.5t151.5 241.5t238 164t304.5 61q162 0 302.5 -61t237 -164t151.5 -241.5t55 -291.5t-55 -291.5t-151.5 -241.5t-237 -164t-302.5 -61q-163 0 -304.5 61t-238 164t-151.5 241.5t-55 291.5zM252 717q0 -173 77.5 -318t218.5 -231t316 -86 q173 0 313.5 86.5t218 231.5t77.5 317q0 173 -77.5 318t-218 231t-313.5 86q-175 0 -316 -86t-218.5 -231t-77.5 -318zM545 1833h151l232 -277h-123z" />
<glyph unicode="&#xd3;" horiz-adv-x="1724" d="M115 717q0 153 55 291.5t151.5 241.5t238 164t304.5 61q162 0 302.5 -61t237 -164t151.5 -241.5t55 -291.5t-55 -291.5t-151.5 -241.5t-237 -164t-302.5 -61q-163 0 -304.5 61t-238 164t-151.5 241.5t-55 291.5zM252 717q0 -173 77.5 -318t218.5 -231t316 -86 q173 0 313.5 86.5t218 231.5t77.5 317q0 173 -77.5 318t-218 231t-313.5 86q-175 0 -316 -86t-218.5 -231t-77.5 -318zM803 1556l231 277h152l-260 -277h-123z" />
<glyph unicode="&#xd4;" horiz-adv-x="1724" d="M115 717q0 153 55 291.5t151.5 241.5t238 164t304.5 61q162 0 302.5 -61t237 -164t151.5 -241.5t55 -291.5t-55 -291.5t-151.5 -241.5t-237 -164t-302.5 -61q-163 0 -304.5 61t-238 164t-151.5 241.5t-55 291.5zM252 717q0 -173 77.5 -318t218.5 -231t316 -86 q173 0 313.5 86.5t218 231.5t77.5 317q0 173 -77.5 318t-218 231t-313.5 86q-175 0 -316 -86t-218.5 -231t-77.5 -318zM551 1556l231 277h162l230 -277h-113l-197 211l-198 -211h-115z" />
<glyph unicode="&#xd5;" horiz-adv-x="1724" d="M115 717q0 153 55 291.5t151.5 241.5t238 164t304.5 61q162 0 302.5 -61t237 -164t151.5 -241.5t55 -291.5t-55 -291.5t-151.5 -241.5t-237 -164t-302.5 -61q-163 0 -304.5 61t-238 164t-151.5 241.5t-55 291.5zM252 717q0 -173 77.5 -318t218.5 -231t316 -86 q173 0 313.5 86.5t218 231.5t77.5 317q0 173 -77.5 318t-218 231t-313.5 86q-175 0 -316 -86t-218.5 -231t-77.5 -318zM543 1573v78q0 79 44 132.5t120 53.5q43 0 80.5 -20t65 -48t52.5 -56t53 -48t56 -20q34 0 52.5 26t18.5 70v76h95l2 -80q0 -79 -44.5 -132t-121.5 -53 q-43 0 -80.5 20t-65 48t-52.5 56.5t-53 48.5t-56 20q-33 0 -52.5 -26.5t-19.5 -69.5v-76h-94z" />
<glyph unicode="&#xd6;" horiz-adv-x="1724" d="M115 717q0 153 55 291.5t151.5 241.5t238 164t304.5 61q162 0 302.5 -61t237 -164t151.5 -241.5t55 -291.5t-55 -291.5t-151.5 -241.5t-237 -164t-302.5 -61q-163 0 -304.5 61t-238 164t-151.5 241.5t-55 291.5zM252 717q0 -173 77.5 -318t218.5 -231t316 -86 q173 0 313.5 86.5t218 231.5t77.5 317q0 173 -77.5 318t-218 231t-313.5 86q-175 0 -316 -86t-218.5 -231t-77.5 -318zM592 1698q0 35 25.5 60.5t60.5 25.5t61.5 -25.5t26.5 -60.5q0 -36 -26 -60t-62 -24t-61 24t-25 60zM958 1698q0 36 26 61t63 25q36 0 61 -25t25 -61 t-25 -60t-61 -24q-37 0 -63 24t-26 60z" />
<glyph unicode="&#xd7;" d="M98 76l441 440l-441 440l76 76l440 -440l441 440l75 -76l-440 -440l440 -440l-75 -76l-441 440l-440 -440z" />
<glyph unicode="&#xd8;" horiz-adv-x="1724" d="M115 -41l202 229q-97 103 -149.5 240t-52.5 289q0 153 55 291.5t151.5 241.5t238 164t304.5 61q269 0 469 -160l142 160h135l-203 -230q97 -103 150 -240t53 -288q0 -153 -55 -291.5t-151.5 -241.5t-237 -164t-302.5 -61q-271 0 -471 160l-143 -160h-135zM252 717 q0 -250 158 -432l833 934q-161 133 -379 133q-175 0 -316 -86t-218.5 -231t-77.5 -318zM481 215q161 -133 383 -133q173 0 313.5 86.5t218 231.5t77.5 317q0 250 -158 432z" />
<glyph unicode="&#xd9;" horiz-adv-x="1474" d="M197 528v906h131v-910q0 -210 111 -326t298 -116t298.5 116t111.5 326v910h131v-906q0 -269 -146.5 -419t-392.5 -150t-394 150t-148 419zM420 1833h151l232 -277h-123z" />
<glyph unicode="&#xda;" horiz-adv-x="1474" d="M197 528v906h131v-910q0 -210 111 -326t298 -116t298.5 116t111.5 326v910h131v-906q0 -269 -146.5 -419t-392.5 -150t-394 150t-148 419zM678 1556l231 277h152l-260 -277h-123z" />
<glyph unicode="&#xdb;" horiz-adv-x="1474" d="M197 528v906h131v-910q0 -210 111 -326t298 -116t298.5 116t111.5 326v910h131v-906q0 -269 -146.5 -419t-392.5 -150t-394 150t-148 419zM426 1556l231 277h162l230 -277h-113l-197 211l-198 -211h-115z" />
<glyph unicode="&#xdc;" horiz-adv-x="1474" d="M197 528v906h131v-910q0 -210 111 -326t298 -116t298.5 116t111.5 326v910h131v-906q0 -269 -146.5 -419t-392.5 -150t-394 150t-148 419zM467 1698q0 35 25.5 60.5t60.5 25.5t61.5 -25.5t26.5 -60.5q0 -36 -26 -60t-62 -24t-61 24t-25 60zM834 1698q0 37 25.5 61.5 t62.5 24.5q36 0 61 -25t25 -61t-25 -60t-61 -24q-37 0 -62.5 24t-25.5 60z" />
<glyph unicode="&#xdd;" horiz-adv-x="1339" d="M29 1434h157l484 -639l483 639h158l-576 -764v-670h-131v670zM610 1556l232 277h151l-260 -277h-123z" />
<glyph unicode="&#xde;" horiz-adv-x="1136" d="M238 0v1434h131v-316h254q203 0 321.5 -105.5t118.5 -281.5t-118.5 -281.5t-321.5 -105.5h-254v-344h-131zM369 459h256q142 0 221.5 71.5t79.5 202.5q0 128 -80 200.5t-221 72.5h-256v-547z" />
<glyph unicode="&#xdf;" horiz-adv-x="1208" d="M203 0v1135q0 182 117 291.5t313 109.5q180 0 292.5 -111t112.5 -274q0 -120 -59.5 -217t-173.5 -141q143 -44 219 -149.5t76 -235.5q0 -178 -125 -296t-318 -118q-65 0 -114 14v113q66 -15 108 -15q143 0 232.5 84.5t89.5 223.5q0 133 -94.5 225t-241.5 92h-94v113h92 q123 0 199.5 83t76.5 220q0 116 -80.5 196t-199.5 80q-140 0 -223.5 -76.5t-83.5 -211.5v-1135h-121z" />
<glyph unicode="&#xe0;" horiz-adv-x="1148" d="M141 250q0 117 86.5 194t249.5 105l369 61v97q0 121 -77 188.5t-202 67.5q-98 0 -177.5 -41.5t-133.5 -116.5l-92 72q67 93 171.5 144.5t235.5 51.5q180 0 287 -98.5t107 -267.5v-707h-119v150q-65 -86 -163.5 -132.5t-207.5 -46.5q-151 0 -242.5 76t-91.5 203zM264 252 q0 -77 61.5 -126.5t163.5 -49.5q113 0 206 53t151 152v235l-342 -57q-120 -21 -180 -75t-60 -132zM274 1536h142l215 -340h-121z" />
<glyph unicode="&#xe1;" horiz-adv-x="1148" d="M141 250q0 117 86.5 194t249.5 105l369 61v97q0 121 -77 188.5t-202 67.5q-98 0 -177.5 -41.5t-133.5 -116.5l-92 72q67 93 171.5 144.5t235.5 51.5q180 0 287 -98.5t107 -267.5v-707h-119v150q-65 -86 -163.5 -132.5t-207.5 -46.5q-151 0 -242.5 76t-91.5 203zM264 252 q0 -77 61.5 -126.5t163.5 -49.5q113 0 206 53t151 152v235l-342 -57q-120 -21 -180 -75t-60 -132zM512 1196l215 340h141l-237 -340h-119z" />
<glyph unicode="&#xe2;" horiz-adv-x="1148" d="M141 250q0 117 86.5 194t249.5 105l369 61v97q0 121 -77 188.5t-202 67.5q-98 0 -177.5 -41.5t-133.5 -116.5l-92 72q67 93 171.5 144.5t235.5 51.5q180 0 287 -98.5t107 -267.5v-707h-119v150q-65 -86 -163.5 -132.5t-207.5 -46.5q-151 0 -242.5 76t-91.5 203zM264 252 q0 -77 61.5 -126.5t163.5 -49.5q113 0 206 53t151 152v235l-342 -57q-120 -21 -180 -75t-60 -132zM270 1196l217 340h175l217 -340h-115l-191 277l-188 -277h-115z" />
<glyph unicode="&#xe3;" horiz-adv-x="1148" d="M141 250q0 117 86.5 194t249.5 105l369 61v97q0 121 -77 188.5t-202 67.5q-98 0 -177.5 -41.5t-133.5 -116.5l-92 72q67 93 171.5 144.5t235.5 51.5q180 0 287 -98.5t107 -267.5v-707h-119v150q-65 -86 -163.5 -132.5t-207.5 -46.5q-151 0 -242.5 76t-91.5 203zM229 1229 v100q0 83 44.5 136.5t127.5 52.5q53 0 95 -21.5t68.5 -52t50.5 -61.5t54.5 -52.5t67.5 -21.5q39 0 60.5 24.5t21.5 63.5v106h96v-102q0 -79 -45.5 -133t-128.5 -54q-45 0 -82.5 15.5t-60.5 38.5t-46.5 50.5t-42 50.5t-45.5 38.5t-58 15.5q-38 0 -60 -24t-22 -64v-106h-95z M264 252q0 -77 61.5 -126.5t163.5 -49.5q113 0 206 53t151 152v235l-342 -57q-120 -21 -180 -75t-60 -132z" />
<glyph unicode="&#xe4;" horiz-adv-x="1148" d="M141 250q0 117 86.5 194t249.5 105l369 61v97q0 121 -77 188.5t-202 67.5q-98 0 -177.5 -41.5t-133.5 -116.5l-92 72q67 93 171.5 144.5t235.5 51.5q180 0 287 -98.5t107 -267.5v-707h-119v150q-65 -86 -163.5 -132.5t-207.5 -46.5q-151 0 -242.5 76t-91.5 203zM264 252 q0 -77 61.5 -126.5t163.5 -49.5q113 0 206 53t151 152v235l-342 -57q-120 -21 -180 -75t-60 -132zM299 1452q0 37 26 62.5t64 25.5q37 0 63.5 -25.5t26.5 -62.5q0 -38 -26.5 -64t-63.5 -26q-38 0 -64 26t-26 64zM668 1452q0 37 26.5 62.5t63.5 25.5q38 0 64 -25.5t26 -62.5 q0 -38 -26 -64t-64 -26q-37 0 -63.5 26t-26.5 64z" />
<glyph unicode="&#xe5;" horiz-adv-x="1148" d="M141 250q0 117 86.5 194t249.5 105l369 61v97q0 121 -77 188.5t-202 67.5q-98 0 -177.5 -41.5t-133.5 -116.5l-92 72q67 93 171.5 144.5t235.5 51.5q180 0 287 -98.5t107 -267.5v-707h-119v150q-65 -86 -163.5 -132.5t-207.5 -46.5q-151 0 -242.5 76t-91.5 203zM264 252 q0 -77 61.5 -126.5t163.5 -49.5q113 0 206 53t151 152v235l-342 -57q-120 -21 -180 -75t-60 -132zM332 1372q0 102 72.5 168t168.5 66q97 0 169.5 -66t72.5 -168q0 -103 -72 -168t-170 -65q-97 0 -169 65t-72 168zM418 1372q0 -68 46 -109.5t109 -41.5t109.5 41.5 t46.5 109.5q0 66 -46.5 108t-109.5 42t-109 -41.5t-46 -108.5z" />
<glyph unicode="&#xe6;" horiz-adv-x="1935" d="M141 250q0 117 87.5 194t250.5 105l369 61v97q0 121 -76.5 188.5t-200.5 67.5q-100 0 -180.5 -41.5t-132.5 -116.5l-92 72q66 93 171 144.5t238 51.5t229 -59.5t134 -165.5q67 106 177 165.5t247 59.5q204 0 329.5 -124.5t125.5 -315.5q0 -40 -11 -86h-833v-25 q0 -197 121 -324.5t311 -127.5q108 0 196.5 46.5t145.5 127.5l94 -74q-74 -99 -186 -155t-250 -56q-162 0 -288 73.5t-195 198.5q-79 -125 -191.5 -191.5t-251.5 -66.5q-153 0 -245.5 75.5t-92.5 201.5zM266 252q0 -75 61.5 -124.5t164.5 -49.5q238 0 387 250 q-31 91 -31 178v8l-342 -55q-120 -21 -180 -75t-60 -132zM983 643h709q-5 138 -96.5 231t-233.5 93q-147 0 -248 -84.5t-131 -239.5z" />
<glyph unicode="&#xe7;" horiz-adv-x="1161" d="M106 516q0 151 68.5 277.5t197 203t290.5 76.5q136 0 247.5 -56.5t184.5 -154.5l-97 -76q-57 80 -143.5 126t-191.5 46q-123 0 -222.5 -59.5t-154 -160.5t-54.5 -222q0 -186 122.5 -314t310.5 -128q104 0 190 46t143 126l97 -76q-66 -90 -165.5 -145t-221.5 -64 l-187 -289h-129l191 291q-141 18 -250.5 97.5t-167.5 198.5t-58 257z" />
<glyph unicode="&#xe8;" horiz-adv-x="1193" d="M106 516q0 242 143 399.5t372 157.5q203 0 327.5 -126.5t124.5 -313.5q0 -53 -8 -86h-834v-25q0 -197 121.5 -324.5t311.5 -127.5q106 0 195 46.5t147 127.5l92 -74q-72 -99 -184 -155t-250 -56q-164 0 -293 76.5t-197 203t-68 277.5zM244 643h706q-5 139 -95 231.5 t-237 92.5q-145 0 -245 -86t-129 -238zM322 1536h141l215 -340h-121z" />
<glyph unicode="&#xe9;" horiz-adv-x="1193" d="M106 516q0 242 143 399.5t372 157.5q203 0 327.5 -126.5t124.5 -313.5q0 -53 -8 -86h-834v-25q0 -197 121.5 -324.5t311.5 -127.5q106 0 195 46.5t147 127.5l92 -74q-72 -99 -184 -155t-250 -56q-164 0 -293 76.5t-197 203t-68 277.5zM244 643h706q-5 139 -95 231.5 t-237 92.5q-145 0 -245 -86t-129 -238zM559 1196l215 340h141l-237 -340h-119z" />
<glyph unicode="&#xea;" horiz-adv-x="1193" d="M106 516q0 242 143 399.5t372 157.5q203 0 327.5 -126.5t124.5 -313.5q0 -53 -8 -86h-834v-25q0 -197 121.5 -324.5t311.5 -127.5q106 0 195 46.5t147 127.5l92 -74q-72 -99 -184 -155t-250 -56q-164 0 -293 76.5t-197 203t-68 277.5zM244 643h706q-5 139 -95 231.5 t-237 92.5q-145 0 -245 -86t-129 -238zM317 1196l218 340h174l217 -340h-115l-190 277l-189 -277h-115z" />
<glyph unicode="&#xeb;" horiz-adv-x="1193" d="M106 516q0 242 143 399.5t372 157.5q203 0 327.5 -126.5t124.5 -313.5q0 -53 -8 -86h-834v-25q0 -197 121.5 -324.5t311.5 -127.5q106 0 195 46.5t147 127.5l92 -74q-72 -99 -184 -155t-250 -56q-164 0 -293 76.5t-197 203t-68 277.5zM244 643h706q-5 139 -95 231.5 t-237 92.5q-145 0 -245 -86t-129 -238zM346 1452q0 37 26 62.5t64 25.5q37 0 63.5 -25.5t26.5 -62.5q0 -38 -26.5 -64t-63.5 -26q-38 0 -64 26t-26 64zM715 1452q0 37 26.5 62.5t63.5 25.5q38 0 64 -25.5t26 -62.5q0 -38 -26 -64t-64 -26q-37 0 -63.5 26t-26.5 64z" />
<glyph unicode="&#xec;" horiz-adv-x="526" d="M-37 1536h141l215 -340h-120zM203 0v1032h121v-1032h-121z" />
<glyph unicode="&#xed;" horiz-adv-x="526" d="M201 1196l215 340h141l-238 -340h-118zM203 0v1032h121v-1032h-121z" />
<glyph unicode="&#xee;" horiz-adv-x="526" d="M-41 1196l217 340h174l217 -340h-114l-191 277l-188 -277h-115zM203 0v1032h121v-1032h-121z" />
<glyph unicode="&#xef;" horiz-adv-x="526" d="M-12 1452q0 37 26 62.5t64 25.5q37 0 63.5 -25.5t26.5 -62.5q0 -38 -26.5 -64t-63.5 -26q-38 0 -64 26t-26 64zM203 0v1032h121v-1032h-121zM356 1452q0 37 26.5 62.5t63.5 25.5q38 0 64.5 -25.5t26.5 -62.5q0 -38 -26.5 -64t-64.5 -26q-37 0 -63.5 26t-26.5 64z" />
<glyph unicode="&#xf0;" horiz-adv-x="1296" d="M106 518q0 239 149.5 393t381.5 154q211 0 360 -152q-94 214 -311 390l-360 -125v100l268 92q-143 95 -295 166h199q112 -50 217 -125l358 123v-98l-270 -95q183 -157 285 -359t102 -396q0 -293 -147.5 -460t-389.5 -167q-161 0 -286.5 73.5t-193 200.5t-67.5 285z M233 518q0 -196 117.5 -321t302.5 -125q189 0 301.5 133t112.5 377q0 66 -8 118q-64 112 -172.5 180t-241.5 68q-179 0 -295.5 -120t-116.5 -310z" />
<glyph unicode="&#xf1;" horiz-adv-x="1277" d="M203 0v1032h121v-141q145 182 368 182q182 0 294 -115.5t112 -324.5v-633h-121v629q0 157 -81.5 243t-219.5 86q-221 0 -352 -217v-741h-121zM313 1229v100q0 83 44.5 136.5t127.5 52.5q53 0 95 -21.5t68.5 -52t50.5 -61.5t54.5 -52.5t67.5 -21.5q39 0 60.5 24.5 t21.5 63.5v106h96v-102q0 -79 -45.5 -133t-128.5 -54q-53 0 -95 21.5t-68.5 52t-50.5 61.5t-54.5 52.5t-67.5 21.5q-38 0 -59.5 -24t-21.5 -64v-106h-95z" />
<glyph unicode="&#xf2;" horiz-adv-x="1318" d="M106 516q0 148 68.5 274.5t196.5 204.5t288 78q161 0 289.5 -78t197 -204.5t68.5 -274.5t-68.5 -274.5t-197 -204.5t-289.5 -78q-160 0 -288 78t-196.5 204.5t-68.5 274.5zM231 516q0 -181 123 -311.5t308 -130.5q119 0 217 62t152 163t54 217q0 181 -121.5 311.5 t-301.5 130.5q-185 0 -308 -130.5t-123 -311.5zM360 1536h142l215 -340h-121z" />
<glyph unicode="&#xf3;" horiz-adv-x="1318" d="M106 516q0 148 68.5 274.5t196.5 204.5t288 78q161 0 289.5 -78t197 -204.5t68.5 -274.5t-68.5 -274.5t-197 -204.5t-289.5 -78q-160 0 -288 78t-196.5 204.5t-68.5 274.5zM231 516q0 -181 123 -311.5t308 -130.5q119 0 217 62t152 163t54 217q0 181 -121.5 311.5 t-301.5 130.5q-185 0 -308 -130.5t-123 -311.5zM598 1196l215 340h141l-237 -340h-119z" />
<glyph unicode="&#xf4;" horiz-adv-x="1318" d="M106 516q0 148 68.5 274.5t196.5 204.5t288 78q161 0 289.5 -78t197 -204.5t68.5 -274.5t-68.5 -274.5t-197 -204.5t-289.5 -78q-160 0 -288 78t-196.5 204.5t-68.5 274.5zM231 516q0 -181 123 -311.5t308 -130.5q119 0 217 62t152 163t54 217q0 181 -121.5 311.5 t-301.5 130.5q-185 0 -308 -130.5t-123 -311.5zM356 1196l217 340h175l217 -340h-115l-191 277l-188 -277h-115z" />
<glyph unicode="&#xf5;" horiz-adv-x="1318" d="M106 516q0 148 68.5 274.5t196.5 204.5t288 78q161 0 289.5 -78t197 -204.5t68.5 -274.5t-68.5 -274.5t-197 -204.5t-289.5 -78q-160 0 -288 78t-196.5 204.5t-68.5 274.5zM231 516q0 -181 123 -311.5t308 -130.5q119 0 217 62t152 163t54 217q0 181 -121.5 311.5 t-301.5 130.5q-185 0 -308 -130.5t-123 -311.5zM315 1229v100q0 83 44.5 136.5t127.5 52.5q53 0 95 -21.5t68.5 -52t50.5 -61.5t54.5 -52.5t67.5 -21.5q39 0 60.5 24.5t21.5 63.5v106h96v-102q0 -79 -45.5 -133t-128.5 -54q-45 0 -82.5 15.5t-60.5 38.5t-46.5 50.5t-42 50.5 t-45.5 38.5t-58 15.5q-38 0 -60 -24t-22 -64v-106h-95z" />
<glyph unicode="&#xf6;" horiz-adv-x="1318" d="M106 516q0 148 68.5 274.5t196.5 204.5t288 78q161 0 289.5 -78t197 -204.5t68.5 -274.5t-68.5 -274.5t-197 -204.5t-289.5 -78q-160 0 -288 78t-196.5 204.5t-68.5 274.5zM231 516q0 -181 123 -311.5t308 -130.5q119 0 217 62t152 163t54 217q0 181 -121.5 311.5 t-301.5 130.5q-185 0 -308 -130.5t-123 -311.5zM385 1452q0 37 26 62.5t64 25.5q37 0 63.5 -25.5t26.5 -62.5q0 -38 -26.5 -64t-63.5 -26q-38 0 -64 26t-26 64zM754 1452q0 37 26.5 62.5t63.5 25.5q38 0 64 -25.5t26 -62.5q0 -38 -26 -64t-64 -26q-37 0 -63.5 26t-26.5 64z " />
<glyph unicode="&#xf7;" d="M98 463v108h1032v-108h-1032zM526 59q0 35 25.5 60.5t60.5 25.5q36 0 61 -25t25 -61q0 -35 -24.5 -59.5t-61.5 -24.5q-35 0 -60.5 24.5t-25.5 59.5zM526 973q0 35 25.5 59.5t60.5 24.5q37 0 61.5 -24.5t24.5 -59.5q0 -37 -24.5 -61.5t-61.5 -24.5q-36 0 -61 25t-25 61z " />
<glyph unicode="&#xf8;" horiz-adv-x="1318" d="M106 -41l148 174q-71 75 -109.5 175t-38.5 208q0 148 68.5 274.5t196.5 204.5t288 78q192 0 332 -106l90 106h133l-149 -172q72 -76 110.5 -176t38.5 -209q0 -148 -68.5 -274.5t-197 -204.5t-289.5 -78q-191 0 -329 107l-92 -107h-132zM231 516q0 -167 107 -293l571 654 q-111 81 -247 81q-185 0 -308 -130.5t-123 -311.5zM412 154q111 -80 250 -80q119 0 217 62t152 163t54 217q0 167 -104 293z" />
<glyph unicode="&#xf9;" horiz-adv-x="1241" d="M178 440v592h121v-594q0 -172 87.5 -268t236.5 -96q145 0 233 96t88 268v594h119v-592q0 -227 -119.5 -354t-320.5 -127q-203 0 -324 127t-121 354zM319 1536h142l215 -340h-121z" />
<glyph unicode="&#xfa;" horiz-adv-x="1241" d="M178 440v592h121v-594q0 -172 87.5 -268t236.5 -96q145 0 233 96t88 268v594h119v-592q0 -227 -119.5 -354t-320.5 -127q-203 0 -324 127t-121 354zM557 1196l215 340h141l-237 -340h-119z" />
<glyph unicode="&#xfb;" horiz-adv-x="1241" d="M178 440v592h121v-594q0 -172 87.5 -268t236.5 -96q145 0 233 96t88 268v594h119v-592q0 -227 -119.5 -354t-320.5 -127q-203 0 -324 127t-121 354zM315 1196l217 340h175l217 -340h-115l-191 277l-188 -277h-115z" />
<glyph unicode="&#xfc;" horiz-adv-x="1241" d="M178 440v592h121v-594q0 -172 87.5 -268t236.5 -96q145 0 233 96t88 268v594h119v-592q0 -227 -119.5 -354t-320.5 -127q-203 0 -324 127t-121 354zM344 1452q0 37 26 62.5t64 25.5q37 0 63.5 -25.5t26.5 -62.5q0 -38 -26.5 -64t-63.5 -26q-38 0 -64 26t-26 64zM713 1452 q0 37 26.5 62.5t63.5 25.5q38 0 64 -25.5t26 -62.5q0 -38 -26 -64t-64 -26q-37 0 -63.5 26t-26.5 64z" />
<glyph unicode="&#xfd;" horiz-adv-x="1110" d="M4 -369q61 -30 137 -30q183 0 262 182l95 219l-455 1030h133l385 -880l375 880h131l-557 -1292q-107 -252 -354 -252q-92 0 -152 31v112zM494 1196l215 340h141l-238 -340h-118z" />
<glyph unicode="&#xfe;" horiz-adv-x="1357" d="M203 -504v2040h121v-645q152 182 395 182q157 0 280 -76.5t188.5 -203t65.5 -277.5t-65.5 -277.5t-188.5 -203t-280 -76.5q-243 0 -395 182v-645h-121zM324 289q65 -104 165.5 -159.5t219.5 -55.5q182 0 298.5 128t116.5 314t-116.5 314t-298.5 128q-119 0 -220 -56 t-165 -159v-454z" />
<glyph unicode="&#xff;" horiz-adv-x="1110" d="M4 -369q61 -30 137 -30q183 0 262 182l95 219l-455 1030h133l385 -880l375 880h131l-557 -1292q-107 -252 -354 -252q-92 0 -152 31v112zM281 1452q0 37 26 62.5t64 25.5q37 0 63.5 -25.5t26.5 -62.5q0 -38 -26.5 -64t-63.5 -26q-38 0 -64 26t-26 64zM649 1452 q0 37 26.5 62.5t63.5 25.5q38 0 64 -25.5t26 -62.5q0 -38 -26 -64t-64 -26q-37 0 -63.5 26t-26.5 64z" />
<glyph unicode="&#x152;" horiz-adv-x="2164" d="M115 717q0 144 55 275t151.5 228.5t238 155.5t304.5 58h1141v-115h-598v-533h516v-112h-516v-559h598v-115h-1141q-163 0 -304.5 58t-238 155.5t-151.5 228.5t-55 275zM252 717q0 -165 77.5 -302t217.5 -217.5t313 -80.5h416v1200h-416q-173 0 -313 -81t-217.5 -218 t-77.5 -301z" />
<glyph unicode="&#x153;" horiz-adv-x="2193" d="M106 516q0 148 68.5 274.5t196.5 204.5t288 78q163 0 290 -81t194 -214q61 137 180 216t276 79q204 0 329.5 -124.5t125.5 -315.5q0 -44 -10 -86h-834v-25q0 -197 121.5 -324.5t310.5 -127.5q108 0 197 46.5t146 127.5l94 -74q-74 -99 -186.5 -155t-250.5 -56 q-170 0 -299 82.5t-196 220.5q-67 -137 -195 -220t-293 -83q-160 0 -288 78t-196.5 204.5t-68.5 274.5zM231 516q0 -181 123 -311.5t308 -130.5q119 0 217 62t152 163t54 217q0 181 -121.5 311.5t-301.5 130.5q-185 0 -308 -130.5t-123 -311.5zM1221 643h708 q-5 138 -96.5 231t-233.5 93q-146 0 -247 -85t-131 -239z" />
<glyph unicode="&#x178;" horiz-adv-x="1339" d="M29 1434h157l484 -639l483 639h158l-576 -764v-670h-131v670zM399 1698q0 35 25.5 60.5t60.5 25.5t61.5 -25.5t26.5 -60.5q0 -36 -26 -60t-62 -24t-61 24t-25 60zM766 1698q0 37 25.5 61.5t62.5 24.5q36 0 61 -25t25 -61t-25 -60t-61 -24q-37 0 -62.5 24t-25.5 60z" />
<glyph unicode="&#x2c6;" horiz-adv-x="1230" d="M311 1196l217 340h174l218 -340h-115l-191 277l-188 -277h-115z" />
<glyph unicode="&#x2dc;" horiz-adv-x="1226" d="M270 1229v100q0 83 44.5 136.5t127.5 52.5q53 0 95 -21.5t68.5 -52t50.5 -61.5t54.5 -52.5t67.5 -21.5q39 0 60.5 24.5t21.5 63.5v106h96v-102q0 -79 -45.5 -133t-128.5 -54q-53 0 -95 21.5t-68.5 52t-50.5 61.5t-54.5 52.5t-67.5 21.5q-38 0 -59.5 -24t-21.5 -64v-106 h-95z" />
<glyph unicode="&#x2000;" horiz-adv-x="984" />
<glyph unicode="&#x2001;" horiz-adv-x="1968" />
<glyph unicode="&#x2002;" horiz-adv-x="984" />
<glyph unicode="&#x2003;" horiz-adv-x="1968" />
<glyph unicode="&#x2004;" horiz-adv-x="656" />
<glyph unicode="&#x2005;" horiz-adv-x="492" />
<glyph unicode="&#x2006;" horiz-adv-x="328" />
<glyph unicode="&#x2007;" horiz-adv-x="328" />
<glyph unicode="&#x2008;" horiz-adv-x="246" />
<glyph unicode="&#x2009;" horiz-adv-x="393" />
<glyph unicode="&#x200a;" horiz-adv-x="109" />
<glyph unicode="&#x2010;" horiz-adv-x="634" d="M41 467v115h553v-115h-553z" />
<glyph unicode="&#x2011;" horiz-adv-x="634" d="M41 467v115h553v-115h-553z" />
<glyph unicode="&#x2012;" horiz-adv-x="634" d="M41 467v115h553v-115h-553z" />
<glyph unicode="&#x2013;" horiz-adv-x="1105" d="M41 471v107h1024v-107h-1024z" />
<glyph unicode="&#x2014;" horiz-adv-x="2211" d="M41 471v107h2130v-107h-2130z" />
<glyph unicode="&#x2018;" horiz-adv-x="552" d="M125 909l194 525h111l-166 -525h-139z" />
<glyph unicode="&#x2019;" horiz-adv-x="552" d="M125 909l166 525h139l-194 -525h-111z" />
<glyph unicode="&#x201a;" horiz-adv-x="552" d="M125 -328l166 498h139l-194 -498h-111z" />
<glyph unicode="&#x201c;" horiz-adv-x="909" d="M125 909l194 525h111l-166 -525h-139zM481 909l195 525h110l-165 -525h-140z" />
<glyph unicode="&#x201d;" horiz-adv-x="909" d="M125 909l166 525h139l-194 -525h-111zM481 909l166 525h139l-194 -525h-111z" />
<glyph unicode="&#x201e;" horiz-adv-x="909" d="M125 -328l166 498h139l-194 -498h-111zM481 -328l166 498h139l-194 -498h-111z" />
<glyph unicode="&#x2022;" horiz-adv-x="626" d="M90 530q0 89 65.5 151t159.5 62q95 0 159.5 -61.5t64.5 -151.5q0 -92 -64.5 -156.5t-159.5 -64.5q-93 0 -159 65t-66 156z" />
<glyph unicode="&#x2026;" horiz-adv-x="1382" d="M176 78q0 43 29.5 71.5t73.5 28.5q43 0 72.5 -28.5t29.5 -71.5t-29.5 -72t-72.5 -29q-44 0 -73.5 29t-29.5 72zM588 78q0 43 29 71.5t73 28.5q43 0 73 -29t30 -71q0 -43 -30 -72t-73 -29q-44 0 -73 29t-29 72zM1004 78q0 43 29 71.5t73 28.5q43 0 72.5 -28.5t29.5 -71.5 t-29.5 -72t-72.5 -29q-44 0 -73 29t-29 72z" />
<glyph unicode="&#x202f;" horiz-adv-x="393" />
<glyph unicode="&#x2039;" horiz-adv-x="651" d="M119 508l276 410h135l-276 -410l276 -410h-135z" />
<glyph unicode="&#x203a;" horiz-adv-x="651" d="M121 98l276 410l-276 410h133l276 -410l-276 -410h-133z" />
<glyph unicode="&#x205f;" horiz-adv-x="492" />
<glyph unicode="&#x20ac;" d="M45 496v108h178q-4 74 -4 113q0 63 2 92h-176v109h186q35 276 167 416.5t339 140.5q261 0 416 -211l-96 -78q-61 84 -135 129t-181 45q-324 0 -379 -442h625v-109h-635q-2 -29 -2 -92q0 -43 4 -113h633v-108h-622q60 -420 376 -420q198 0 316 172l96 -78 q-150 -211 -416 -211q-204 0 -335 135.5t-169 401.5h-188z" />
<glyph unicode="&#x2122;" horiz-adv-x="1949" d="M66 1335v99h698v-99h-297v-782h-107v782h-294zM956 553v881h138l278 -455l281 455h137v-881h-107v733l-268 -432h-84l-268 434v-735h-107z" />
<glyph unicode="&#x25fc;" horiz-adv-x="1034" d="M0 0v1034h1034v-1034h-1034z" />
</font>
</defs>
</svg>
