<?xml version="1.0" standalone="no"?>
<!DOCTYPE svg PUBLIC "-//W3C//DTD SVG 1.1//EN" "http://www.w3.org/Graphics/SVG/1.1/DTD/svg11.dtd" >
<svg xmlns="http://www.w3.org/2000/svg" xmlns:xlink="http://www.w3.org/1999/xlink" version="1.1">
<metadata></metadata>
<defs>
<font id="mariannelight_italic" horiz-adv-x="1228" >
<font-face units-per-em="2048" ascent="1536" descent="-512" />
<missing-glyph horiz-adv-x="552" />
<glyph horiz-adv-x="0" />
<glyph horiz-adv-x="682" />
<glyph unicode=" "  horiz-adv-x="552" />
<glyph unicode="&#x09;" horiz-adv-x="552" />
<glyph unicode="&#xa0;" horiz-adv-x="552" />
<glyph unicode="!" horiz-adv-x="573" d="M109 78q0 43 29 71.5t73 28.5q43 0 72.5 -28.5t29.5 -71.5t-29.5 -72t-72.5 -29q-44 0 -73 29t-29 72zM217 389l164 1045h135l-203 -1045h-96z" />
<glyph unicode="&#x22;" horiz-adv-x="911" d="M295 909l74 525h139l-109 -525h-104zM653 909l74 525h139l-108 -525h-105z" />
<glyph unicode="#" horiz-adv-x="1275" d="M33 393l18 105h205l193 438h-322l18 104h351l174 394h123l-175 -394h400l174 394h119l-174 -394h180l-19 -104h-206l-195 -438h324l-19 -105h-350l-174 -393h-121l174 393h-399l-174 -393h-123l174 393h-176zM379 498h399l193 438h-400z" />
<glyph unicode="$" d="M94 236l96 71q108 -159 293 -190l103 581q-64 36 -104 64t-84.5 72.5t-66.5 102.5t-22 130q0 153 113 257t295 110l24 143h113l-27 -150q115 -18 198.5 -77.5t129.5 -141.5l-98 -67q-35 70 -98.5 117.5t-149.5 60.5l-96 -545q57 -32 89.5 -52t78.5 -57t71 -72.5t43.5 -89 t18.5 -114.5q0 -170 -119 -279.5t-320 -109.5l-24 -143h-113l27 149q-244 32 -371 230zM434 1075q0 -81 45.5 -137t130.5 -107l86 492q-123 -10 -192.5 -79.5t-69.5 -168.5zM596 111q144 9 219.5 81t75.5 189q0 88 -52 147t-149 115z" />
<glyph unicode="%" horiz-adv-x="1693" d="M174 0l1264 1434h139l-1264 -1434h-139zM184 1092q0 156 107 269.5t268 113.5q139 0 221 -86.5t82 -217.5q0 -155 -107.5 -269t-267.5 -114q-140 0 -221.5 86.5t-81.5 217.5zM285 1092q0 -92 55.5 -152.5t148.5 -60.5q117 0 194 87.5t77 207.5q0 90 -56 150t-149 60 q-116 0 -193 -87t-77 -205zM905 260q0 156 107 269.5t268 113.5q139 0 221 -86t82 -217q0 -155 -107.5 -269t-267.5 -114q-140 0 -221.5 86t-81.5 217zM1006 260q0 -92 55.5 -152.5t148.5 -60.5q117 0 194 87.5t77 207.5q0 90 -56 150.5t-149 60.5q-116 0 -193 -87t-77 -206 z" />
<glyph unicode="&#x26;" horiz-adv-x="1484" d="M115 348q0 321 395 451q-71 93 -104 166t-33 155q0 149 105.5 252t269.5 103q154 0 248 -89t94 -231q0 -137 -111 -242t-283 -155l336 -412q121 170 215 422h129q-132 -335 -270 -514l207 -254h-154l-133 162q-198 -201 -461 -201q-201 0 -325.5 107.5t-124.5 279.5z M246 358q0 -127 91 -206.5t232 -79.5q214 0 385 180l-360 440q-3 4 -10.5 12.5t-10.5 12.5q-327 -109 -327 -359zM500 1118q0 -68 30 -128.5t103 -151.5q156 42 246 124t90 187q0 92 -59.5 152.5t-164.5 60.5q-114 0 -179.5 -69t-65.5 -175z" />
<glyph unicode="'" horiz-adv-x="555" d="M295 909l74 525h139l-109 -525h-104z" />
<glyph unicode="(" horiz-adv-x="591" d="M55 385q0 685 594 1151l76 -80q-545 -447 -545 -1069q0 -231 59 -400.5t181 -330.5l-96 -66q-269 326 -269 795z" />
<glyph unicode=")" horiz-adv-x="591" d="M-121 -330q545 447 545 1069q0 232 -58.5 401.5t-181.5 329.5l97 66q268 -320 268 -795q0 -684 -592 -1151z" />
<glyph unicode="*" horiz-adv-x="808" d="M154 1128l43 97l274 -111l41 320h113l-72 -322l309 113l15 -105l-316 -86l154 -254l-97 -59l-122 266l-217 -266l-86 67l241 252z" />
<glyph unicode="+" d="M104 463l21 108h444l82 461h109l-82 -461h448l-20 -108h-447l-81 -463h-109l82 463h-447z" />
<glyph unicode="," horiz-adv-x="552" d="M-25 -328l250 498h146l-279 -498h-117z" />
<glyph unicode="-" horiz-adv-x="616" d="M33 467l20 115h535l-21 -115h-534z" />
<glyph unicode="." horiz-adv-x="552" d="M100 78q0 43 29 71.5t72 28.5q44 0 73 -28.5t29 -71.5t-29 -72t-73 -29q-43 0 -72 29t-29 72z" />
<glyph unicode="/" horiz-adv-x="684" d="M-129 -403l838 1939h125l-840 -1939h-123z" />
<glyph unicode="0" d="M117 541q0 145 26.5 282t79.5 255t127 206.5t175 139.5t218 51q217 0 328 -156.5t111 -425.5q0 -145 -26.5 -282t-80 -255t-127.5 -206.5t-176 -139.5t-219 -51q-216 0 -326 156.5t-110 425.5zM248 539q0 -138 32 -239.5t101.5 -160.5t171.5 -59q112 0 207.5 68.5 t158 182.5t97.5 260.5t35 303.5q0 138 -32.5 239.5t-102 160.5t-171.5 59q-112 0 -207.5 -68.5t-157.5 -182.5t-97 -260.5t-35 -303.5z" />
<glyph unicode="1" horiz-adv-x="917" d="M133 1171l520 263h131l-252 -1434h-124l225 1292l-443 -223z" />
<glyph unicode="2" d="M76 0l20 115l588 516q199 175 267.5 269.5t68.5 207.5q0 111 -75.5 180.5t-190.5 69.5q-104 0 -190.5 -51t-166.5 -170l-100 69q176 269 465 269q167 0 278 -102t111 -257q0 -60 -15.5 -113.5t-42.5 -101.5t-78.5 -106.5t-108.5 -112.5t-148 -135l-496 -432h746l-21 -115 h-911z" />
<glyph unicode="3" d="M76 229l112 64q132 -217 390 -217q168 0 266 93.5t98 233.5q0 135 -87 219.5t-265 84.5h-168l20 112h201q169 0 261.5 82t92.5 209q0 108 -73 178t-179 70q-104 0 -185.5 -46t-156.5 -159l-100 70q172 252 451 252q160 0 267 -102t107 -257q0 -122 -76.5 -220.5 t-222.5 -139.5q126 -50 185 -143.5t59 -209.5q0 -192 -133.5 -318t-361.5 -126q-351 0 -502 270z" />
<glyph unicode="4" d="M88 434l21 115l835 885h168l-156 -885h172l-20 -115h-172l-76 -434h-125l76 434h-723zM254 549h577l134 751z" />
<glyph unicode="5" d="M76 229l112 64q129 -217 387 -217q169 0 268 93.5t99 233.5q0 137 -87.5 221.5t-268.5 84.5h-312l168 725h727l-18 -115h-608l-115 -496h168q126 0 220.5 -32.5t149 -90t81 -129.5t26.5 -159q0 -93 -34 -175.5t-96.5 -144t-157.5 -97.5t-210 -36q-351 0 -499 270z" />
<glyph unicode="6" d="M127 524q0 120 18.5 235t53.5 221.5t91 196.5t127 156.5t165 104t202 37.5q152 0 267.5 -69t171.5 -189l-113 -64q-43 97 -132 151t-196 54q-109 0 -200 -53.5t-154 -146.5t-103.5 -211.5t-56.5 -254.5q173 189 404 189q188 0 303 -113t115 -305q0 -219 -141 -361.5 t-365 -142.5q-97 0 -179.5 36t-145 105t-97.5 178t-35 246zM258 526q0 -224 93 -337t235 -113q167 0 268.5 110t101.5 275q0 142 -83 222.5t-218 80.5q-122 0 -223 -60t-174 -161v-17z" />
<glyph unicode="7" d="M125 0l981 1319h-801l19 115h946l-19 -115l-972 -1319h-154z" />
<glyph unicode="8" d="M90 369q0 69 23 136.5t68 127t118 104.5t166 64q-87 41 -132.5 114t-45.5 168q0 71 29.5 140t83.5 125.5t140.5 91.5t190.5 35q191 0 304.5 -97t113.5 -250q0 -118 -74.5 -217t-216.5 -137q116 -45 177 -136.5t61 -215.5q0 -68 -19.5 -133t-61 -125t-101 -105.5 t-146.5 -72.5t-190 -27q-232 0 -360 112.5t-128 297.5zM223 375q0 -139 91.5 -220t265.5 -81q96 0 171.5 29.5t121 80t69 112t23.5 130.5q0 139 -92 221t-267 82q-95 0 -170.5 -30t-120.5 -80.5t-68.5 -112.5t-23.5 -131zM422 1081q0 -113 73 -178t212 -65q78 0 138.5 24.5 t97 65t55 90t18.5 104.5q0 108 -78 175t-209 67q-140 0 -223.5 -85t-83.5 -198z" />
<glyph unicode="9" d="M66 217l112 64q43 -98 132.5 -151.5t197.5 -53.5q109 0 200 53t154 145.5t103 211t55 255.5q-172 -188 -404 -188q-186 0 -300.5 113t-114.5 305q0 219 141 361.5t363 142.5q98 0 180.5 -36.5t144 -105.5t96.5 -178t35 -246q0 -144 -25.5 -280.5t-79 -258.5t-129.5 -213 t-184.5 -144.5t-236.5 -53.5q-152 0 -268 69t-172 189zM332 973q0 -142 83 -222.5t218 -80.5q232 0 397 219v18q0 114 -26 202.5t-71.5 141.5t-103 80t-124.5 27q-169 0 -271 -110t-102 -275z" />
<glyph unicode=":" horiz-adv-x="552" d="M100 78q0 43 29.5 71.5t73.5 28.5q43 0 71.5 -28.5t28.5 -71.5t-28.5 -72t-71.5 -29q-44 0 -73.5 29t-29.5 72zM254 954q0 43 28.5 72t71.5 29q44 0 73.5 -29t29.5 -72t-29.5 -71.5t-73.5 -28.5q-43 0 -71.5 28.5t-28.5 71.5z" />
<glyph unicode=";" horiz-adv-x="552" d="M-43 -328l248 498h147l-278 -498h-117zM252 954q0 43 29 72t73 29q43 0 72 -29t29 -72t-29 -71.5t-72 -28.5q-44 0 -73 28.5t-29 71.5z" />
<glyph unicode="&#x3c;" d="M104 455l21 123l1081 454l-20 -123l-946 -399l804 -399l-20 -111z" />
<glyph unicode="=" d="M66 240l18 108h1001l-18 -108h-1001zM145 686l19 107h999l-16 -107h-1002z" />
<glyph unicode="&#x3e;" d="M25 0l20 123l944 399l-805 400l21 110l921 -454l-20 -123z" />
<glyph unicode="?" horiz-adv-x="1001" d="M211 1264q78 105 185 158t231 53q182 0 295.5 -108.5t113.5 -274.5q0 -197 -146.5 -318t-402.5 -149l-49 -236h-96l31 324q532 43 532 374q0 115 -77.5 196t-209.5 81q-183 0 -311 -168zM236 78q0 43 29 71.5t73 28.5q43 0 71.5 -28.5t28.5 -71.5t-28.5 -72t-71.5 -29 q-44 0 -73 29t-29 72z" />
<glyph unicode="@" horiz-adv-x="1673" d="M96 463q0 163 60.5 311t165 258t255 175t320.5 65q147 0 276 -49t220 -133t143.5 -200.5t52.5 -248.5q0 -207 -100 -347t-236 -140q-77 0 -126.5 36t-63.5 97q-109 -133 -264 -133q-139 0 -225.5 88t-86.5 221q0 173 105.5 290t267.5 117q80 0 146.5 -34.5t105.5 -98.5 l18 109h105l-84 -479q-9 -57 17 -91t85 -34q99 0 168.5 112t69.5 285q0 152 -77 277t-213.5 197.5t-303.5 72.5q-151 0 -282.5 -59t-222.5 -157.5t-143 -230t-52 -274.5q0 -137 51 -255t135.5 -197.5t195.5 -125t230 -45.5q167 0 292 50.5t232 160.5l58 -71 q-118 -118 -257 -172t-323 -54q-148 0 -279.5 51.5t-227.5 143t-152 224.5t-56 288zM598 467q0 -94 57 -156.5t156 -62.5q145 0 238 127l43 254q-31 69 -89.5 108t-136.5 39q-116 0 -192 -87t-76 -222z" />
<glyph unicode="A" horiz-adv-x="1456" d="M-23 0l824 1434h180l317 -1434h-133l-98 451h-688l-258 -451h-144zM444 567h598l-163 758z" />
<glyph unicode="B" horiz-adv-x="1150" d="M139 0l254 1434h252q195 0 298.5 -86.5t103.5 -239.5q0 -119 -67.5 -212.5t-188.5 -135.5q110 -40 166.5 -124.5t56.5 -193.5q0 -197 -146.5 -319.5t-380.5 -122.5h-348zM291 115h203q173 0 278 89t105 234q0 119 -74 191.5t-209 72.5h-199zM416 817h176q143 0 229 80 t86 201q0 106 -69.5 163.5t-196.5 57.5h-137z" />
<glyph unicode="C" horiz-adv-x="1523" d="M133 625q0 112 27 219.5t76.5 201.5t122.5 173t161.5 136t198 88.5t227.5 31.5q186 0 336.5 -86t228.5 -224l-114 -73q-60 116 -185 188t-270 72q-191 0 -346 -99.5t-240.5 -264t-85.5 -357.5q0 -150 64 -274.5t185 -199.5t274 -75q159 0 280 59.5t223 177.5l95 -88 q-227 -272 -603 -272q-192 0 -342 88t-231.5 239.5t-81.5 338.5z" />
<glyph unicode="D" horiz-adv-x="1595" d="M139 0l254 1434h438q321 0 511 -174t190 -461q0 -125 -37 -242.5t-111 -218.5t-176 -176.5t-240 -118.5t-296 -43h-533zM291 121h381q131 0 247 36t202 99t148.5 147.5t94 184t31.5 205.5q0 234 -152.5 377t-411.5 143h-327z" />
<glyph unicode="E" horiz-adv-x="1093" d="M139 0l254 1434h709l-21 -115h-577l-94 -533h499l-20 -112h-500l-98 -559h579l-20 -115h-711z" />
<glyph unicode="F" horiz-adv-x="1015" d="M139 0l254 1434h709l-21 -115h-577l-94 -533h499l-20 -112h-500l-119 -674h-131z" />
<glyph unicode="G" horiz-adv-x="1624" d="M133 625q0 168 61 323t167.5 271.5t262 186t334.5 69.5q197 0 344 -83.5t226 -222.5l-115 -73q-60 116 -182 186t-277 70q-146 0 -274.5 -58.5t-217.5 -156.5t-140.5 -230t-51.5 -276q0 -149 64.5 -274t185.5 -200t273 -75q282 0 493 194l70 396h-432l20 114h563 l-102 -571q-116 -117 -273 -186.5t-344 -69.5q-192 0 -342 88t-231.5 239.5t-81.5 338.5z" />
<glyph unicode="H" horiz-adv-x="1648" d="M139 0l254 1434h131l-114 -643h927l115 643h131l-254 -1434h-131l119 670h-928l-119 -670h-131z" />
<glyph unicode="I" horiz-adv-x="589" d="M139 0l254 1434h131l-254 -1434h-131z" />
<glyph unicode="J" horiz-adv-x="614" d="M-213 -297l20 113q55 -19 119 -19q51 0 88 10.5t70 37.5t55.5 79t36.5 131l244 1379h131l-246 -1395q-34 -194 -126 -277.5t-245 -83.5q-92 0 -147 25z" />
<glyph unicode="K" horiz-adv-x="1400" d="M139 0l254 1434h131l-137 -775l918 775h176l-697 -588l469 -846h-155l-414 762l-328 -277l-86 -485h-131z" />
<glyph unicode="L" horiz-adv-x="1015" d="M139 0l254 1434h131l-233 -1313h579l-20 -121h-711z" />
<glyph unicode="M" horiz-adv-x="1753" d="M139 0l254 1434h166l334 -795l614 795h181l-254 -1434h-131l223 1260l-596 -768h-111l-325 768l-224 -1260h-131z" />
<glyph unicode="N" horiz-adv-x="1648" d="M139 0l254 1434h170l662 -1289l227 1289h131l-254 -1434h-170l-661 1286l-228 -1286h-131z" />
<glyph unicode="O" horiz-adv-x="1671" d="M135 625q0 168 60 323t165 271.5t259 186t331 69.5q145 0 268.5 -51.5t209 -140.5t134 -212t48.5 -262q0 -168 -60 -323t-165 -271.5t-259 -186t-331 -69.5q-145 0 -268.5 51.5t-209 140.5t-134 212t-48.5 262zM272 631q0 -112 38 -212t105 -174.5t166.5 -118.5 t215.5 -44q192 0 348.5 99.5t242 264t85.5 357.5q0 112 -38 212t-106 174.5t-167.5 118.5t-215.5 44q-191 0 -347 -99.5t-241.5 -264t-85.5 -357.5z" />
<glyph unicode="P" horiz-adv-x="1105" d="M139 0l254 1434h332q189 0 299.5 -92.5t110.5 -258.5q0 -188 -135 -306t-363 -118h-250l-117 -659h-131zM408 774h229q167 0 262.5 83.5t95.5 221.5q0 120 -71.5 180t-204.5 60h-215z" />
<glyph unicode="Q" horiz-adv-x="1671" d="M135 627q0 167 59.5 320.5t164.5 270.5t260 187t333 70q146 0 270 -52.5t208.5 -143t132 -212.5t47.5 -260q0 -240 -119.5 -445.5t-323.5 -312.5l111 -112q138 -138 278 -138q59 0 109 13l-23 -117q-49 -17 -106 -17q-194 0 -352 158l-156 156q-122 -33 -235 -33 q-146 0 -270.5 52.5t-208.5 143t-131.5 212.5t-47.5 260zM272 623q0 -146 64.5 -269.5t185 -197.5t271.5 -74q146 0 274.5 60t216.5 160t138.5 232t50.5 275q0 147 -64.5 270.5t-185.5 198t-273 74.5q-146 0 -273.5 -60t-215.5 -160t-138.5 -233t-50.5 -276z" />
<glyph unicode="R" horiz-adv-x="1241" d="M139 0l254 1434h295q192 0 301 -92t109 -259q0 -146 -86.5 -253.5t-237.5 -147.5l348 -682h-149l-324 662q-24 -3 -49 -3h-213l-117 -659h-131zM408 774h192q167 0 262.5 83.5t95.5 221.5q0 120 -71.5 180t-204.5 60h-178z" />
<glyph unicode="S" horiz-adv-x="1167" d="M92 199l105 77q133 -196 342 -196q139 0 223 81.5t84 200.5q0 66 -29.5 122t-76.5 96.5t-103.5 79.5t-113.5 80t-104 88t-76.5 114t-29.5 148q0 159 121 272t299 113q274 0 393 -230l-106 -76q-88 187 -291 187q-119 0 -199.5 -76.5t-80.5 -183.5q0 -65 29.5 -120 t76.5 -95t103.5 -78t113 -79.5t103.5 -88.5t76.5 -114.5t29.5 -149.5q0 -176 -123.5 -294t-320.5 -118q-292 0 -445 240z" />
<glyph unicode="T" horiz-adv-x="1241" d="M215 1313l23 121h1089l-22 -121h-478l-233 -1313h-131l233 1313h-481z" />
<glyph unicode="U" horiz-adv-x="1431" d="M194 298q-10 52 -11 110q0 68 14 147l155 879h131l-153 -883q-13 -72 -13 -134q-1 -133 61 -215q90 -120 288 -120q182 0 295 111.5t151 330.5l160 910h131l-162 -914q-96 -561 -582 -561q-124 0 -220.5 38.5t-159.5 113.5t-85 187z" />
<glyph unicode="V" horiz-adv-x="1456" d="M229 1434h136l290 -1309l752 1309h145l-827 -1434h-174z" />
<glyph unicode="W" horiz-adv-x="2027" d="M236 1434h133l98 -1293l614 1293h181l159 -1293l555 1293h140l-619 -1434h-184l-162 1292l-621 -1292h-180z" />
<glyph unicode="X" horiz-adv-x="1394" d="M-18 0l671 758l-372 676h147l328 -590l522 590h164l-619 -697l408 -737h-146l-362 655l-580 -655h-161z" />
<glyph unicode="Y" horiz-adv-x="1302" d="M190 1434h146l358 -646l582 646h162l-695 -766l-116 -668h-131l118 674z" />
<glyph unicode="Z" horiz-adv-x="1296" d="M12 0l21 121l1114 1192h-883l21 121h1050l-20 -121l-1114 -1192h923l-22 -121h-1090z" />
<glyph unicode="[" horiz-adv-x="573" d="M-29 -403l342 1939h418l-20 -106h-299l-306 -1727h302l-19 -106h-418z" />
<glyph unicode="\" horiz-adv-x="684" d="M213 1536h115l164 -1939h-117z" />
<glyph unicode="]" horiz-adv-x="573" d="M-135 -403l18 106h299l305 1727h-301l21 106h416l-19 -106l-323 -1833h-416z" />
<glyph unicode="^" d="M225 315l350 463h175l188 -463h-107l-174 392l-311 -392h-121z" />
<glyph unicode="_" horiz-adv-x="1073" d="M-115 -315l19 106h1011l-20 -106h-1010z" />
<glyph unicode="`" horiz-adv-x="688" d="M350 1536h135l148 -340h-113z" />
<glyph unicode="a" horiz-adv-x="1112" d="M82 227q0 128 93.5 209.5t273.5 110.5l387 65l14 82q6 35 6 65q0 81 -45 133q-62 70 -188 71q-91 0 -175 -42.5t-151 -117.5l-90 76q79 89 187.5 141.5t232.5 52.5q189 0 281 -107q69 -79 69 -200q0 -42 -8 -88l-123 -678h-117l25 137q-150 -166 -363 -166 q-140 0 -224.5 68t-84.5 188zM209 238q0 -72 54 -117t147 -45q215 0 366 198l43 242l-346 -59q-264 -44 -264 -219z" />
<glyph unicode="b" horiz-adv-x="1318" d="M104 0l273 1536h119l-109 -614q157 151 363 151q219 0 347 -135t128 -346q0 -173 -73 -317.5t-207 -230t-302 -85.5q-126 0 -227.5 52t-161.5 147l-29 -158h-121zM279 305q51 -108 143 -169.5t215 -61.5q131 0 236 67t164 184.5t59 262.5q0 162 -99.5 266t-267.5 104 q-107 0 -204 -49t-165 -145z" />
<glyph unicode="c" horiz-adv-x="1124" d="M92 451q0 123 46 237t125 199t194 135.5t245 50.5q144 0 252 -60.5t162 -162.5l-104 -76q-43 85 -125 134.5t-193 49.5q-134 0 -243.5 -71t-169.5 -187t-60 -251q0 -160 101 -267.5t268 -107.5q107 0 194 45.5t146 124.5l84 -84q-163 -201 -424 -201q-229 0 -363.5 140.5 t-134.5 351.5z" />
<glyph unicode="d" horiz-adv-x="1312" d="M94 440q0 129 43.5 245.5t119 202t184 135.5t233.5 50q126 0 229 -52.5t164 -148.5l117 664h119l-271 -1536h-121l21 119q-160 -160 -367 -160q-219 0 -345 135t-126 346zM221 444q0 -162 100 -266t269 -104q107 0 203.5 48.5t164.5 143.5l82 457q-48 110 -140.5 172.5 t-217.5 62.5q-199 0 -330 -147t-131 -367z" />
<glyph unicode="e" horiz-adv-x="1155" d="M92 451q0 125 39 237.5t110 198t180 136t241 50.5q182 0 298.5 -107.5t116.5 -267.5q0 -78 -22 -151h-830q-6 -49 -6 -98q0 -168 94.5 -273.5t264.5 -105.5q117 0 215.5 46.5t160.5 129.5l84 -78q-79 -99 -199.5 -154t-265.5 -55q-153 0 -263.5 67t-164 177t-53.5 248z M246 643h706q4 25 4 49q0 57 -22 109q-30 74 -102.5 121t-172.5 47q-156 0 -262 -89.5t-151 -236.5z" />
<glyph unicode="f" horiz-adv-x="747" d="M72 -504l250 1428h-191l21 108h188l27 152q31 176 129 264t239 88q125 0 226 -68l-66 -96q-69 53 -160 53q-93 0 -160 -60t-88 -181l-26 -152h375l-19 -108h-375l-247 -1428h-123z" />
<glyph unicode="g" horiz-adv-x="1101" d="M-57 -223q0 91 55.5 169t159.5 136q-60 45 -60 125q0 68 48 124t128 95q-108 94 -108 246q0 78 28.5 149.5t81 128.5t135 91t181.5 34q101 0 182 -43h397l-20 -106h-262q51 -79 51 -178q0 -105 -48.5 -196t-147 -150.5t-228.5 -59.5q-98 0 -168 37q-63 -30 -98 -70.5 t-35 -81.5q0 -69 84 -69h285q182 0 270 -77.5t88 -207.5q0 -166 -145.5 -275.5t-399.5 -109.5q-227 0 -340.5 77t-113.5 212zM68 -207q0 -201 331 -201q202 0 310 76.5t108 198.5q0 180 -239 180h-310q-95 -44 -147.5 -114.5t-52.5 -139.5zM285 674q0 -97 61.5 -163.5 t169.5 -66.5q141 0 222 89t81 210q0 98 -62 164t-167 66q-144 0 -224.5 -88t-80.5 -211z" />
<glyph unicode="h" horiz-adv-x="1239" d="M104 0l271 1536h121l-113 -635q161 172 367 172q186 1 279 -115q67 -83 67 -214q0 -52 -11 -111l-110 -633h-121l111 629q9 48 9 90q0 94 -46 153q-66 86 -203 86q-220 0 -369 -215l-131 -743h-121z" />
<glyph unicode="i" horiz-adv-x="512" d="M106 0l181 1032h121l-183 -1032h-119zM328 1450q0 37 27 63.5t65 26.5t65 -26.5t27 -63.5q0 -39 -26.5 -65.5t-65.5 -26.5t-65.5 26.5t-26.5 65.5z" />
<glyph unicode="j" horiz-adv-x="512" d="M-354 -475l18 108q69 -32 150 -32q43 0 74 4.5t63.5 18.5t55 39.5t41.5 70t30 106.5l209 1192h119l-211 -1202q-17 -100 -50.5 -168.5t-82.5 -105.5t-105.5 -52.5t-130.5 -15.5q-104 0 -180 37zM326 1450q0 37 28 63.5t66 26.5t65 -26.5t27 -63.5q0 -39 -26.5 -65.5 t-65.5 -26.5t-66.5 26.5t-27.5 65.5z" />
<glyph unicode="k" horiz-adv-x="1069" d="M106 0l271 1536h119l-181 -1034l621 530h162l-498 -426l332 -606h-135l-287 526l-223 -192l-60 -334h-121z" />
<glyph unicode="l" horiz-adv-x="512" d="M106 0l271 1536h119l-271 -1536h-119z" />
<glyph unicode="m" horiz-adv-x="1906" d="M106 0l181 1032h121l-23 -129q156 170 344 170q121 0 203 -57.5t110 -163.5q183 221 398 221q174 1 263 -115q63 -82 63 -208q0 -52 -11 -113l-113 -637h-118l110 633q9 49 9 91q0 92 -42 150q-61 84 -186 84q-204 0 -358 -231q-4 -60 -10 -90l-113 -637h-121l113 633 q8 48 8 89q0 94 -42 152q-62 84 -187 84q-200 0 -349 -213l-131 -745h-119z" />
<glyph unicode="n" horiz-adv-x="1239" d="M104 0l183 1032h119l-23 -133q160 174 367 174q186 1 279 -115q67 -83 67 -214q0 -52 -11 -111l-110 -633h-121l111 629q9 48 9 90q0 94 -46 153q-66 86 -203 86q-219 0 -371 -217l-129 -741h-121z" />
<glyph unicode="o" horiz-adv-x="1277" d="M92 451q0 164 76 306t217 229t317 87q149 0 261 -66.5t168.5 -177t56.5 -247.5q0 -122 -45 -235.5t-123.5 -199t-193.5 -137t-246 -51.5q-150 0 -262.5 66.5t-169 177.5t-56.5 248zM221 449q0 -159 99.5 -267t261.5 -108q103 0 193 42t152 112t98 162.5t36 193.5 q0 159 -100.5 266.5t-262.5 107.5q-103 0 -193 -41.5t-151.5 -111.5t-97 -162.5t-35.5 -193.5z" />
<glyph unicode="p" horiz-adv-x="1316" d="M16 -504l271 1536h119l-21 -121q159 162 367 162q219 0 345 -135t126 -346q0 -129 -43.5 -245.5t-119 -202t-184 -135.5t-233.5 -50q-127 0 -229 52.5t-162 148.5l-117 -664h-119zM279 307q48 -109 140.5 -171t215.5 -62q199 0 330 147t131 367q0 161 -100 265.5 t-267 104.5q-108 0 -205.5 -48.5t-165.5 -143.5z" />
<glyph unicode="q" horiz-adv-x="1316" d="M94 440q0 129 43.5 245.5t119 202t184 135.5t233.5 50q126 0 228 -52t163 -149l29 160h118l-270 -1536h-119l109 615q-158 -152 -365 -152q-220 0 -346.5 135t-126.5 346zM221 444q0 -162 100 -266t269 -104q107 0 203.5 48.5t164.5 145.5l80 455q-47 111 -139 173 t-217 62q-199 0 -330 -147t-131 -367z" />
<glyph unicode="r" horiz-adv-x="778" d="M104 0l183 1032h121l-27 -153q76 88 152.5 131t173.5 43q56 0 94 -13l-21 -116q-51 14 -90 14q-98 0 -177 -52t-159 -157l-129 -729h-121z" />
<glyph unicode="s" horiz-adv-x="862" d="M18 156l95 67q101 -160 270 -160q96 0 155.5 58t59.5 147q0 47 -23 84.5t-59.5 64.5t-81 52t-89 53t-81 61.5t-59.5 83.5t-23 113q0 122 95.5 207.5t236.5 85.5q105 0 187.5 -51.5t123.5 -134.5l-98 -64q-67 146 -215 146q-90 0 -150.5 -56t-60.5 -129q0 -47 23 -85 t60 -65.5t81.5 -52.5t89 -53.5t81.5 -61.5t60 -83.5t23 -112.5q0 -126 -96 -218.5t-244 -92.5q-114 0 -209.5 51t-151.5 146z" />
<glyph unicode="t" horiz-adv-x="825" d="M131 924l21 108h188l45 258h123l-45 -258h373l-19 -108h-375l-102 -586q-9 -43 -10 -78q0 -13 2 -25q5 -43 17.5 -70.5t40 -43.5t58 -22.5t72.5 -6.5q69 0 156 27l-21 -111q-70 -28 -157 -28q-290 0 -290 256q0 49 11 108l103 580h-191z" />
<glyph unicode="u" horiz-adv-x="1204" d="M162 446l102 586h121l-104 -594q-10 -54 -10 -100q1 -104 51 -170q72 -94 231 -94q139 0 227 93t119 271l105 594h120l-104 -596q-42 -231 -161.5 -354t-311.5 -123q-213 -1 -319 127q-76 92 -77 240q0 56 11 120z" />
<glyph unicode="v" horiz-adv-x="1052" d="M131 1032h127l195 -911l516 911h135l-588 -1032h-160z" />
<glyph unicode="w" horiz-adv-x="1550" d="M170 1032h119l67 -909l422 909h168l101 -911l391 911h125l-441 -1032h-172l-104 915l-430 -915h-168z" />
<glyph unicode="x" horiz-adv-x="1019" d="M-41 0l477 547l-264 485h131l223 -411l361 411h145l-440 -504l289 -528h-131l-248 457l-400 -457h-143z" />
<glyph unicode="y" horiz-adv-x="1077" d="M-170 -475l18 110q56 -34 146 -34q157 0 264 182l129 219l-256 1030h129l213 -885l520 885h135l-766 -1292q-78 -133 -162.5 -192.5t-195.5 -59.5q-113 0 -174 37z" />
<glyph unicode="z" horiz-adv-x="970" d="M0 0l18 109l775 815h-617l19 108h766l-19 -108l-776 -815h645l-18 -109h-793z" />
<glyph unicode="{" horiz-adv-x="573" d="M8 514l21 109h121q74 0 112.5 59t38.5 154q0 66 -22.5 192.5t-22.5 196.5q0 147 92 229t250 82h133l-20 -106h-113q-107 0 -166 -54t-59 -159q0 -66 22.5 -187t22.5 -190q0 -89 -40 -168t-114 -115q80 -53 80 -162q0 -59 -21.5 -121t-52 -115.5t-60.5 -105.5 t-51.5 -108.5t-21.5 -106.5q0 -64 50 -99.5t137 -35.5h84l-19 -106h-74q-140 0 -217.5 61.5t-77.5 175.5q0 56 21.5 115.5t52 112t60.5 105t51.5 112t21.5 114.5q0 121 -98 121h-121z" />
<glyph unicode="|" horiz-adv-x="684" d="M123 -403l342 1939h117l-342 -1939h-117z" />
<glyph unicode="}" horiz-adv-x="573" d="M-137 -403l20 106h113q107 0 166 54t59 159q0 66 -22.5 187t-22.5 190q0 89 39.5 167.5t114.5 114.5q-80 53 -80 162q0 59 21 121t51 115.5t60.5 105.5t51.5 108.5t21 106.5q0 64 -49.5 100t-137.5 36h-82l19 106h74q140 0 217 -62t77 -176q0 -56 -21.5 -115.5t-52 -112 l-61 -105t-52 -112t-21.5 -114.5q0 -121 100 -121h119l-19 -108h-121q-74 0 -112.5 -59t-38.5 -154q0 -66 22.5 -192.5t22.5 -196.5q0 -146 -92 -228.5t-250 -82.5h-133z" />
<glyph unicode="~" d="M188 340l37 205q41 221 209 221q59 0 102.5 -25.5t67 -63.5t46 -83t39 -83t45.5 -63.5t67 -25.5q52 0 80.5 37t42.5 114l30 181h97l-37 -205q-20 -109 -73.5 -165t-133.5 -56q-69 0 -117.5 35.5t-74 86t-47.5 101t-53.5 86t-76.5 35.5q-98 0 -123 -152l-30 -180h-97z" />
<glyph unicode="&#xa1;" horiz-adv-x="573" d="M61 -383l205 1045h96l-165 -1045h-136zM266 973q0 43 29 71.5t72 28.5q44 0 73 -28.5t29 -71.5q0 -42 -29 -70.5t-73 -28.5q-43 0 -72 29t-29 70z" />
<glyph unicode="&#xa2;" d="M170 653q0 159 72 297.5t204.5 227t296.5 98.5l29 158h111l-29 -162q117 -15 205 -73t135 -146l-102 -74q-36 73 -102.5 119.5t-155.5 58.5l-154 -878q206 6 328 170l84 -84q-75 -96 -182.5 -149.5t-241.5 -53.5h-9l-28 -162h-113l31 174q-177 34 -278 167t-101 312z M301 651q0 -132 72 -231t196 -129l154 868q-122 -14 -219.5 -87t-150 -184t-52.5 -237z" />
<glyph unicode="&#xa3;" d="M78 0l20 115h2l140 108q156 122 209 187.5t53 150.5q0 43 -13 90h-296l20 109h236q-4 8 -26.5 56t-29.5 65.5t-21 55.5t-19 69.5t-5 64.5q0 179 117.5 291.5t300.5 112.5q130 0 228 -61.5t159 -170.5l-104 -65q-95 180 -279 180q-135 0 -214 -80t-79 -213q0 -39 11 -83 t22 -71t35.5 -79t32.5 -72h446l-18 -109h-390q11 -53 11 -88q0 -70 -32.5 -132.5t-92 -123t-168.5 -147.5l-60 -45h736l-21 -115h-911z" />
<glyph unicode="&#xa4;" d="M37 76l276 246q-37 67 -37 155q0 149 97 260l-178 228l88 67l174 -223q82 51 186 51q122 0 205 -67l272 239l72 -76l-279 -245q35 -68 35 -152q0 -146 -94 -258l184 -233l-86 -68l-182 229q-85 -53 -190 -53q-120 0 -199 66l-275 -242zM377 479q0 -90 56 -151.5 t149 -61.5q114 0 189 86t75 205q0 90 -56 150.5t-149 60.5q-112 0 -188 -85.5t-76 -203.5z" />
<glyph unicode="&#xa5;" d="M150 496l18 108h401l35 205h-401l20 109h324l-273 518h144l264 -514l444 512h154l-453 -516h324l-18 -109h-402l-35 -205h400l-19 -108h-399l-88 -496h-127l88 496h-401z" />
<glyph unicode="&#xa6;" horiz-adv-x="684" d="M123 -403l127 718h117l-127 -718h-117zM338 817l127 719h117l-127 -719h-117z" />
<glyph unicode="&#xa7;" horiz-adv-x="1040" d="M6 -213l88 78q150 -156 303 -156q106 0 179 57t73 166q0 60 -29 108t-75 80.5t-102 62.5t-112 63t-102 72t-75 99t-29 136q0 114 80 194t213 117q-158 106 -158 277q0 80 30.5 144.5t83 105t119.5 62.5t142 22q219 0 385 -181l-86 -75q-143 149 -301 149 q-105 0 -178.5 -57t-73.5 -164q0 -60 29 -108t75.5 -81t102.5 -63t112 -63t102.5 -72t75.5 -99t29 -135q0 -116 -81 -195.5t-216 -115.5q76 -51 118 -116.5t42 -161.5q0 -105 -53 -181.5t-136.5 -113.5t-185.5 -37q-219 0 -389 182zM246 557q0 -51 16.5 -90.5t61 -76 t69.5 -52t94 -52.5q5 -3 8 -5t8 -4.5l9 -4.5q123 22 197.5 91t74.5 159q0 41 -14.5 76.5t-33 59t-56.5 51t-62.5 42t-73.5 40.5q-17 9 -26 14q-122 -22 -197 -91t-75 -157z" />
<glyph unicode="&#xa8;" horiz-adv-x="688" d="M238 1450q0 38 27.5 64t64.5 26t63.5 -26t26.5 -64q0 -35 -26.5 -60.5t-63.5 -25.5t-64.5 25.5t-27.5 60.5zM598 1450q0 38 27 64t65 26q37 0 63.5 -26t26.5 -64q0 -35 -26.5 -60.5t-63.5 -25.5q-38 0 -65 25.5t-27 60.5z" />
<glyph unicode="&#xa9;" horiz-adv-x="1705" d="M133 627q0 173 64 330t173 270.5t261 180.5t321 67q162 0 293.5 -52t217.5 -142.5t132.5 -212t46.5 -261.5q0 -173 -64 -330t-172.5 -270.5t-260.5 -180.5t-320 -67q-162 0 -294 52t-218.5 142.5t-133 212t-46.5 261.5zM229 627q0 -123 40.5 -229.5t115 -185.5 t187.5 -124t251 -45q150 0 284.5 61t230.5 164.5t152 244t56 294.5q0 123 -40 229.5t-114 185.5t-187 124t-251 45q-201 0 -368 -104t-262 -279t-95 -381zM444 659q0 104 37 199.5t101.5 167t158.5 114t203 42.5q118 0 210 -52.5t142 -138.5l-92 -59q-36 67 -106.5 108 t-155.5 41q-167 0 -277 -121.5t-110 -295.5q0 -133 83 -224.5t216 -91.5q170 0 291 137l74 -67q-136 -168 -371 -168q-179 0 -291.5 115t-112.5 294z" />
<glyph unicode="&#xaa;" horiz-adv-x="712" d="M129 541l16 92h471l-16 -92h-471zM176 969q0 79 56.5 131.5t168.5 70.5l230 39l8 41q12 71 -23 111.5t-106 40.5q-104 0 -186 -92l-70 57q46 55 113.5 88t146.5 33q124 0 181.5 -69t35.5 -185l-72 -406h-94l13 74q-84 -100 -209 -100q-87 0 -140 44.5t-53 121.5zM274 979 q0 -42 30 -69t83 -27q120 0 209 116l22 140l-198 -35q-146 -27 -146 -125z" />
<glyph unicode="&#xab;" horiz-adv-x="1013" d="M113 508l342 410h141l-350 -424l188 -396h-125zM504 508l342 410h141l-350 -424l188 -396h-125z" />
<glyph unicode="&#xac;" d="M145 686l19 107h999l-96 -553h-106l77 446h-893z" />
<glyph unicode="&#xad;" horiz-adv-x="616" d="M33 467l20 115h535l-21 -115h-534z" />
<glyph unicode="&#xae;" horiz-adv-x="1024" d="M150 965q0 213 142.5 361.5t348.5 148.5q192 0 303 -113.5t111 -286.5q0 -139 -65 -256.5t-177.5 -185.5t-247.5 -68q-193 0 -304 113.5t-111 286.5zM223 965q0 -146 91.5 -241t250.5 -95q113 0 209 60t151.5 163t55.5 223q0 146 -91 241t-249 95q-176 0 -297 -131 t-121 -315zM408 760l92 528h127q76 0 120 -34.5t44 -98.5q0 -53 -32 -92.5t-89 -56.5l118 -246h-88l-102 235h-70l-43 -235h-77zM539 1061h57q51 0 81 25.5t30 66.5q0 70 -84 70h-56z" />
<glyph unicode="&#xaf;" horiz-adv-x="688" d="M215 1401l16 94h570l-17 -94h-569z" />
<glyph unicode="&#xb0;" horiz-adv-x="821" d="M184 1092q0 156 104 269.5t263 113.5q141 0 224 -86t83 -215q0 -157 -104.5 -270t-264.5 -113q-139 0 -222 86.5t-83 214.5zM287 1096q0 -91 56.5 -153t148.5 -62q115 0 189.5 85t74.5 203q0 91 -57 152t-150 61q-113 0 -187.5 -84.5t-74.5 -201.5z" />
<glyph unicode="&#xb1;" d="M25 0l18 106h1001l-20 -106h-999zM129 596l18 109h447l57 327h109l-58 -327h447l-19 -109h-448l-57 -328h-109l57 328h-444z" />
<glyph unicode="&#xb2;" horiz-adv-x="772" d="M158 829l16 93l361 313q111 98 149.5 151t38.5 117q0 62 -43 102t-107 40q-118 0 -211 -136l-77 56q110 172 295 172q106 0 176.5 -64t70.5 -162q0 -87 -51 -157.5t-184 -186.5l-285 -245h436l-16 -93h-569z" />
<glyph unicode="&#xb3;" horiz-adv-x="772" d="M156 979l90 49q76 -133 225 -133q94 0 150.5 53t56.5 133q0 78 -50 125t-151 47h-106l16 90h121q99 0 151 45.5t52 116.5q0 62 -41 101t-101 39t-107 -27.5t-89 -91.5l-80 53q107 158 282 158q103 0 171.5 -64t68.5 -162q0 -72 -46 -131.5t-132 -87.5q74 -29 109.5 -85.5 t35.5 -127.5q0 -116 -84.5 -195t-226.5 -79q-224 0 -315 174z" />
<glyph unicode="&#xb4;" horiz-adv-x="688" d="M287 1196l266 340h147l-288 -340h-125z" />
<glyph unicode="&#xb6;" horiz-adv-x="1253" d="M160 1022q0 82 32 156t92 131.5t155 91t212 33.5h195l-326 -1837h-121l187 1062h-23q-174 0 -288.5 95t-114.5 268zM748 -403l323 1837h117l-326 -1837h-114z" />
<glyph unicode="&#xb7;" horiz-adv-x="552" d="M186 524q0 43 29 72t72 29q44 0 73 -29t29 -72t-29 -71.5t-73 -28.5q-43 0 -72 28.5t-29 71.5z" />
<glyph unicode="&#xb8;" horiz-adv-x="688" d="M-29 -428l62 72q62 -66 143 -66q53 0 86 27.5t33 77.5q0 39 -28.5 66.5t-78.5 27.5q-44 0 -79 -21l-46 60l185 202l94 -14l-137 -151h8q81 0 133.5 -47.5t52.5 -116.5q0 -85 -61 -140t-162 -55q-61 0 -115 21t-90 57z" />
<glyph unicode="&#xb9;" horiz-adv-x="772" d="M143 829l15 93h268l119 677l-258 -129l-43 80l319 162h103l-140 -790h232l-17 -93h-598z" />
<glyph unicode="&#xba;" horiz-adv-x="821" d="M131 541l16 92h570l-17 -92h-569zM184 1106q0 156 107 269.5t268 113.5q139 0 221 -86t82 -217q0 -155 -107.5 -269t-267.5 -114q-140 0 -221.5 86t-81.5 217zM285 1106q0 -92 55.5 -152.5t148.5 -60.5q117 0 194 87.5t77 207.5q0 90 -56 150.5t-149 60.5 q-116 0 -193 -87t-77 -206z" />
<glyph unicode="&#xbb;" horiz-adv-x="1013" d="M35 98l348 422l-186 398h122l199 -410l-344 -410h-139zM426 98l348 422l-186 398h123l198 -410l-344 -410h-139z" />
<glyph unicode="&#xbc;" horiz-adv-x="1781" d="M96 553l15 92h268l119 678l-258 -129l-43 80l319 162h102l-139 -791h232l-17 -92h-598zM344 0l1264 1434h139l-1264 -1434h-139zM1034 258l17 92l495 531h129l-94 -531h100l-16 -92h-100l-45 -258h-101l45 258h-430zM1163 350h318l75 422z" />
<glyph unicode="&#xbd;" horiz-adv-x="1961" d="M96 553l15 92h268l119 678l-258 -129l-43 80l319 162h102l-139 -791h232l-17 -92h-598zM344 0l1264 1434h139l-1264 -1434h-139zM1204 0l17 92l360 314q111 98 149.5 151t38.5 117q0 62 -42.5 101.5t-106.5 39.5q-61 0 -111.5 -32t-99.5 -103l-78 55q110 172 295 172 q106 0 177 -63.5t71 -161.5q0 -87 -51.5 -157.5t-184.5 -186.5l-284 -246h436l-16 -92h-570z" />
<glyph unicode="&#xbe;" horiz-adv-x="1718" d="M109 702l90 50q76 -134 225 -134q94 0 150.5 53.5t56.5 133.5q0 78 -50 125t-151 47h-106l16 90h121q99 0 151 45.5t52 116.5q0 62 -41 100.5t-101 38.5t-107 -27.5t-89 -91.5l-80 54q107 157 282 157q103 0 171.5 -63.5t68.5 -161.5q0 -72 -46 -131.5t-132 -87.5 q74 -29 109.5 -85.5t35.5 -127.5q0 -117 -84.5 -196t-226.5 -79q-224 0 -315 174zM281 0l1263 1434h139l-1263 -1434h-139zM971 258l16 92l496 531h129l-94 -531h100l-16 -92h-101l-45 -258h-100l45 258h-430zM1100 350h317l76 422z" />
<glyph unicode="&#xbf;" horiz-adv-x="1001" d="M-29 -55q0 199 148 326t401 155l49 236h97l-31 -324q-256 -21 -394.5 -118.5t-138.5 -270.5q0 -113 76 -186.5t209 -73.5q184 0 313 166l97 -68q-78 -105 -185 -158t-231 -53q-185 0 -297.5 102t-112.5 267zM569 973q0 43 29 71.5t72 28.5q44 0 73 -28.5t29 -71.5 q0 -42 -29 -70.5t-73 -28.5q-43 0 -72 29t-29 70z" />
<glyph unicode="&#xc0;" horiz-adv-x="1456" d="M-23 0l824 1434h180l317 -1434h-133l-98 451h-688l-258 -451h-144zM444 567h598l-163 758zM657 1833h144l176 -277h-117z" />
<glyph unicode="&#xc1;" horiz-adv-x="1456" d="M-23 0l824 1434h180l317 -1434h-133l-98 451h-688l-258 -451h-144zM444 567h598l-163 758zM852 1556l274 277h156l-301 -277h-129z" />
<glyph unicode="&#xc2;" horiz-adv-x="1456" d="M-23 0l824 1434h180l317 -1434h-133l-98 451h-688l-258 -451h-144zM444 567h598l-163 758zM610 1556l273 277h161l175 -277h-107l-154 211l-229 -211h-119z" />
<glyph unicode="&#xc3;" horiz-adv-x="1456" d="M-23 0l824 1434h180l317 -1434h-133l-98 451h-688l-258 -451h-144zM444 567h598l-163 758zM610 1573l17 90q12 79 57.5 126.5t114.5 47.5q47 0 82.5 -20t57.5 -48.5t40.5 -57.5t40.5 -49t49 -20q67 0 80 89l16 86h97l-15 -91q-12 -78 -58.5 -126t-115.5 -48 q-47 0 -83.5 20t-59 49t-41.5 57.5t-41 48.5t-47 20q-62 0 -78 -88l-16 -86h-97z" />
<glyph unicode="&#xc4;" horiz-adv-x="1456" d="M-23 0l824 1434h180l317 -1434h-133l-98 451h-688l-258 -451h-144zM444 567h598l-163 758zM676 1737q0 35 26.5 60.5t61.5 25.5q37 0 62.5 -25.5t25.5 -60.5q0 -37 -25.5 -61.5t-62.5 -24.5q-36 0 -62 25t-26 61zM1036 1737q0 35 25.5 60.5t62.5 25.5t62.5 -25.5 t25.5 -60.5q0 -37 -25.5 -61.5t-62.5 -24.5t-62.5 24.5t-25.5 61.5z" />
<glyph unicode="&#xc5;" horiz-adv-x="1456" d="M-23 0l824 1434h180l317 -1434h-133l-98 451h-688l-258 -451h-144zM444 567h598l-163 758zM707 1724q0 113 75.5 183.5t182.5 70.5q93 0 157 -58t64 -151q0 -112 -75.5 -182.5t-182.5 -70.5q-93 0 -157 57.5t-64 150.5zM799 1729q0 -58 37 -94t96 -36q72 0 117 47t45 117 q0 58 -37 94.5t-96 36.5q-72 0 -117 -47.5t-45 -117.5z" />
<glyph unicode="&#xc6;" horiz-adv-x="1925" d="M-33 0l1168 1434h798l-20 -115h-580l-94 -533h500l-21 -112h-497l-99 -559h578l-21 -115h-708l80 451h-557l-365 -451h-162zM588 567h483l133 760z" />
<glyph unicode="&#xc7;" horiz-adv-x="1523" d="M133 625q0 112 27 219.5t76.5 201.5t122.5 173t161.5 136t198 88.5t227.5 31.5q186 0 336.5 -86t228.5 -224l-114 -73q-60 116 -185 188t-270 72q-191 0 -346 -99.5t-240.5 -264t-85.5 -357.5q0 -150 64 -274.5t185 -199.5t274 -75q159 0 280 59.5t223 177.5l95 -88 q-208 -249 -545 -270l-230 -289h-135l238 291q-173 15 -307 106t-206.5 236t-72.5 320z" />
<glyph unicode="&#xc8;" horiz-adv-x="1093" d="M139 0l254 1434h709l-21 -115h-577l-94 -533h499l-20 -112h-500l-98 -559h579l-20 -115h-711zM479 1833h144l176 -277h-117z" />
<glyph unicode="&#xc9;" horiz-adv-x="1093" d="M139 0l254 1434h709l-21 -115h-577l-94 -533h499l-20 -112h-500l-98 -559h579l-20 -115h-711zM674 1556l274 277h156l-301 -277h-129z" />
<glyph unicode="&#xca;" horiz-adv-x="1093" d="M139 0l254 1434h709l-21 -115h-577l-94 -533h499l-20 -112h-500l-98 -559h579l-20 -115h-711zM432 1556l273 277h161l174 -277h-106l-154 211l-229 -211h-119z" />
<glyph unicode="&#xcb;" horiz-adv-x="1093" d="M139 0l254 1434h709l-21 -115h-577l-94 -533h499l-20 -112h-500l-98 -559h579l-20 -115h-711zM498 1737q0 35 26.5 60.5t61.5 25.5q37 0 62.5 -25.5t25.5 -60.5q0 -37 -25.5 -61.5t-62.5 -24.5q-36 0 -62 25t-26 61zM858 1737q0 35 25.5 60.5t62.5 25.5t62.5 -25.5 t25.5 -60.5q0 -37 -25.5 -61.5t-62.5 -24.5t-62.5 24.5t-25.5 61.5z" />
<glyph unicode="&#xcc;" horiz-adv-x="589" d="M139 0l254 1434h131l-254 -1434h-131zM223 1833h144l176 -277h-117z" />
<glyph unicode="&#xcd;" horiz-adv-x="589" d="M139 0l254 1434h131l-254 -1434h-131zM418 1556l274 277h156l-301 -277h-129z" />
<glyph unicode="&#xce;" horiz-adv-x="589" d="M139 0l254 1434h131l-254 -1434h-131zM176 1556l273 277h161l174 -277h-106l-154 211l-229 -211h-119z" />
<glyph unicode="&#xcf;" horiz-adv-x="589" d="M139 0l254 1434h131l-254 -1434h-131zM242 1737q0 35 26.5 60.5t61.5 25.5q37 0 62.5 -25.5t25.5 -60.5q0 -37 -25.5 -61.5t-62.5 -24.5q-36 0 -62 25t-26 61zM602 1737q0 35 25.5 60.5t62.5 25.5t62.5 -25.5t25.5 -60.5q0 -37 -25.5 -61.5t-62.5 -24.5t-62.5 24.5 t-25.5 61.5z" />
<glyph unicode="&#xd0;" horiz-adv-x="1595" d="M31 686l16 96h232l114 652h438q321 0 511 -174t190 -461q0 -125 -37 -242.5t-111 -218.5t-176 -176.5t-240 -118.5t-296 -43h-533l121 686h-229zM291 121h381q131 0 247 36t202 99t148.5 147.5t94 184t31.5 205.5q0 234 -152.5 377t-411.5 143h-327l-94 -531h387l-17 -96 h-389z" />
<glyph unicode="&#xd1;" horiz-adv-x="1648" d="M139 0l254 1434h170l662 -1289l227 1289h131l-254 -1434h-170l-661 1286l-228 -1286h-131zM705 1573l16 90q12 79 57.5 126.5t114.5 47.5q47 0 82.5 -20t57.5 -48.5t40.5 -57.5t40.5 -49t49 -20q67 0 80 89l17 86h96l-15 -91q-12 -78 -58.5 -126t-115.5 -48 q-47 0 -83.5 20t-59 49t-41.5 57.5t-41 48.5t-47 20q-62 0 -78 -88l-16 -86h-96z" />
<glyph unicode="&#xd2;" horiz-adv-x="1671" d="M135 625q0 168 60 323t165 271.5t259 186t331 69.5q145 0 268.5 -51.5t209 -140.5t134 -212t48.5 -262q0 -168 -60 -323t-165 -271.5t-259 -186t-331 -69.5q-145 0 -268.5 51.5t-209 140.5t-134 212t-48.5 262zM272 631q0 -112 38 -212t105 -174.5t166.5 -118.5 t215.5 -44q192 0 348.5 99.5t242 264t85.5 357.5q0 112 -38 212t-106 174.5t-167.5 118.5t-215.5 44q-191 0 -347 -99.5t-241.5 -264t-85.5 -357.5zM748 1833h143l176 -277h-117z" />
<glyph unicode="&#xd3;" horiz-adv-x="1671" d="M135 625q0 168 60 323t165 271.5t259 186t331 69.5q145 0 268.5 -51.5t209 -140.5t134 -212t48.5 -262q0 -168 -60 -323t-165 -271.5t-259 -186t-331 -69.5q-145 0 -268.5 51.5t-209 140.5t-134 212t-48.5 262zM272 631q0 -112 38 -212t105 -174.5t166.5 -118.5 t215.5 -44q192 0 348.5 99.5t242 264t85.5 357.5q0 112 -38 212t-106 174.5t-167.5 118.5t-215.5 44q-191 0 -347 -99.5t-241.5 -264t-85.5 -357.5zM942 1556l275 277h155l-301 -277h-129z" />
<glyph unicode="&#xd4;" horiz-adv-x="1671" d="M135 625q0 168 60 323t165 271.5t259 186t331 69.5q145 0 268.5 -51.5t209 -140.5t134 -212t48.5 -262q0 -168 -60 -323t-165 -271.5t-259 -186t-331 -69.5q-145 0 -268.5 51.5t-209 140.5t-134 212t-48.5 262zM272 631q0 -112 38 -212t105 -174.5t166.5 -118.5 t215.5 -44q192 0 348.5 99.5t242 264t85.5 357.5q0 112 -38 212t-106 174.5t-167.5 118.5t-215.5 44q-191 0 -347 -99.5t-241.5 -264t-85.5 -357.5zM700 1556l273 277h162l174 -277h-107l-153 211l-230 -211h-119z" />
<glyph unicode="&#xd5;" horiz-adv-x="1671" d="M135 625q0 168 60 323t165 271.5t259 186t331 69.5q145 0 268.5 -51.5t209 -140.5t134 -212t48.5 -262q0 -168 -60 -323t-165 -271.5t-259 -186t-331 -69.5q-145 0 -268.5 51.5t-209 140.5t-134 212t-48.5 262zM272 631q0 -112 38 -212t105 -174.5t166.5 -118.5 t215.5 -44q192 0 348.5 99.5t242 264t85.5 357.5q0 112 -38 212t-106 174.5t-167.5 118.5t-215.5 44q-191 0 -347 -99.5t-241.5 -264t-85.5 -357.5zM700 1573l17 90q12 79 57.5 126.5t114.5 47.5q47 0 82.5 -20t57.5 -48.5t40.5 -57.5t40.5 -49t49 -20q67 0 80 89l16 86h97 l-15 -91q-12 -78 -58.5 -126t-115.5 -48q-47 0 -83.5 20t-59 49t-41.5 57.5t-41 48.5t-47 20q-62 0 -78 -88l-16 -86h-97z" />
<glyph unicode="&#xd6;" horiz-adv-x="1671" d="M135 625q0 168 60 323t165 271.5t259 186t331 69.5q145 0 268.5 -51.5t209 -140.5t134 -212t48.5 -262q0 -168 -60 -323t-165 -271.5t-259 -186t-331 -69.5q-145 0 -268.5 51.5t-209 140.5t-134 212t-48.5 262zM272 631q0 -112 38 -212t105 -174.5t166.5 -118.5 t215.5 -44q192 0 348.5 99.5t242 264t85.5 357.5q0 112 -38 212t-106 174.5t-167.5 118.5t-215.5 44q-191 0 -347 -99.5t-241.5 -264t-85.5 -357.5zM766 1737q0 35 26.5 60.5t61.5 25.5q37 0 62.5 -25.5t25.5 -60.5q0 -37 -25.5 -61.5t-62.5 -24.5q-36 0 -62 25t-26 61z M1126 1737q0 35 25.5 60.5t62.5 25.5t63 -25.5t26 -60.5q0 -36 -26 -61t-63 -25t-62.5 24.5t-25.5 61.5z" />
<glyph unicode="&#xd7;" d="M37 76l506 446l-348 443l88 67l342 -436l495 436l72 -76l-504 -442l350 -446l-86 -68l-346 440l-500 -440z" />
<glyph unicode="&#xd8;" horiz-adv-x="1671" d="M12 -41l250 240h4l6 6q-137 176 -137 420q0 168 60 323t165 271.5t259 186t331 69.5q138 0 256.5 -47t206.5 -132l184 179h134l-248 -240h-4l-6 -6q137 -176 137 -420q0 -168 -60 -323t-165 -271.5t-259 -186t-331 -69.5q-279 0 -463 178l-185 -178h-135zM272 631 q0 -184 99 -332l942 907q-146 146 -367 146q-191 0 -347 -99.5t-241.5 -264t-85.5 -357.5zM432 227q145 -145 365 -145q192 0 348.5 99.5t242 264t85.5 357.5q0 189 -101 330z" />
<glyph unicode="&#xd9;" horiz-adv-x="1431" d="M193.5 297.5q-22.5 111.5 3.5 257.5l155 879h131l-153 -883q-41 -230 48.5 -349.5t287.5 -119.5q182 0 295 111.5t151 330.5l160 910h131l-162 -914q-96 -561 -582 -561q-124 0 -220.5 38.5t-159.5 113.5t-85.5 186.5zM645 1833h143l177 -277h-117z" />
<glyph unicode="&#xda;" horiz-adv-x="1431" d="M193.5 297.5q-22.5 111.5 3.5 257.5l155 879h131l-153 -883q-41 -230 48.5 -349.5t287.5 -119.5q182 0 295 111.5t151 330.5l160 910h131l-162 -914q-96 -561 -582 -561q-124 0 -220.5 38.5t-159.5 113.5t-85.5 186.5zM840 1556l274 277h156l-301 -277h-129z" />
<glyph unicode="&#xdb;" horiz-adv-x="1431" d="M193.5 297.5q-22.5 111.5 3.5 257.5l155 879h131l-153 -883q-41 -230 48.5 -349.5t287.5 -119.5q182 0 295 111.5t151 330.5l160 910h131l-162 -914q-96 -561 -582 -561q-124 0 -220.5 38.5t-159.5 113.5t-85.5 186.5zM598 1556l272 277h162l174 -277h-106l-154 211 l-229 -211h-119z" />
<glyph unicode="&#xdc;" horiz-adv-x="1431" d="M193.5 297.5q-22.5 111.5 3.5 257.5l155 879h131l-153 -883q-41 -230 48.5 -349.5t287.5 -119.5q182 0 295 111.5t151 330.5l160 910h131l-162 -914q-96 -561 -582 -561q-124 0 -220.5 38.5t-159.5 113.5t-85.5 186.5zM664 1737q0 35 26.5 60.5t61.5 25.5 q37 0 62.5 -25.5t25.5 -60.5q0 -37 -25.5 -61.5t-62.5 -24.5q-36 0 -62 25t-26 61zM1024 1737q0 35 25.5 60.5t62.5 25.5t62.5 -25.5t25.5 -60.5q0 -37 -25.5 -61.5t-62.5 -24.5t-62.5 24.5t-25.5 61.5z" />
<glyph unicode="&#xdd;" horiz-adv-x="1302" d="M190 1434h146l358 -646l582 646h162l-695 -766l-116 -668h-131l118 674zM766 1556l274 277h156l-301 -277h-129z" />
<glyph unicode="&#xde;" horiz-adv-x="1105" d="M139 0l254 1434h131l-55 -316h199q189 0 299 -92t110 -258q0 -188 -133.5 -306t-361.5 -118h-250l-62 -344h-131zM352 459h228q168 0 264 83.5t96 221.5q0 120 -72 180t-206 60h-213z" />
<glyph unicode="&#xdf;" horiz-adv-x="1140" d="M104 0l207 1167q29 167 136.5 268t279.5 101q177 0 279 -103.5t102 -269.5q0 -139 -85.5 -244t-221.5 -137q73 -26 125 -82t76 -122t24 -138q0 -208 -138 -327t-360 -119q-79 0 -137 20l19 111q63 -19 112 -19q179 0 278 88.5t99 245.5q0 123 -76 207t-200 84h-88l20 113 h88q144 0 240 83t96 228q0 121 -65.5 194.5t-192.5 73.5q-120 0 -195 -70.5t-96 -189.5l-205 -1163h-121z" />
<glyph unicode="&#xe0;" horiz-adv-x="1112" d="M82 227q0 128 93.5 209.5t273.5 110.5l387 65l14 82q23 128 -39 198.5t-188 70.5q-91 0 -175 -42.5t-151 -117.5l-90 76q79 89 187.5 141.5t232.5 52.5q189 0 281.5 -107t60.5 -288l-123 -678h-117l25 137q-150 -166 -363 -166q-140 0 -224.5 68t-84.5 188zM209 238 q0 -72 54 -117t147 -45q215 0 366 198l43 242l-346 -59q-264 -44 -264 -219zM451 1536h135l147 -340h-112z" />
<glyph unicode="&#xe1;" horiz-adv-x="1112" d="M82 227q0 128 93.5 209.5t273.5 110.5l387 65l14 82q23 128 -39 198.5t-188 70.5q-91 0 -175 -42.5t-151 -117.5l-90 76q79 89 187.5 141.5t232.5 52.5q189 0 281.5 -107t60.5 -288l-123 -678h-117l25 137q-150 -166 -363 -166q-140 0 -224.5 68t-84.5 188zM209 238 q0 -72 54 -117t147 -45q215 0 366 198l43 242l-346 -59q-264 -44 -264 -219zM612 1196l267 340h147l-289 -340h-125z" />
<glyph unicode="&#xe2;" horiz-adv-x="1112" d="M82 227q0 128 93.5 209.5t273.5 110.5l387 65l14 82q23 128 -39 198.5t-188 70.5q-91 0 -175 -42.5t-151 -117.5l-90 76q79 89 187.5 141.5t232.5 52.5q189 0 281.5 -107t60.5 -288l-123 -678h-117l25 137q-150 -166 -363 -166q-140 0 -224.5 68t-84.5 188zM209 238 q0 -72 54 -117t147 -45q215 0 366 198l43 242l-346 -59q-264 -44 -264 -219zM379 1196l270 340h172l150 -340h-105l-135 279l-231 -279h-121z" />
<glyph unicode="&#xe3;" horiz-adv-x="1112" d="M82 227q0 128 93.5 209.5t273.5 110.5l387 65l14 82q23 128 -39 198.5t-188 70.5q-91 0 -175 -42.5t-151 -117.5l-90 76q79 89 187.5 141.5t232.5 52.5q189 0 281.5 -107t60.5 -288l-123 -678h-117l25 137q-150 -166 -363 -166q-140 0 -224.5 68t-84.5 188zM209 238 q0 -72 54 -117t147 -45q215 0 366 198l43 242l-346 -59q-264 -44 -264 -219zM342 1229l14 94q12 87 63.5 141t129.5 54q47 0 86.5 -21.5t66 -52t50 -61.5t51 -52.5t57.5 -21.5q43 0 69 26t34 70l14 98h94l-14 -94q-14 -87 -65 -141t-128 -54q-48 0 -87.5 21.5t-66 52 t-50 61.5t-51.5 52.5t-58 21.5q-39 0 -65.5 -26.5t-32.5 -69.5l-17 -98h-94z" />
<glyph unicode="&#xe4;" horiz-adv-x="1112" d="M82 227q0 128 93.5 209.5t273.5 110.5l387 65l14 82q23 128 -39 198.5t-188 70.5q-91 0 -175 -42.5t-151 -117.5l-90 76q79 89 187.5 141.5t232.5 52.5q189 0 281.5 -107t60.5 -288l-123 -678h-117l25 137q-150 -166 -363 -166q-140 0 -224.5 68t-84.5 188zM209 238 q0 -72 54 -117t147 -45q215 0 366 198l43 242l-346 -59q-264 -44 -264 -219zM451 1450q0 38 27.5 64t64.5 26t63.5 -26t26.5 -64q0 -35 -26.5 -60.5t-63.5 -25.5t-64.5 25.5t-27.5 60.5zM811 1450q0 38 27 64t65 26q37 0 63.5 -26t26.5 -64q0 -35 -26.5 -60.5t-63.5 -25.5 q-38 0 -65 25.5t-27 60.5z" />
<glyph unicode="&#xe5;" horiz-adv-x="1112" d="M82 227q0 128 93.5 209.5t273.5 110.5l387 65l14 82q23 128 -39 198.5t-188 70.5q-91 0 -175 -42.5t-151 -117.5l-90 76q79 89 187.5 141.5t232.5 52.5q189 0 281.5 -107t60.5 -288l-123 -678h-117l25 137q-150 -166 -363 -166q-140 0 -224.5 68t-84.5 188zM209 238 q0 -72 54 -117t147 -45q215 0 366 198l43 242l-346 -59q-264 -44 -264 -219zM469 1352q0 112 76 186t184 74q91 0 156 -61t65 -154q0 -112 -76 -185t-184 -73q-93 0 -157 60t-64 153zM561 1356q0 -60 37 -96.5t98 -36.5q72 0 117 49t45 119q0 60 -37.5 98.5t-97.5 38.5 q-72 0 -117 -50.5t-45 -121.5z" />
<glyph unicode="&#xe6;" horiz-adv-x="1875" d="M84 233q0 125 92.5 205t272.5 109l387 65l16 82q23 128 -40 198.5t-189 70.5q-183 0 -326 -160l-90 76q79 89 187.5 141.5t232.5 52.5q133 0 219 -55.5t112 -155.5q80 98 195.5 154.5t251.5 56.5q178 0 286.5 -106.5t108.5 -268.5q0 -68 -22 -151h-828q-8 -44 -8 -98 q0 -168 94 -273.5t264 -105.5q117 0 216 46.5t161 129.5l84 -78q-79 -99 -199.5 -154t-265.5 -55q-156 0 -267 69t-165 189q-96 -119 -210 -182.5t-259 -63.5q-140 0 -225.5 69.5t-85.5 192.5zM209 242q0 -74 54 -120t147 -46q126 0 225.5 65t193.5 185q-12 62 -12 125 q0 25 4 65l-348 -59q-264 -44 -264 -215zM975 645l700 -2q20 132 -54 229t-222 97t-260.5 -90t-163.5 -234z" />
<glyph unicode="&#xe7;" horiz-adv-x="1124" d="M92 451q0 123 46 237t125 199t194 135.5t245 50.5q144 0 252 -60.5t162 -162.5l-104 -76q-43 85 -125 134.5t-193 49.5q-134 0 -243.5 -71t-169.5 -187t-60 -251q0 -160 101 -267.5t268 -107.5q107 0 194 45.5t146 124.5l84 -84q-145 -179 -369 -199l-231 -289h-135 l239 291q-199 23 -312.5 159t-113.5 329z" />
<glyph unicode="&#xe8;" horiz-adv-x="1155" d="M92 451q0 125 39 237.5t110 198t180 136t241 50.5q182 0 298.5 -107.5t116.5 -267.5q0 -78 -22 -151h-830q-6 -49 -6 -98q0 -168 94.5 -273.5t264.5 -105.5q117 0 215.5 46.5t160.5 129.5l84 -78q-79 -99 -199.5 -154t-265.5 -55q-153 0 -263.5 67t-164 177t-53.5 248z M246 643h706q13 84 -17.5 158t-103 121t-172.5 47q-156 0 -262 -89.5t-151 -236.5zM479 1536h135l148 -340h-113z" />
<glyph unicode="&#xe9;" horiz-adv-x="1155" d="M92 451q0 125 39 237.5t110 198t180 136t241 50.5q182 0 298.5 -107.5t116.5 -267.5q0 -78 -22 -151h-830q-6 -49 -6 -98q0 -168 94.5 -273.5t264.5 -105.5q117 0 215.5 46.5t160.5 129.5l84 -78q-79 -99 -199.5 -154t-265.5 -55q-153 0 -263.5 67t-164 177t-53.5 248z M246 643h706q13 84 -17.5 158t-103 121t-172.5 47q-156 0 -262 -89.5t-151 -236.5zM641 1196l266 340h148l-289 -340h-125z" />
<glyph unicode="&#xea;" horiz-adv-x="1155" d="M92 451q0 125 39 237.5t110 198t180 136t241 50.5q182 0 298.5 -107.5t116.5 -267.5q0 -78 -22 -151h-830q-6 -49 -6 -98q0 -168 94.5 -273.5t264.5 -105.5q117 0 215.5 46.5t160.5 129.5l84 -78q-79 -99 -199.5 -154t-265.5 -55q-153 0 -263.5 67t-164 177t-53.5 248z M246 643h706q13 84 -17.5 158t-103 121t-172.5 47q-156 0 -262 -89.5t-151 -236.5zM408 1196l270 340h172l149 -340h-104l-135 279l-232 -279h-120z" />
<glyph unicode="&#xeb;" horiz-adv-x="1155" d="M92 451q0 125 39 237.5t110 198t180 136t241 50.5q182 0 298.5 -107.5t116.5 -267.5q0 -78 -22 -151h-830q-6 -49 -6 -98q0 -168 94.5 -273.5t264.5 -105.5q117 0 215.5 46.5t160.5 129.5l84 -78q-79 -99 -199.5 -154t-265.5 -55q-153 0 -263.5 67t-164 177t-53.5 248z M246 643h706q13 84 -17.5 158t-103 121t-172.5 47q-156 0 -262 -89.5t-151 -236.5zM479 1450q0 38 27.5 64t64.5 26t64 -26t27 -64q0 -35 -27 -60.5t-64 -25.5t-64.5 25.5t-27.5 60.5zM840 1450q0 38 27 64t65 26q37 0 63.5 -26t26.5 -64q0 -35 -26.5 -60.5t-63.5 -25.5 q-38 0 -65 25.5t-27 60.5z" />
<glyph unicode="&#xec;" horiz-adv-x="512" d="M104 0l183 1032h121l-183 -1032h-121zM150 1536h135l147 -340h-113z" />
<glyph unicode="&#xed;" horiz-adv-x="512" d="M104 0l183 1032h121l-183 -1032h-121zM311 1196l267 340h147l-289 -340h-125z" />
<glyph unicode="&#xee;" horiz-adv-x="512" d="M78 1196l270 340h172l150 -340h-105l-135 279l-231 -279h-121zM104 0l183 1032h121l-183 -1032h-121z" />
<glyph unicode="&#xef;" horiz-adv-x="512" d="M104 0l183 1032h121l-183 -1032h-121zM150 1450q0 38 27.5 64t64.5 26t63.5 -26t26.5 -64q0 -35 -26.5 -60.5t-63.5 -25.5t-64.5 25.5t-27.5 60.5zM510 1450q0 38 27 64t65 26q37 0 63.5 -26t26.5 -64q0 -35 -26.5 -60.5t-63.5 -25.5q-38 0 -65 25.5t-27 60.5z" />
<glyph unicode="&#xf0;" horiz-adv-x="1257" d="M92 461q0 164 70 300.5t203.5 220t304.5 83.5q220 0 358 -166q-55 223 -229 397l-367 -122l19 104l270 90q-105 86 -252 168h176q113 -64 191 -131l387 129l-19 -102l-293 -99q269 -275 269 -690q0 -149 -44.5 -276.5t-122 -217t-185 -140t-230.5 -50.5q-232 0 -369 138 t-137 364zM221 461q0 -175 103 -282t272 -107q199 0 329 162.5t130 416.5q0 41 -2 64q-48 98 -148.5 165.5t-228.5 67.5q-207 0 -331 -139.5t-124 -347.5z" />
<glyph unicode="&#xf1;" horiz-adv-x="1239" d="M104 0l183 1032h119l-23 -133q160 174 367 174q186 0 279 -115.5t56 -324.5l-110 -633h-121l111 629q29 157 -36.5 243t-203.5 86q-219 0 -371 -217l-129 -741h-121zM406 1229l14 94q12 87 63 141t129 54q47 0 86.5 -21.5t66 -52t50.5 -61.5t51.5 -52.5t57.5 -21.5 q85 0 102 96l14 98h95l-15 -94q-14 -88 -64.5 -141.5t-127.5 -53.5q-48 0 -87.5 21.5t-66 52t-50.5 61.5t-52 52.5t-58 21.5q-39 0 -65.5 -26.5t-32.5 -69.5l-16 -98h-94z" />
<glyph unicode="&#xf2;" horiz-adv-x="1277" d="M92 451q0 164 76 306t217 229t317 87q149 0 261 -66.5t168.5 -177t56.5 -247.5q0 -122 -45 -235.5t-123.5 -199t-193.5 -137t-246 -51.5q-150 0 -262.5 66.5t-169 177.5t-56.5 248zM221 449q0 -159 99.5 -267t261.5 -108q103 0 193 42t152 112t98 162.5t36 193.5 q0 159 -100.5 266.5t-262.5 107.5q-103 0 -193 -41.5t-151.5 -111.5t-97 -162.5t-35.5 -193.5zM532 1536h136l147 -340h-113z" />
<glyph unicode="&#xf3;" horiz-adv-x="1277" d="M92 451q0 164 76 306t217 229t317 87q149 0 261 -66.5t168.5 -177t56.5 -247.5q0 -122 -45 -235.5t-123.5 -199t-193.5 -137t-246 -51.5q-150 0 -262.5 66.5t-169 177.5t-56.5 248zM221 449q0 -159 99.5 -267t261.5 -108q103 0 193 42t152 112t98 162.5t36 193.5 q0 159 -100.5 266.5t-262.5 107.5q-103 0 -193 -41.5t-151.5 -111.5t-97 -162.5t-35.5 -193.5zM694 1196l267 340h147l-289 -340h-125z" />
<glyph unicode="&#xf4;" horiz-adv-x="1277" d="M92 451q0 164 76 306t217 229t317 87q149 0 261 -66.5t168.5 -177t56.5 -247.5q0 -122 -45 -235.5t-123.5 -199t-193.5 -137t-246 -51.5q-150 0 -262.5 66.5t-169 177.5t-56.5 248zM221 449q0 -159 99.5 -267t261.5 -108q103 0 193 42t152 112t98 162.5t36 193.5 q0 159 -100.5 266.5t-262.5 107.5q-103 0 -193 -41.5t-151.5 -111.5t-97 -162.5t-35.5 -193.5zM461 1196l270 340h172l150 -340h-105l-135 279l-231 -279h-121z" />
<glyph unicode="&#xf5;" horiz-adv-x="1277" d="M92 451q0 164 76 306t217 229t317 87q149 0 261 -66.5t168.5 -177t56.5 -247.5q0 -122 -45 -235.5t-123.5 -199t-193.5 -137t-246 -51.5q-150 0 -262.5 66.5t-169 177.5t-56.5 248zM221 449q0 -159 99.5 -267t261.5 -108q103 0 193 42t152 112t98 162.5t36 193.5 q0 159 -100.5 266.5t-262.5 107.5q-103 0 -193 -41.5t-151.5 -111.5t-97 -162.5t-35.5 -193.5zM424 1229l14 94q12 87 63.5 141t129.5 54q47 0 86.5 -21.5t66 -52t50 -61.5t51 -52.5t57.5 -21.5q85 0 102 96l15 98h94l-14 -94q-14 -87 -65 -141t-128 -54q-48 0 -87.5 21.5 t-66 52t-50 61.5t-51.5 52.5t-58 21.5q-39 0 -65.5 -26.5t-32.5 -69.5l-17 -98h-94z" />
<glyph unicode="&#xf6;" horiz-adv-x="1277" d="M92 451q0 164 76 306t217 229t317 87q149 0 261 -66.5t168.5 -177t56.5 -247.5q0 -122 -45 -235.5t-123.5 -199t-193.5 -137t-246 -51.5q-150 0 -262.5 66.5t-169 177.5t-56.5 248zM221 449q0 -159 99.5 -267t261.5 -108q103 0 193 42t152 112t98 162.5t36 193.5 q0 159 -100.5 266.5t-262.5 107.5q-103 0 -193 -41.5t-151.5 -111.5t-97 -162.5t-35.5 -193.5zM532 1450q0 38 28 64t65 26t63.5 -26t26.5 -64q0 -35 -26.5 -60.5t-63.5 -25.5t-65 25.5t-28 60.5zM893 1450q0 38 27 64t65 26q37 0 63.5 -26t26.5 -64q0 -35 -26.5 -60.5 t-63.5 -25.5q-38 0 -65 25.5t-27 60.5z" />
<glyph unicode="&#xf7;" d="M104 463l21 108h1001l-20 -108h-1002zM446 59q0 35 25.5 60.5t60.5 25.5q37 0 63 -25.5t26 -60.5t-26 -59.5t-63 -24.5q-35 0 -60.5 24.5t-25.5 59.5zM606 973q0 35 26 59.5t62 24.5q35 0 60.5 -24.5t25.5 -59.5q0 -36 -25 -61t-61 -25t-62 25t-26 61z" />
<glyph unicode="&#xf8;" horiz-adv-x="1277" d="M4 -41l184 182q-96 128 -96 310q0 164 76 306t217 229t317 87q197 0 328 -115l115 115h131l-182 -182h-2q96 -128 96 -309q0 -122 -45 -235.5t-123.5 -199t-193.5 -137t-246 -51.5q-199 0 -330 115l-115 -115h-131zM221 449q0 -123 62 -220l655 643q-96 86 -240 86 q-103 0 -193 -41.5t-151.5 -111.5t-97 -162.5t-35.5 -193.5zM342 160q99 -86 240 -86q103 0 193 42t152 112t98 162.5t36 193.5q0 124 -64 219z" />
<glyph unicode="&#xf9;" horiz-adv-x="1204" d="M162 446l102 586h121l-104 -594q-32 -175 40.5 -269.5t231.5 -94.5q139 0 227 93t119 271l105 594h120l-104 -596q-42 -231 -161.5 -354t-311.5 -123q-214 0 -319.5 127.5t-65.5 359.5zM496 1536h135l147 -340h-112z" />
<glyph unicode="&#xfa;" horiz-adv-x="1204" d="M162 446l102 586h121l-104 -594q-32 -175 40.5 -269.5t231.5 -94.5q139 0 227 93t119 271l105 594h120l-104 -596q-42 -231 -161.5 -354t-311.5 -123q-214 0 -319.5 127.5t-65.5 359.5zM657 1196l267 340h147l-289 -340h-125z" />
<glyph unicode="&#xfb;" horiz-adv-x="1204" d="M162 446l102 586h121l-104 -594q-32 -175 40.5 -269.5t231.5 -94.5q139 0 227 93t119 271l105 594h120l-104 -596q-42 -231 -161.5 -354t-311.5 -123q-214 0 -319.5 127.5t-65.5 359.5zM424 1196l270 340h172l150 -340h-105l-135 279l-231 -279h-121z" />
<glyph unicode="&#xfc;" horiz-adv-x="1204" d="M162 446l102 586h121l-104 -594q-32 -175 40.5 -269.5t231.5 -94.5q139 0 227 93t119 271l105 594h120l-104 -596q-42 -231 -161.5 -354t-311.5 -123q-214 0 -319.5 127.5t-65.5 359.5zM496 1450q0 38 27.5 64t64.5 26t63.5 -26t26.5 -64q0 -35 -26.5 -60.5t-63.5 -25.5 t-64.5 25.5t-27.5 60.5zM856 1450q0 38 27 64t65 26q37 0 63.5 -26t26.5 -64q0 -35 -26.5 -60.5t-63.5 -25.5q-38 0 -65 25.5t-27 60.5z" />
<glyph unicode="&#xfd;" horiz-adv-x="1077" d="M-170 -475l18 110q56 -34 146 -34q157 0 264 182l129 219l-256 1030h129l213 -885l520 885h135l-766 -1292q-78 -133 -162.5 -192.5t-195.5 -59.5q-113 0 -174 37zM594 1196l266 340h148l-289 -340h-125z" />
<glyph unicode="&#xfe;" horiz-adv-x="1316" d="M16 -504l359 2040h121l-109 -618q155 155 363 155q218 0 345.5 -135.5t127.5 -349.5q0 -172 -73 -315.5t-207 -228.5t-300 -85q-127 0 -229 52.5t-162 148.5l-117 -664h-119zM279 307q48 -109 140.5 -171t215.5 -62q199 0 330 147t131 367q0 161 -100 265.5t-267 104.5 q-108 0 -205 -48t-164 -142z" />
<glyph unicode="&#xff;" horiz-adv-x="1077" d="M-170 -475l18 110q56 -34 146 -34q157 0 264 182l129 219l-256 1030h129l213 -885l520 885h135l-766 -1292q-78 -133 -162.5 -192.5t-195.5 -59.5q-113 0 -174 37zM432 1450q0 38 27.5 64t64.5 26t63.5 -26t26.5 -64q0 -35 -26.5 -60.5t-63.5 -25.5t-64.5 25.5 t-27.5 60.5zM793 1450q0 38 27 64t65 26q37 0 63.5 -26t26.5 -64q0 -35 -26.5 -60.5t-63.5 -25.5q-38 0 -65 25.5t-27 60.5z" />
<glyph unicode="&#x152;" horiz-adv-x="2099" d="M137 635q0 161 60 305.5t168.5 254.5t272.5 174.5t359 64.5h1110l-20 -115h-580l-94 -533h500l-21 -112h-497l-99 -559h578l-21 -115h-1015q-321 0 -511 174t-190 461zM274 641q0 -237 152.5 -381.5t411.5 -144.5h327l211 1204h-379q-164 0 -302 -55.5t-229 -149.5 t-141.5 -216t-50.5 -257z" />
<glyph unicode="&#x153;" horiz-adv-x="2105" d="M90 451q0 122 45.5 235.5t124.5 199t194 136.5t246 51q161 0 275.5 -79t165.5 -212q76 134 204 212.5t287 78.5q180 0 289 -106.5t109 -268.5q0 -75 -23 -151h-827q-9 -49 -9 -98q0 -168 94.5 -273.5t264.5 -105.5q117 0 216 46.5t161 129.5l82 -78q-78 -99 -197 -154 t-264 -55q-166 0 -280 80t-161 215q-81 -135 -215 -215t-299 -80q-223 0 -353 140.5t-130 351.5zM219 449q0 -160 98.5 -267.5t260.5 -107.5q102 0 192 42t152.5 112t98.5 163t36 193q0 159 -98.5 266.5t-260.5 107.5q-103 0 -193 -41.5t-152 -111.5t-98 -162.5t-36 -193.5z M1204 645l701 -2q20 132 -54.5 229t-222.5 97q-149 0 -262 -90t-162 -234z" />
<glyph unicode="&#x178;" horiz-adv-x="1302" d="M190 1434h146l358 -646l582 646h162l-695 -766l-116 -668h-131l118 674zM590 1737q0 35 26.5 60.5t61.5 25.5q37 0 62.5 -25.5t25.5 -60.5q0 -37 -25.5 -61.5t-62.5 -24.5q-36 0 -62 25t-26 61zM950 1737q0 35 25.5 60.5t62.5 25.5t62.5 -25.5t25.5 -60.5 q0 -37 -25.5 -61.5t-62.5 -24.5t-62.5 24.5t-25.5 61.5z" />
<glyph unicode="&#x2c6;" horiz-adv-x="688" d="M166 1196l270 340h172l150 -340h-105l-135 279l-231 -279h-121z" />
<glyph unicode="&#x2dc;" horiz-adv-x="688" d="M129 1229l14 94q12 87 63.5 141t129.5 54q47 0 86.5 -21.5t66 -52t50 -61.5t51 -52.5t57.5 -21.5q43 0 69 26t34 70l14 98h94l-14 -94q-14 -87 -65 -141t-128 -54q-48 0 -87.5 21.5t-66 52t-50 61.5t-51.5 52.5t-58 21.5q-39 0 -65.5 -26.5t-32.5 -69.5l-17 -98h-94z" />
<glyph unicode="&#x2000;" horiz-adv-x="989" />
<glyph unicode="&#x2001;" horiz-adv-x="1978" />
<glyph unicode="&#x2002;" horiz-adv-x="989" />
<glyph unicode="&#x2003;" horiz-adv-x="1978" />
<glyph unicode="&#x2004;" horiz-adv-x="659" />
<glyph unicode="&#x2005;" horiz-adv-x="494" />
<glyph unicode="&#x2006;" horiz-adv-x="329" />
<glyph unicode="&#x2007;" horiz-adv-x="329" />
<glyph unicode="&#x2008;" horiz-adv-x="247" />
<glyph unicode="&#x2009;" horiz-adv-x="395" />
<glyph unicode="&#x200a;" horiz-adv-x="109" />
<glyph unicode="&#x2010;" horiz-adv-x="616" d="M33 467l20 115h535l-21 -115h-534z" />
<glyph unicode="&#x2011;" horiz-adv-x="616" d="M33 467l20 115h535l-21 -115h-534z" />
<glyph unicode="&#x2012;" horiz-adv-x="616" d="M33 467l20 115h535l-21 -115h-534z" />
<glyph unicode="&#x2013;" horiz-adv-x="1073" d="M33 471l18 107h993l-18 -107h-993z" />
<glyph unicode="&#x2014;" horiz-adv-x="2146" d="M33 471l18 107h2067l-19 -107h-2066z" />
<glyph unicode="&#x2018;" horiz-adv-x="552" d="M195 909l282 525h115l-254 -525h-143z" />
<glyph unicode="&#x2019;" horiz-adv-x="552" d="M195 909l254 525h143l-283 -525h-114z" />
<glyph unicode="&#x201a;" horiz-adv-x="555" d="M-25 -328l250 498h146l-279 -498h-117z" />
<glyph unicode="&#x201c;" horiz-adv-x="909" d="M195 909l282 525h115l-254 -525h-143zM553 909l283 525h114l-254 -525h-143z" />
<glyph unicode="&#x201d;" horiz-adv-x="911" d="M195 909l254 525h143l-283 -525h-114zM553 909l254 525h143l-282 -525h-115z" />
<glyph unicode="&#x201e;" horiz-adv-x="913" d="M-25 -328l250 498h146l-279 -498h-117zM334 -328l250 498h145l-278 -498h-117z" />
<glyph unicode="&#x2022;" horiz-adv-x="614" d="M86 530q0 89 66.5 151t160.5 62t159 -62t65 -151q0 -91 -65.5 -156t-158.5 -65q-94 0 -160.5 65t-66.5 156z" />
<glyph unicode="&#x2026;" horiz-adv-x="1345" d="M92 78q0 43 29 71.5t72 28.5q44 0 73 -28.5t29 -71.5t-29 -72t-73 -29q-43 0 -72 29t-29 72zM496 78q0 43 29 71.5t73 28.5q43 0 71.5 -28.5t28.5 -71.5t-28.5 -72t-71.5 -29q-44 0 -73 29t-29 72zM899 78q0 43 28.5 71.5t71.5 28.5q44 0 73.5 -28.5t29.5 -71.5 t-29.5 -72t-73.5 -29q-43 0 -71.5 29t-28.5 72z" />
<glyph unicode="&#x202f;" horiz-adv-x="395" />
<glyph unicode="&#x2039;" horiz-adv-x="632" d="M113 508l342 410h141l-350 -424l188 -396h-125z" />
<glyph unicode="&#x203a;" horiz-adv-x="632" d="M35 98l348 422l-186 398h122l199 -410l-344 -410h-139z" />
<glyph unicode="&#x205f;" horiz-adv-x="494" />
<glyph unicode="&#x20ac;" d="M59 496l19 108h174q4 48 8 76q5 35 23 129h-168l18 109h178q77 265 229.5 411t356.5 146q137 0 225.5 -56t145.5 -159l-109 -74q-42 84 -105 129t-165 45q-147 0 -262 -114.5t-181 -327.5h603l-21 -109h-612q-18 -73 -25 -127q-8 -55 -10 -78h612l-18 -108h-602 q-6 -215 71 -317.5t222 -102.5q185 0 327 172l86 -80q-88 -101 -191.5 -155t-238.5 -54q-195 0 -302 135.5t-103 401.5h-185z" />
<glyph unicode="&#x2122;" horiz-adv-x="1892" d="M209 1337l18 97h678l-16 -97h-287l-139 -786h-105l140 786h-289zM934 551l156 883h131l188 -459l350 459h142l-156 -883h-107l134 741l-338 -438h-82l-183 438l-129 -741h-106z" />
<glyph unicode="&#x25fc;" horiz-adv-x="1034" d="M0 0v1034h1034v-1034h-1034z" />
</font>
</defs>
</svg>
