<?xml version="1.0" standalone="no"?>
<!DOCTYPE svg PUBLIC "-//W3C//DTD SVG 1.1//EN" "http://www.w3.org/Graphics/SVG/1.1/DTD/svg11.dtd" >
<svg xmlns="http://www.w3.org/2000/svg" xmlns:xlink="http://www.w3.org/1999/xlink" version="1.1">
<metadata></metadata>
<defs>
<font id="marianneitalic" horiz-adv-x="1228" >
<font-face units-per-em="2048" ascent="1536" descent="-512" />
<missing-glyph horiz-adv-x="552" />
<glyph horiz-adv-x="0" />
<glyph horiz-adv-x="682" />
<glyph unicode=" "  horiz-adv-x="552" />
<glyph unicode="&#x09;" horiz-adv-x="552" />
<glyph unicode="&#xa0;" horiz-adv-x="552" />
<glyph unicode="!" horiz-adv-x="606" d="M102 106q0 54 38 93t93 39t93.5 -39t38.5 -93t-38.5 -91.5t-93.5 -37.5t-93 37.5t-38 91.5zM219 418l148 1016h198l-213 -1016h-133z" />
<glyph unicode="&#x22;" horiz-adv-x="948" d="M266 885l74 549h197l-119 -549h-152zM662 885l73 549h197l-119 -549h-151z" />
<glyph unicode="#" horiz-adv-x="1318" d="M39 0l170 383h-166l27 145h202l168 377h-305l27 146h342l170 383h170l-170 -383h338l170 383h170l-170 -383h166l-25 -146h-205l-166 -377h303l-24 -145h-342l-170 -383h-172l170 383h-338l-170 -383h-170zM442 528h338l168 377h-338z" />
<glyph unicode="$" d="M82 240l137 102q101 -144 262 -176l88 510q-50 26 -85 47.5t-76 55.5t-65.5 70.5t-41 88.5t-16.5 113q0 158 117 266t303 117l24 143h152l-27 -154q225 -45 330 -221l-137 -100q-70 133 -220 170l-84 -479q55 -28 90.5 -49.5t80 -57.5t70.5 -73t44.5 -90.5t18.5 -116.5 q0 -172 -121 -286t-324 -120l-24 -143h-152l27 153q-249 39 -371 230zM461 1065q0 -63 37 -109.5t106 -89.5l72 412q-102 -12 -158.5 -71t-56.5 -142zM631 158q117 10 178 72t61 161q0 71 -41.5 120.5t-119.5 92.5z" />
<glyph unicode="%" horiz-adv-x="1701" d="M156 0l1261 1434h193l-1262 -1434h-192zM178 1094q0 155 107 268t270 113q141 0 224 -86t83 -218q0 -155 -107.5 -269t-267.5 -114q-143 0 -226 86.5t-83 219.5zM313 1092q0 -78 48 -129.5t128 -51.5q103 0 169.5 77t66.5 183q0 80 -48 131.5t-128 51.5q-102 0 -169 -78 t-67 -184zM913 262q0 155 107 268t270 113q141 0 224 -85.5t83 -217.5q0 -155 -107 -269t-267 -114q-143 0 -226.5 86t-83.5 219zM1049 260q0 -78 48 -129t128 -51q103 0 169 77t66 183q0 80 -48 131t-128 51q-102 0 -168.5 -78t-66.5 -184z" />
<glyph unicode="&#x26;" horiz-adv-x="1478" d="M98 360q0 317 373 443q-59 85 -87 155.5t-28 149.5q0 154 109.5 260.5t286.5 106.5q163 0 261.5 -91.5t98.5 -240.5q0 -137 -107.5 -242t-273.5 -153l285 -361q107 150 190 381h187q-126 -325 -273 -512l203 -256h-215l-104 131q-189 -170 -439 -170q-210 0 -338.5 110 t-128.5 289zM283 377q0 -115 82 -187.5t210 -72.5q180 0 328 139l-325 406q-3 4 -10.5 12t-10.5 12q-274 -92 -274 -309zM532 1102q0 -58 26 -113t87 -135q142 40 219.5 111.5t77.5 164.5q0 80 -50 132.5t-142 52.5q-101 0 -159.5 -61t-58.5 -152z" />
<glyph unicode="'" horiz-adv-x="555" d="M266 885l74 549h197l-119 -549h-152z" />
<glyph unicode="(" horiz-adv-x="645" d="M70 389q0 687 594 1147l106 -115q-267 -223 -395.5 -478.5t-128.5 -553.5q0 -219 54 -380t175 -326l-135 -93q-270 325 -270 799z" />
<glyph unicode=")" horiz-adv-x="645" d="M-113 -295q525 438 525 1032q0 219 -54.5 380.5t-175.5 326.5l135 92q271 -327 271 -799q0 -687 -596 -1147z" />
<glyph unicode="*" horiz-adv-x="860" d="M147 1096l66 135l266 -113l37 316h154l-74 -318l305 115l23 -144l-314 -81l156 -254l-131 -80l-119 264l-213 -264l-117 94l242 250z" />
<glyph unicode="+" d="M100 440l29 152h424l78 440h151l-77 -440h423l-26 -152h-424l-78 -440h-151l77 440h-426z" />
<glyph unicode="," horiz-adv-x="552" d="M-59 -328l264 543h207l-301 -543h-170z" />
<glyph unicode="-" horiz-adv-x="616" d="M27 440l30 168h537l-31 -168h-536z" />
<glyph unicode="." horiz-adv-x="552" d="M74 106q0 54 39 93t94 39t93 -39t38 -93t-38 -91.5t-93 -37.5q-56 0 -94.5 37.5t-38.5 91.5z" />
<glyph unicode="/" horiz-adv-x="710" d="M-133 -403l819 1939h176l-817 -1939h-178z" />
<glyph unicode="0" d="M106 541q0 181 42.5 347.5t120.5 298t200 210t270 78.5q227 0 341 -154.5t114 -427.5q0 -181 -42.5 -347.5t-120.5 -298t-200 -210t-270 -78.5q-227 0 -341 154.5t-114 427.5zM295 541q0 -190 66 -300t198 -110t235.5 110t156.5 282.5t53 369.5q0 191 -65.5 300.5 t-197.5 109.5q-100 0 -185 -64.5t-141.5 -171t-88 -243.5t-31.5 -283z" />
<glyph unicode="1" horiz-adv-x="917" d="M129 1174l502 260h182l-252 -1434h-184l217 1225l-387 -199z" />
<glyph unicode="2" d="M61 0l31 166l588 510q166 145 226.5 230t60.5 184q0 96 -65.5 157.5t-164.5 61.5q-97 0 -177.5 -53.5t-156.5 -168.5l-145 101q183 287 494 287q174 0 289.5 -104.5t115.5 -264.5q0 -75 -20.5 -138.5t-71 -130.5t-113.5 -129.5t-170 -154.5l-448 -387h690l-29 -166h-934z " />
<glyph unicode="3" d="M59 250l162 88q120 -213 357 -213q146 0 232.5 81t86.5 208q0 121 -77.5 192.5t-233.5 71.5h-178l28 166h197q154 0 234.5 70t80.5 180q0 94 -62.5 154.5t-154.5 60.5q-94 0 -167.5 -44.5t-141.5 -146.5l-146 101q173 256 469 256q169 0 282.5 -104.5t113.5 -264.5 q0 -117 -73 -212.5t-208 -139.5q115 -50 171 -141.5t56 -202.5q0 -197 -140 -324t-372 -127q-183 0 -314 76.5t-202 214.5z" />
<glyph unicode="4" d="M80 414l29 166l790 854h234l-150 -854h158l-29 -166h-160l-71 -414h-185l72 414h-688zM311 580h488l114 651z" />
<glyph unicode="5" d="M59 250l162 88q120 -213 359 -213q145 0 231 81t86 208q0 122 -78.5 194t-238.5 72h-328l174 754h768l-29 -166h-592l-96 -420h123q129 0 225.5 -32.5t152.5 -91.5t82.5 -133t26.5 -165q0 -97 -35 -182t-99.5 -148.5t-161 -100t-213.5 -36.5q-184 0 -315.5 76t-203.5 215 z" />
<glyph unicode="6" d="M113 518q0 151 26 290t80.5 261t132.5 212t188.5 142t241.5 52q162 0 285 -75.5t182 -207.5l-162 -88q-43 99 -125 152t-184 53q-124 0 -222 -77.5t-156.5 -205.5t-82.5 -295q164 164 371 164q192 0 309 -116t117 -310q0 -107 -38 -200.5t-105.5 -162t-166 -108 t-214.5 -39.5q-212 0 -344.5 148.5t-132.5 410.5zM303 524q0 -199 81 -298t208 -99q148 0 239 94t91 242q0 124 -74 195t-193 71q-107 0 -197.5 -51t-154.5 -139v-15z" />
<glyph unicode="7" d="M104 0l943 1268h-760l28 166h967l-27 -166l-931 -1268h-220z" />
<glyph unicode="8" d="M76 371q0 145 91.5 265.5t264.5 162.5q-82 43 -125 114t-43 162q0 75 30.5 145.5t87 128t147.5 92t202 34.5q201 0 319.5 -100.5t118.5 -260.5q0 -118 -71.5 -212.5t-208.5 -135.5q109 -47 166 -136t57 -210q0 -87 -32.5 -167.5t-96 -147t-168.5 -106.5t-237 -40 q-239 0 -370.5 113.5t-131.5 298.5zM268 387q0 -123 80.5 -194.5t235.5 -71.5q163 0 249.5 90t86.5 219q0 123 -80.5 194.5t-235.5 71.5q-163 0 -249.5 -90t-86.5 -219zM459 1069q0 -101 63.5 -158t186.5 -57q129 0 197.5 73.5t68.5 176.5q0 97 -67 155t-183 58 q-121 0 -193.5 -74t-72.5 -174z" />
<glyph unicode="9" d="M41 242l162 88q43 -99 124.5 -152t182.5 -53q125 0 223.5 77.5t157 205t82.5 294.5q-163 -163 -371 -163q-192 0 -309 116t-117 310q0 107 38 200.5t105.5 162t166 108t214.5 39.5q212 0 345 -149t133 -411q0 -190 -43 -360t-124 -304t-211 -213t-292 -79t-285 75.5 t-182 207.5zM369 971q0 -124 73 -195t193 -71q107 0 198.5 51.5t153.5 140.5v12q0 199 -81 298.5t-208 99.5q-149 0 -239 -94t-90 -242z" />
<glyph unicode=":" horiz-adv-x="552" d="M76 106q0 54 38 93t93 39t94 -39t39 -93t-38.5 -91.5t-94.5 -37.5q-55 0 -93 37.5t-38 91.5zM217 926q0 54 38 91.5t95 37.5q54 0 92.5 -37.5t38.5 -91.5t-38.5 -92.5t-92.5 -38.5q-56 0 -94.5 38.5t-38.5 92.5z" />
<glyph unicode=";" horiz-adv-x="552" d="M-98 -328l264 543h207l-303 -543h-168zM215 926q0 54 38 91.5t95 37.5q54 0 92.5 -37.5t38.5 -91.5t-38.5 -92.5t-92.5 -38.5q-56 0 -94.5 38.5t-38.5 92.5z" />
<glyph unicode="&#x3c;" d="M98 428l33 176l1075 428l-28 -170l-879 -352l754 -352l-29 -158z" />
<glyph unicode="=" d="M63 219l25 152h1002l-27 -152h-1000zM141 662l25 151h1001l-26 -151h-1000z" />
<glyph unicode="&#x3e;" d="M25 0l28 170l877 352l-754 352l29 158l925 -428l-30 -176z" />
<glyph unicode="?" horiz-adv-x="1011" d="M197 1245q77 113 189.5 171.5t248.5 58.5q180 0 297 -107.5t117 -280.5q0 -194 -142.5 -314t-386.5 -150l-49 -205h-131l22 330q248 23 372 100.5t124 230.5q0 96 -65.5 165t-174.5 69q-161 0 -284 -164zM221 106q0 54 38 93t93 39t94 -39t39 -93t-38.5 -91.5 t-94.5 -37.5q-55 0 -93 37.5t-38 91.5z" />
<glyph unicode="@" horiz-adv-x="1667" d="M86 463q0 161 59 308.5t163.5 258t257 176.5t329.5 66q198 0 357.5 -83t249 -229.5t89.5 -326.5q0 -132 -46.5 -244t-125 -177t-170.5 -65q-79 0 -131.5 34.5t-73.5 92.5q-112 -127 -258 -127q-138 0 -226.5 90t-88.5 228q0 175 106 294.5t267 119.5q75 0 137 -30.5 t102 -86.5l17 90h143l-86 -479q-8 -49 15 -79t75 -30q90 0 153.5 102t63.5 265q0 147 -73 267.5t-203.5 190.5t-292.5 70q-150 0 -279 -57.5t-215.5 -153.5t-135 -222t-48.5 -263q0 -131 47 -243.5t126.5 -189t186 -120t224.5 -43.5q151 0 265.5 45.5t221.5 144.5l72 -94 q-114 -107 -249 -157t-310 -50q-203 0 -365.5 88t-256 250t-93.5 369zM621 471q0 -86 49.5 -141.5t136.5 -55.5q129 0 211 111l41 229q-31 63 -82 99.5t-119 36.5q-102 0 -169.5 -78.5t-67.5 -200.5z" />
<glyph unicode="A" horiz-adv-x="1466" d="M-39 0l807 1434h256l301 -1434h-199l-84 422h-636l-234 -422h-211zM498 588h512l-136 676z" />
<glyph unicode="B" horiz-adv-x="1196" d="M129 0l254 1434h297q206 0 314 -88.5t108 -247.5q0 -113 -62 -204t-174 -138q100 -45 152.5 -125.5t52.5 -181.5q0 -200 -150.5 -324.5t-390.5 -124.5h-401zM350 164h191q149 0 239 77.5t90 202.5q0 104 -64.5 167t-180.5 63h-185zM469 838h160q123 0 196.5 69t73.5 170 q0 92 -59 142.5t-168 50.5h-125z" />
<glyph unicode="C" horiz-adv-x="1501" d="M123 625q0 169 60 324t164.5 271t258 185.5t330.5 69.5q193 0 342 -86.5t231 -225.5l-166 -110q-58 107 -169.5 173t-243.5 66q-173 0 -312.5 -88.5t-216.5 -238t-77 -328.5q0 -137 56 -249.5t163.5 -180.5t247.5 -68q262 0 454 215l137 -125q-108 -131 -262 -200.5 t-338 -69.5q-193 0 -343.5 85.5t-233 237t-82.5 343.5z" />
<glyph unicode="D" horiz-adv-x="1589" d="M129 0l254 1434h430q328 0 524.5 -174.5t196.5 -468.5q0 -124 -37 -240.5t-111 -216t-175 -174.5t-238 -117.5t-293 -42.5h-551zM352 176h328q147 0 271.5 48.5t207 131.5t128.5 193t46 233q0 216 -139.5 345.5t-380.5 129.5h-268z" />
<glyph unicode="E" horiz-adv-x="1120" d="M129 0l254 1434h750l-29 -164h-557l-82 -459h479l-29 -162h-479l-86 -485h559l-28 -164h-752z" />
<glyph unicode="F" horiz-adv-x="1040" d="M129 0l254 1434h750l-29 -164h-557l-82 -459h479l-29 -162h-479l-114 -649h-193z" />
<glyph unicode="G" horiz-adv-x="1605" d="M125 625q0 169 60.5 324t167 271t261.5 185.5t334 69.5q199 0 345.5 -85t230.5 -225l-168 -108q-57 106 -167 170.5t-251 64.5q-175 0 -316 -88.5t-218.5 -238t-77.5 -328.5q0 -137 55.5 -249.5t163.5 -180.5t248 -68q244 0 434 164l61 344h-401l28 166h594l-104 -592 q-114 -120 -274.5 -191t-346.5 -71q-193 0 -343.5 85.5t-233 237t-82.5 343.5z" />
<glyph unicode="H" horiz-adv-x="1658" d="M129 0l254 1434h192l-108 -617h836l108 617h193l-254 -1434h-193l115 643h-836l-114 -643h-193z" />
<glyph unicode="I" horiz-adv-x="630" d="M129 0l254 1434h192l-253 -1434h-193z" />
<glyph unicode="J" horiz-adv-x="655" d="M-203 -309l31 164q51 -19 113 -19q96 0 149 48.5t76 187.5l242 1362h192l-246 -1397q-35 -197 -134 -284t-259 -87q-106 0 -164 25z" />
<glyph unicode="K" horiz-adv-x="1435" d="M129 0l254 1434h192l-126 -713l827 713h254l-694 -598l456 -836h-225l-377 711l-287 -248l-81 -463h-193z" />
<glyph unicode="L" horiz-adv-x="1040" d="M129 0l254 1434h192l-223 -1258h559l-30 -176h-752z" />
<glyph unicode="M" horiz-adv-x="1767" d="M129 0l254 1434h238l292 -713l543 713h256l-252 -1434h-192l207 1169l-521 -677h-145l-281 677l-206 -1169h-193z" />
<glyph unicode="N" horiz-adv-x="1658" d="M129 0l254 1434h246l569 -1207l213 1207h193l-254 -1434h-248l-567 1202l-213 -1202h-193z" />
<glyph unicode="O" horiz-adv-x="1660" d="M125 625q0 169 60 324t165 271t259 185.5t331 69.5q195 0 348 -85.5t237.5 -237t84.5 -343.5q0 -169 -60 -324t-165.5 -271t-260 -185.5t-331.5 -69.5q-194 0 -346.5 85.5t-237 237.5t-84.5 343zM326 637q0 -210 129.5 -354t341.5 -144q175 0 316 89.5t218.5 239.5 t77.5 329q0 102 -33.5 192.5t-93.5 158t-149.5 107t-196.5 39.5q-175 0 -315.5 -89t-217.5 -239t-77 -329z" />
<glyph unicode="P" horiz-adv-x="1144" d="M129 0l254 1434h369q199 0 314.5 -96.5t115.5 -272.5q0 -191 -136.5 -313.5t-369.5 -122.5h-244l-110 -629h-193zM463 793h209q143 0 225 72.5t82 193.5q0 103 -62 157t-176 54h-194z" />
<glyph unicode="Q" horiz-adv-x="1660" d="M125 631q0 166 59.5 319t164.5 269.5t260.5 186t336.5 69.5q198 0 350.5 -89t233 -240.5t80.5 -340.5q0 -232 -110 -430.5t-302 -308.5l94 -103q119 -125 254 -125q68 0 115 15l-29 -166q-58 -21 -125 -21q-202 0 -356 158l-156 160q-103 -25 -209 -25q-148 0 -272.5 52 t-209.5 142t-132 213.5t-47 264.5zM326 623q0 -132 56.5 -241.5t164.5 -176t246 -66.5q135 0 251.5 55t195.5 147.5t124 213.5t45 252q0 134 -56.5 244t-164.5 176.5t-248 66.5q-135 0 -251 -55t-195 -147.5t-123.5 -214.5t-44.5 -254z" />
<glyph unicode="R" horiz-adv-x="1275" d="M129 0l254 1434h334q202 0 316 -96t114 -273q0 -145 -84.5 -254.5t-231.5 -155.5l343 -655h-216l-307 629h-219l-110 -629h-193zM463 793h176q141 0 223 72.5t82 193.5q0 104 -61 157.5t-176 53.5h-160z" />
<glyph unicode="S" horiz-adv-x="1167" d="M74 205l149 114q130 -188 322 -188q117 0 189.5 69.5t72.5 170.5q0 60 -29 111t-75 89t-102 74.5t-112 77t-102 87t-75 115t-29 150.5q0 164 127 282t317 118q284 0 424 -240l-152 -113q-98 181 -280 181q-100 0 -168 -63.5t-68 -152.5q0 -60 29 -110t75 -87t101.5 -73.5 t111.5 -77t102 -87t75 -115.5t29 -152q0 -183 -129.5 -304.5t-335.5 -121.5q-308 0 -467 246z" />
<glyph unicode="T" horiz-adv-x="1251" d="M201 1257l30 177h1110l-30 -177h-459l-221 -1257h-193l221 1257h-458z" />
<glyph unicode="U" horiz-adv-x="1441" d="M184 300q-12 54 -12 116q0 67 14 143l156 875h193l-156 -885q-11 -61 -11 -113q0 -118 55 -192q79 -106 253 -105q162 0 261.5 99t133.5 290l160 906h192l-159 -910q-102 -565 -600 -565q-126 0 -225.5 39t-165 114.5t-89.5 187.5z" />
<glyph unicode="V" horiz-adv-x="1466" d="M215 1434h197l260 -1235l694 1235h211l-807 -1434h-254z" />
<glyph unicode="W" horiz-adv-x="2068" d="M227 1434h193l82 -1213l561 1213h258l131 -1213l510 1213h205l-608 -1434h-265l-137 1225l-567 -1225h-258z" />
<glyph unicode="X" horiz-adv-x="1425" d="M-31 0l660 760l-365 674h213l299 -551l477 551h238l-612 -701l395 -733h-213l-330 608l-526 -608h-236z" />
<glyph unicode="Y" horiz-adv-x="1347" d="M176 1434h217l328 -607l536 607h240l-706 -793l-113 -641h-193l115 651z" />
<glyph unicode="Z" horiz-adv-x="1329" d="M18 0l31 176l1034 1081h-823l31 177h1071l-31 -177l-1032 -1081h862l-31 -176h-1112z" />
<glyph unicode="[" horiz-adv-x="608" d="M-27 -403l27 151l315 1788h445l-27 -152h-278l-289 -1636h280l-26 -151h-447z" />
<glyph unicode="\" horiz-adv-x="710" d="M209 1536h168l145 -1939h-168z" />
<glyph unicode="]" horiz-adv-x="608" d="M-131 -403l27 151h278l289 1636h-279l27 152h444l-26 -152l-316 -1787h-444z" />
<glyph unicode="^" d="M197 315l348 463h235l187 -463h-152l-160 369l-290 -369h-168z" />
<glyph unicode="_" horiz-adv-x="1073" d="M-129 -342l29 152h1026l-27 -152h-1028z" />
<glyph unicode="`" horiz-adv-x="688" d="M324 1536h188l147 -340h-161z" />
<glyph unicode="a" horiz-adv-x="1116" d="M68 236q0 127 91.5 211t272.5 116l371 62l10 59q5 28 5 53q0 73 -41 119q-55 62 -165 62q-164 0 -293 -146l-124 105q74 89 185.5 142.5t242.5 53.5q204 -1 298 -115q69 -84 69 -210q0 -46 -9 -97l-117 -651h-172l21 113q-129 -142 -330 -142q-142 0 -228.5 70t-86.5 195 zM248 254q0 -64 45.5 -101.5t128.5 -37.5q193 0 319 168l39 211l-311 -54q-111 -18 -166 -66t-55 -120z" />
<glyph unicode="b" horiz-adv-x="1312" d="M86 0l272 1536h174l-104 -590q148 127 336 127q217 0 341 -134t124 -349q0 -170 -70 -313t-203.5 -230.5t-304.5 -87.5q-114 0 -209.5 44t-156.5 126l-23 -129h-176zM319 332q45 -99 127.5 -154t192.5 -55q177 0 291 131.5t114 325.5q0 144 -86.5 236.5t-234.5 92.5 q-97 0 -183.5 -43.5t-148.5 -128.5z" />
<glyph unicode="c" horiz-adv-x="1110" d="M82 453q0 124 46 237.5t126 198t195 134.5t245 50q144 0 253.5 -60t162.5 -157l-147 -113q-39 75 -112 120.5t-171 45.5q-119 0 -214.5 -64t-147.5 -168.5t-52 -225.5q0 -141 87.5 -234.5t232.5 -93.5q185 0 301 147l119 -118q-74 -90 -183 -141.5t-239 -51.5 q-231 0 -366.5 140t-135.5 354z" />
<glyph unicode="d" horiz-adv-x="1308" d="M84 442q0 169 72 312.5t206 231t300 87.5q114 0 209.5 -44t158.5 -126l111 633h174l-271 -1536h-174l19 104q-154 -145 -344 -145q-218 0 -339.5 133.5t-121.5 349.5zM268 453q0 -144 87 -237t235 -93q97 0 184 44t150 130l69 401q-43 100 -125.5 155.5t-193.5 55.5 q-177 0 -291.5 -131t-114.5 -325z" />
<glyph unicode="e" horiz-adv-x="1153" d="M84 453q0 169 66.5 308.5t198.5 225.5t306 86q184 0 305 -109.5t121 -275.5q0 -92 -32 -174h-783q-2 -20 -2 -63q0 -154 83.5 -244t236.5 -90q104 0 192.5 43t145.5 116l116 -112q-79 -97 -200 -151t-265 -54q-154 0 -266.5 66.5t-167.5 177t-55 250.5zM293 647h612 q3 20 3 40q0 49 -18 95q-25 64 -88 105t-151 41q-136 0 -227 -76t-131 -205z" />
<glyph unicode="f" horiz-adv-x="770" d="M57 -504l242 1378h-190l30 158h189l24 139q30 180 130.5 272.5t252.5 92.5q140 0 240 -70l-94 -137q-63 49 -144 49q-79 0 -136 -52.5t-75 -154.5l-24 -139h346l-27 -158h-346l-242 -1378h-176z" />
<glyph unicode="g" horiz-adv-x="1105" d="M-63 -211q0 181 206 293q-53 53 -53 125q0 131 168 223q-106 92 -106 246q0 78 29 149t82.5 127t136.5 89.5t182 33.5q110 0 194 -43h393l-28 -151h-221q26 -59 26 -136q0 -78 -29 -150t-81.5 -128t-134.5 -89.5t-181 -33.5q-90 0 -158 27q-104 -60 -104 -125 q0 -62 74 -62h254q187 0 278.5 -81.5t91.5 -217.5q0 -171 -148 -284t-409 -113q-229 0 -345.5 80t-116.5 221zM111 -188q0 -179 295 -179q184 0 278 66t94 172q0 160 -205 160h-297q-80 -39 -122.5 -99.5t-42.5 -119.5zM317 678q0 -85 54 -141t149 -56q119 0 190.5 76.5 t71.5 183.5q0 83 -54.5 140t-145.5 57q-123 0 -194 -76.5t-71 -183.5z" />
<glyph unicode="h" horiz-adv-x="1232" d="M86 0l270 1536h174l-108 -612q156 149 340 149t276 -117q66 -84 67 -217q0 -53 -11 -114l-111 -625h-174l109 618q8 42 8 79q0 82 -39 135q-56 77 -176 77q-97 0 -180.5 -51.5t-143.5 -142.5v2l-127 -717h-174z" />
<glyph unicode="i" horiz-adv-x="528" d="M88 0l180 1032h174l-182 -1032h-172zM301 1423q0 50 36 85.5t87 35.5t86 -35.5t35 -85.5q0 -51 -35 -87t-86 -36t-87 36t-36 87z" />
<glyph unicode="j" horiz-adv-x="528" d="M-344 -471l27 154q76 -35 147 -35q48 0 82 8t65 29.5t52 64.5t32 109l207 1173h174l-209 -1182q-35 -202 -128 -282t-250 -80q-125 0 -199 41zM301 1423q0 50 36 85.5t87 35.5q50 0 85.5 -36t35.5 -85q0 -51 -35.5 -87t-85.5 -36q-51 0 -87 36t-36 87z" />
<glyph unicode="k" horiz-adv-x="1085" d="M90 0l268 1536h177l-173 -983l539 479h232l-492 -434l320 -598h-197l-254 481l-191 -168l-55 -313h-174z" />
<glyph unicode="l" horiz-adv-x="528" d="M88 0l270 1536h174l-272 -1536h-172z" />
<glyph unicode="m" horiz-adv-x="1873" d="M88 0l180 1032h174l-18 -106q144 147 317 147q112 0 191 -50t112 -146q168 196 379 196q173 0 262 -116q63 -82 63 -209q0 -53 -11 -113l-111 -635h-176l111 629q8 43 8 79q0 78 -36 128q-52 72 -161 73q-167 0 -309 -200q0 -24 -8 -74l-113 -635h-174l111 629q8 43 8 79 q0 78 -36 128q-52 72 -161 73q-171 0 -303 -194l-127 -715h-172z" />
<glyph unicode="n" horiz-adv-x="1232" d="M86 0l182 1032h174l-18 -108q149 149 338 149q184 0 276 -117q66 -84 66 -217q0 -53 -10 -114l-111 -625h-174l111 618q7 41 7 76q1 84 -39 138q-56 77 -177 77q-97 0 -180.5 -51.5t-143.5 -142.5l-127 -715h-174z" />
<glyph unicode="o" horiz-adv-x="1267" d="M82 453q0 122 44.5 234.5t122.5 198t194 136.5t251 51q227 0 360.5 -140t133.5 -353q0 -122 -44.5 -234.5t-122 -198t-193 -137t-248.5 -51.5q-152 0 -266.5 66t-173 177.5t-58.5 250.5zM266 451q0 -140 88 -234t228 -94q122 0 220 64.5t150 169t52 225.5 q0 140 -88 233.5t-228 93.5q-122 0 -220 -64t-150 -168.5t-52 -225.5z" />
<glyph unicode="p" horiz-adv-x="1310" d="M-2 -504l270 1536h174l-18 -102q152 143 344 143q218 0 339.5 -133.5t121.5 -349.5q0 -169 -72 -312.5t-206 -231t-300 -87.5q-115 0 -210 44t-158 126l-111 -633h-174zM319 334q43 -100 126 -155.5t194 -55.5q177 0 291 131.5t114 325.5q0 144 -87 236.5t-236 92.5 q-96 0 -182.5 -44t-149.5 -130z" />
<glyph unicode="q" horiz-adv-x="1310" d="M84 442q0 169 72 312.5t206 231t300 87.5q114 0 209.5 -44.5t158.5 -127.5l23 131h172l-271 -1536h-172l105 592q-147 -129 -338 -129q-219 0 -342 133.5t-123 349.5zM268 453q0 -144 87 -237t235 -93q98 0 184.5 44.5t149.5 131.5l69 399q-43 100 -125.5 155.5 t-193.5 55.5q-177 0 -291.5 -131t-114.5 -325z" />
<glyph unicode="r" horiz-adv-x="790" d="M86 0l182 1032h174l-24 -137q68 78 140.5 118t168.5 40q50 0 94 -13l-30 -170q-63 13 -93 13q-94 0 -170 -50.5t-145 -140.5l-123 -692h-174z" />
<glyph unicode="s" horiz-adv-x="876" d="M12 160l131 98q98 -154 252 -154q80 0 130 48.5t50 121.5q0 42 -22.5 76t-58.5 58.5t-79 48t-86.5 51t-79.5 60.5t-58.5 84t-22.5 114q0 127 99 217t253 90q112 0 200 -51.5t132 -136.5l-133 -94q-69 137 -203 137q-76 0 -127 -46t-51 -108q0 -42 22.5 -76t58.5 -58.5 t79 -48t86.5 -51t79.5 -60.5t58.5 -83.5t22.5 -113.5q0 -131 -98.5 -227.5t-259.5 -96.5q-120 0 -217.5 52t-157.5 149z" />
<glyph unicode="t" horiz-adv-x="835" d="M111 874l28 158h189l45 258h176l-45 -258h344l-27 -158h-346l-92 -514q-8 -42 -7 -76q0 -64 28 -96q42 -48 141 -49q76 0 151 27l-26 -156q-82 -30 -168 -30q-304 0 -304 277q0 53 11 116l90 501h-188z" />
<glyph unicode="u" horiz-adv-x="1200" d="M145 459l103 573h174l-105 -590q-8 -45 -8 -85q1 -93 45 -151q64 -84 201 -83q121 0 198 81.5t105 237.5l105 590h176l-107 -592q-40 -234 -163 -357.5t-326 -123.5q-219 -1 -329 131q-80 96 -80 250q0 56 11 119z" />
<glyph unicode="v" horiz-adv-x="1060" d="M119 1032h182l168 -844l463 844h194l-571 -1032h-229z" />
<glyph unicode="w" horiz-adv-x="1597" d="M160 1032h168l55 -856l381 856h237l80 -852l359 852h180l-432 -1032h-246l-82 877l-391 -877h-240z" />
<glyph unicode="x" horiz-adv-x="1056" d="M-45 0l469 545l-260 487h188l199 -379l321 379h205l-436 -508l281 -524h-189l-219 416l-354 -416h-205z" />
<glyph unicode="y" horiz-adv-x="1091" d="M-152 -471l27 154q65 -35 141 -35q69 0 127 38t111 128l111 188l-246 1030h184l186 -813l474 813h192l-749 -1282q-80 -139 -166.5 -200.5t-204.5 -61.5q-122 0 -187 41z" />
<glyph unicode="z" horiz-adv-x="1005" d="M8 0l29 158l706 716h-567l29 158h782l-26 -158l-709 -716h596l-29 -158h-811z" />
<glyph unicode="{" horiz-adv-x="608" d="M16 492l27 151h119q68 0 103.5 51.5t35.5 134.5q0 63 -22.5 190t-22.5 200q0 143 93.5 230t260.5 87h152l-29 -152h-121q-91 0 -140.5 -46t-49.5 -138q0 -62 22.5 -177t22.5 -183q0 -89 -40.5 -168t-119.5 -117q82 -59 82 -166q0 -57 -20 -117t-49 -111t-58 -100.5 t-49 -101t-20 -96.5q0 -56 40.5 -85.5t114.5 -29.5h98l-26 -151h-90q-145 0 -225 67t-80 186q0 68 31.5 143.5t68.5 132t68.5 128t31.5 131.5q0 107 -94 107h-115z" />
<glyph unicode="|" horiz-adv-x="710" d="M111 -403l342 1939h165l-342 -1939h-165z" />
<glyph unicode="}" horiz-adv-x="608" d="M-131 -403l27 151h120q91 0 141 46t50 138q0 63 -21.5 177.5t-21.5 183.5q0 88 40.5 167.5t117.5 117.5q-80 59 -80 165q0 57 20 117.5t49 111.5t58 100t49 101t20 97q0 56 -41 85t-114 29h-99l27 152h90q144 0 224.5 -67.5t80.5 -186.5q0 -56 -20.5 -115t-50 -110 t-59 -101t-50 -105t-20.5 -106q0 -102 92 -102h116l-28 -154h-119q-67 0 -103 -51.5t-36 -134.5q0 -63 23.5 -189.5t23.5 -199.5q0 -142 -95 -229.5t-262 -87.5h-149z" />
<glyph unicode="~" d="M172 332l35 194q43 248 227 248q72 0 123 -33.5t78 -81t49 -94.5t49.5 -80.5t65.5 -33.5q84 0 106 129l33 182h131l-35 -195q-43 -248 -227 -248q-61 0 -107 24t-71.5 60t-48.5 78t-39.5 78t-42 60t-58.5 24q-84 0 -106 -129l-31 -182h-131z" />
<glyph unicode="&#xa1;" horiz-adv-x="606" d="M47 -383l213 1016h131l-145 -1016h-199zM248 942q0 56 38 93.5t93 37.5t93 -37.5t38 -93.5q0 -54 -38 -91.5t-93 -37.5t-93 37.5t-38 91.5z" />
<glyph unicode="&#xa2;" d="M166 655q0 158 70 294t197.5 223.5t287.5 101.5l29 160h149l-29 -164q112 -18 196 -74t128 -135l-147 -111q-29 59 -82 100t-123 54l-137 -774q163 14 266 149l116 -125q-74 -90 -180 -141t-231 -51l-29 -162h-151l30 178q-169 39 -264.5 169t-95.5 308zM350 655 q0 -110 55.5 -193.5t151.5 -115.5l135 760q-151 -29 -246.5 -158t-95.5 -293z" />
<glyph unicode="&#xa3;" d="M68 0l30 166l146 108q143 110 192 169t49 137q0 26 -6 53h-299l27 149h219q-2 5 -13.5 29.5t-14.5 31.5t-12.5 29.5t-13 32.5t-11 30t-10 33.5t-6.5 31.5t-5.5 34t-1.5 33q0 181 121 294.5t307 113.5q141 0 242.5 -62.5t160.5 -169.5l-147 -94q-90 158 -246 158 q-120 0 -188 -68.5t-68 -185.5q0 -34 10 -74t17.5 -60.5t31.5 -73.5t29 -63h430l-26 -149h-357q4 -32 4 -51q0 -103 -62.5 -187.5t-209.5 -195.5l-45 -33h688l-31 -166h-931z" />
<glyph unicode="&#xa4;" d="M41 106l262 234q-29 66 -29 139q0 134 84 242l-168 217l123 94l164 -213q74 41 168 41q107 0 186 -53l256 225l101 -106l-262 -232q28 -64 28 -137q0 -134 -84 -242l172 -221l-122 -94l-168 215q-76 -39 -168 -39q-109 0 -185 51l-258 -227zM412 481q0 -78 48 -130 t128 -52q99 0 163 76t64 180q0 78 -47.5 130t-128.5 52q-97 0 -162 -76t-65 -180z" />
<glyph unicode="&#xa5;" d="M133 475l27 152h383l30 170h-383l27 151h275l-242 488h209l225 -484l397 482h222l-410 -486h274l-28 -151h-381l-31 -170h383l-27 -152h-381l-84 -475h-186l84 475h-383z" />
<glyph unicode="&#xa6;" horiz-adv-x="710" d="M111 -403l127 718h165l-127 -718h-165zM326 817l127 719h165l-126 -719h-166z" />
<glyph unicode="&#xa7;" horiz-adv-x="1042" d="M-12 -197l121 105q143 -158 292 -158q94 0 158 51t64 146q0 55 -29 98.5t-75 74t-101.5 58.5t-111.5 60.5t-102 71.5t-75 100t-29 137q0 111 74.5 191t202.5 118q-135 102 -135 266q0 161 115 257t286 96q234 0 397 -193l-118 -104q-134 149 -283 149q-95 0 -158 -51 t-63 -146q0 -43 18 -79.5t48 -63t69 -50t82 -45.5t86 -45.5t82 -54t69 -66t48 -86t18 -110.5q0 -111 -74.5 -191t-201.5 -118q135 -99 135 -266q0 -161 -115.5 -256.5t-286.5 -95.5q-235 0 -407 200zM276 555q0 -38 16 -71.5t29.5 -53t58.5 -48.5t58.5 -36.5t74.5 -37.5 q4 -3 7 -4.5t6 -2.5q106 22 171 83.5t65 137.5q0 38 -16 71.5t-29.5 53t-58.5 48.5t-58.5 36.5t-74.5 37.5q-9 5 -13 7q-106 -22 -171 -83.5t-65 -137.5z" />
<glyph unicode="&#xa8;" horiz-adv-x="688" d="M193 1430q0 47 34.5 80.5t81.5 33.5q48 0 82.5 -33.5t34.5 -80.5t-35 -81t-82 -34t-81.5 34t-34.5 81zM586 1430q0 47 34.5 80.5t81.5 33.5q46 0 81.5 -33.5t35.5 -80.5t-35.5 -81t-81.5 -34q-47 0 -81.5 34t-34.5 81z" />
<glyph unicode="&#xa9;" horiz-adv-x="1685" d="M123 629q0 172 63 328t170.5 270t259.5 181t322 67q163 0 296 -52t219 -142.5t132.5 -212.5t46.5 -263q0 -172 -62.5 -328t-169.5 -270t-258.5 -181t-320.5 -67q-164 0 -297.5 52t-220.5 142.5t-133.5 212.5t-46.5 263zM248 633q0 -120 38.5 -223t110 -179t179.5 -119.5 t241 -43.5q146 0 275 58.5t220 158t144 234t53 282.5q0 120 -38.5 223t-109.5 179t-179 119.5t-240 43.5q-196 0 -356 -100t-249 -267.5t-89 -365.5zM434 659q0 105 37 200.5t101.5 166.5t158.5 113.5t203 42.5q122 0 213.5 -53t144.5 -140l-125 -82q-33 62 -97 101t-140 39 q-150 0 -247 -109t-97 -268q0 -121 71.5 -203t192.5 -82q151 0 258 123l102 -92q-65 -80 -160.5 -123t-207.5 -43q-181 0 -294.5 113.5t-113.5 295.5z" />
<glyph unicode="&#xaa;" horiz-adv-x="712" d="M119 528l22 125h490l-23 -125h-489zM166 973q0 79 56.5 134t168.5 75l219 37l4 26q10 60 -19 94.5t-91 34.5q-92 0 -166 -84l-94 78q45 54 114.5 87.5t153.5 33.5q132 0 190.5 -73.5t36.5 -196.5l-69 -390h-127l10 58q-74 -84 -191 -84q-88 0 -142 45t-54 125zM299 989 q0 -38 25 -60t71 -22q101 0 178 97l21 118l-178 -28q-58 -10 -87.5 -37.5t-29.5 -67.5z" />
<glyph unicode="&#xab;" horiz-adv-x="1056" d="M96 508l336 410h201l-346 -429l178 -391h-176zM514 508l336 410h201l-346 -429l178 -391h-176z" />
<glyph unicode="&#xac;" d="M141 662l25 151h1001l-104 -594h-152l78 443h-848z" />
<glyph unicode="&#xad;" horiz-adv-x="616" d="M27 440l30 168h537l-31 -168h-536z" />
<glyph unicode="&#xae;" horiz-adv-x="1011" d="M143 967q0 138 63.5 254.5t176.5 185t250 68.5q193 0 304.5 -114t111.5 -288q0 -138 -64 -254.5t-176.5 -185t-247.5 -68.5q-195 0 -306.5 114t-111.5 288zM229 969q0 -144 88 -237t242 -93q171 0 287.5 126.5t116.5 305.5q0 144 -88.5 237t-239.5 93 q-173 0 -289.5 -126.5t-116.5 -305.5zM393 758l94 530h140q79 0 124.5 -37t45.5 -104q0 -53 -32 -94t-87 -58l102 -237h-104l-88 225h-56l-40 -225h-99zM547 1065h53q42 0 67 22t25 58q0 61 -71 61h-50z" />
<glyph unicode="&#xaf;" horiz-adv-x="688" d="M182 1350l23 133h620l-22 -133h-621z" />
<glyph unicode="&#xb0;" horiz-adv-x="815" d="M178 1094q0 156 103.5 268.5t267.5 112.5q137 0 223 -87t86 -217q0 -156 -103.5 -268t-267.5 -112q-137 0 -223 86.5t-86 216.5zM315 1100q0 -80 50 -133.5t129 -53.5q99 0 162 75t63 177q0 80 -49 133.5t-129 53.5q-98 0 -162 -75t-64 -177z" />
<glyph unicode="&#xb1;" d="M25 0l24 152h1002l-27 -152h-999zM127 586l27 151h426l51 295h151l-53 -295h424l-27 -151h-424l-53 -297h-149l53 297h-426z" />
<glyph unicode="&#xb2;" horiz-adv-x="772" d="M150 829l22 123l360 312q90 78 123 125t33 104q0 54 -35.5 87.5t-91.5 33.5t-102.5 -33.5t-91.5 -103.5l-107 75q114 185 313 185q111 0 183.5 -65t72.5 -167q0 -87 -49.5 -157t-173.5 -177l-258 -219h406l-23 -123h-581z" />
<glyph unicode="&#xb3;" horiz-adv-x="772" d="M145 991l119 66q70 -129 209 -129q79 0 127.5 45t48.5 117q0 67 -44 106t-132 39h-111l21 123h119q88 0 133 38t45 99q0 52 -34 85.5t-87 33.5q-103 0 -176 -111l-107 74q107 160 295 160q108 0 180 -65t72 -167q0 -71 -43 -127.5t-123 -85.5q67 -31 100.5 -86.5 t33.5 -122.5q0 -119 -88 -198.5t-232 -79.5q-117 0 -200 48.5t-126 137.5z" />
<glyph unicode="&#xb4;" horiz-adv-x="688" d="M258 1196l268 340h203l-295 -340h-176z" />
<glyph unicode="&#xb6;" horiz-adv-x="1325" d="M147 1001q0 87 34 164.5t97.5 137.5t162 95.5t218.5 35.5h230l-326 -1837h-166l183 1032h-19q-114 0 -206.5 41t-150 127t-57.5 204zM780 -403l324 1837h166l-326 -1837h-164z" />
<glyph unicode="&#xb7;" horiz-adv-x="552" d="M156 522q0 54 39 92.5t94 38.5t93 -38.5t38 -92.5t-38 -91.5t-93 -37.5q-56 0 -94.5 37.5t-38.5 91.5z" />
<glyph unicode="&#xb8;" horiz-adv-x="688" d="M-39 -426l80 90q53 -63 131 -63q47 0 75.5 23.5t28.5 66.5q0 35 -25.5 58.5t-68.5 23.5q-36 0 -80 -19l-51 74l176 188l131 -10l-131 -139q80 -1 133.5 -51t53.5 -119q0 -89 -66 -147t-172 -58q-133 0 -215 82z" />
<glyph unicode="&#xb9;" horiz-adv-x="772" d="M139 829l23 123h248l106 604l-221 -112l-55 108l305 160h135l-133 -760h217l-23 -123h-602z" />
<glyph unicode="&#xba;" horiz-adv-x="815" d="M123 528l22 125h578l-23 -125h-577zM178 1108q0 155 107 268t270 113q141 0 224 -85.5t83 -217.5q0 -155 -107.5 -269t-267.5 -114q-143 0 -226 86t-83 219zM313 1106q0 -78 48 -129t128 -51q103 0 169.5 77t66.5 183q0 80 -48 131t-128 51q-102 0 -169 -78t-67 -184z " />
<glyph unicode="&#xbb;" horiz-adv-x="1056" d="M14 98l348 430l-180 390h178l191 -410l-336 -410h-201zM432 98l348 430l-180 390h178l191 -410l-336 -410h-201z" />
<glyph unicode="&#xbc;" horiz-adv-x="1832" d="M92 553l23 123h247l107 604l-221 -113l-55 109l305 160h135l-133 -760h217l-23 -123h-602zM334 0l1261 1434h193l-1262 -1434h-192zM1079 246l23 123l467 512h170l-90 -512h92l-21 -123h-94l-43 -246h-137l43 246h-410zM1249 369h262l64 358z" />
<glyph unicode="&#xbd;" horiz-adv-x="1996" d="M92 553l23 123h247l107 604l-221 -113l-55 109l305 160h135l-133 -760h217l-23 -123h-602zM334 0l1261 1434h193l-1262 -1434h-192zM1231 0l22 123l361 311q89 77 122 125t33 105q0 54 -35.5 87t-91.5 33t-102.5 -33.5t-91.5 -103.5l-107 76q113 184 314 184 q111 0 183.5 -64.5t72.5 -166.5q0 -87 -49.5 -157t-173.5 -177l-258 -219h405l-23 -123h-581z" />
<glyph unicode="&#xbe;" horiz-adv-x="1763" d="M98 715l119 65q71 -129 209 -129q79 0 127.5 45t48.5 117q0 67 -44 106t-132 39h-111l21 123h119q88 0 133 38.5t45 99.5q0 52 -34 85t-87 33q-104 0 -176 -110l-107 73q107 160 295 160q108 0 180 -64.5t72 -166.5q0 -71 -43 -127.5t-123 -85.5q67 -31 100 -86.5 t33 -122.5q0 -119 -87.5 -199t-231.5 -80q-116 0 -199 49t-127 138zM264 0l1262 1434h192l-1261 -1434h-193zM1010 246l22 123l467 512h170l-90 -512h92l-20 -123h-95l-43 -246h-137l43 246h-409zM1180 369h262l63 358z" />
<glyph unicode="&#xbf;" horiz-adv-x="1011" d="M-33 -47q0 194 143.5 319t387.5 156l47 205h133l-25 -330q-495 -45 -495 -342q0 -95 64.5 -159t176.5 -64q162 0 285 164l137 -97q-79 -113 -191 -171t-247 -58q-182 0 -299 102.5t-117 274.5zM532 942q0 55 39 93t93 38q57 0 95 -37.5t38 -93.5q0 -54 -38 -91.5 t-95 -37.5q-54 0 -93 37.5t-39 91.5z" />
<glyph unicode="&#xc0;" horiz-adv-x="1466" d="M-39 0l807 1434h256l301 -1434h-199l-84 422h-636l-234 -422h-211zM498 588h512l-136 676zM633 1833h201l176 -277h-172z" />
<glyph unicode="&#xc1;" horiz-adv-x="1466" d="M-39 0l807 1434h256l301 -1434h-199l-84 422h-636l-234 -422h-211zM498 588h512l-136 676zM827 1556l273 277h215l-303 -277h-185z" />
<glyph unicode="&#xc2;" horiz-adv-x="1466" d="M-39 0l807 1434h256l301 -1434h-199l-84 422h-636l-234 -422h-211zM498 588h512l-136 676zM588 1556l272 277h213l174 -277h-147l-139 189l-207 -189h-166z" />
<glyph unicode="&#xc3;" horiz-adv-x="1466" d="M-39 0l807 1434h256l301 -1434h-199l-84 422h-636l-234 -422h-211zM498 588h512l-136 676zM590 1569l14 80q12 89 65 140.5t128 51.5q49 0 88 -17.5t63 -42.5t44 -50t41 -42.5t44 -17.5q52 0 68 78l12 72h135l-14 -80q-12 -89 -66 -141t-129 -52q-49 0 -88.5 17.5 t-64 42.5t-45 50t-41 42.5t-41.5 17.5q-53 0 -66 -78l-12 -71h-135z" />
<glyph unicode="&#xc4;" horiz-adv-x="1466" d="M-39 0l807 1434h256l301 -1434h-199l-84 422h-636l-234 -422h-211zM498 588h512l-136 676zM641 1724q0 44 32.5 76.5t78.5 32.5q44 0 77 -32.5t33 -76.5q0 -45 -32.5 -76.5t-77.5 -31.5q-46 0 -78.5 31.5t-32.5 76.5zM1030 1724q0 44 33.5 76.5t79.5 32.5q44 0 77 -32.5 t33 -76.5q0 -45 -32.5 -76.5t-77.5 -31.5q-46 0 -79.5 31.5t-33.5 76.5z" />
<glyph unicode="&#xc5;" horiz-adv-x="1466" d="M-39 0l807 1434h256l301 -1434h-199l-84 422h-636l-234 -422h-211zM498 588h512l-136 676zM700 1724q0 117 77.5 185.5t191.5 68.5q98 0 164.5 -57.5t66.5 -153.5q0 -116 -77.5 -183.5t-190.5 -67.5q-99 0 -165.5 56.5t-66.5 151.5zM817 1733q0 -52 33 -82.5t88 -30.5 q66 0 105.5 39t39.5 102q0 51 -33.5 82t-86.5 31q-65 0 -105.5 -39.5t-40.5 -101.5z" />
<glyph unicode="&#xc6;" horiz-adv-x="1943" d="M-49 0l1118 1434h889l-31 -164h-557l-80 -459h479l-30 -162h-477l-86 -485h557l-29 -164h-750l74 422h-516l-326 -422h-235zM641 588h416l123 698z" />
<glyph unicode="&#xc7;" horiz-adv-x="1501" d="M123 625q0 169 60 324t164.5 271t258 185.5t330.5 69.5q193 0 342 -86.5t231 -225.5l-166 -110q-58 107 -169.5 173t-243.5 66q-173 0 -312.5 -88.5t-216.5 -238t-77 -328.5q0 -137 56 -249.5t163.5 -180.5t247.5 -68q262 0 454 215l137 -125q-194 -235 -510 -266 l-229 -291h-182l231 293q-256 29 -412.5 211t-156.5 449z" />
<glyph unicode="&#xc8;" horiz-adv-x="1120" d="M129 0l254 1434h750l-29 -164h-557l-82 -459h479l-29 -162h-479l-86 -485h559l-28 -164h-752zM467 1833h201l176 -277h-172z" />
<glyph unicode="&#xc9;" horiz-adv-x="1120" d="M129 0l254 1434h750l-29 -164h-557l-82 -459h479l-29 -162h-479l-86 -485h559l-28 -164h-752zM662 1556l272 277h215l-303 -277h-184z" />
<glyph unicode="&#xca;" horiz-adv-x="1120" d="M129 0l254 1434h750l-29 -164h-557l-82 -459h479l-29 -162h-479l-86 -485h559l-28 -164h-752zM422 1556l272 277h213l174 -277h-147l-139 189l-207 -189h-166z" />
<glyph unicode="&#xcb;" horiz-adv-x="1120" d="M129 0l254 1434h750l-29 -164h-557l-82 -459h479l-29 -162h-479l-86 -485h559l-28 -164h-752zM475 1724q0 44 32.5 76.5t78.5 32.5q44 0 77 -32.5t33 -76.5q0 -45 -32.5 -76.5t-77.5 -31.5q-46 0 -78.5 31.5t-32.5 76.5zM864 1724q0 44 33.5 76.5t79.5 32.5 q44 0 77 -32.5t33 -76.5q0 -45 -32.5 -76.5t-77.5 -31.5q-46 0 -79.5 31.5t-33.5 76.5z" />
<glyph unicode="&#xcc;" horiz-adv-x="630" d="M129 0l254 1434h192l-253 -1434h-193zM215 1833h201l176 -277h-172z" />
<glyph unicode="&#xcd;" horiz-adv-x="630" d="M129 0l254 1434h192l-253 -1434h-193zM410 1556l272 277h215l-303 -277h-184z" />
<glyph unicode="&#xce;" horiz-adv-x="630" d="M129 0l254 1434h192l-253 -1434h-193zM170 1556l272 277h213l174 -277h-147l-139 189l-207 -189h-166z" />
<glyph unicode="&#xcf;" horiz-adv-x="630" d="M129 0l254 1434h192l-253 -1434h-193zM223 1724q0 44 32.5 76.5t78.5 32.5q44 0 77 -32.5t33 -76.5q0 -45 -32.5 -76.5t-77.5 -31.5q-46 0 -78.5 31.5t-32.5 76.5zM612 1724q0 44 33.5 76.5t79.5 32.5q44 0 77.5 -32.5t33.5 -76.5q0 -45 -33 -76.5t-78 -31.5 q-46 0 -79.5 31.5t-33.5 76.5z" />
<glyph unicode="&#xd0;" horiz-adv-x="1589" d="M27 668l24 131h219l113 635h430q328 0 524.5 -174.5t196.5 -468.5q0 -124 -37 -240.5t-111 -216t-175 -174.5t-238 -117.5t-293 -42.5h-551l119 668h-221zM352 176h328q147 0 271.5 48.5t207 131.5t128.5 193t46 233q0 216 -139.5 345.5t-380.5 129.5h-268l-82 -458h362 l-22 -131h-363z" />
<glyph unicode="&#xd1;" horiz-adv-x="1658" d="M129 0l254 1434h246l569 -1207l213 1207h193l-254 -1434h-248l-567 1202l-213 -1202h-193zM686 1569l14 80q12 89 65 140.5t128 51.5q49 0 88 -17.5t63.5 -42.5t44.5 -50t41 -42.5t44 -17.5q51 0 67 78l12 72h136l-15 -80q-12 -89 -65.5 -141t-128.5 -52 q-49 0 -88.5 17.5t-64.5 42.5t-45.5 50t-41 42.5t-41.5 17.5q-52 0 -65 -78l-13 -71h-135z" />
<glyph unicode="&#xd2;" horiz-adv-x="1660" d="M125 625q0 169 60 324t165 271t259 185.5t331 69.5q195 0 348 -85.5t237.5 -237t84.5 -343.5q0 -169 -60 -324t-165.5 -271t-260 -185.5t-331.5 -69.5q-194 0 -346.5 85.5t-237 237.5t-84.5 343zM326 637q0 -210 129.5 -354t341.5 -144q175 0 316 89.5t218.5 239.5 t77.5 329q0 102 -33.5 192.5t-93.5 158t-149.5 107t-196.5 39.5q-175 0 -315.5 -89t-217.5 -239t-77 -329zM719 1833h201l176 -277h-172z" />
<glyph unicode="&#xd3;" horiz-adv-x="1660" d="M125 625q0 169 60 324t165 271t259 185.5t331 69.5q195 0 348 -85.5t237.5 -237t84.5 -343.5q0 -169 -60 -324t-165.5 -271t-260 -185.5t-331.5 -69.5q-194 0 -346.5 85.5t-237 237.5t-84.5 343zM326 637q0 -210 129.5 -354t341.5 -144q175 0 316 89.5t218.5 239.5 t77.5 329q0 102 -33.5 192.5t-93.5 158t-149.5 107t-196.5 39.5q-175 0 -315.5 -89t-217.5 -239t-77 -329zM913 1556l273 277h215l-303 -277h-185z" />
<glyph unicode="&#xd4;" horiz-adv-x="1660" d="M125 625q0 169 60 324t165 271t259 185.5t331 69.5q195 0 348 -85.5t237.5 -237t84.5 -343.5q0 -169 -60 -324t-165.5 -271t-260 -185.5t-331.5 -69.5q-194 0 -346.5 85.5t-237 237.5t-84.5 343zM326 637q0 -210 129.5 -354t341.5 -144q175 0 316 89.5t218.5 239.5 t77.5 329q0 102 -33.5 192.5t-93.5 158t-149.5 107t-196.5 39.5q-175 0 -315.5 -89t-217.5 -239t-77 -329zM674 1556l272 277h213l174 -277h-147l-139 189l-207 -189h-166z" />
<glyph unicode="&#xd5;" horiz-adv-x="1660" d="M125 625q0 169 60 324t165 271t259 185.5t331 69.5q195 0 348 -85.5t237.5 -237t84.5 -343.5q0 -169 -60 -324t-165.5 -271t-260 -185.5t-331.5 -69.5q-194 0 -346.5 85.5t-237 237.5t-84.5 343zM326 637q0 -210 129.5 -354t341.5 -144q175 0 316 89.5t218.5 239.5 t77.5 329q0 102 -33.5 192.5t-93.5 158t-149.5 107t-196.5 39.5q-175 0 -315.5 -89t-217.5 -239t-77 -329zM676 1569l14 80q12 89 65 140.5t128 51.5q49 0 88 -17.5t63 -42.5t44 -50t41 -42.5t44 -17.5q52 0 68 78l12 72h135l-14 -80q-12 -89 -66 -141t-129 -52 q-49 0 -88.5 17.5t-64 42.5t-45 50t-41 42.5t-41.5 17.5q-53 0 -66 -78l-12 -71h-135z" />
<glyph unicode="&#xd6;" horiz-adv-x="1660" d="M125 625q0 169 60 324t165 271t259 185.5t331 69.5q195 0 348 -85.5t237.5 -237t84.5 -343.5q0 -169 -60 -324t-165.5 -271t-260 -185.5t-331.5 -69.5q-194 0 -346.5 85.5t-237 237.5t-84.5 343zM326 637q0 -210 129.5 -354t341.5 -144q175 0 316 89.5t218.5 239.5 t77.5 329q0 102 -33.5 192.5t-93.5 158t-149.5 107t-196.5 39.5q-175 0 -315.5 -89t-217.5 -239t-77 -329zM727 1724q0 44 32.5 76.5t78.5 32.5q44 0 77 -32.5t33 -76.5q0 -45 -32.5 -76.5t-77.5 -31.5q-46 0 -78.5 31.5t-32.5 76.5zM1116 1724q0 44 33.5 76.5t79.5 32.5 q44 0 77 -32.5t33 -76.5q0 -45 -32.5 -76.5t-77.5 -31.5q-46 0 -79.5 31.5t-33.5 76.5z" />
<glyph unicode="&#xd7;" d="M41 106l471 418l-322 414l123 94l316 -405l458 405l101 -106l-469 -416l323 -416l-122 -94l-318 408l-461 -408z" />
<glyph unicode="&#xd8;" horiz-adv-x="1660" d="M2 -41l252 252q-129 178 -129 414q0 169 60 324t165 271t259 185.5t331 69.5q265 0 451 -156l155 156h185l-252 -254q131 -173 131 -412q0 -169 -60 -324t-165.5 -271t-260 -185.5t-331.5 -69.5q-263 0 -449 156l-156 -156h-186zM326 637q0 -163 77 -287l842 834 q-126 110 -309 110q-175 0 -315.5 -89t-217.5 -239t-77 -329zM489 250q124 -111 308 -111q175 0 316 89.5t218.5 239.5t77.5 329q0 157 -80 286z" />
<glyph unicode="&#xd9;" horiz-adv-x="1441" d="M184 300q-24 112 2 259l156 875h193l-156 -885q-35 -199 44 -304.5t253 -105.5q162 0 261.5 99t133.5 290l160 906h192l-159 -910q-102 -565 -600 -565q-126 0 -225.5 39t-165 114.5t-89.5 187.5zM621 1833h200l176 -277h-172z" />
<glyph unicode="&#xda;" horiz-adv-x="1441" d="M184 300q-24 112 2 259l156 875h193l-156 -885q-35 -199 44 -304.5t253 -105.5q162 0 261.5 99t133.5 290l160 906h192l-159 -910q-102 -565 -600 -565q-126 0 -225.5 39t-165 114.5t-89.5 187.5zM815 1556l272 277h216l-304 -277h-184z" />
<glyph unicode="&#xdb;" horiz-adv-x="1441" d="M184 300q-24 112 2 259l156 875h193l-156 -885q-35 -199 44 -304.5t253 -105.5q162 0 261.5 99t133.5 290l160 906h192l-159 -910q-102 -565 -600 -565q-126 0 -225.5 39t-165 114.5t-89.5 187.5zM575 1556l273 277h213l174 -277h-148l-139 189l-207 -189h-166z" />
<glyph unicode="&#xdc;" horiz-adv-x="1441" d="M184 300q-24 112 2 259l156 875h193l-156 -885q-35 -199 44 -304.5t253 -105.5q162 0 261.5 99t133.5 290l160 906h192l-159 -910q-102 -565 -600 -565q-126 0 -225.5 39t-165 114.5t-89.5 187.5zM629 1724q0 44 32.5 76.5t77.5 32.5q44 0 77.5 -32.5t33.5 -76.5 q0 -45 -33 -76.5t-78 -31.5q-46 0 -78 31t-32 77zM1018 1724q0 44 33 76.5t79 32.5q44 0 77.5 -32.5t33.5 -76.5q0 -45 -33 -76.5t-78 -31.5q-46 0 -79 31.5t-33 76.5z" />
<glyph unicode="&#xdd;" horiz-adv-x="1347" d="M176 1434h217l328 -607l536 607h240l-706 -793l-113 -641h-193l115 651zM752 1556l272 277h215l-303 -277h-184z" />
<glyph unicode="&#xde;" horiz-adv-x="1144" d="M129 0l254 1434h192l-53 -299h176q199 0 314.5 -96t115.5 -271q0 -191 -136.5 -314.5t-368.5 -123.5h-242l-59 -330h-193zM410 494h208q143 0 225.5 73t82.5 193q0 103 -62 157t-176 54h-194z" />
<glyph unicode="&#xdf;" horiz-adv-x="1159" d="M86 0l201 1137q33 182 145 290.5t301 108.5q188 0 295 -106t107 -277q0 -135 -83.5 -238.5t-217.5 -134.5q105 -37 164 -129t59 -202q0 -142 -68.5 -247.5t-181.5 -157.5t-254 -52q-79 0 -141 20l28 160q58 -16 105 -16q158 0 243.5 77.5t85.5 212.5q0 110 -67.5 182 t-179.5 72h-80l28 164h80q129 0 212 75.5t83 201.5q0 105 -57.5 168t-167.5 63q-109 0 -176 -63.5t-88 -175.5l-199 -1133h-176z" />
<glyph unicode="&#xe0;" horiz-adv-x="1116" d="M68 236q0 127 91.5 211t272.5 116l371 62l10 59q19 109 -36 171.5t-165 62.5q-164 0 -293 -146l-124 105q74 89 185.5 142.5t242.5 53.5q204 0 298 -114.5t60 -307.5l-117 -651h-172l21 113q-129 -142 -330 -142q-142 0 -228.5 70t-86.5 195zM248 254q0 -64 45.5 -101.5 t128.5 -37.5q193 0 319 168l39 211l-311 -54q-111 -18 -166 -66t-55 -120zM424 1536h188l148 -340h-162z" />
<glyph unicode="&#xe1;" horiz-adv-x="1116" d="M68 236q0 127 91.5 211t272.5 116l371 62l10 59q19 109 -36 171.5t-165 62.5q-164 0 -293 -146l-124 105q74 89 185.5 142.5t242.5 53.5q204 0 298 -114.5t60 -307.5l-117 -651h-172l21 113q-129 -142 -330 -142q-142 0 -228.5 70t-86.5 195zM248 254q0 -64 45.5 -101.5 t128.5 -37.5q193 0 319 168l39 211l-311 -54q-111 -18 -166 -66t-55 -120zM588 1196l268 340h203l-295 -340h-176z" />
<glyph unicode="&#xe2;" horiz-adv-x="1116" d="M68 236q0 127 91.5 211t272.5 116l371 62l10 59q19 109 -36 171.5t-165 62.5q-164 0 -293 -146l-124 105q74 89 185.5 142.5t242.5 53.5q204 0 298 -114.5t60 -307.5l-117 -651h-172l21 113q-129 -142 -330 -142q-142 0 -228.5 70t-86.5 195zM248 254q0 -64 45.5 -101.5 t128.5 -37.5q193 0 319 168l39 211l-311 -54q-111 -18 -166 -66t-55 -120zM350 1196l268 340h234l147 -340h-149l-123 254l-211 -254h-166z" />
<glyph unicode="&#xe3;" horiz-adv-x="1116" d="M68 236q0 127 91.5 211t272.5 116l371 62l10 59q19 109 -36 171.5t-165 62.5q-164 0 -293 -146l-124 105q74 89 185.5 142.5t242.5 53.5q204 0 298 -114.5t60 -307.5l-117 -651h-172l21 113q-129 -142 -330 -142q-142 0 -228.5 70t-86.5 195zM248 254q0 -64 45.5 -101.5 t128.5 -37.5q193 0 319 168l39 211l-311 -54q-111 -18 -166 -66t-55 -120zM328 1221l12 84q15 104 69 162.5t138 58.5q47 0 88.5 -19.5t70.5 -47t54.5 -55.5t51.5 -47.5t50 -19.5q73 0 86 84l13 90h129l-13 -86q-15 -102 -69.5 -160.5t-137.5 -58.5q-48 0 -90 19.5t-71 47 t-54.5 55.5t-52 47.5t-51.5 19.5q-33 0 -53.5 -22.5t-26.5 -61.5l-14 -90h-129z" />
<glyph unicode="&#xe4;" horiz-adv-x="1116" d="M68 236q0 127 91.5 211t272.5 116l371 62l10 59q19 109 -36 171.5t-165 62.5q-164 0 -293 -146l-124 105q74 89 185.5 142.5t242.5 53.5q204 0 298 -114.5t60 -307.5l-117 -651h-172l21 113q-129 -142 -330 -142q-142 0 -228.5 70t-86.5 195zM248 254q0 -64 45.5 -101.5 t128.5 -37.5q193 0 319 168l39 211l-311 -54q-111 -18 -166 -66t-55 -120zM408 1430q0 47 34.5 80.5t81.5 33.5q48 0 82.5 -33.5t34.5 -80.5t-35 -81t-82 -34t-81.5 34t-34.5 81zM801 1430q0 47 34.5 80.5t82.5 33.5q46 0 81 -33.5t35 -80.5t-35 -81t-81 -34q-47 0 -82 34 t-35 81z" />
<glyph unicode="&#xe5;" horiz-adv-x="1116" d="M68 236q0 127 91.5 211t272.5 116l371 62l10 59q19 109 -36 171.5t-165 62.5q-164 0 -293 -146l-124 105q74 89 185.5 142.5t242.5 53.5q204 0 298 -114.5t60 -307.5l-117 -651h-172l21 113q-129 -142 -330 -142q-142 0 -228.5 70t-86.5 195zM248 254q0 -64 45.5 -101.5 t128.5 -37.5q193 0 319 168l39 211l-311 -54q-111 -18 -166 -66t-55 -120zM461 1356q0 117 78 191.5t192 74.5q97 0 164.5 -62t67.5 -157q0 -117 -77.5 -190.5t-193.5 -73.5q-96 0 -163.5 61t-67.5 156zM580 1364q0 -54 32.5 -87.5t87.5 -33.5q66 0 106 44t40 108 q0 55 -33.5 89t-89.5 34q-64 0 -103.5 -45t-39.5 -109z" />
<glyph unicode="&#xe6;" horiz-adv-x="1847" d="M70 244q0 122 91.5 204.5t272.5 114.5l371 64l10 57q20 109 -35.5 171.5t-165.5 62.5q-161 0 -290 -146l-127 105q74 89 185.5 142.5t242.5 53.5q124 0 208 -45.5t123 -128.5q77 82 183.5 128t230.5 46q180 0 294 -109t114 -276q0 -86 -31 -174h-780q-4 -40 -4 -63 q0 -154 82.5 -244t236.5 -90q103 0 191.5 42.5t146.5 116.5l117 -112q-79 -97 -200 -151t-265 -54q-148 0 -256 60.5t-168 168.5q-181 -217 -455 -217q-142 0 -232.5 72.5t-90.5 200.5zM250 256q0 -64 45.5 -102.5t128.5 -38.5q209 0 373 217q-13 63 -13 121q0 29 2 41 l-315 -54q-221 -37 -221 -184zM997 649l607 -2q10 72 -12 134.5t-82 104.5t-148 42q-128 0 -224.5 -76.5t-140.5 -202.5z" />
<glyph unicode="&#xe7;" horiz-adv-x="1110" d="M82 453q0 124 46 237.5t126 198t195 134.5t245 50q144 0 253.5 -60t162.5 -157l-147 -113q-39 75 -112 120.5t-171 45.5q-119 0 -214.5 -64t-147.5 -168.5t-52 -225.5q0 -141 87.5 -234.5t232.5 -93.5q185 0 301 147l119 -118q-136 -165 -355 -189l-229 -291h-182 l233 297q-184 32 -287.5 164.5t-103.5 319.5z" />
<glyph unicode="&#xe8;" horiz-adv-x="1153" d="M84 453q0 169 66.5 308.5t198.5 225.5t306 86q184 0 305 -109.5t121 -275.5q0 -92 -32 -174h-783q-2 -20 -2 -63q0 -154 83.5 -244t236.5 -90q104 0 192.5 43t145.5 116l116 -112q-79 -97 -200 -151t-265 -54q-154 0 -266.5 66.5t-167.5 177t-55 250.5zM293 647h612 q10 71 -15 134.5t-88 105t-151 41.5q-136 0 -227 -76t-131 -205zM446 1536h189l147 -340h-161z" />
<glyph unicode="&#xe9;" horiz-adv-x="1153" d="M84 453q0 169 66.5 308.5t198.5 225.5t306 86q184 0 305 -109.5t121 -275.5q0 -92 -32 -174h-783q-2 -20 -2 -63q0 -154 83.5 -244t236.5 -90q104 0 192.5 43t145.5 116l116 -112q-79 -97 -200 -151t-265 -54q-154 0 -266.5 66.5t-167.5 177t-55 250.5zM293 647h612 q10 71 -15 134.5t-88 105t-151 41.5q-136 0 -227 -76t-131 -205zM610 1196l269 340h202l-295 -340h-176z" />
<glyph unicode="&#xea;" horiz-adv-x="1153" d="M84 453q0 169 66.5 308.5t198.5 225.5t306 86q184 0 305 -109.5t121 -275.5q0 -92 -32 -174h-783q-2 -20 -2 -63q0 -154 83.5 -244t236.5 -90q104 0 192.5 43t145.5 116l116 -112q-79 -97 -200 -151t-265 -54q-154 0 -266.5 66.5t-167.5 177t-55 250.5zM293 647h612 q10 71 -15 134.5t-88 105t-151 41.5q-136 0 -227 -76t-131 -205zM373 1196l268 340h233l148 -340h-150l-122 254l-211 -254h-166z" />
<glyph unicode="&#xeb;" horiz-adv-x="1153" d="M84 453q0 169 66.5 308.5t198.5 225.5t306 86q184 0 305 -109.5t121 -275.5q0 -92 -32 -174h-783q-2 -20 -2 -63q0 -154 83.5 -244t236.5 -90q104 0 192.5 43t145.5 116l116 -112q-79 -97 -200 -151t-265 -54q-154 0 -266.5 66.5t-167.5 177t-55 250.5zM293 647h612 q10 71 -15 134.5t-88 105t-151 41.5q-136 0 -227 -76t-131 -205zM430 1430q0 47 34.5 80.5t82.5 33.5t82.5 -33.5t34.5 -80.5t-35 -81t-82 -34t-82 34t-35 81zM823 1430q0 47 34.5 80.5t82.5 33.5q46 0 81.5 -33.5t35.5 -80.5t-35.5 -81t-81.5 -34q-47 0 -82 34t-35 81z" />
<glyph unicode="&#xec;" horiz-adv-x="528" d="M86 0l182 1032h174l-182 -1032h-174zM129 1536h188l148 -340h-162z" />
<glyph unicode="&#xed;" horiz-adv-x="528" d="M86 0l182 1032h174l-182 -1032h-174zM293 1196l268 340h203l-295 -340h-176z" />
<glyph unicode="&#xee;" horiz-adv-x="528" d="M55 1196l269 340h233l148 -340h-150l-123 254l-211 -254h-166zM86 0l182 1032h174l-182 -1032h-174z" />
<glyph unicode="&#xef;" horiz-adv-x="528" d="M86 0l182 1032h174l-182 -1032h-174zM113 1430q0 47 34.5 80.5t81.5 33.5q48 0 82.5 -33.5t34.5 -80.5t-35 -81t-82 -34t-81.5 34t-34.5 81zM506 1430q0 47 34.5 80.5t82.5 33.5q46 0 81 -33.5t35 -80.5t-35 -81t-81 -34q-47 0 -82 34t-35 81z" />
<glyph unicode="&#xf0;" horiz-adv-x="1255" d="M82 465q0 119 41 226.5t113.5 188.5t181 129t235.5 48q197 0 320 -133q-51 183 -191 338l-381 -117l25 141l252 78q-114 96 -240 172h240q98 -59 168 -121l391 119l-25 -141l-264 -80q238 -274 238 -668q0 -153 -45.5 -282t-124.5 -217.5t-187 -137.5t-231 -49 q-237 0 -376.5 139t-139.5 367zM268 465q0 -155 91 -248.5t241 -93.5q178 0 293 149t115 387v23q-46 89 -137 149t-207 60q-182 0 -289 -122.5t-107 -303.5z" />
<glyph unicode="&#xf1;" horiz-adv-x="1232" d="M86 0l182 1032h174l-18 -108q149 149 338 149q184 0 276.5 -117t55.5 -331l-111 -625h-174l111 618q24 137 -32.5 214t-176.5 77q-97 0 -180.5 -51.5t-143.5 -142.5l-127 -715h-174zM385 1221l12 84q15 104 69 162.5t138 58.5q47 0 88.5 -19.5t71 -47t55 -55.5 t51.5 -47.5t50 -19.5q73 0 86 84l12 90h129l-12 -86q-15 -102 -69.5 -160.5t-137.5 -58.5q-48 0 -90 19.5t-71.5 47t-55 55.5t-52 47.5t-51.5 19.5q-33 0 -53.5 -22.5t-26.5 -61.5l-14 -90h-129z" />
<glyph unicode="&#xf2;" horiz-adv-x="1267" d="M82 453q0 122 44.5 234.5t122.5 198t194 136.5t251 51q227 0 360.5 -140t133.5 -353q0 -122 -44.5 -234.5t-122 -198t-193 -137t-248.5 -51.5q-152 0 -266.5 66t-173 177.5t-58.5 250.5zM266 451q0 -140 88 -234t228 -94q122 0 220 64.5t150 169t52 225.5 q0 140 -88 233.5t-228 93.5q-122 0 -220 -64t-150 -168.5t-52 -225.5zM500 1536h188l148 -340h-162z" />
<glyph unicode="&#xf3;" horiz-adv-x="1267" d="M82 453q0 122 44.5 234.5t122.5 198t194 136.5t251 51q227 0 360.5 -140t133.5 -353q0 -122 -44.5 -234.5t-122 -198t-193 -137t-248.5 -51.5q-152 0 -266.5 66t-173 177.5t-58.5 250.5zM266 451q0 -140 88 -234t228 -94q122 0 220 64.5t150 169t52 225.5 q0 140 -88 233.5t-228 93.5q-122 0 -220 -64t-150 -168.5t-52 -225.5zM664 1196l268 340h203l-295 -340h-176z" />
<glyph unicode="&#xf4;" horiz-adv-x="1267" d="M82 453q0 122 44.5 234.5t122.5 198t194 136.5t251 51q227 0 360.5 -140t133.5 -353q0 -122 -44.5 -234.5t-122 -198t-193 -137t-248.5 -51.5q-152 0 -266.5 66t-173 177.5t-58.5 250.5zM266 451q0 -140 88 -234t228 -94q122 0 220 64.5t150 169t52 225.5 q0 140 -88 233.5t-228 93.5q-122 0 -220 -64t-150 -168.5t-52 -225.5zM426 1196l268 340h234l147 -340h-149l-123 254l-211 -254h-166z" />
<glyph unicode="&#xf5;" horiz-adv-x="1267" d="M82 453q0 122 44.5 234.5t122.5 198t194 136.5t251 51q227 0 360.5 -140t133.5 -353q0 -122 -44.5 -234.5t-122 -198t-193 -137t-248.5 -51.5q-152 0 -266.5 66t-173 177.5t-58.5 250.5zM266 451q0 -140 88 -234t228 -94q122 0 220 64.5t150 169t52 225.5 q0 140 -88 233.5t-228 93.5q-122 0 -220 -64t-150 -168.5t-52 -225.5zM403 1221l13 84q15 104 69 162.5t138 58.5q47 0 88.5 -19.5t70.5 -47t54.5 -55.5t51.5 -47.5t50 -19.5q73 0 86 84l12 90h129l-12 -86q-15 -102 -69.5 -160.5t-137.5 -58.5q-48 0 -90 19.5t-71 47 t-54.5 55.5t-52 47.5t-51.5 19.5q-33 0 -53.5 -22.5t-26.5 -61.5l-15 -90h-129z" />
<glyph unicode="&#xf6;" horiz-adv-x="1267" d="M82 453q0 122 44.5 234.5t122.5 198t194 136.5t251 51q227 0 360.5 -140t133.5 -353q0 -122 -44.5 -234.5t-122 -198t-193 -137t-248.5 -51.5q-152 0 -266.5 66t-173 177.5t-58.5 250.5zM266 451q0 -140 88 -234t228 -94q122 0 220 64.5t150 169t52 225.5 q0 140 -88 233.5t-228 93.5q-122 0 -220 -64t-150 -168.5t-52 -225.5zM483 1430q0 47 34.5 80.5t82.5 33.5t82.5 -33.5t34.5 -80.5t-35 -81t-82 -34t-82 34t-35 81zM877 1430q0 47 34.5 80.5t81.5 33.5q46 0 81.5 -33.5t35.5 -80.5t-35.5 -81t-81.5 -34q-47 0 -81.5 34 t-34.5 81z" />
<glyph unicode="&#xf7;" d="M100 440l29 152h999l-26 -152h-1002zM428 78q0 44 33 76t78 32q44 0 76 -32t32 -76t-32 -76.5t-76 -32.5t-77.5 32.5t-33.5 76.5zM582 952q0 44 32 76.5t76 32.5q46 0 78.5 -32.5t32.5 -76.5t-32.5 -76t-78.5 -32q-44 0 -76 32t-32 76z" />
<glyph unicode="&#xf8;" horiz-adv-x="1269" d="M-4 -41l180 186q-94 129 -94 308q0 122 44.5 234.5t122.5 198t194 136.5t251 51q183 0 310 -94l92 94h180l-182 -186q94 -129 94 -307q0 -122 -44.5 -234.5t-122 -198t-193 -137t-248.5 -51.5q-185 0 -312 94l-92 -94h-180zM266 451q0 -98 45 -177l563 578 q-79 57 -186 57q-122 0 -220 -64t-150 -168.5t-52 -225.5zM397 178q80 -55 185 -55q122 0 220 64.5t150 169t52 225.5q0 101 -43 174z" />
<glyph unicode="&#xf9;" horiz-adv-x="1200" d="M145 459l103 573h174l-105 -590q-27 -152 36.5 -235.5t201.5 -83.5q121 0 198 81.5t105 237.5l105 590h176l-107 -592q-40 -234 -163 -357.5t-326 -123.5q-219 0 -328.5 131.5t-69.5 368.5zM465 1536h188l148 -340h-162z" />
<glyph unicode="&#xfa;" horiz-adv-x="1200" d="M145 459l103 573h174l-105 -590q-27 -152 36.5 -235.5t201.5 -83.5q121 0 198 81.5t105 237.5l105 590h176l-107 -592q-40 -234 -163 -357.5t-326 -123.5q-219 0 -328.5 131.5t-69.5 368.5zM629 1196l268 340h203l-295 -340h-176z" />
<glyph unicode="&#xfb;" horiz-adv-x="1200" d="M145 459l103 573h174l-105 -590q-27 -152 36.5 -235.5t201.5 -83.5q121 0 198 81.5t105 237.5l105 590h176l-107 -592q-40 -234 -163 -357.5t-326 -123.5q-219 0 -328.5 131.5t-69.5 368.5zM391 1196l268 340h234l147 -340h-149l-123 254l-211 -254h-166z" />
<glyph unicode="&#xfc;" horiz-adv-x="1200" d="M145 459l103 573h174l-105 -590q-27 -152 36.5 -235.5t201.5 -83.5q121 0 198 81.5t105 237.5l105 590h176l-107 -592q-40 -234 -163 -357.5t-326 -123.5q-219 0 -328.5 131.5t-69.5 368.5zM449 1430q0 47 34.5 80.5t81.5 33.5q48 0 82.5 -33.5t34.5 -80.5t-35 -81 t-82 -34t-81.5 34t-34.5 81zM842 1430q0 47 34.5 80.5t81.5 33.5q46 0 81.5 -33.5t35.5 -80.5t-35.5 -81t-81.5 -34q-47 0 -81.5 34t-34.5 81z" />
<glyph unicode="&#xfd;" horiz-adv-x="1091" d="M-152 -471l27 154q65 -35 141 -35q69 0 127 38t111 128l111 188l-246 1030h184l186 -813l474 813h192l-749 -1282q-80 -139 -166.5 -200.5t-204.5 -61.5q-122 0 -187 41zM573 1196l269 340h202l-294 -340h-177z" />
<glyph unicode="&#xfe;" horiz-adv-x="1310" d="M-2 -504l358 2040h174l-104 -596q148 133 336 133q216 0 341.5 -137t125.5 -356q0 -124 -42.5 -237t-117.5 -198t-184 -135.5t-234 -50.5q-115 0 -210.5 44t-157.5 126l-111 -633h-174zM319 334q43 -100 126 -155.5t194 -55.5q177 0 291 131.5t114 325.5q0 144 -87 236.5 t-236 92.5q-96 0 -182.5 -44t-149.5 -130z" />
<glyph unicode="&#xff;" horiz-adv-x="1091" d="M-152 -471l27 154q65 -35 141 -35q69 0 127 38t111 128l111 188l-246 1030h184l186 -813l474 813h192l-749 -1282q-80 -139 -166.5 -200.5t-204.5 -61.5q-122 0 -187 41zM393 1430q0 47 34.5 80.5t82.5 33.5t82.5 -33.5t34.5 -80.5t-35 -81t-82 -34t-82 34t-35 81z M786 1430q0 47 34.5 80.5t82.5 33.5q46 0 81.5 -33.5t35.5 -80.5t-35.5 -81t-81.5 -34q-47 0 -82 34t-35 81z" />
<glyph unicode="&#x152;" horiz-adv-x="2076" d="M127 643q0 164 60.5 308.5t169.5 251.5t270.5 169t353.5 62h1108l-29 -164h-559l-80 -459h480l-29 -162h-479l-86 -485h559l-29 -164h-989q-328 0 -524.5 174.5t-196.5 468.5zM328 651q0 -222 139.5 -354.5t380.5 -132.5h266l195 1106h-328q-147 0 -271.5 -50 t-207 -134.5t-128.5 -197t-46 -237.5z" />
<glyph unicode="&#x153;" horiz-adv-x="2050" d="M80 453q0 121 45.5 234t124.5 198.5t193.5 136.5t244.5 51q147 0 256 -65t168 -177q76 112 195 177t264 65q184 0 296.5 -108.5t112.5 -276.5q0 -89 -30 -174h-783q-4 -40 -4 -63q0 -154 84 -244t238 -90q103 0 191.5 42.5t146.5 116.5l116 -112q-80 -96 -198 -150.5 t-260 -54.5q-154 0 -263.5 66t-166.5 182q-82 -114 -206.5 -181t-273.5 -67q-150 0 -263 66.5t-170.5 177.5t-57.5 250zM264 451q0 -141 86.5 -234.5t229.5 -93.5q120 0 217.5 64.5t149.5 169t52 225.5q0 141 -85.5 234t-227.5 93q-120 0 -218 -64t-151 -168.5t-53 -225.5z M1198 649l608 -2q10 72 -12 134.5t-81.5 104.5t-147.5 42q-130 0 -226.5 -76.5t-140.5 -202.5z" />
<glyph unicode="&#x178;" horiz-adv-x="1347" d="M176 1434h217l328 -607l536 607h240l-706 -793l-113 -641h-193l115 651zM565 1724q0 44 32.5 76.5t78.5 32.5q44 0 77 -32.5t33 -76.5q0 -45 -32.5 -76.5t-77.5 -31.5q-46 0 -78.5 31.5t-32.5 76.5zM954 1724q0 44 33.5 76.5t79.5 32.5q44 0 77.5 -32.5t33.5 -76.5 q0 -45 -33 -76.5t-78 -31.5q-46 0 -79.5 31.5t-33.5 76.5z" />
<glyph unicode="&#x2c6;" horiz-adv-x="688" d="M139 1196l269 340h233l147 -340h-149l-123 254l-211 -254h-166z" />
<glyph unicode="&#x2dc;" horiz-adv-x="688" d="M115 1221l12 84q15 104 69 162.5t138 58.5q47 0 88.5 -19.5t70.5 -47t54.5 -55.5t51.5 -47.5t50 -19.5q73 0 86 84l13 90h129l-13 -86q-15 -102 -69.5 -160.5t-137.5 -58.5q-48 0 -90 19.5t-71 47t-54.5 55.5t-52 47.5t-51.5 19.5q-33 0 -53.5 -22.5t-26.5 -61.5l-14 -90 h-129z" />
<glyph unicode="&#x2000;" horiz-adv-x="989" />
<glyph unicode="&#x2001;" horiz-adv-x="1978" />
<glyph unicode="&#x2002;" horiz-adv-x="989" />
<glyph unicode="&#x2003;" horiz-adv-x="1978" />
<glyph unicode="&#x2004;" horiz-adv-x="659" />
<glyph unicode="&#x2005;" horiz-adv-x="494" />
<glyph unicode="&#x2006;" horiz-adv-x="329" />
<glyph unicode="&#x2007;" horiz-adv-x="329" />
<glyph unicode="&#x2008;" horiz-adv-x="247" />
<glyph unicode="&#x2009;" horiz-adv-x="395" />
<glyph unicode="&#x200a;" horiz-adv-x="109" />
<glyph unicode="&#x2010;" horiz-adv-x="616" d="M27 440l30 168h537l-31 -168h-536z" />
<glyph unicode="&#x2011;" horiz-adv-x="616" d="M27 440l30 168h537l-31 -168h-536z" />
<glyph unicode="&#x2012;" horiz-adv-x="616" d="M27 440l30 168h537l-31 -168h-536z" />
<glyph unicode="&#x2013;" horiz-adv-x="1073" d="M31 449l26 151h990l-27 -151h-989z" />
<glyph unicode="&#x2014;" horiz-adv-x="2146" d="M31 449l26 151h2063l-27 -151h-2062z" />
<glyph unicode="&#x2018;" horiz-adv-x="552" d="M154 885l303 549h168l-265 -549h-206z" />
<glyph unicode="&#x2019;" horiz-adv-x="552" d="M156 885l264 549h207l-303 -549h-168z" />
<glyph unicode="&#x201a;" horiz-adv-x="555" d="M-59 -328l264 543h207l-301 -543h-170z" />
<glyph unicode="&#x201c;" horiz-adv-x="948" d="M154 885l303 549h168l-265 -549h-206zM549 885l303 549h168l-264 -549h-207z" />
<glyph unicode="&#x201d;" horiz-adv-x="948" d="M156 885l264 549h207l-303 -549h-168zM551 885l264 549h207l-303 -549h-168z" />
<glyph unicode="&#x201e;" horiz-adv-x="948" d="M-59 -328l264 543h207l-301 -543h-170zM336 -328l264 543h207l-301 -543h-170z" />
<glyph unicode="&#x2022;" horiz-adv-x="706" d="M92 530q0 105 78 179.5t190 74.5t188.5 -74.5t76.5 -179.5q0 -108 -76.5 -185t-188.5 -77t-190 77t-78 185z" />
<glyph unicode="&#x2026;" horiz-adv-x="1406" d="M66 106q0 54 39 93t94 39t93 -39t38 -93t-38 -91.5t-93 -37.5q-56 0 -94.5 37.5t-38.5 91.5zM500 106q0 54 39 93t94 39t93 -39t38 -93t-38 -91.5t-93 -37.5q-56 0 -94.5 37.5t-38.5 91.5zM934 106q0 54 39 93t94 39t93 -39t38 -93t-38 -91.5t-93 -37.5q-56 0 -94.5 37.5 t-38.5 91.5z" />
<glyph unicode="&#x202f;" horiz-adv-x="395" />
<glyph unicode="&#x2039;" horiz-adv-x="651" d="M96 508l336 410h201l-346 -429l178 -391h-176z" />
<glyph unicode="&#x203a;" horiz-adv-x="651" d="M14 98l348 430l-180 390h178l191 -410l-336 -410h-201z" />
<glyph unicode="&#x205f;" horiz-adv-x="494" />
<glyph unicode="&#x20ac;" d="M53 475l27 152h168q0 3 1 9t1 9q12 104 22 152h-161l26 151h174q76 246 225 386.5t357 140.5q259 0 381 -218l-150 -100q-37 74 -93 114t-146 40q-122 0 -218 -97t-157 -266h549l-27 -151h-567q-16 -64 -29 -152q0 -3 -1 -9t-1 -9h570l-27 -152h-551q3 -352 258 -352 q156 0 285 153l123 -114q-180 -203 -424 -203q-199 0 -312 129.5t-116 386.5h-187z" />
<glyph unicode="&#x2122;" horiz-adv-x="1900" d="M201 1305l22 129h692l-24 -129h-273l-133 -754h-143l133 754h-274zM924 551l155 883h176l160 -408l309 408h187l-156 -883h-143l123 684l-289 -381h-105l-153 381l-121 -684h-143z" />
<glyph unicode="&#x25fc;" horiz-adv-x="1034" d="M0 0v1034h1034v-1034h-1034z" />
</font>
</defs>
</svg>
