<?xml version="1.0" standalone="no"?>
<!DOCTYPE svg PUBLIC "-//W3C//DTD SVG 1.1//EN" "http://www.w3.org/Graphics/SVG/1.1/DTD/svg11.dtd" >
<svg xmlns="http://www.w3.org/2000/svg" xmlns:xlink="http://www.w3.org/1999/xlink" version="1.1">
<metadata></metadata>
<defs>
<font id="mariannethin_italic" horiz-adv-x="1228" >
<font-face units-per-em="2048" ascent="1536" descent="-512" />
<missing-glyph horiz-adv-x="552" />
<glyph horiz-adv-x="0" />
<glyph horiz-adv-x="682" />
<glyph unicode=" "  horiz-adv-x="552" />
<glyph unicode="&#x09;" horiz-adv-x="552" />
<glyph unicode="&#xa0;" horiz-adv-x="552" />
<glyph unicode="!" horiz-adv-x="538" d="M117 49q0 31 19.5 50.5t51.5 19.5t52 -19.5t20 -50.5t-20 -50t-52 -19t-51.5 19t-19.5 50zM213 362l182 1072h74l-197 -1072h-59z" />
<glyph unicode="&#x22;" horiz-adv-x="874" d="M324 934l75 500h80l-100 -500h-55zM645 934l76 500h80l-101 -500h-55z" />
<glyph unicode="#" horiz-adv-x="1232" d="M20 403l13 64h207l221 500h-340l10 63h358l179 404h71l-178 -404h463l178 404h70l-178 -404h190l-10 -63h-209l-219 -500h340l-12 -64h-357l-178 -403h-72l178 403h-462l-179 -403h-71l178 403h-191zM311 467h463l221 500h-463z" />
<glyph unicode="$" d="M104 231l60 41q116 -179 325 -204l115 655q-62 36 -101.5 64.5t-82 72.5t-63.5 100t-21 125q0 148 110.5 248.5t284.5 100.5l25 143h69l-26 -145q119 -13 202 -73t125 -145l-59 -34q-37 76 -108 126t-171 60l-108 -610q59 -34 91 -54t79 -58t71.5 -73t43 -87.5 t18.5 -112.5q0 -162 -115.5 -266.5t-320.5 -104.5l-25 -143h-69l26 147q-246 24 -375 227zM408 1085q0 -99 54 -164.5t156 -127.5l101 575q-145 -7 -228 -87t-83 -196zM559 66q172 3 262 85.5t90 219.5q0 57 -18.5 104.5t-56.5 86t-74 64.5t-94 60z" />
<glyph unicode="%" horiz-adv-x="1683" d="M190 1092q0 155 107.5 269t267.5 114q137 0 217 -86t80 -215q0 -101 -47.5 -189.5t-134.5 -142.5t-193 -54q-137 0 -217 87.5t-80 216.5zM195 0l1265 1434h84l-1268 -1434h-81zM256 1090q0 -103 63.5 -172.5t169.5 -69.5q131 0 219.5 97t88.5 229q0 102 -64.5 171.5 t-169.5 69.5q-131 0 -219 -96t-88 -229zM895 260q0 155 107.5 269t267.5 114q137 0 217 -86t80 -215q0 -101 -47.5 -189t-134.5 -142t-193 -54q-137 0 -217 87t-80 216zM961 258q0 -103 63.5 -172.5t169.5 -69.5q131 0 219 97t88 229q0 103 -64 172.5t-169 69.5 q-131 0 -219 -96.5t-88 -229.5z" />
<glyph unicode="&#x26;" horiz-adv-x="1490" d="M133 338q0 164 101 275.5t313 183.5q-81 102 -118.5 177.5t-37.5 160.5q0 143 100 241.5t252 98.5q146 0 235 -87t89 -221q0 -138 -116.5 -243t-293.5 -154q16 -16 19 -20l371 -445q122 166 239 463h76q-133 -332 -272 -516l210 -252h-88l-165 199q-205 -238 -484 -238 q-191 0 -310.5 105t-119.5 272zM207 338q0 -137 101.5 -225t254.5 -88q251 0 441 225l-396 473q-3 4 -10 12.5t-10 12.5q-381 -128 -381 -410zM465 1135q0 -77 35 -144.5t118 -171.5q171 45 274 137.5t103 210.5q0 103 -67 171.5t-185 68.5q-127 0 -202.5 -76.5 t-75.5 -195.5z" />
<glyph unicode="'" horiz-adv-x="555" d="M324 934l75 500h80l-100 -500h-55z" />
<glyph unicode="(" horiz-adv-x="538" d="M43 381q0 684 590 1155l47 -45q-287 -234 -425 -516.5t-138 -591.5q0 -242 63 -420t187 -336l-60 -37q-124 153 -194 342.5t-70 448.5z" />
<glyph unicode=")" horiz-adv-x="538" d="M-127 -365q287 234 425 516.5t138 591.5q0 242 -63 420t-187 336l60 37q124 -153 194 -342.5t70 -448.5q0 -681 -590 -1155z" />
<glyph unicode="*" horiz-adv-x="757" d="M158 1159l24 58l279 -109l47 326h70l-68 -324l313 109l8 -64l-319 -92l152 -256l-62 -37l-127 266l-223 -266l-51 41l235 254z" />
<glyph unicode="+" d="M109 485l12 64h467l86 483h63l-86 -483h471l-12 -64h-469l-86 -485h-63l86 485h-469z" />
<glyph unicode="," horiz-adv-x="552" d="M10 -328l234 455h86l-254 -455h-66z" />
<glyph unicode="-" horiz-adv-x="616" d="M37 494l10 63h537l-11 -63h-536z" />
<glyph unicode="." horiz-adv-x="552" d="M125 49q0 31 20 50.5t52 19.5t51.5 -19.5t19.5 -50.5t-19.5 -50t-51.5 -19t-52 19t-20 50z" />
<glyph unicode="/" horiz-adv-x="659" d="M-125 -403l858 1939h70l-858 -1939h-70z" />
<glyph unicode="0" d="M127 539q0 184 43 352t120.5 298.5t197 208t262.5 77.5q138 0 233.5 -75t140.5 -203.5t45 -301.5q0 -146 -26.5 -284t-79.5 -256t-127 -206.5t-174 -139t-215 -50.5q-138 0 -234 75t-141 203.5t-45 301.5zM199 537q0 -231 88 -370.5t260 -139.5q126 0 231.5 73t174.5 195 t107 278t38 324q0 231 -88 370.5t-260 139.5q-126 0 -231.5 -73t-174.5 -195t-107 -278t-38 -324z" />
<glyph unicode="1" horiz-adv-x="917" d="M137 1167l539 267h80l-252 -1434h-68l240 1360l-504 -250z" />
<glyph unicode="2" d="M88 0l12 63l586 521q160 141 237 223.5t113.5 157t36.5 161.5q0 125 -86 204t-215 79q-112 0 -203.5 -49t-177.5 -172l-57 39q171 248 438 248q160 0 266.5 -100t106.5 -247q0 -60 -16 -114t-43 -102.5t-81.5 -109.5t-113 -117t-156.5 -144l-538 -478h794l-12 -63h-891z " />
<glyph unicode="3" d="M94 209l64 37q141 -221 417 -221q193 0 303.5 106t110.5 260q0 151 -96.5 246.5t-296.5 95.5h-162l12 64h207q184 0 287.5 92.5t103.5 236.5q0 124 -81.5 203.5t-200.5 79.5q-115 0 -203 -48.5t-174 -172.5l-57 39q85 124 189 186t245 62q150 0 252 -100t102 -247 q0 -127 -80.5 -229.5t-236.5 -140.5q262 -90 262 -363q0 -88 -32 -166.5t-91.5 -139t-152.5 -95.5t-207 -35q-331 0 -484 250z" />
<glyph unicode="4" d="M96 455l10 63l883 916h103l-162 -916h184l-10 -63h-184l-80 -455h-68l80 455h-756zM195 518h667l150 846z" />
<glyph unicode="5" d="M90 209l64 37q141 -221 417 -221q193 0 303.5 106t110.5 260q0 153 -96.5 249.5t-296.5 96.5h-297l164 697h686l-10 -64h-621l-133 -569h211q123 0 215.5 -33t145.5 -91t78.5 -128.5t25.5 -153.5q0 -88 -32 -166.5t-92 -139t-153 -95.5t-207 -35q-330 0 -483 250z" />
<glyph unicode="6" d="M141 528q0 114 18 227t52 219t89 196.5t124 159t162 107t198 38.5q141 0 250 -63.5t162 -172.5l-63 -37q-43 97 -140 152t-209 55q-99 0 -186 -42t-151 -114.5t-112.5 -170t-77 -207t-38.5 -226.5q79 98 190 156.5t246 58.5q185 0 297.5 -108t112.5 -297 q0 -220 -136 -360t-351 -140q-90 0 -168 34.5t-138.5 102.5t-95.5 179t-35 253zM213 528q0 -128 30 -226.5t81.5 -157.5t116 -89t137.5 -30q188 0 301.5 124.5t113.5 307.5q0 159 -94 250.5t-242 91.5q-260 0 -444 -250v-21z" />
<glyph unicode="7" d="M147 0l1020 1370h-843l10 64h923l-10 -64l-1016 -1370h-84z" />
<glyph unicode="8" d="M106 365q0 71 24 141t71 132t124.5 107.5t174.5 61.5q-94 38 -142.5 112.5t-48.5 174.5q0 66 28.5 133t80.5 122.5t134 90.5t179 35q181 0 289 -93t108 -241q0 -121 -79 -224t-226 -135q125 -44 190.5 -138t65.5 -222q0 -83 -30.5 -163t-89.5 -148t-158 -110t-223 -42 q-227 0 -349.5 111t-122.5 295zM178 365q0 -157 102.5 -248.5t297.5 -91.5q107 0 191.5 34t135.5 91t77 126.5t26 145.5q0 157 -102.5 248.5t-297.5 91.5q-107 0 -191.5 -34t-135.5 -91t-77 -126.5t-26 -145.5zM383 1094q0 -126 83 -199.5t241 -73.5q87 0 156 27.5 t110.5 73.5t62.5 102t21 117q0 119 -89.5 193.5t-236.5 74.5q-156 0 -252 -95t-96 -220z" />
<glyph unicode="9" d="M92 195l64 36q43 -97 139 -151.5t209 -54.5q100 0 187 42t150.5 114t112.5 169.5t77 206.5t38 227q-79 -98 -190 -156.5t-246 -58.5q-185 0 -297.5 108.5t-112.5 297.5q0 220 136.5 360t351.5 140q90 0 168 -35t138.5 -103t95 -179t34.5 -253q0 -138 -24.5 -271.5 t-77 -256t-127 -215.5t-181.5 -148t-233 -55q-141 0 -250 63.5t-162 172.5zM295 977q0 -159 93 -250.5t243 -91.5q260 0 444 250v20q0 128 -29.5 226.5t-80.5 158t-115.5 89.5t-138.5 30q-189 0 -302.5 -124.5t-113.5 -307.5z" />
<glyph unicode=":" horiz-adv-x="552" d="M125 49q0 31 20 50.5t52 19.5t51.5 -19.5t19.5 -50.5t-19.5 -50t-51.5 -19t-52 19t-20 50zM289 983q0 31 19.5 50.5t51.5 19.5t52 -19.5t20 -50.5t-20 -50.5t-52 -19.5t-51.5 19.5t-19.5 50.5z" />
<glyph unicode=";" horiz-adv-x="552" d="M10 -328l234 455h86l-254 -455h-66zM289 983q0 31 19.5 50.5t51.5 19.5t52 -19.5t20 -50.5t-20 -50.5t-52 -19.5t-51.5 19.5t-19.5 50.5z" />
<glyph unicode="&#x3c;" d="M109 479l12 74l1085 479l-12 -74l-1012 -446l854 -446l-12 -66z" />
<glyph unicode="=" d="M70 260l10 64h1001l-10 -64h-1001zM150 711l10 63h1001l-10 -63h-1001z" />
<glyph unicode="&#x3e;" d="M25 0l12 74l1010 446l-854 447l12 65l917 -479l-12 -74z" />
<glyph unicode="?" horiz-adv-x="991" d="M225 1282q77 98 179 145.5t214 47.5q186 0 296 -109.5t110 -269.5q0 -199 -150.5 -320t-416.5 -149l-54 -265h-59l39 316q270 19 419.5 123t149.5 295q0 134 -88.5 226.5t-242.5 92.5q-205 0 -340 -172zM250 49q0 31 20 50.5t52 19.5t51.5 -19.5t19.5 -50.5t-19.5 -50 t-51.5 -19t-52 19t-20 50z" />
<glyph unicode="@" horiz-adv-x="1681" d="M106 463q0 219 105 405t288 295t402 109q144 0 271.5 -48.5t218.5 -131.5t143.5 -198.5t52.5 -244.5q0 -213 -99 -351t-231 -138q-74 0 -121.5 37t-54.5 102q-51 -68 -123 -103.5t-147 -35.5q-139 0 -224 87.5t-85 215.5q0 170 105.5 285.5t266.5 115.5q88 0 157.5 -39 t105.5 -110l22 125h70l-84 -480q-11 -63 18 -101t94 -38q108 0 184.5 121t76.5 305q0 156 -81.5 286t-223.5 204.5t-312 74.5q-151 0 -286.5 -60.5t-231 -162t-151.5 -239t-56 -285.5q0 -142 54.5 -265.5t144 -206.5t205.5 -130t239 -47q183 0 317 55.5t244 177.5l41 -49 q-122 -128 -265.5 -186t-336.5 -58q-145 0 -275.5 52t-227 143.5t-153.5 224.5t-57 287zM573 463q0 -104 64 -173t176 -69q74 0 143 35.5t119 103.5l49 281q-35 75 -99 118.5t-148 43.5q-132 0 -218 -96t-86 -244z" />
<glyph unicode="A" horiz-adv-x="1445" d="M-8 0l844 1434h100l338 -1434h-70l-112 481h-740l-282 -481h-78zM391 547h686l-194 837z" />
<glyph unicode="B" horiz-adv-x="1103" d="M150 0l253 1434h207q184 0 282.5 -84.5t98.5 -231.5q0 -127 -75 -222.5t-207 -131.5q124 -34 186.5 -123t62.5 -205q0 -196 -143 -316t-373 -120h-292zM231 66h213q199 0 319 101t120 267q0 132 -83.5 214.5t-234.5 82.5h-217zM360 797h193q164 0 264.5 90.5t100.5 230.5 q0 120 -80.5 185t-227.5 65h-149z" />
<glyph unicode="C" horiz-adv-x="1546" d="M143 625q0 168 60 322.5t164.5 271t258.5 186.5t330 70q181 0 331.5 -85t223.5 -221l-61 -39q-63 125 -199.5 202t-294.5 77q-157 0 -296 -64.5t-235.5 -172t-152 -251t-55.5 -298.5q0 -162 72 -298t205 -218t299 -82q178 0 310.5 64t244.5 194l51 -50 q-118 -137 -265.5 -205.5t-338.5 -68.5q-190 0 -340.5 91t-231 242.5t-80.5 332.5z" />
<glyph unicode="D" horiz-adv-x="1603" d="M150 0l253 1434h449q156 0 283.5 -46t214 -129t133.5 -199t47 -255q0 -125 -37 -243.5t-111.5 -220t-177 -178t-242 -120t-298.5 -43.5h-514zM231 66h433q180 0 331.5 61.5t251 164.5t154.5 235t55 276q0 253 -164 409t-440 156h-391z" />
<glyph unicode="E" horiz-adv-x="1069" d="M150 0l253 1434h668l-10 -66h-600l-107 -606h520l-12 -64h-520l-111 -632h598l-10 -66h-669z" />
<glyph unicode="F" horiz-adv-x="989" d="M150 0l253 1434h668l-10 -66h-600l-107 -606h520l-12 -64h-520l-123 -698h-69z" />
<glyph unicode="G" horiz-adv-x="1642" d="M143 625q0 168 60.5 322.5t167 271t262.5 186.5t336 70q195 0 341.5 -82t221.5 -219l-62 -39q-64 126 -197 200t-304 74q-160 0 -301 -64.5t-239 -171.5t-155 -251t-57 -299q0 -162 72 -298t205 -218t299 -82q309 0 550 223l80 450h-460l10 64h532l-98 -551 q-259 -252 -612 -252q-190 0 -340.5 91t-231 242.5t-80.5 332.5z" />
<glyph unicode="H" horiz-adv-x="1638" d="M150 0l253 1434h70l-119 -672h1020l119 672h70l-254 -1434h-70l123 698h-1020l-123 -698h-69z" />
<glyph unicode="I" horiz-adv-x="548" d="M150 0l253 1434h70l-254 -1434h-69z" />
<glyph unicode="J" horiz-adv-x="575" d="M-225 -285l12 62q54 -21 123 -21q56 0 97 12t77.5 42.5t61.5 88t40 142.5l246 1393h70l-244 -1393q-34 -191 -119 -269.5t-229 -78.5q-87 0 -135 22z" />
<glyph unicode="K" horiz-adv-x="1366" d="M150 0l253 1434h70l-147 -830l1007 830h99l-701 -580l486 -854h-87l-452 811l-369 -305l-90 -506h-69z" />
<glyph unicode="L" horiz-adv-x="989" d="M150 0l253 1434h70l-242 -1368h598l-10 -66h-669z" />
<glyph unicode="M" horiz-adv-x="1736" d="M150 0l253 1434h95l376 -873l685 873h102l-252 -1434h-70l238 1350l-674 -858h-74l-370 860l-240 -1352h-69z" />
<glyph unicode="N" horiz-adv-x="1638" d="M150 0l253 1434h93l755 -1362l242 1362h70l-254 -1434h-95l-755 1358l-240 -1358h-69z" />
<glyph unicode="O" horiz-adv-x="1681" d="M145 625q0 168 60 322.5t164.5 271t258.5 186.5t330 70q190 0 340.5 -91t231 -242.5t80.5 -332.5q0 -168 -60 -322.5t-164.5 -271t-258.5 -186.5t-330 -70q-190 0 -340.5 91t-231 242.5t-80.5 332.5zM219 623q0 -162 72 -298t205 -218t299 -82q210 0 381.5 109.5 t265.5 289t94 387.5q0 121 -42.5 230t-117.5 190.5t-184 129.5t-234 48q-157 0 -296 -64.5t-235.5 -172t-152 -251t-55.5 -298.5z" />
<glyph unicode="P" horiz-adv-x="1064" d="M150 0l253 1434h293q180 0 284.5 -86.5t104.5 -245.5q0 -185 -131 -298.5t-354 -113.5h-258l-123 -690h-69zM352 756h248q193 0 302.5 93.5t109.5 250.5q0 134 -82 201t-234 67h-235z" />
<glyph unicode="Q" horiz-adv-x="1681" d="M145 625q0 168 60 322.5t164.5 271t258.5 186.5t330 70q190 0 340.5 -91t231 -242.5t80.5 -332.5q0 -252 -128 -463.5t-345 -312.5l127 -123q77 -75 156.5 -112.5t144.5 -37.5q58 0 102 13l-12 -68q-35 -12 -90 -12q-188 0 -348 155l-160 152q-121 -41 -260 -41 q-190 0 -340.5 91t-231 242.5t-80.5 332.5zM219 623q0 -162 72 -298t205 -218t299 -82q210 0 381.5 109.5t265.5 289t94 387.5q0 121 -42.5 230t-117.5 190.5t-184 129.5t-234 48q-157 0 -296 -64.5t-235.5 -172t-152 -251t-55.5 -298.5z" />
<glyph unicode="R" horiz-adv-x="1204" d="M150 0l253 1434h254q183 0 286.5 -86t103.5 -246q0 -148 -88 -253t-242 -140l354 -709h-84l-340 694q-54 -4 -86 -4h-219l-123 -690h-69zM352 756h209q193 0 302.5 93.5t109.5 250.5q0 134 -82 201t-234 67h-196z" />
<glyph unicode="S" horiz-adv-x="1167" d="M111 190l59 41q133 -204 362 -204q160 0 256.5 95t96.5 232q0 72 -30 132.5t-77.5 104t-105.5 84t-115.5 82.5t-105 89t-77.5 113.5t-30 146.5q0 153 115.5 261t279.5 108q266 0 363 -220l-62 -36q-78 188 -301 188q-135 0 -229 -88.5t-94 -212.5q0 -71 30 -131 t77.5 -103t105 -83.5t115 -82.5t105 -89.5t77.5 -114.5t30 -148q0 -169 -118 -282t-306 -113q-276 0 -421 231z" />
<glyph unicode="T" horiz-adv-x="1230" d="M231 1368l11 66h1069l-11 -66h-501l-240 -1368h-70l240 1368h-498z" />
<glyph unicode="U" horiz-adv-x="1421" d="M205 549l157 885h70l-153 -881q-14 -81 -14 -150q0 -153 69 -245q100 -134 321 -133q202 0 329 124t169 371l160 914h69l-161 -918q-99 -557 -564 -557q-251 -1 -377 153q-89 109 -90 284q0 71 15 153z" />
<glyph unicode="V" horiz-adv-x="1445" d="M246 1434h71l324 -1375l809 1375h76l-846 -1434h-94z" />
<glyph unicode="W" horiz-adv-x="1984" d="M246 1434h71l115 -1362l670 1362h102l189 -1366l596 1366h75l-628 -1434h-103l-190 1354l-672 -1354h-102z" />
<glyph unicode="X" horiz-adv-x="1363" d="M-6 0l684 758l-379 676h78l356 -631l570 631h90l-625 -689l420 -745h-78l-395 700l-633 -700h-88z" />
<glyph unicode="Y" horiz-adv-x="1259" d="M207 1434h74l387 -678l626 678h84l-682 -740l-123 -694h-69l123 698z" />
<glyph unicode="Z" horiz-adv-x="1261" d="M6 0l10 66l1190 1302h-940l13 66h1030l-13 -66l-1190 -1302h979l-10 -66h-1069z" />
<glyph unicode="[" horiz-adv-x="538" d="M-31 -403l342 1939h389l-12 -63h-319l-322 -1813h322l-11 -63h-389z" />
<glyph unicode="\" horiz-adv-x="659" d="M217 1536h64l180 -1939h-64z" />
<glyph unicode="]" horiz-adv-x="538" d="M-141 -403l12 63h319l322 1813h-322l11 63h389l-342 -1939h-389z" />
<glyph unicode="^" d="M254 315l352 463h113l190 -463h-63l-187 416l-331 -416h-74z" />
<glyph unicode="_" horiz-adv-x="1073" d="M-102 -291l12 64h993l-12 -64h-993z" />
<glyph unicode="`" horiz-adv-x="688" d="M377 1536h82l149 -340h-65z" />
<glyph unicode="a" horiz-adv-x="1110" d="M98 221q0 250 367 311l405 68l19 105q7 39 7 73q0 94 -52 152q-71 78 -211 78q-101 0 -194.5 -46.5t-164.5 -127.5l-53 47q81 90 187 141t225 51q173 -1 262 -99q67 -74 67 -187q0 -39 -8 -82l-127 -705h-63l29 158q-85 -93 -179.5 -140t-214.5 -47q-138 0 -219.5 67.5 t-81.5 182.5zM172 221q0 -81 61 -132.5t166 -51.5q127 0 226.5 58t185.5 171l49 273l-381 -66q-307 -53 -307 -252z" />
<glyph unicode="b" horiz-adv-x="1325" d="M123 0l272 1536h66l-113 -639q78 86 180 131t209 45q147 0 257.5 -63.5t167.5 -171.5t57 -244q0 -176 -75 -321.5t-209 -229.5t-300 -84q-138 0 -246 61t-166 173l-35 -193h-65zM238 281q54 -120 157 -189t238 -69q221 0 367.5 162.5t146.5 408.5q0 181 -112 298.5 t-300 117.5q-116 0 -223.5 -54.5t-181.5 -160.5z" />
<glyph unicode="c" horiz-adv-x="1138" d="M102 449q0 123 45.5 236.5t125 199t194 137t244.5 51.5q141 0 247.5 -62t161.5 -169l-59 -37q-47 96 -138.5 150.5t-213.5 54.5q-150 0 -274 -78.5t-192.5 -207.5t-68.5 -278q0 -179 114.5 -301t305.5 -122q238 0 379 192l49 -45q-163 -211 -428 -211q-114 0 -208.5 39 t-155.5 106.5t-94.5 156t-33.5 188.5z" />
<glyph unicode="d" horiz-adv-x="1316" d="M104 438q0 176 75 321.5t209 229.5t300 84q139 0 247.5 -62t166.5 -175l123 700h65l-270 -1536h-66l25 139q-80 -88 -183 -134t-210 -46q-147 0 -257.5 63.5t-167.5 171.5t-57 244zM176 438q0 -181 112 -298t300 -117q117 0 224.5 55t184.5 164l88 508 q-52 121 -155.5 190.5t-239.5 69.5q-221 0 -367.5 -163t-146.5 -409z" />
<glyph unicode="e" horiz-adv-x="1159" d="M102 449q0 125 38 237t108.5 198.5t179.5 137.5t242 51q178 0 291.5 -105t113.5 -257q0 -70 -16 -133h-873q-12 -64 -12 -132q0 -88 26 -164t75 -134t125.5 -91.5t172.5 -33.5q128 0 238 51t176 141l49 -45q-77 -99 -197 -155t-266 -56q-114 0 -205 39t-148.5 106.5 t-87.5 155.5t-30 189zM201 641h798q4 29 4 56q-1 115 -75 203q-92 110 -260 110q-178 0 -299.5 -101.5t-167.5 -267.5z" />
<glyph unicode="f" horiz-adv-x="724" d="M86 -504l258 1475h-192l12 61h190l29 164q31 173 125.5 256.5t224.5 83.5q121 0 213 -66l-39 -53q-75 56 -174 56q-105 0 -182 -68.5t-102 -208.5l-29 -164h403l-10 -61h-403l-256 -1475h-68z" />
<glyph unicode="g" horiz-adv-x="1099" d="M-49 -236q0 193 225 322q-67 36 -67 123q0 68 54.5 125.5t125.5 87.5q-53 46 -82 111t-29 137q0 104 48 195t146.5 150.5t227.5 59.5q92 0 170 -43h404l-13 -63h-313q84 -94 84 -219q0 -77 -28.5 -149.5t-80 -130.5t-132.5 -93t-177 -35q-99 0 -178 45 q-77 -33 -120.5 -82t-43.5 -96q0 -78 94 -78h316q177 0 260.5 -72.5t83.5 -197.5q0 -162 -142.5 -267.5t-390.5 -105.5q-222 0 -332 74t-110 202zM23 -227q0 -104 90 -161.5t278 -57.5q221 0 343 85.5t122 223.5q0 91 -63.5 147t-210.5 56h-316h-6q-110 -47 -173.5 -130 t-63.5 -163zM252 670q0 -110 70 -186t192 -76q160 0 252 102.5t92 237.5q0 109 -70.5 185.5t-187.5 76.5q-69 0 -126.5 -19.5t-98 -52t-68.5 -76t-41.5 -92.5t-13.5 -100z" />
<glyph unicode="h" horiz-adv-x="1245" d="M123 0l270 1536h66l-117 -664q164 201 397 201q188 -1 281 -115q67 -83 68 -212q0 -50 -11 -107l-112 -639h-66l113 639q10 53 10 99q0 108 -54 176q-76 96 -229 96q-248 0 -415 -244l-136 -766h-65z" />
<glyph unicode="i" horiz-adv-x="493" d="M123 0l182 1032h66l-183 -1032h-65zM352 1475q0 26 18.5 43.5t45.5 17.5q28 0 45.5 -17.5t17.5 -43.5q0 -28 -17.5 -45t-45.5 -17q-27 0 -45.5 17.5t-18.5 44.5z" />
<glyph unicode="j" horiz-adv-x="493" d="M-362 -477l10 63q72 -35 149 -35q47 0 80.5 4.5t70.5 20.5t62.5 44.5t47 80t34.5 123.5l213 1208h66l-215 -1222q-17 -97 -50 -162t-81.5 -99t-102 -47.5t-125.5 -13.5q-94 0 -159 35zM352 1475q0 26 18.5 43.5t45.5 17.5q28 0 45.5 -17.5t17.5 -43.5q0 -28 -17.5 -45 t-45.5 -17q-27 0 -45.5 17.5t-18.5 44.5z" />
<glyph unicode="k" horiz-adv-x="1054" d="M123 0l270 1536h66l-191 -1083l701 579h94l-504 -418l344 -614h-74l-319 571l-258 -215l-64 -356h-65z" />
<glyph unicode="l" horiz-adv-x="493" d="M123 0l272 1536h66l-273 -1536h-65z" />
<glyph unicode="m" horiz-adv-x="1939" d="M123 0l182 1032h66l-29 -158q165 199 377 199q130 0 214.5 -65t106.5 -185q188 250 416 250q176 -1 265 -115q63 -82 63 -208q0 -52 -10 -111l-113 -639h-66l113 639q9 54 9 101q-1 106 -49 173q-70 97 -212 97q-228 0 -409 -265q0 -38 -11 -106l-112 -639h-66l113 639 q9 54 9 101q0 106 -48 173q-70 97 -213 97q-229 0 -395 -244l-136 -766h-65z" />
<glyph unicode="n" horiz-adv-x="1245" d="M123 0l182 1032h66l-29 -160q167 201 397 201q188 -1 281 -115q67 -83 68 -212q0 -50 -11 -107l-112 -639h-66l113 639q10 53 10 99q0 108 -54 176q-76 96 -229 96q-248 0 -415 -244l-136 -766h-65z" />
<glyph unicode="o" horiz-adv-x="1288" d="M102 449q0 165 77.5 307.5t218.5 229.5t313 87q148 0 258 -67.5t164.5 -177t54.5 -244.5q0 -123 -46 -237t-125 -199.5t-193.5 -137t-243.5 -51.5q-148 0 -258 67.5t-165 177.5t-55 245zM174 446q0 -179 111.5 -301t296.5 -122q150 0 273.5 78.5t192 207t68.5 277.5 q0 179 -111 301.5t-296 122.5q-150 0 -273.5 -78.5t-192.5 -207.5t-69 -278z" />
<glyph unicode="p" horiz-adv-x="1323" d="M35 -504l270 1536h66l-25 -135q80 86 182.5 131t208.5 45q147 0 257.5 -63.5t167.5 -171.5t57 -244q0 -176 -75 -321.5t-209 -229.5t-300 -84q-138 0 -246 61t-166 173l-123 -697h-65zM238 281q54 -120 157 -189t238 -69q221 0 367.5 162.5t146.5 408.5q0 181 -112 298.5 t-300 117.5q-117 0 -224 -55t-183 -162z" />
<glyph unicode="q" horiz-adv-x="1323" d="M104 438q0 176 75 321.5t209 229.5t300 84q139 0 246.5 -60.5t165.5 -172.5l35 192h65l-270 -1536h-66l113 641q-80 -87 -182 -132.5t-209 -45.5q-147 0 -257.5 63.5t-167.5 171.5t-57 244zM176 438q0 -181 112 -298t300 -117q117 0 224 55t183 162l90 512 q-54 120 -157 189t-238 69q-221 0 -367.5 -163t-146.5 -409z" />
<glyph unicode="r" horiz-adv-x="768" d="M123 0l182 1032h66l-29 -168q84 98 164.5 143.5t179.5 45.5q56 0 96 -13l-12 -61q-43 12 -86 12q-102 0 -184.5 -53.5t-175.5 -173.5l-136 -764h-65z" />
<glyph unicode="s" horiz-adv-x="845" d="M23 152l59 38q104 -167 289 -167q111 0 180.5 68t69.5 169q0 53 -23.5 95t-61 71.5t-83 56.5t-91 55.5t-83 62t-61 83t-23.5 111.5q0 117 91 197.5t220 80.5q102 0 178.5 -50.5t116.5 -133.5l-64 -35q-67 156 -231 156q-102 0 -172 -65t-70 -150q0 -53 23.5 -95.5t61 -72 t83 -57t91 -56t83 -61.5t61 -82.5t23.5 -110.5q0 -124 -91.5 -212.5t-227.5 -88.5q-109 0 -202.5 49.5t-145.5 143.5z" />
<glyph unicode="t" horiz-adv-x="815" d="M152 971l12 61h190l45 258h68l-45 -258h401l-10 -61h-403l-115 -654q-9 -48 -9 -87t6.5 -67.5t20.5 -49.5t32 -34.5t42.5 -21.5t50.5 -11t58 -3q72 0 157 29l-12 -66q-70 -26 -145 -26q-59 0 -104.5 10t-84.5 33.5t-59.5 62t-28.5 96.5q-3 19 -3 40q0 43 11 95l115 654 h-190z" />
<glyph unicode="u" horiz-adv-x="1208" d="M176 434l107 598h65l-106 -596q-10 -59 -11 -109q0 -121 59 -197q83 -108 259 -107q157 0 256 106t135 307l107 596h65l-106 -598q-40 -230 -157.5 -352.5t-299.5 -122.5q-206 0 -309 124q-75 90 -75 234q0 55 11 117z" />
<glyph unicode="v" horiz-adv-x="1042" d="M145 1032h72l223 -971l566 971h75l-606 -1032h-88z" />
<glyph unicode="w" horiz-adv-x="1505" d="M180 1032h70l78 -960l465 960h96l127 -960l418 960h71l-448 -1032h-96l-132 954l-467 -954h-96z" />
<glyph unicode="x" horiz-adv-x="980" d="M-39 0l488 545l-271 487h74l252 -446l397 446h86l-446 -497l299 -535h-74l-279 496l-442 -496h-84z" />
<glyph unicode="y" horiz-adv-x="1062" d="M-188 -477l12 67q58 -39 149 -39q170 0 289 201l148 248l-265 1032h72l242 -950l565 950h76l-781 -1302q-76 -127 -159 -184.5t-187 -57.5q-105 0 -161 35z" />
<glyph unicode="z" horiz-adv-x="933" d="M-10 0l10 61l838 910h-664l12 61h748l-12 -61l-838 -910h692l-10 -61h-776z" />
<glyph unicode="{" horiz-adv-x="538" d="M2 537l12 63h121q81 0 123.5 67.5t42.5 174.5q0 70 -22.5 196t-22.5 193q0 151 90 228t238 77h116l-12 -63h-104q-123 0 -191.5 -60.5t-68.5 -181.5q0 -69 22.5 -195t22.5 -194q0 -92 -37.5 -169.5t-110.5 -111.5q46 -31 62 -70t16 -90q0 -60 -22 -124t-53.5 -119 t-63.5 -109.5t-54 -115.5t-22 -117q0 -74 57.5 -115t159.5 -41h68l-11 -63h-57q-135 0 -210 57t-75 162q0 56 22 117t53.5 115.5t63.5 109.5t54 119t22 124q0 62 -26 99t-80 37h-123z" />
<glyph unicode="|" horiz-adv-x="659" d="M135 -403l342 1939h66l-342 -1939h-66z" />
<glyph unicode="}" horiz-adv-x="538" d="M-143 -403l12 63h104q123 0 191.5 60.5t68.5 181.5q0 69 -22.5 195t-22.5 194q0 92 37.5 169t110.5 111q-46 31 -62 70t-16 90q0 60 22 124t54 119t63.5 110t53.5 116t22 117q0 74 -57.5 115t-159.5 41h-68l11 63h57q135 0 210 -57t75 -162q0 -56 -22 -117t-53.5 -116 t-63.5 -110t-54 -119t-22 -124q0 -62 26 -98.5t80 -36.5h123l-12 -64h-121q-81 0 -123.5 -67t-42.5 -174q0 -70 22.5 -196t22.5 -193q0 -151 -90 -228t-238 -77h-116z" />
<glyph unicode="~" d="M207 348l39 213q17 96 66 147.5t122 51.5q49 0 86 -20.5t59.5 -53t41 -71.5t34.5 -78.5t34.5 -72t47 -53t66.5 -20.5q58 0 91 43.5t48 134.5l31 176h59l-39 -213q-17 -96 -66 -147t-122 -51q-49 0 -86 20.5t-59.5 53t-41 71.5t-34.5 78t-34.5 71.5t-47 53t-66.5 20.5 q-58 0 -91 -43.5t-48 -134.5l-31 -176h-59z" />
<glyph unicode="&#xa1;" horiz-adv-x="538" d="M76 -381l196 1071h60l-182 -1071h-74zM285 1004q0 31 19.5 50t51.5 19t52 -19t20 -50t-20 -50.5t-52 -19.5t-51.5 19.5t-19.5 50.5z" />
<glyph unicode="&#xa2;" d="M176 651q0 163 74.5 304t211.5 229t306 92l29 158h67l-28 -160q123 -10 215 -71t143 -159l-59 -36q-41 86 -122 138.5t-188 61.5l-172 -981h15q239 0 379 191l49 -45q-163 -211 -428 -211h-27l-29 -162h-69l30 170q-185 28 -291 162.5t-106 318.5zM250 649 q0 -156 90.5 -272.5t243.5 -143.5l174 977q-144 -7 -261.5 -86.5t-182 -205t-64.5 -269.5z" />
<glyph unicode="&#xa3;" d="M88 0l12 63l133 107q89 71 137 114t85.5 88t51 83.5t13.5 87.5q0 63 -22 127h-291l12 65h254q-10 24 -36 80.5t-39 88t-25.5 80.5t-12.5 93q0 175 114 286.5t292 111.5q121 0 215 -61.5t154 -172.5l-60 -35q-107 201 -309 201q-153 0 -242.5 -89.5t-89.5 -240.5 q0 -44 12.5 -92.5t26.5 -81t39.5 -86.5t36.5 -82h461l-13 -65h-424q21 -68 21 -125q0 -102 -68.5 -190t-246.5 -232l-74 -60h786l-12 -63h-891z" />
<glyph unicode="&#xa4;" d="M31 45l295 258q-50 74 -50 174q0 163 111 277l-186 239l51 39l184 -237q90 65 205 65q138 0 221 -86l293 258l43 -45l-299 -260q45 -71 45 -168q0 -156 -106 -272l194 -248l-49 -39l-195 246q-93 -70 -210 -70q-130 0 -213 80l-291 -256zM344 477q0 -102 64 -171.5 t170 -69.5q128 0 213.5 95.5t85.5 227.5q0 102 -64.5 172t-171.5 70q-125 0 -211 -96.5t-86 -227.5z" />
<glyph unicode="&#xa5;" d="M164 516l12 66h418l43 239h-420l12 66h377l-309 549h80l303 -547l491 545h86l-497 -547h377l-13 -66h-417l-43 -239h417l-10 -66h-420l-90 -516h-69l90 516h-418z" />
<glyph unicode="&#xa6;" horiz-adv-x="659" d="M135 -403l127 718h66l-127 -718h-66zM350 817l127 719h66l-127 -719h-66z" />
<glyph unicode="&#xa7;" horiz-adv-x="1038" d="M25 -227l53 49q157 -154 317 -154q75 0 137 25t104 83.5t42 141.5q0 64 -29.5 116t-76 87t-103.5 67t-113.5 65.5t-103 72.5t-76 98t-29.5 133q0 121 87.5 200.5t228.5 112.5q-88 58 -136 124.5t-48 166.5q0 77 29.5 138.5t79.5 99t111.5 57t129.5 19.5q202 0 370 -168 l-53 -50q-157 154 -317 154q-75 0 -137 -25t-104 -83.5t-42 -141.5q0 -64 29.5 -116t76 -87t103.5 -67t113.5 -65.5t103 -72.5t76 -98t29.5 -133q0 -121 -87.5 -200.5t-228.5 -112.5q88 -58 136 -124.5t48 -166.5q0 -77 -29.5 -138.5t-79.5 -98.5t-111.5 -56.5t-129.5 -19.5 q-202 0 -370 168zM217 559q0 -45 17 -85t31.5 -63t61.5 -58t62 -43.5t78 -44.5q19 -11 29 -17q139 20 225 95.5t86 176.5q0 45 -17 85t-31.5 63t-61.5 58t-62 43.5t-78 44.5q-19 11 -29 17q-139 -20 -225 -95.5t-86 -176.5z" />
<glyph unicode="&#xa8;" horiz-adv-x="688" d="M285 1473q0 28 18.5 45.5t46.5 17.5q27 0 45.5 -18t18.5 -45q0 -26 -18.5 -43t-45.5 -17q-28 0 -46.5 17t-18.5 43zM612 1473q0 27 19 45t47 18q27 0 45 -18t18 -45q0 -26 -18 -43t-45 -17q-28 0 -47 17t-19 43z" />
<glyph unicode="&#xa9;" horiz-adv-x="1726" d="M143 623q0 175 65.5 333t176 271.5t262.5 180.5t318 67q161 0 292.5 -51.5t217 -141.5t132 -210.5t46.5 -260.5q0 -175 -65.5 -333t-176 -271.5t-262.5 -180.5t-318 -67q-161 0 -292.5 51.5t-217 141.5t-132 210.5t-46.5 260.5zM211 623q0 -172 71.5 -307.5t214 -216.5 t334.5 -81q204 0 378 108t275 290.5t101 394.5q0 128 -42 238t-119.5 191.5t-195.5 128t-263 46.5q-153 0 -293 -63.5t-240.5 -170.5t-160.5 -253t-60 -305zM455 659q0 138 62 257t177.5 192.5t259.5 73.5q114 0 206.5 -52.5t139.5 -136.5l-59 -39q-37 74 -116 119t-171 45 q-122 0 -221.5 -63.5t-154 -168.5t-54.5 -227q0 -144 94 -246t240 -102q192 0 322 152l47 -45q-142 -168 -371 -168q-177 0 -289 117t-112 292z" />
<glyph unicode="&#xaa;" horiz-adv-x="714" d="M139 553l13 59h450l-10 -59h-453zM186 965q0 158 226 196l241 41l11 55q13 83 -27.5 129t-120.5 46q-118 0 -207 -103l-47 41q48 55 114.5 87t141.5 32q113 0 169 -64t36 -174l-76 -422h-59l14 86q-95 -112 -229 -112q-85 0 -136 43.5t-51 118.5zM252 969q0 -49 34.5 -80 t94.5 -31q135 0 235 137v-2l29 158l-221 -37q-172 -30 -172 -145z" />
<glyph unicode="&#xab;" horiz-adv-x="970" d="M129 508l348 410h82l-352 -418l196 -402h-71zM494 508l348 410h82l-353 -418l197 -402h-72z" />
<glyph unicode="&#xac;" d="M150 711l10 63h1001l-90 -514h-63l79 451h-937z" />
<glyph unicode="&#xad;" horiz-adv-x="616" d="M37 494l10 63h537l-11 -63h-536z" />
<glyph unicode="&#xae;" horiz-adv-x="1036" d="M156 963q0 141 66 259t179.5 185.5t247.5 67.5q191 0 301.5 -113t110.5 -285q0 -141 -66.5 -259t-179.5 -185.5t-246 -67.5q-192 0 -302.5 113t-110.5 285zM217 963q0 -150 94 -248.5t258 -98.5q87 0 166.5 37.5t137 100t92 147.5t34.5 176q0 150 -94 248t-256 98 q-117 0 -216.5 -63t-157.5 -169t-58 -228zM420 760l92 530h115q74 0 115.5 -33t41.5 -94q0 -53 -32 -92.5t-88 -54.5l131 -256h-68l-121 248h-84l-43 -248h-59zM532 1059h62q59 0 93 28.5t34 73.5q0 78 -96 78h-60z" />
<glyph unicode="&#xaf;" horiz-adv-x="688" d="M250 1450l10 57h518l-10 -57h-518z" />
<glyph unicode="&#xb0;" horiz-adv-x="827" d="M190 1092q0 155 105 269t260 114q141 0 222 -86.5t81 -214.5q0 -101 -46.5 -188.5t-131 -141t-188.5 -53.5q-140 0 -221 86.5t-81 214.5zM258 1092q0 -102 64 -172t170 -70q128 0 213.5 96t85.5 228q0 102 -64.5 171.5t-171.5 69.5q-125 0 -211 -96t-86 -227z" />
<glyph unicode="&#xb1;" d="M25 0l10 63h1001l-12 -63h-999zM131 608l10 64h469l64 360h63l-63 -360h469l-10 -64h-471l-64 -362h-63l63 362h-467z" />
<glyph unicode="&#xb2;" horiz-adv-x="772" d="M166 829l10 60l361 317q131 116 175 176.5t44 133.5q0 71 -49 116t-123 45q-65 0 -119.5 -31.5t-106.5 -105.5l-51 37q109 160 281 160q101 0 168 -62t67 -155q0 -87 -52 -159t-193 -198l-312 -274h467l-12 -60h-555z" />
<glyph unicode="&#xb3;" horiz-adv-x="772" d="M168 967l57 30q82 -133 246 -133q110 0 173 60.5t63 150.5q0 86 -55.5 140.5t-170.5 54.5h-102l10 59h125q108 0 167.5 52.5t59.5 134.5q0 71 -47 116t-114 45t-119 -29.5t-101 -101.5l-51 37q106 154 273 154q96 0 160.5 -62.5t64.5 -154.5q0 -77 -48.5 -139t-142.5 -87 q82 -30 120 -88.5t38 -130.5q0 -114 -81 -192t-222 -78q-211 0 -303 162z" />
<glyph unicode="&#xb4;" horiz-adv-x="688" d="M313 1196l269 340h92l-287 -340h-74z" />
<glyph unicode="&#xb6;" horiz-adv-x="1181" d="M172 1042q0 79 30 149t87 124.5t148.5 86.5t205.5 32h158l-326 -1837h-72l193 1093h-31q-171 0 -282 91t-111 261zM715 -403l323 1837h68l-326 -1837h-65z" />
<glyph unicode="&#xb7;" horiz-adv-x="552" d="M217 526q0 31 20 50.5t52 19.5t51.5 -19.5t19.5 -50.5t-19.5 -50t-51.5 -19t-52 19t-20 50z" />
<glyph unicode="&#xb8;" horiz-adv-x="688" d="M-16 -428l45 51q65 -65 153 -65q59 0 97 30t38 86q0 43 -31.5 74t-86.5 31q-46 0 -80 -19l-41 45l192 213l60 -18l-150 -164q8 2 27 2q78 0 129 -46.5t51 -113.5q0 -78 -57 -130t-152 -52q-54 0 -106.5 20.5t-87.5 55.5z" />
<glyph unicode="&#xb9;" horiz-adv-x="772" d="M145 829l11 60h284l133 751l-297 -145l-30 53l336 164h67l-143 -823h248l-11 -60h-598z" />
<glyph unicode="&#xba;" horiz-adv-x="827" d="M139 553l13 59h561l-11 -59h-563zM190 1106q0 155 107.5 269t267.5 114q137 0 217 -86t80 -215q0 -101 -47.5 -189t-134.5 -142t-193 -54q-137 0 -217 87t-80 216zM256 1104q0 -103 63.5 -172.5t169.5 -69.5q131 0 219.5 97t88.5 229q0 102 -64.5 172t-169.5 70 q-131 0 -219 -96.5t-88 -229.5z" />
<glyph unicode="&#xbb;" horiz-adv-x="970" d="M53 98l353 418l-197 402h72l202 -410l-348 -410h-82zM418 98l352 418l-197 402h72l203 -410l-348 -410h-82z" />
<glyph unicode="&#xbc;" horiz-adv-x="1730" d="M98 553l11 59h284l133 752l-297 -145l-30 53l336 164h67l-143 -824h248l-11 -59h-598zM356 0l1266 1434h84l-1268 -1434h-82zM987 272l10 58l525 551h88l-97 -551h109l-10 -58h-109l-47 -272h-65l49 272h-453zM1073 330h375l86 483z" />
<glyph unicode="&#xbd;" horiz-adv-x="1929" d="M98 553l11 59h284l133 752l-297 -145l-30 53l336 164h67l-143 -824h248l-11 -59h-598zM356 0l1266 1434h84l-1268 -1434h-82zM1180 0l10 59l360 318q132 116 175.5 176t43.5 133q0 71 -49 116.5t-123 45.5q-65 0 -119 -31.5t-106 -105.5l-51 37q108 159 281 159 q101 0 168 -62t67 -155q0 -87 -52 -158t-194 -198l-311 -275h467l-12 -59h-555z" />
<glyph unicode="&#xbe;" horiz-adv-x="1671" d="M121 690l57 31q82 -133 246 -133q110 0 172.5 60.5t62.5 150.5q0 86 -55 140t-170 54h-102l10 60h125q108 0 167.5 52t59.5 134q0 71 -47.5 116.5t-114.5 45.5t-118.5 -29t-100.5 -102l-51 37q105 153 273 153q96 0 160.5 -62.5t64.5 -154.5q0 -76 -48.5 -138t-142.5 -87 q82 -30 120 -88.5t38 -130.5q0 -114 -81 -192.5t-222 -78.5q-211 0 -303 162zM297 0l1266 1434h84l-1268 -1434h-82zM928 272l10 58l524 551h88l-96 -551h109l-11 -58h-108l-47 -272h-66l49 272h-452zM1014 330h375l86 483z" />
<glyph unicode="&#xbf;" horiz-adv-x="991" d="M-27 -61q0 201 152 329t416 158l53 264h59l-39 -315q-266 -19 -417.5 -131t-151.5 -305q0 -132 88.5 -216.5t243.5 -84.5q205 0 340 172l55 -39q-77 -98 -179 -145.5t-214 -47.5q-188 0 -297 101.5t-109 259.5zM604 1004q0 31 20 50t52 19t52 -19t20 -50t-20 -50.5 t-52 -19.5t-52 19.5t-20 50.5z" />
<glyph unicode="&#xc0;" horiz-adv-x="1445" d="M-8 0l844 1434h100l338 -1434h-70l-112 481h-740l-282 -481h-78zM391 547h686l-194 837zM680 1833h88l176 -277h-63z" />
<glyph unicode="&#xc1;" horiz-adv-x="1445" d="M-8 0l844 1434h100l338 -1434h-70l-112 481h-740l-282 -481h-78zM391 547h686l-194 837zM877 1556l272 277h98l-299 -277h-71z" />
<glyph unicode="&#xc2;" horiz-adv-x="1445" d="M-8 0l844 1434h100l338 -1434h-70l-112 481h-740l-282 -481h-78zM391 547h686l-194 837zM631 1556l272 277h109l174 -277h-62l-168 234l-254 -234h-71z" />
<glyph unicode="&#xc3;" horiz-adv-x="1445" d="M-8 0l844 1434h100l338 -1434h-70l-112 481h-740l-282 -481h-78zM391 547h686l-194 837zM629 1577l18 100q13 68 51 112t99 44q44 0 77 -22.5t52 -54.5t36.5 -64.5t42 -55t56.5 -22.5q35 0 60 26t32 72l18 100h60l-19 -100q-13 -69 -51 -112.5t-100 -43.5 q-44 0 -77.5 22.5t-54 55t-38.5 65t-41.5 55t-52.5 22.5q-34 0 -58.5 -26.5t-31.5 -72.5l-19 -100h-59z" />
<glyph unicode="&#xc4;" horiz-adv-x="1445" d="M-8 0l844 1434h100l338 -1434h-70l-112 481h-740l-282 -481h-78zM391 547h686l-194 837zM711 1749q0 28 18.5 45.5t46.5 17.5t47 -18t19 -45t-19 -44t-47 -17t-46.5 17t-18.5 44zM1040 1749q0 27 19 45t47 18t46.5 -17.5t18.5 -45.5q0 -27 -18.5 -44t-46.5 -17t-47 17 t-19 44z" />
<glyph unicode="&#xc5;" horiz-adv-x="1445" d="M-8 0l844 1434h100l338 -1434h-70l-112 481h-740l-282 -481h-78zM391 547h686l-194 837zM711 1722q0 107 73.5 181.5t173.5 74.5q88 0 149.5 -59t61.5 -150q0 -107 -73.5 -180t-173.5 -73q-88 0 -149.5 58t-61.5 148zM778 1726q0 -66 40.5 -106.5t105.5 -40.5 q79 0 128.5 54t49.5 132q0 66 -41 108t-105 42q-79 0 -128.5 -55.5t-49.5 -133.5z" />
<glyph unicode="&#xc6;" horiz-adv-x="1904" d="M-16 0l462 547l752 887h709l-11 -66h-600l-106 -606h520l-12 -64h-520l-111 -632h600l-12 -66h-670l86 481h-592l-405 -481h-90zM535 547h546l146 819z" />
<glyph unicode="&#xc7;" horiz-adv-x="1546" d="M143 625q0 168 60 322.5t164.5 271t258.5 186.5t330 70q181 0 331.5 -85t223.5 -221l-61 -39q-63 125 -199.5 202t-294.5 77q-157 0 -296 -64.5t-235.5 -172t-152 -251t-55.5 -298.5q0 -162 72 -298t205 -218t299 -82q178 0 310.5 64t244.5 194l51 -50 q-224 -263 -574 -274l-235 -287h-84l242 289q-178 11 -317.5 104t-213.5 239.5t-74 320.5z" />
<glyph unicode="&#xc8;" horiz-adv-x="1069" d="M150 0l253 1434h668l-10 -66h-600l-107 -606h520l-12 -64h-520l-111 -632h598l-10 -66h-669zM492 1833h88l176 -277h-64z" />
<glyph unicode="&#xc9;" horiz-adv-x="1069" d="M150 0l253 1434h668l-10 -66h-600l-107 -606h520l-12 -64h-520l-111 -632h598l-10 -66h-669zM688 1556l273 277h98l-299 -277h-72z" />
<glyph unicode="&#xca;" horiz-adv-x="1069" d="M150 0l253 1434h668l-10 -66h-600l-107 -606h520l-12 -64h-520l-111 -632h598l-10 -66h-669zM442 1556l273 277h108l174 -277h-61l-168 234l-254 -234h-72z" />
<glyph unicode="&#xcb;" horiz-adv-x="1069" d="M150 0l253 1434h668l-10 -66h-600l-107 -606h520l-12 -64h-520l-111 -632h598l-10 -66h-669zM522 1749q0 27 19 45t47 18t46.5 -17.5t18.5 -45.5q0 -27 -18.5 -44t-46.5 -17t-47 17t-19 44zM852 1749q0 27 19 45t47 18t46.5 -17.5t18.5 -45.5q0 -27 -18.5 -44t-46.5 -17 t-47 17t-19 44z" />
<glyph unicode="&#xcc;" horiz-adv-x="548" d="M150 0l253 1434h70l-254 -1434h-69zM231 1833h88l177 -277h-64z" />
<glyph unicode="&#xcd;" horiz-adv-x="548" d="M150 0l253 1434h70l-254 -1434h-69zM428 1556l272 277h99l-299 -277h-72z" />
<glyph unicode="&#xce;" horiz-adv-x="548" d="M150 0l253 1434h70l-254 -1434h-69zM182 1556l273 277h108l174 -277h-61l-168 234l-254 -234h-72z" />
<glyph unicode="&#xcf;" horiz-adv-x="548" d="M150 0l253 1434h70l-254 -1434h-69zM262 1749q0 27 19 45t47 18t46.5 -17.5t18.5 -45.5q0 -27 -18.5 -44t-46.5 -17t-47 17t-19 44zM592 1749q0 28 18.5 45.5t46.5 17.5t47 -18t19 -45t-19 -44t-47 -17t-46.5 17t-18.5 44z" />
<glyph unicode="&#xd0;" horiz-adv-x="1603" d="M35 707l10 57h240l118 670h449q156 0 283.5 -46t214 -129t133.5 -199t47 -255q0 -125 -37 -243.5t-111.5 -220t-177 -178t-242 -120t-298.5 -43.5h-514l124 707h-239zM231 66h433q180 0 331.5 61.5t251 164.5t154.5 235t55 276q0 253 -164 409t-440 156h-391l-107 -604 h414l-10 -57h-414z" />
<glyph unicode="&#xd1;" horiz-adv-x="1638" d="M150 0l253 1434h93l755 -1362l242 1362h70l-254 -1434h-95l-755 1358l-240 -1358h-69zM725 1577l18 100q13 68 51 112t99 44q44 0 77 -22.5t52 -54.5t36.5 -64.5t42 -55t56.5 -22.5q35 0 60 26t32 72l19 100h59l-18 -100q-13 -69 -51.5 -112.5t-100.5 -43.5 q-44 0 -77.5 22.5t-54 55t-38.5 65t-41.5 55t-52.5 22.5q-34 0 -58.5 -26.5t-31.5 -72.5l-19 -100h-59z" />
<glyph unicode="&#xd2;" horiz-adv-x="1681" d="M145 625q0 168 60 322.5t164.5 271t258.5 186.5t330 70q190 0 340.5 -91t231 -242.5t80.5 -332.5q0 -168 -60 -322.5t-164.5 -271t-258.5 -186.5t-330 -70q-190 0 -340.5 91t-231 242.5t-80.5 332.5zM219 623q0 -162 72 -298t205 -218t299 -82q210 0 381.5 109.5 t265.5 289t94 387.5q0 121 -42.5 230t-117.5 190.5t-184 129.5t-234 48q-157 0 -296 -64.5t-235.5 -172t-152 -251t-55.5 -298.5zM778 1833h88l176 -277h-63z" />
<glyph unicode="&#xd3;" horiz-adv-x="1681" d="M145 625q0 168 60 322.5t164.5 271t258.5 186.5t330 70q190 0 340.5 -91t231 -242.5t80.5 -332.5q0 -168 -60 -322.5t-164.5 -271t-258.5 -186.5t-330 -70q-190 0 -340.5 91t-231 242.5t-80.5 332.5zM219 623q0 -162 72 -298t205 -218t299 -82q210 0 381.5 109.5 t265.5 289t94 387.5q0 121 -42.5 230t-117.5 190.5t-184 129.5t-234 48q-157 0 -296 -64.5t-235.5 -172t-152 -251t-55.5 -298.5zM975 1556l272 277h99l-299 -277h-72z" />
<glyph unicode="&#xd4;" horiz-adv-x="1681" d="M145 625q0 168 60 322.5t164.5 271t258.5 186.5t330 70q190 0 340.5 -91t231 -242.5t80.5 -332.5q0 -168 -60 -322.5t-164.5 -271t-258.5 -186.5t-330 -70q-190 0 -340.5 91t-231 242.5t-80.5 332.5zM219 623q0 -162 72 -298t205 -218t299 -82q210 0 381.5 109.5 t265.5 289t94 387.5q0 121 -42.5 230t-117.5 190.5t-184 129.5t-234 48q-157 0 -296 -64.5t-235.5 -172t-152 -251t-55.5 -298.5zM729 1556l272 277h109l174 -277h-61l-168 234l-254 -234h-72z" />
<glyph unicode="&#xd5;" horiz-adv-x="1681" d="M145 625q0 168 60 322.5t164.5 271t258.5 186.5t330 70q190 0 340.5 -91t231 -242.5t80.5 -332.5q0 -168 -60 -322.5t-164.5 -271t-258.5 -186.5t-330 -70q-190 0 -340.5 91t-231 242.5t-80.5 332.5zM219 623q0 -162 72 -298t205 -218t299 -82q210 0 381.5 109.5 t265.5 289t94 387.5q0 121 -42.5 230t-117.5 190.5t-184 129.5t-234 48q-157 0 -296 -64.5t-235.5 -172t-152 -251t-55.5 -298.5zM727 1577l18 100q13 68 51 112t99 44q44 0 77 -22.5t52 -54.5t36.5 -64.5t42 -55t56.5 -22.5q35 0 60 26t32 72l19 100h59l-18 -100 q-13 -69 -51.5 -112.5t-100.5 -43.5q-44 0 -77.5 22.5t-54 55t-38.5 65t-41.5 55t-52.5 22.5q-34 0 -58.5 -26.5t-31.5 -72.5l-19 -100h-59z" />
<glyph unicode="&#xd6;" horiz-adv-x="1681" d="M145 625q0 168 60 322.5t164.5 271t258.5 186.5t330 70q190 0 340.5 -91t231 -242.5t80.5 -332.5q0 -168 -60 -322.5t-164.5 -271t-258.5 -186.5t-330 -70q-190 0 -340.5 91t-231 242.5t-80.5 332.5zM219 623q0 -162 72 -298t205 -218t299 -82q210 0 381.5 109.5 t265.5 289t94 387.5q0 121 -42.5 230t-117.5 190.5t-184 129.5t-234 48q-157 0 -296 -64.5t-235.5 -172t-152 -251t-55.5 -298.5zM809 1749q0 28 18.5 45.5t46.5 17.5t47 -18t19 -45t-19 -44t-47 -17t-46.5 17t-18.5 44zM1139 1749q0 28 18.5 45.5t46.5 17.5t47 -18t19 -45 t-19 -44t-47 -17t-46.5 17t-18.5 44z" />
<glyph unicode="&#xd7;" d="M31 45l542 475l-372 473l51 39l369 -469l534 469l43 -45l-539 -473l373 -475l-49 -39l-373 471l-536 -471z" />
<glyph unicode="&#xd8;" horiz-adv-x="1681" d="M23 -41l243 225h-2l21 19q-140 182 -140 422q0 168 60 322.5t164.5 271t258.5 186.5t330 70q145 0 266.5 -52t209.5 -147l215 199h82l-242 -226h2l-21 -18q140 -182 140 -422q0 -168 -60 -322.5t-164.5 -271t-258.5 -186.5t-330 -70q-144 0 -265 53t-210 148l-216 -201 h-83zM219 623q0 -208 119 -371l1042 973q-77 87 -185.5 135.5t-236.5 48.5q-157 0 -296 -64.5t-235.5 -172t-152 -251t-55.5 -298.5zM375 209q77 -87 184.5 -135.5t235.5 -48.5q210 0 381.5 109.5t265.5 289t94 387.5t-119 371z" />
<glyph unicode="&#xd9;" horiz-adv-x="1421" d="M205 549l157 885h70l-153 -881q-45 -261 55 -394.5t321 -133.5q202 0 329 124t169 371l160 914h69l-161 -918q-99 -557 -564 -557q-252 0 -377.5 153.5t-74.5 436.5zM668 1833h88l176 -277h-64z" />
<glyph unicode="&#xda;" horiz-adv-x="1421" d="M205 549l157 885h70l-153 -881q-45 -261 55 -394.5t321 -133.5q202 0 329 124t169 371l160 914h69l-161 -918q-99 -557 -564 -557q-252 0 -377.5 153.5t-74.5 436.5zM864 1556l273 277h98l-299 -277h-72z" />
<glyph unicode="&#xdb;" horiz-adv-x="1421" d="M205 549l157 885h70l-153 -881q-45 -261 55 -394.5t321 -133.5q202 0 329 124t169 371l160 914h69l-161 -918q-99 -557 -564 -557q-252 0 -377.5 153.5t-74.5 436.5zM618 1556l273 277h108l175 -277h-62l-168 234l-254 -234h-72z" />
<glyph unicode="&#xdc;" horiz-adv-x="1421" d="M205 549l157 885h70l-153 -881q-45 -261 55 -394.5t321 -133.5q202 0 329 124t169 371l160 914h69l-161 -918q-99 -557 -564 -557q-252 0 -377.5 153.5t-74.5 436.5zM698 1749q0 27 19 45t47 18t46.5 -17.5t18.5 -45.5q0 -27 -18.5 -44t-46.5 -17t-47 17t-19 44z M1028 1749q0 27 19 45t47 18t46.5 -17.5t18.5 -45.5q0 -27 -18.5 -44t-46.5 -17t-47 17t-19 44z" />
<glyph unicode="&#xdd;" horiz-adv-x="1259" d="M207 1434h74l387 -678l626 678h84l-682 -740l-123 -694h-69l123 698zM784 1556l273 277h98l-299 -277h-72z" />
<glyph unicode="&#xde;" horiz-adv-x="1064" d="M150 0l253 1434h70l-59 -332h223q180 0 284.5 -86.5t104.5 -245.5q0 -185 -131 -298.5t-354 -113.5h-258l-64 -358h-69zM295 424h246q193 0 302 93.5t109 250.5q0 134 -81.5 201t-233.5 67h-234z" />
<glyph unicode="&#xdf;" horiz-adv-x="1122" d="M123 0l211 1198q27 152 129.5 245t255.5 93q166 0 263 -102t97 -263q0 -144 -87.5 -249t-227.5 -136q115 -42 173 -140.5t58 -213.5q0 -203 -133 -320.5t-358 -117.5q-71 0 -135 22l10 62q78 -21 123 -21q199 0 310.5 98.5t111.5 276.5q0 138 -84.5 233t-221.5 95h-96 l10 63h99q102 0 186 38t137.5 118.5t53.5 191.5q0 134 -73.5 218t-215.5 84q-130 0 -214 -76.5t-106 -204.5l-209 -1192h-67z" />
<glyph unicode="&#xe0;" horiz-adv-x="1110" d="M98 221q0 250 367 311l405 68l19 105q26 146 -45 224.5t-211 78.5q-101 0 -194.5 -46.5t-164.5 -127.5l-53 47q81 90 187 141t225 51q173 0 262 -98.5t59 -269.5l-127 -705h-63l29 158q-85 -93 -179.5 -140t-214.5 -47q-138 0 -219.5 67.5t-81.5 182.5zM172 221 q0 -81 61 -132.5t166 -51.5q127 0 226.5 58t185.5 171l49 273l-381 -66q-307 -53 -307 -252zM477 1536h82l150 -340h-66z" />
<glyph unicode="&#xe1;" horiz-adv-x="1110" d="M98 221q0 250 367 311l405 68l19 105q26 146 -45 224.5t-211 78.5q-101 0 -194.5 -46.5t-164.5 -127.5l-53 47q81 90 187 141t225 51q173 0 262 -98.5t59 -269.5l-127 -705h-63l29 158q-85 -93 -179.5 -140t-214.5 -47q-138 0 -219.5 67.5t-81.5 182.5zM172 221 q0 -81 61 -132.5t166 -51.5q127 0 226.5 58t185.5 171l49 273l-381 -66q-307 -53 -307 -252zM635 1196l268 340h92l-286 -340h-74z" />
<glyph unicode="&#xe2;" horiz-adv-x="1110" d="M98 221q0 250 367 311l405 68l19 105q26 146 -45 224.5t-211 78.5q-101 0 -194.5 -46.5t-164.5 -127.5l-53 47q81 90 187 141t225 51q173 0 262 -98.5t59 -269.5l-127 -705h-63l29 158q-85 -93 -179.5 -140t-214.5 -47q-138 0 -219.5 67.5t-81.5 182.5zM172 221 q0 -81 61 -132.5t166 -51.5q127 0 226.5 58t185.5 171l49 273l-381 -66q-307 -53 -307 -252zM408 1196l274 340h111l151 -340h-61l-148 301l-254 -301h-73z" />
<glyph unicode="&#xe3;" horiz-adv-x="1110" d="M98 221q0 250 367 311l405 68l19 105q26 146 -45 224.5t-211 78.5q-101 0 -194.5 -46.5t-164.5 -127.5l-53 47q81 90 187 141t225 51q173 0 262 -98.5t59 -269.5l-127 -705h-63l29 158q-85 -93 -179.5 -140t-214.5 -47q-138 0 -219.5 67.5t-81.5 182.5zM172 221 q0 -81 61 -132.5t166 -51.5q127 0 226.5 58t185.5 171l49 273l-381 -66q-307 -53 -307 -252zM356 1237l17 102q11 71 58.5 120.5t119.5 49.5q47 0 84 -23.5t61 -57.5t46.5 -67.5t51.5 -57t64 -23.5q46 0 78 30t41 79l18 106h60l-19 -104q-11 -69 -59 -118.5t-119 -49.5 q-48 0 -85 23.5t-61.5 57.5t-47 67.5t-51.5 57t-64 23.5q-45 0 -76 -30.5t-39 -78.5l-18 -106h-60z" />
<glyph unicode="&#xe4;" horiz-adv-x="1110" d="M98 221q0 250 367 311l405 68l19 105q26 146 -45 224.5t-211 78.5q-101 0 -194.5 -46.5t-164.5 -127.5l-53 47q81 90 187 141t225 51q173 0 262 -98.5t59 -269.5l-127 -705h-63l29 158q-85 -93 -179.5 -140t-214.5 -47q-138 0 -219.5 67.5t-81.5 182.5zM172 221 q0 -81 61 -132.5t166 -51.5q127 0 226.5 58t185.5 171l49 273l-381 -66q-307 -53 -307 -252zM496 1473q0 28 18.5 45.5t46.5 17.5q27 0 45.5 -18t18.5 -45q0 -26 -18.5 -43t-45.5 -17q-28 0 -46.5 17t-18.5 43zM823 1473q0 27 19 45t47 18q27 0 45 -18t18 -45q0 -26 -18 -43 t-45 -17q-28 0 -47 17t-19 43z" />
<glyph unicode="&#xe5;" horiz-adv-x="1110" d="M98 221q0 250 367 311l405 68l19 105q26 146 -45 224.5t-211 78.5q-101 0 -194.5 -46.5t-164.5 -127.5l-53 47q81 90 187 141t225 51q173 0 262 -98.5t59 -269.5l-127 -705h-63l29 158q-85 -93 -179.5 -140t-214.5 -47q-138 0 -219.5 67.5t-81.5 182.5zM172 221 q0 -81 61 -132.5t166 -51.5q127 0 226.5 58t185.5 171l49 273l-381 -66q-307 -53 -307 -252zM477 1346q0 107 74 181.5t174 74.5q88 0 149.5 -59t61.5 -150q0 -107 -74 -180.5t-174 -73.5q-88 0 -149.5 58t-61.5 149zM545 1350q0 -66 40 -107t105 -41q79 0 128.5 54.5 t49.5 132.5q0 66 -40.5 107.5t-104.5 41.5q-79 0 -128.5 -55t-49.5 -133z" />
<glyph unicode="&#xe6;" horiz-adv-x="1904" d="M96 225q0 246 367 307l403 68l21 105q27 145 -44 224t-212 79q-101 0 -194.5 -46.5t-164.5 -127.5l-53 47q81 90 187 141t225 51q144 0 231 -70t94 -196q79 122 205 194t277 72q176 0 280.5 -104t104.5 -258q0 -66 -17 -133h-870q-14 -60 -14 -132q0 -88 26 -164t75 -134 t125.5 -91.5t172.5 -33.5q128 0 238 51t176 141l49 -45q-77 -99 -197 -155t-266 -56q-166 0 -278 79t-160 212q-109 -139 -223 -209t-263 -70q-138 0 -219.5 68.5t-81.5 185.5zM170 225q0 -83 61 -135.5t166 -52.5q98 0 183.5 38t149 97t132.5 150q-12 62 -12 127q0 45 6 88 l-379 -64q-307 -53 -307 -248zM952 641h795q12 73 -3.5 139.5t-53.5 117.5t-104 81.5t-150 30.5q-168 0 -298 -103t-186 -266z" />
<glyph unicode="&#xe7;" horiz-adv-x="1138" d="M102 449q0 123 45.5 236.5t125 199t194 137t244.5 51.5q141 0 247.5 -62t161.5 -169l-59 -37q-47 96 -138.5 150.5t-213.5 54.5q-150 0 -274 -78.5t-192.5 -207.5t-68.5 -278q0 -179 114.5 -301t305.5 -122q238 0 379 192l49 -45q-148 -192 -381 -209l-235 -289h-84 l241 287q-108 5 -196 46t-145.5 107.5t-88.5 153t-31 183.5z" />
<glyph unicode="&#xe8;" horiz-adv-x="1159" d="M102 449q0 125 38 237t108.5 198.5t179.5 137.5t242 51q178 0 291.5 -105t113.5 -257q0 -70 -16 -133h-873q-12 -64 -12 -132q0 -88 26 -164t75 -134t125.5 -91.5t172.5 -33.5q128 0 238 51t176 141l49 -45q-77 -99 -197 -155t-266 -56q-114 0 -205 39t-148.5 106.5 t-87.5 155.5t-30 189zM201 641h798q22 150 -70.5 259.5t-260.5 109.5q-178 0 -299.5 -101.5t-167.5 -267.5zM512 1536h82l149 -340h-65z" />
<glyph unicode="&#xe9;" horiz-adv-x="1159" d="M102 449q0 125 38 237t108.5 198.5t179.5 137.5t242 51q178 0 291.5 -105t113.5 -257q0 -70 -16 -133h-873q-12 -64 -12 -132q0 -88 26 -164t75 -134t125.5 -91.5t172.5 -33.5q128 0 238 51t176 141l49 -45q-77 -99 -197 -155t-266 -56q-114 0 -205 39t-148.5 106.5 t-87.5 155.5t-30 189zM201 641h798q22 150 -70.5 259.5t-260.5 109.5q-178 0 -299.5 -101.5t-167.5 -267.5zM670 1196l268 340h92l-287 -340h-73z" />
<glyph unicode="&#xea;" horiz-adv-x="1159" d="M102 449q0 125 38 237t108.5 198.5t179.5 137.5t242 51q178 0 291.5 -105t113.5 -257q0 -70 -16 -133h-873q-12 -64 -12 -132q0 -88 26 -164t75 -134t125.5 -91.5t172.5 -33.5q128 0 238 51t176 141l49 -45q-77 -99 -197 -155t-266 -56q-114 0 -205 39t-148.5 106.5 t-87.5 155.5t-30 189zM201 641h798q22 150 -70.5 259.5t-260.5 109.5q-178 0 -299.5 -101.5t-167.5 -267.5zM442 1196l275 340h110l152 -340h-61l-148 301l-254 -301h-74z" />
<glyph unicode="&#xeb;" horiz-adv-x="1159" d="M102 449q0 125 38 237t108.5 198.5t179.5 137.5t242 51q178 0 291.5 -105t113.5 -257q0 -70 -16 -133h-873q-12 -64 -12 -132q0 -88 26 -164t75 -134t125.5 -91.5t172.5 -33.5q128 0 238 51t176 141l49 -45q-77 -99 -197 -155t-266 -56q-114 0 -205 39t-148.5 106.5 t-87.5 155.5t-30 189zM201 641h798q22 150 -70.5 259.5t-260.5 109.5q-178 0 -299.5 -101.5t-167.5 -267.5zM530 1473q0 27 19 45t47 18q27 0 45 -18t18 -45q0 -26 -18 -43t-45 -17q-28 0 -47 17t-19 43zM858 1473q0 27 19 45t47 18q27 0 45 -18t18 -45q0 -26 -18 -43 t-45 -17q-28 0 -47 17t-19 43z" />
<glyph unicode="&#xec;" horiz-adv-x="493" d="M123 0l182 1032h66l-183 -1032h-65zM168 1536h82l149 -340h-65z" />
<glyph unicode="&#xed;" horiz-adv-x="493" d="M123 0l182 1032h66l-183 -1032h-65zM326 1196l268 340h92l-287 -340h-73z" />
<glyph unicode="&#xee;" horiz-adv-x="493" d="M98 1196l275 340h110l152 -340h-62l-147 301l-254 -301h-74zM123 0l182 1032h66l-183 -1032h-65z" />
<glyph unicode="&#xef;" horiz-adv-x="493" d="M123 0l182 1032h66l-183 -1032h-65zM186 1473q0 27 19 45t47 18q27 0 45 -18t18 -45q0 -26 -18 -43t-45 -17q-28 0 -47 17t-19 43zM514 1473q0 27 19 45t47 18q27 0 45 -18t18 -45q0 -26 -18 -43t-45 -17q-28 0 -47 17t-19 43z" />
<glyph unicode="&#xf0;" horiz-adv-x="1259" d="M102 457q0 125 42 237t117 196t186 133.5t241 49.5q123 0 223.5 -54t167.5 -140q-54 264 -268 452l-348 -127l12 64l287 104q-108 86 -262 164h110q124 -65 215 -141l383 139l-12 -64l-322 -116q300 -275 300 -715q0 -192 -74 -347.5t-206.5 -244t-297.5 -88.5 q-225 0 -359.5 137t-134.5 361zM176 455q0 -195 113.5 -313.5t304.5 -118.5q145 0 261 80t181.5 221t65.5 317q0 37 -4 111q-52 106 -161.5 181t-250.5 75q-153 0 -270 -74t-178.5 -199t-61.5 -280z" />
<glyph unicode="&#xf1;" horiz-adv-x="1245" d="M123 0l182 1032h66l-29 -160q167 201 397 201q188 0 281 -114.5t57 -319.5l-112 -639h-66l113 639q32 178 -43.5 274.5t-229.5 96.5q-248 0 -415 -244l-136 -766h-65zM424 1237l16 102q11 71 58.5 120.5t119.5 49.5q47 0 84 -23.5t61.5 -57.5t46.5 -67.5t51.5 -57 t64.5 -23.5q46 0 77.5 30t40.5 79l19 106h59l-18 -104q-11 -69 -59 -118.5t-119 -49.5q-48 0 -85.5 23.5t-61.5 57.5t-46.5 67.5t-52 57t-64.5 23.5q-45 0 -75.5 -30.5t-38.5 -78.5l-19 -106h-59z" />
<glyph unicode="&#xf2;" horiz-adv-x="1288" d="M102 449q0 165 77.5 307.5t218.5 229.5t313 87q148 0 258 -67.5t164.5 -177t54.5 -244.5q0 -123 -46 -237t-125 -199.5t-193.5 -137t-243.5 -51.5q-148 0 -258 67.5t-165 177.5t-55 245zM174 446q0 -179 111.5 -301t296.5 -122q150 0 273.5 78.5t192 207t68.5 277.5 q0 179 -111 301.5t-296 122.5q-150 0 -273.5 -78.5t-192.5 -207.5t-69 -278zM565 1536h82l150 -340h-66z" />
<glyph unicode="&#xf3;" horiz-adv-x="1288" d="M102 449q0 165 77.5 307.5t218.5 229.5t313 87q148 0 258 -67.5t164.5 -177t54.5 -244.5q0 -123 -46 -237t-125 -199.5t-193.5 -137t-243.5 -51.5q-148 0 -258 67.5t-165 177.5t-55 245zM174 446q0 -179 111.5 -301t296.5 -122q150 0 273.5 78.5t192 207t68.5 277.5 q0 179 -111 301.5t-296 122.5q-150 0 -273.5 -78.5t-192.5 -207.5t-69 -278zM723 1196l268 340h92l-286 -340h-74z" />
<glyph unicode="&#xf4;" horiz-adv-x="1288" d="M102 449q0 165 77.5 307.5t218.5 229.5t313 87q148 0 258 -67.5t164.5 -177t54.5 -244.5q0 -123 -46 -237t-125 -199.5t-193.5 -137t-243.5 -51.5q-148 0 -258 67.5t-165 177.5t-55 245zM174 446q0 -179 111.5 -301t296.5 -122q150 0 273.5 78.5t192 207t68.5 277.5 q0 179 -111 301.5t-296 122.5q-150 0 -273.5 -78.5t-192.5 -207.5t-69 -278zM496 1196l274 340h111l151 -340h-61l-148 301l-254 -301h-73z" />
<glyph unicode="&#xf5;" horiz-adv-x="1288" d="M102 449q0 165 77.5 307.5t218.5 229.5t313 87q148 0 258 -67.5t164.5 -177t54.5 -244.5q0 -123 -46 -237t-125 -199.5t-193.5 -137t-243.5 -51.5q-148 0 -258 67.5t-165 177.5t-55 245zM174 446q0 -179 111.5 -301t296.5 -122q150 0 273.5 78.5t192 207t68.5 277.5 q0 179 -111 301.5t-296 122.5q-150 0 -273.5 -78.5t-192.5 -207.5t-69 -278zM446 1237l17 102q11 71 58.5 120.5t119.5 49.5q47 0 84 -23.5t61 -57.5t46.5 -67.5t51.5 -57t64 -23.5q46 0 78 30t41 79l18 106h60l-19 -104q-11 -69 -59 -118.5t-119 -49.5q-48 0 -85 23.5 t-61.5 57.5t-47 67.5t-51.5 57t-64 23.5q-45 0 -76 -30.5t-39 -78.5l-18 -106h-60z" />
<glyph unicode="&#xf6;" horiz-adv-x="1288" d="M102 449q0 165 77.5 307.5t218.5 229.5t313 87q148 0 258 -67.5t164.5 -177t54.5 -244.5q0 -123 -46 -237t-125 -199.5t-193.5 -137t-243.5 -51.5q-148 0 -258 67.5t-165 177.5t-55 245zM174 446q0 -179 111.5 -301t296.5 -122q150 0 273.5 78.5t192 207t68.5 277.5 q0 179 -111 301.5t-296 122.5q-150 0 -273.5 -78.5t-192.5 -207.5t-69 -278zM584 1473q0 28 18.5 45.5t46.5 17.5q27 0 45.5 -18t18.5 -45q0 -26 -18.5 -43t-45.5 -17q-28 0 -46.5 17t-18.5 43zM911 1473q0 27 19 45t47 18q27 0 45 -18t18 -45q0 -26 -18 -43t-45 -17 q-28 0 -47 17t-19 43z" />
<glyph unicode="&#xf7;" d="M109 485l12 64h1001l-12 -64h-1001zM465 41q0 26 18.5 43.5t44.5 17.5q28 0 46 -17.5t18 -43.5q0 -27 -18 -44t-46 -17q-27 0 -45 17t-18 44zM633 991q0 26 18.5 44t44.5 18q28 0 46 -18t18 -44q0 -27 -18 -44t-46 -17q-27 0 -45 17t-18 44z" />
<glyph unicode="&#xf8;" horiz-adv-x="1288" d="M14 -41l183 172l4 4q-99 135 -99 314q0 165 77.5 307.5t218.5 229.5t313 87q212 0 344 -135l141 135h82l-184 -172l-4 -4q98 -134 98 -313q0 -123 -46 -237t-125 -199.5t-193.5 -137t-243.5 -51.5q-212 0 -342 133l-144 -133h-80zM174 446q0 -149 80 -262l747 707 q-113 119 -292 119q-150 0 -273.5 -78.5t-192.5 -207.5t-69 -278zM289 141q112 -118 293 -118q150 0 273.5 78.5t192 207t68.5 277.5t-80 262z" />
<glyph unicode="&#xf9;" horiz-adv-x="1208" d="M176 434l107 598h65l-106 -596q-35 -198 48 -305.5t259 -107.5q157 0 256 106t135 307l107 596h65l-106 -598q-40 -230 -157.5 -352.5t-299.5 -122.5q-206 0 -309 124t-64 351zM526 1536h82l150 -340h-66z" />
<glyph unicode="&#xfa;" horiz-adv-x="1208" d="M176 434l107 598h65l-106 -596q-35 -198 48 -305.5t259 -107.5q157 0 256 106t135 307l107 596h65l-106 -598q-40 -230 -157.5 -352.5t-299.5 -122.5q-206 0 -309 124t-64 351zM684 1196l268 340h92l-286 -340h-74z" />
<glyph unicode="&#xfb;" horiz-adv-x="1208" d="M176 434l107 598h65l-106 -596q-35 -198 48 -305.5t259 -107.5q157 0 256 106t135 307l107 596h65l-106 -598q-40 -230 -157.5 -352.5t-299.5 -122.5q-206 0 -309 124t-64 351zM457 1196l274 340h111l151 -340h-61l-148 301l-254 -301h-73z" />
<glyph unicode="&#xfc;" horiz-adv-x="1208" d="M176 434l107 598h65l-106 -596q-35 -198 48 -305.5t259 -107.5q157 0 256 106t135 307l107 596h65l-106 -598q-40 -230 -157.5 -352.5t-299.5 -122.5q-206 0 -309 124t-64 351zM545 1473q0 28 18.5 45.5t46.5 17.5q27 0 45.5 -18t18.5 -45q0 -26 -18.5 -43t-45.5 -17 q-28 0 -46.5 17t-18.5 43zM872 1473q0 27 19 45t47 18q27 0 45 -18t18 -45q0 -26 -18 -43t-45 -17q-28 0 -47 17t-19 43z" />
<glyph unicode="&#xfd;" horiz-adv-x="1062" d="M-188 -477l12 67q58 -39 149 -39q170 0 289 201l148 248l-265 1032h72l242 -950l565 950h76l-781 -1302q-76 -127 -159 -184.5t-187 -57.5q-105 0 -161 35zM612 1196l269 340h92l-287 -340h-74z" />
<glyph unicode="&#xfe;" horiz-adv-x="1323" d="M35 -504l358 2040h66l-113 -641q80 87 182 132.5t209 45.5q147 0 257.5 -63.5t167.5 -171.5t57 -244q0 -176 -75 -321.5t-209 -229.5t-300 -84q-138 0 -246 61t-166 173l-123 -697h-65zM238 281q54 -120 157 -189t238 -69q221 0 367.5 162.5t146.5 408.5 q0 181 -112 298.5t-300 117.5q-117 0 -224 -55t-183 -162z" />
<glyph unicode="&#xff;" horiz-adv-x="1062" d="M-188 -477l12 67q58 -39 149 -39q170 0 289 201l148 248l-265 1032h72l242 -950l565 950h76l-781 -1302q-76 -127 -159 -184.5t-187 -57.5q-105 0 -161 35zM473 1473q0 27 19 45t47 18q27 0 45 -18t18 -45q0 -26 -18 -43t-45 -17q-28 0 -47 17t-19 43zM801 1473 q0 28 18.5 45.5t46.5 17.5q27 0 45.5 -18t18.5 -45q0 -26 -18.5 -43t-45.5 -17q-28 0 -46.5 17t-18.5 43z" />
<glyph unicode="&#x152;" horiz-adv-x="2121" d="M147 629q0 125 37.5 243.5t111.5 220t177 178t242.5 120t298.5 43.5h1112l-12 -66h-601l-106 -606h520l-12 -64h-520l-111 -632h600l-12 -66h-1047q-156 0 -283.5 46t-214 129t-133.5 199t-47 255zM221 631q0 -253 164 -409t440 -156h392l227 1302h-430 q-144 0 -271.5 -40t-221.5 -110t-162.5 -163t-103 -201.5t-34.5 -222.5z" />
<glyph unicode="&#x153;" horiz-adv-x="2160" d="M100 449q0 123 46 236.5t125.5 199t194.5 137t245 51.5q181 0 299.5 -98t156.5 -258q69 160 209.5 258t317.5 98q176 0 280.5 -104t104.5 -258q0 -66 -17 -133h-870q-14 -60 -14 -132q0 -88 26 -164t75 -134t125.5 -91.5t172.5 -33.5q128 0 238 51t176 141l49 -45 q-77 -99 -197 -155t-266 -56q-185 0 -301.5 98.5t-151.5 259.5q-73 -161 -218.5 -259.5t-330.5 -98.5q-147 0 -256.5 67.5t-164 177.5t-54.5 245zM172 446q0 -116 48 -211.5t142 -153.5t216 -58q150 0 274.5 78.5t193 207t68.5 277.5q0 116 -48 212t-141.5 154t-215.5 58 q-150 0 -274.5 -78.5t-193.5 -207.5t-69 -278zM1208 641h795q12 73 -3.5 139.5t-53.5 117.5t-104 81.5t-150 30.5q-168 0 -298 -103t-186 -266z" />
<glyph unicode="&#x178;" horiz-adv-x="1259" d="M207 1434h74l387 -678l626 678h84l-682 -740l-123 -694h-69l123 698zM618 1749q0 27 19 45t47 18t47 -18t19 -45t-19 -44t-47 -17t-47 17t-19 44zM948 1749q0 27 19 45t47 18t46.5 -17.5t18.5 -45.5q0 -27 -18.5 -44t-46.5 -17t-47 17t-19 44z" />
<glyph unicode="&#x2c6;" horiz-adv-x="688" d="M195 1196l274 340h111l151 -340h-61l-148 301l-254 -301h-73z" />
<glyph unicode="&#x2dc;" horiz-adv-x="688" d="M145 1237l17 102q11 71 58.5 120.5t119.5 49.5q47 0 84 -23.5t61 -57.5t46.5 -67.5t51.5 -57t64 -23.5q46 0 78 30t41 79l18 106h60l-19 -104q-11 -69 -59 -118.5t-119 -49.5q-48 0 -85 23.5t-61.5 57.5t-47 67.5t-51.5 57t-64 23.5q-45 0 -76 -30.5t-39 -78.5l-18 -106 h-60z" />
<glyph unicode="&#x2000;" horiz-adv-x="989" />
<glyph unicode="&#x2001;" horiz-adv-x="1978" />
<glyph unicode="&#x2002;" horiz-adv-x="989" />
<glyph unicode="&#x2003;" horiz-adv-x="1978" />
<glyph unicode="&#x2004;" horiz-adv-x="659" />
<glyph unicode="&#x2005;" horiz-adv-x="494" />
<glyph unicode="&#x2006;" horiz-adv-x="329" />
<glyph unicode="&#x2007;" horiz-adv-x="329" />
<glyph unicode="&#x2008;" horiz-adv-x="247" />
<glyph unicode="&#x2009;" horiz-adv-x="395" />
<glyph unicode="&#x200a;" horiz-adv-x="109" />
<glyph unicode="&#x2010;" horiz-adv-x="616" d="M37 494l10 63h537l-11 -63h-536z" />
<glyph unicode="&#x2011;" horiz-adv-x="616" d="M37 494l10 63h537l-11 -63h-536z" />
<glyph unicode="&#x2012;" horiz-adv-x="616" d="M37 494l10 63h537l-11 -63h-536z" />
<glyph unicode="&#x2013;" horiz-adv-x="1073" d="M35 494l10 63h997l-10 -63h-997z" />
<glyph unicode="&#x2014;" horiz-adv-x="2146" d="M35 494l10 63h2071l-11 -63h-2070z" />
<glyph unicode="&#x2018;" horiz-adv-x="552" d="M231 934l263 500h63l-242 -500h-84z" />
<glyph unicode="&#x2019;" horiz-adv-x="552" d="M233 934l242 500h84l-262 -500h-64z" />
<glyph unicode="&#x201a;" horiz-adv-x="555" d="M10 -328l234 455h86l-254 -455h-66z" />
<glyph unicode="&#x201c;" horiz-adv-x="872" d="M231 934l263 500h63l-242 -500h-84zM553 934l262 500h64l-242 -500h-84z" />
<glyph unicode="&#x201d;" horiz-adv-x="874" d="M233 934l242 500h84l-262 -500h-64zM555 934l242 500h84l-263 -500h-63z" />
<glyph unicode="&#x201e;" horiz-adv-x="876" d="M10 -328l234 455h86l-254 -455h-66zM332 -328l233 455h86l-254 -455h-65z" />
<glyph unicode="&#x2022;" horiz-adv-x="522" d="M82 530q0 72 54 123.5t130 51.5t128 -51t52 -124q0 -76 -52 -129t-128 -53t-130 53.5t-54 128.5z" />
<glyph unicode="&#x2026;" horiz-adv-x="1284" d="M117 49q0 31 19.5 50.5t51.5 19.5t52 -19.5t20 -50.5t-20 -50t-52 -19t-51.5 19t-19.5 50zM489 49q0 31 20 50.5t52 19.5t52 -19.5t20 -50.5t-20 -50t-52 -19t-52 19t-20 50zM862 49q0 31 20 50.5t52 19.5t52 -19.5t20 -50.5t-20 -50t-52 -19t-52 19t-20 50z" />
<glyph unicode="&#x202f;" horiz-adv-x="395" />
<glyph unicode="&#x2039;" horiz-adv-x="616" d="M129 508l348 410h82l-352 -418l196 -402h-71z" />
<glyph unicode="&#x203a;" horiz-adv-x="616" d="M53 98l353 418l-197 402h72l202 -410l-348 -410h-82z" />
<glyph unicode="&#x205f;" horiz-adv-x="494" />
<glyph unicode="&#x20ac;" d="M63 516l11 66h180q6 64 18 135q3 20 11 55.5t10 48.5h-176l12 66h182q81 290 235.5 439t352.5 149q136 0 220.5 -55t140.5 -158l-64 -48q-49 95 -118.5 144t-186.5 49q-171 0 -303 -129t-205 -391h655l-12 -66h-659q-19 -76 -23 -104q-12 -71 -18 -135h659l-12 -66h-651 q-12 -247 74.5 -368t252.5 -121q117 0 206 49.5t165 142.5l47 -47q-88 -103 -192 -158t-242 -55q-193 0 -295.5 141t-87.5 416h-187z" />
<glyph unicode="&#x2122;" horiz-adv-x="1884" d="M219 1372l12 62h666l-12 -62h-299l-146 -821h-65l145 821h-301zM944 551l156 883h86l215 -508l395 508h92l-155 -883h-68l141 799l-385 -496h-59l-211 496l-139 -799h-68z" />
<glyph unicode="&#x25fc;" horiz-adv-x="1034" d="M0 0v1034h1034v-1034h-1034z" />
</font>
</defs>
</svg>
