<?xml version="1.0" encoding="utf-8"?>
<!-- Generator: Adobe Illustrator 24.3.0, SVG Export Plug-In . SVG Version: 6.00 Build 0)  -->
<svg version="1.1" id="Calque_1" xmlns="http://www.w3.org/2000/svg" xmlns:xlink="http://www.w3.org/1999/xlink" x="0px" y="0px"
	 viewBox="0 0 134 123" style="enable-background:new 0 0 134 123;" xml:space="preserve">
<style type="text/css">
	.st0{fill:#EDDDD6;}
	.st1{fill:#474780;}
	.st2{fill:#FCB45D;}
	.st3{fill:#F8A398;}
	.st4{fill:#010101;}
	.st5{fill:#FFFFFF;}
	.st6{fill:#FCB35B;}
	.st7{fill:#D19865;}
	.st8{fill:#7772D3;}
	.st9{fill:#46467F;}
	.st10{fill:#C49576;}
	.st11{fill:#F7734F;}
	.st12{fill:#2D328F;}
	.st13{fill:#9492C7;}
	.st14{fill:#7470B3;}
	.st15{fill:#2F3180;}
	.st16{fill:#F3C0BC;}
	.st17{fill:#65477F;}
	.st18{fill:#E56445;}
	.st19{fill:#FCD69F;}
	.st20{fill:#FEBF6A;}
	.st21{fill:#4485A5;}
	.st22{fill:#E24786;}
	.st23{fill:#FCA397;}
	.st24{fill:#7A491D;}
	.st25{fill:#EFADA3;}
	.st26{fill:#273339;}
	.st27{fill:#F47351;}
	.st28{fill:#B77E34;}
	.st29{fill:#C48C4E;}
	.st30{fill:#F7CBA4;}
	.st31{fill:#7C3C1D;}
	.st32{fill:#A85527;}
	.st33{fill:#CC997F;}
	.st34{fill:#D8B7A9;}
	.st35{fill:#F7C29A;}
	.st36{fill:#E5AC39;}
</style>
<polygon class="st0" points="25.5,24.8 20.6,66 26,106.1 67.3,110.9 108.5,105.6 113.4,65.2 108,24.3 66.7,19.5 "/>
<g>
	<path d="M66.7,37.2c0,0-9.2-1.4-15.8,2.7c-6.6,4.1-3.6,15.1-3.6,15.1s-10.6,8.3-11.1,17.3c-0.6,9.1,7.7,12.4,7.7,12.4l21.8-3.3
		L66.7,37.2z"/>
</g>
<g>
	<path class="st21" d="M106.8,89.8c-1.4,2.7-3.2,5.3-5.1,7.7c-1.2,1.5-2.5,2.9-3.9,4.2c-1,1-2.1,1.9-3.2,2.8c-1.3,1.1-2.7,2.1-4.2,3
		l-3.8-32.7c0,0,3.8,0.8,12.6,8.4C103,86.4,105.3,88.5,106.8,89.8z"/>
</g>
<g>
	<path class="st21" d="M94.6,104.4c-1.3,1.1-2.7,2.1-4.2,3c-0.5,0.3-1.1,0.7-1.6,1c-6.8,3.9-14.7,6.1-23.2,6.1
		c-1.8,0-3.5-0.1-5.2-0.3c-1-0.1-2-0.2-3-0.4c-2.1-0.4-4.2-0.9-6.2-1.5c-0.4-0.1-0.9-0.3-1.3-0.4c-0.4-16.5-0.5-33,0.5-34.4
		c1.6-2.2,7-4.5,13.1-5.5c1.6-0.2,3.2-0.4,4.9-0.4c7.9-0.2,18.1,3.1,18.1,3.1L94.6,104.4z"/>
</g>
<g>
	<path class="st21" d="M65.6,90.9l-5.2,23.3c-1-0.1-2-0.2-3-0.4c-2.1-0.4-4.2-0.9-6.2-1.5c-0.4-0.1-0.9-0.3-1.3-0.4
		c-5.7-2-10.8-5.1-15.2-9c-1.8-1.6-3.6-3.4-5.1-5.3c13.5-25.4,33.9-26.1,33.9-26.1l0,0.4L65.6,90.9z"/>
</g>
<g>
	<path class="st22" d="M63.5,72.8c0,0,3.8,5.6,8.2,8.9c4.4,3.4,6.5,3.7,6.5,3.7l-0.3-10.8L63.5,72.8z"/>
</g>
<g>
	<g>
		<path class="st23" d="M63.7,61.7l-0.2,10.7c0,0,1.9,3.1,8.1,3.7c4.7,0.5,6.3-0.6,6.3-0.6l-0.6-5.4l-0.6-5.3l-11.3-2.7L63.7,61.7z"
			/>
	</g>
</g>
<g>
	<g>
		<path d="M65.6,62.1c0,0.3,0.1,0.6,0.3,1c2.3,5.4,8.8,6.7,11.5,6.9l-0.6-5.3L65.6,62.1z"/>
	</g>
</g>
<g>
	<g>
		<path class="st23" d="M79.7,40.5c0,0,5.4,13.5,3,20.9c-2.3,7.4-9.1,6-13.2,4.4c-4-1.6-5.9-4.1-5.9-4.1s-3.9,1.2-6.3-2.5
			c-2.4-3.6-0.7-7.7,1.5-8.5c2.2-0.9,4.8,0.8,4.8,0.8l-1.9-3.9C61.7,47.6,70.9,28.2,79.7,40.5z"/>
	</g>
</g>
<g>
	<path d="M70.6,45c-0.1,0-0.2,0-0.3-0.1c-0.2-0.2-0.3-0.5-0.1-0.7c1.5-1.9,3.5-1.5,4.3-1c0.2,0.1,0.3,0.4,0.2,0.7
		c-0.1,0.2-0.4,0.3-0.7,0.2c-0.1,0-1.7-0.9-3.1,0.8C70.9,45,70.8,45,70.6,45z"/>
</g>
<g>
	<path d="M81.1,44.7c-0.1,0-0.2,0-0.3-0.1c-1.1-0.9-2.2-0.3-2.3-0.3c-0.2,0.1-0.5,0-0.7-0.2c-0.1-0.2-0.1-0.5,0.2-0.7
		c0.1,0,1.8-1,3.4,0.4c0.2,0.2,0.2,0.5,0.1,0.7C81.3,44.6,81.2,44.7,81.1,44.7z"/>
</g>
<g>
	<path d="M79.1,55.8C79,55.8,79,55.8,79.1,55.8c-0.3,0-0.5-0.3-0.5-0.6c0.5-3.4-1-5.9-1-5.9c-0.1-0.2-0.1-0.5,0.2-0.7
		c0.2-0.1,0.5-0.1,0.7,0.2c0.1,0.1,1.7,2.8,1.1,6.6C79.5,55.7,79.3,55.8,79.1,55.8z"/>
</g>
<g>
	<path d="M80.9,50.8c-0.2,0-0.4-0.2-0.5-0.4L79.8,48c0-0.1,0-0.3,0-0.4l0.8-1.4c0.1-0.2,0.4-0.3,0.7-0.2c0.2,0.1,0.3,0.4,0.2,0.7
		l-0.7,1.2l0.6,2.3c0.1,0.3-0.1,0.5-0.4,0.6C81,50.8,81,50.8,80.9,50.8z"/>
</g>
<g>
	<path d="M73.1,50.9c-0.2,0-0.4-0.2-0.5-0.4L72,48c0-0.2,0-0.3,0.1-0.4l1.1-1.4c0.2-0.2,0.5-0.3,0.7-0.1c0.2,0.2,0.3,0.5,0.1,0.7
		L73,48l0.6,2.2c0.1,0.3-0.1,0.5-0.4,0.6C73.2,50.8,73.2,50.9,73.1,50.9z"/>
</g>
<g>
	<path d="M63.7,51.8l2,2.6c0,0,4.2-5.8,4.2-9c0-3.2,0-4.4,0-4.4s4.2,1.5,7.7,1.4c3.5-0.1,5.6-1.9,5.4-3.6c-0.2-1.6-2.3-6.6-13.1-5
		C59,35.5,58.8,48.1,63.7,51.8z"/>
</g>
<g>
	<path class="st5" d="M83.4,87.2c-0.5,0-11.3-0.8-20.2-14.6C63,72.4,63,72.1,63.3,72c0.2-0.1,0.5-0.1,0.7,0.1
		c8.6,13.3,19.3,14.1,19.4,14.1c0.3,0,0.5,0.3,0.5,0.5C83.8,87,83.6,87.2,83.4,87.2z"/>
</g>
<g>
	<path class="st5" d="M78.2,86c-0.3,0-0.5-0.2-0.5-0.5l-0.3-10.8c0-0.3,0.2-0.5,0.5-0.5c0.3,0,0.5,0.2,0.5,0.5l0.3,10.8
		C78.7,85.7,78.5,86,78.2,86C78.2,86,78.2,86,78.2,86z"/>
</g>
<g>
	<path d="M77.5,59.6c-1,0-2.2-0.9-2.6-1.2c-0.2-0.2-0.3-0.5-0.1-0.7c0.2-0.2,0.5-0.3,0.7-0.1c0.7,0.6,1.8,1.1,2.1,0.9
		c0.2-0.1,0.5,0,0.7,0.2c0.1,0.2,0,0.5-0.2,0.7C78,59.5,77.8,59.6,77.5,59.6z"/>
</g>
</svg>
