<?xml version="1.0" encoding="utf-8"?>
<!-- Generator: Adobe Illustrator 24.3.0, SVG Export Plug-In . SVG Version: 6.00 Build 0)  -->
<svg version="1.1" id="Calque_1" xmlns="http://www.w3.org/2000/svg" xmlns:xlink="http://www.w3.org/1999/xlink" x="0px" y="0px"
	 viewBox="0 0 134 123" style="enable-background:new 0 0 134 123;" xml:space="preserve">
<style type="text/css">
	.st0{fill:#EDDDD6;}
	.st1{fill:#474780;}
	.st2{fill:#FCB45D;}
	.st3{fill:#F8A398;}
	.st4{fill:#010101;}
	.st5{fill:#FFFFFF;}
	.st6{fill:#FCB35B;}
	.st7{fill:#D19865;}
	.st8{fill:#7772D3;}
	.st9{fill:#46467F;}
	.st10{fill:#C49576;}
	.st11{fill:#F7734F;}
	.st12{fill:#2D328F;}
	.st13{fill:#9492C7;}
	.st14{fill:#7470B3;}
	.st15{fill:#2F3180;}
	.st16{fill:#F3C0BC;}
	.st17{fill:#65477F;}
	.st18{fill:#E56445;}
	.st19{fill:#FCD69F;}
	.st20{fill:#FEBF6A;}
	.st21{fill:#4485A5;}
	.st22{fill:#E24786;}
	.st23{fill:#FCA397;}
	.st24{fill:#7A491D;}
	.st25{fill:#EFADA3;}
	.st26{fill:#273339;}
	.st27{fill:#F47351;}
	.st28{fill:#B77E34;}
	.st29{fill:#C48C4E;}
	.st30{fill:#F7CBA4;}
	.st31{fill:#7C3C1D;}
	.st32{fill:#A85527;}
	.st33{fill:#CC997F;}
	.st34{fill:#D8B7A9;}
	.st35{fill:#F7C29A;}
	.st36{fill:#E5AC39;}
</style>
<polygon class="st0" points="25.5,22.7 20.6,63.9 26,104 67.3,108.8 108.5,103.5 113.4,63.1 108,22.2 66.7,17.4 "/>
<g>
	<path class="st31" d="M54.7,55.5c0.7-3.3,3.2-5.5,5.5-5l1.2,0.2c0.1,0,0.3,0,0.4,0.1c2.3,0.5,3.6,3.6,2.9,6.8
		c-0.7,3.3-3.2,5.5-5.5,5L58,62.4c-0.1,0-0.3,0-0.4-0.1C55.2,61.8,53.9,58.8,54.7,55.5z"/>
</g>
<g>
	<path class="st32" d="M27.8,88.7c0.8,1.6,1.8,3.1,2.8,4.5c2.9,4.2,6.5,7.9,10.6,10.9c0,0,0,0,0.1,0.1c0.3,0.2,0.5,0.4,0.8,0.6
		c5.1,3.6,10.9,6.1,17.1,7.4c3.1,0.7,6.3,1,9.6,1c7.6,0,14.7-1.8,21-5c3.7-1.8,7-4.2,10-6.8c1.6-1.5,3.2-3,4.6-4.7
		c0.6-0.8,1.2-1.5,1.8-2.3c-7.4-8.9-13.9-10.7-13.9-10.7c0.2-0.2,2.5-2.9,0-7.8C89,69.4,78.8,65.4,78.8,65.4l-18-1.1
		c0,0-7.6,0.5-13.2,7c-4.6,5.3-3.8,8.7-3.4,9.7c0.1,0.2,0.2,0.3,0.2,0.3S36.5,84,27.8,88.7z"/>
</g>
<g>
	<path class="st33" d="M44.2,81.1c3.7,2.4,9.7,5.3,18.2,7.2c15.8,3.5,29.9-4.7,29.9-4.7c0.2-0.2,2.5-2.9,0-7.8
		C89,69.4,78.8,65.4,78.8,65.4l-18-1.1c0,0-7.6,0.5-13.2,7C42.9,76.7,43.7,80.1,44.2,81.1z"/>
</g>
<g>
	<path class="st34" d="M76.2,77.3c0,0,7.1-3.7,6.7-5.9c-0.4-2.2-7.4-3.6-11.8-2.8c-4.4,0.8-15,1-15,4.8c0,3.4,4.8,6.6,4.8,6.6
		l10.1-2.9L76.2,77.3z"/>
</g>
<g>
	<g>
		<g>
			<g>
				<path class="st35" d="M76.4,66.1l-0.2,11.2c0,0-2.1,3.2-8.6,3.6C62.7,81.1,61,80,61,80l0.8-5.7l0.8-5.5l11.9-2.3L76.4,66.1z"/>
			</g>
		</g>
	</g>
</g>
<g>
	<g>
		<g>
			<g>
				<path class="st4" d="M74.4,66.5c0,0.3-0.2,0.7-0.3,1.1c-2.6,5.5-9.5,6.6-12.3,6.8l0.8-5.5L74.4,66.5z"/>
			</g>
		</g>
	</g>
</g>
<g>
	<g>
		<g>
			<g>
				<path class="st35" d="M60.6,43.3c0,0-6.2,13.9-4,21.7c2.1,7.8,9.3,6.7,13.6,5.2c4.3-1.5,6.3-4.1,6.3-4.1s4,1.4,6.7-2.3
					c2.7-3.7,1.1-8-1.2-8.9c-2.3-1-5,0.6-5,0.6l2.1-4C79.1,51.4,70.3,30.8,60.6,43.3z"/>
			</g>
		</g>
	</g>
</g>
<g>
	<path class="st4" d="M61.2,61c0,0,0.1,0,0.1,0c0.3-0.1,0.4-0.4,0.3-0.6c-0.8-2.5,1.1-5.3,1.1-5.3c0.2-0.2,0.1-0.5-0.1-0.7
		c-0.2-0.2-0.5-0.1-0.7,0.1c-0.1,0.1-2.2,3.2-1.3,6.2C60.8,60.9,60.9,61,61.2,61z"/>
</g>
<g>
	<path class="st4" d="M77.5,62c0.1,0,0.3-0.1,0.4-0.2l3.8-4c0.2-0.2,0.2-0.5,0-0.7c-0.2-0.2-0.5-0.2-0.7,0l-3.8,4
		c-0.2,0.2-0.2,0.5,0,0.7C77.3,62,77.4,62,77.5,62z"/>
</g>
<g>
	<path class="st4" d="M81.5,61c0.2,0,0.4-0.2,0.5-0.4c0-0.3-0.1-0.5-0.4-0.5L79,59.6c-0.3,0-0.5,0.1-0.5,0.4c0,0.3,0.1,0.5,0.4,0.5
		L81.5,61C81.5,61,81.5,61,81.5,61z"/>
</g>
<g>
	<path class="st36" d="M76.9,55.5c0,0-1.4,0.9-2.5-0.7c-1-1.6,1.2-6.5,1.2-6.5s-4.3,1-7-0.4c-2.7-1.4-4-5.4-4-5.4s-2,4.1-7.9,2.3
		s-7-9.8-0.7-11.5c6.3-1.6,9.7,1.1,9.7,1.1s0.8-5.8,8.6-2.9c7.1,2.6,8.3,11.5,8.3,11.5s4.3,0.2,5.1,4.8c0.8,4.6-4.6,8-4.6,8
		S80.1,54,76.9,55.5z"/>
</g>
<g>
	<path class="st4" d="M67.5,55.8c0.2,0,0.5-0.2,0.5-0.4l0.3-2.6c0-0.3-0.2-0.5-0.4-0.6c-0.3,0-0.5,0.2-0.6,0.4L67,55.3
		C66.9,55.5,67.1,55.8,67.5,55.8C67.4,55.8,67.5,55.8,67.5,55.8z"/>
</g>
<g>
	<path class="st4" d="M59.8,55.2c0.2,0,0.5-0.2,0.5-0.4l0.4-2.6c0-0.3-0.1-0.5-0.4-0.6c-0.3,0-0.5,0.1-0.6,0.4l-0.4,2.6
		C59.2,54.9,59.4,55.2,59.8,55.2C59.7,55.2,59.7,55.2,59.8,55.2z"/>
</g>
<g>
	<path class="st4" d="M69.9,50.9c0.1,0,0.2,0,0.2-0.1c0.2-0.1,0.3-0.4,0.2-0.7c-1-1.9-3.3-1.4-3.4-1.4c-0.3,0.1-0.4,0.3-0.4,0.6
		c0.1,0.3,0.3,0.4,0.6,0.4c0.1,0,1.7-0.3,2.3,0.8C69.5,50.8,69.7,50.9,69.9,50.9z"/>
</g>
<g>
	<path class="st4" d="M62.4,49.2c0.1,0,0.2,0,0.3-0.1c0.2-0.2,0.3-0.5,0.1-0.7c-0.4-0.6-0.9-0.9-1.5-1c-1.2-0.2-2.4,0.9-2.4,0.9
		c-0.2,0.2-0.2,0.5,0,0.7c0.2,0.2,0.5,0.2,0.7,0c0.2-0.2,1-0.7,1.7-0.7c0.3,0,0.6,0.2,0.8,0.6C62.1,49.2,62.2,49.2,62.4,49.2z"/>
</g>
<g>
	<path class="st31" d="M68.5,90c14.8-0.8,20.6-4.2,20.8-4.4c0.2-0.1,0.3-0.5,0.2-0.7c-0.1-0.2-0.4-0.3-0.7-0.2
		c-0.1,0-5.8,3.4-20.3,4.2c-0.3,0-0.5,0.3-0.5,0.5C68,89.8,68.2,90,68.5,90z"/>
</g>
<g>
	<path class="st31" d="M68.1,106.9c0.3,0,0.5-0.2,0.5-0.5l-0.4-12c0-0.3-0.2-0.5-0.5-0.5c-0.3,0-0.5,0.2-0.5,0.5l0.4,12
		C67.6,106.7,67.8,106.9,68.1,106.9z"/>
</g>
<g>
	<path class="st31" d="M48.5,103.3c0.2,0,0.3-0.1,0.4-0.2l6-10.1c0.1-0.2,0.1-0.5-0.2-0.7c-0.2-0.1-0.5-0.1-0.7,0.2l-6,10.1
		c-0.1,0.2-0.1,0.5,0.2,0.7C48.3,103.2,48.4,103.3,48.5,103.3z"/>
</g>
<g>
	<path class="st31" d="M48.5,84.1c0.2,0,0.4-0.1,0.4-0.3c0.1-0.2,0-0.5-0.2-0.7L44.6,81c-0.2-0.1-0.5,0-0.7,0.2
		c-0.1,0.2,0,0.5,0.2,0.7l4.1,2.2C48.3,84.1,48.4,84.1,48.5,84.1z"/>
</g>
<g>
	<g>
		<path class="st31" d="M73.9,59.6c-0.4,3.3,1.1,6.2,3.5,6.5c2.3,0.3,4.6-2.1,5-5.5c0.4-3.3-1.1-6.2-3.5-6.5
			C76.5,53.8,74.3,56.3,73.9,59.6z"/>
	</g>
	<g>
		<polygon class="st31" points="78.9,54.1 80.5,54.4 78.9,66.4 77.3,66.1 75.6,64.2 75,57.6 		"/>
	</g>
	<g>
		<path class="st5" d="M75.5,59.9c-0.4,3.3,1.1,6.2,3.5,6.5c2.3,0.3,4.6-2.1,5-5.5c0.4-3.3-1.1-6.2-3.5-6.5
			C78.1,54.1,75.9,56.6,75.5,59.9z"/>
	</g>
</g>
<g>
	<path class="st5" d="M81.7,39.3c0,0,1.8,2.1,2.3,4c0.5,1.9-2.4,13.8-2.4,13.8l-3.7-0.8L81.7,39.3z"/>
</g>
<g>
	<path class="st4" d="M64.5,65c1.7,0,3-1.3,3.4-2.1c0.1-0.2,0.1-0.5-0.2-0.7c-0.2-0.1-0.5-0.1-0.7,0.2c0,0.1-1.2,2-3.3,1.5
		c-0.3-0.1-0.5,0.1-0.6,0.4c-0.1,0.3,0.1,0.5,0.4,0.6C63.9,64.9,64.2,65,64.5,65z"/>
</g>
</svg>
