<svg id="Calque_1" data-name="Calque 1" xmlns="http://www.w3.org/2000/svg" width="134" height="123" viewBox="0 0 134 123"><defs><style>.cls-1{fill:#edddd6;}.cls-2{fill:#010101;}.cls-3{fill:#2f3180;}.cls-4{fill:#f3c0bc;}.cls-5{fill:#fff;}</style></defs><polygon class="cls-1" points="25.54 21.091 20.617 62.292 26.005 102.381 67.259 107.226 108.461 101.909 113.383 61.506 107.995 20.619 66.741 15.774 25.54 21.091"/><path class="cls-2" d="M87.3927,74.3958S86.5405,28.3017,70.2366,26.64,52.001,36.4357,52.001,36.4357s-4.0641,1.448-4.8867,7.6451S45.9063,75,45.9063,75l36.816,2.107Z"/><path class="cls-3" d="M104.385,91.316c-.58.97-1.19,1.92-1.84,2.85-.13.17-.26.33-.4.49-.86,1.02-1.77,2.01-2.71,2.95a44.7112,44.7112,0,0,1-4.88,4.23c-.84.64-1.71,1.25-2.6,1.83a3.2069,3.2069,0,0,1-.31.19,41.0845,41.0845,0,0,1-3.92,2.26c-.31.16-.62.32-.94.47a47.2384,47.2384,0,0,1-4.46,1.88,45.0423,45.0423,0,0,1-6.24,1.77,46.6361,46.6361,0,0,1-9.59.99c-.65,0-1.31-.01-1.96-.04-.75-.03-1.49-.08-2.23-.15-.05,0-.09-.01-.14-.01-1.39-.13-2.77-.32-4.12-.58q-1.17-.21-2.31-.48a46.8893,46.8893,0,0,1-11.71-4.52c-.04-.02-.07-.04-.11-.06-.2-.11-.4-.22-.59-.34-.61-.34-1.22-.7-1.81-1.08-3.12-12.32-4.37-23.49-.51-28.02a4.7766,4.7766,0,0,1,.66-.69,29.3513,29.3513,0,0,1,2.89-2.16.8794.8794,0,0,0,.1-.06,34.4738,34.4738,0,0,1,5.39-2.83.11.11,0,0,1,.06-.03c12.24-5.1,28.02-4.25,36.62-.66C92.255,71.826,99.065,81.976,104.385,91.316Z"/><path class="cls-4" d="M58.9514,57.8833l-.0005,11.3214s2.0415,3.2546,8.6646,3.7932c4.9338.4012,6.4961-2.1325,6.4961-2.1325l-1.1945-9.9071L60.9579,58.3271Z"/><path class="cls-2" d="M58.9688,57.193a3.7192,3.7192,0,0,0,.329,1.0924c2.5331,5.6554,11.4477,8.0092,14.2973,8.2645l-.678-5.5916Z"/><path class="cls-5" d="M94.925,97.306l-.52,4.64c-.36.28-.73.54-1.1.8l.63-5.55c.78-6.98-2.69-15.63-2.73-15.72a.5024.5024,0,0,1,.93-.38C92.275,81.466,95.735,90.076,94.925,97.306Z"/><path class="cls-4" d="M75.4426,35.1528s5.9411,14.1949,3.5985,22.0813-9.54,6.5276-13.834,4.9293A14.2929,14.2929,0,0,1,58.95,57.8858a6.0884,6.0884,0,0,1-6.6942-2.4877c-2.6395-3.7925-.9115-8.074,1.4069-9.0252s5.0312.7542,5.0312.7542L56.611,42.9963S65.9654,22.3136,75.4426,35.1528Z"/><path class="cls-2" d="M74.5233,53.1082a.5005.5005,0,0,1-.4746-.6582c.8506-2.5463-1.0127-5.38-1.0313-5.4086a.5.5,0,0,1,.83-.5572c.0889.1319,2.1572,3.2652,1.15,6.2822A.5012.5012,0,0,1,74.5233,53.1082Z"/><path class="cls-2" d="M57.9579,53.7762a.4976.4976,0,0,1-.3711-.165l-3.7393-4.1431a.5.5,0,0,1,.7422-.67l3.7392,4.1431a.5.5,0,0,1-.371.8349Z"/><path class="cls-2" d="M53.9276,52.599a.5.5,0,0,1-.0625-.9961l2.6572-.3423a.506.506,0,0,1,.56.4321.5007.5007,0,0,1-.4326.56l-2.6573.3423A.58.58,0,0,1,53.9276,52.599Z"/><path class="cls-2" d="M77.5282,41.6317a.4789.4789,0,0,1-.0987-.01l-2.4922-.498a.5.5,0,1,1,.1954-.98l2.4921.498a.5.5,0,0,1-.0966.99Z"/><path class="cls-2" d="M67.0809,43.014a.5.5,0,0,1-.2148-.9517l3.3388-1.5864a.5.5,0,0,1,.43.9033l-3.3389,1.5865A.5022.5022,0,0,1,67.0809,43.014Z"/><path class="cls-2" d="M76.3817,47.4183a.5.5,0,0,1-.4815-.3652l-.7168-2.5645a.4986.4986,0,0,1,.1026-.46l.8047-.9366a.5.5,0,1,1,.7578.6514l-.63.7339.6445,2.3066a.5.5,0,0,1-.4814.6348Z"/><path class="cls-2" d="M68.244,47.9232a.5.5,0,0,1-.4815-.3652l-.7177-2.5645a.5.5,0,0,1,.11-.47l1.1113-1.2329a.5.5,0,1,1,.7422.67l-.9267,1.0283.6435,2.2993a.5.5,0,0,1-.4814.6348Z"/><path class="cls-2" d="M79.5109,40.1945a35.6775,35.6775,0,0,0-6.6548-.6782l-2.7434.1025-1.1134-4.412.0142,4.8133A14.7284,14.7284,0,0,0,65.16,41.3549,15.0362,15.0362,0,0,0,61.97,43.5928l-1.8188-3.7117.7656,4.6729-2.2233,2.5731-3.3547-3.1416,2.1482-6.5131s5.0629-7.0689,5.4536-7.1531,7.6914-.4865,7.6914-.4865,6.2812,2.4551,6.4334,2.6616S79.5109,40.1945,79.5109,40.1945Z"/><path class="cls-5" d="M68.4959,73.1463a17.9114,17.9114,0,0,1-10.3007-3.4326.5.5,0,1,1,.5683-.8223c8.6582,5.9844,15.625,2.0279,15.916,1.856a.5.5,0,0,1,.5088.8613A14.3888,14.3888,0,0,1,68.4959,73.1463Z"/><path class="cls-3" d="M62.165,111.026c-1.39-.13-2.77-.32-4.12-.58q-1.17-.21-2.31-.48a46.8893,46.8893,0,0,1-11.71-4.52c-.04-.02-.07-.04-.11-.06-.2-.11-.4-.22-.59-.34-.61-.34-1.22-.7-1.81-1.08-.55-.34-1.08-.7-1.61-1.07-.95-.65-1.88-1.35-2.78-2.09-.11-.08-.21-.16-.32-.25q-1.905-1.59-3.65-3.36c-.33-.33-.65-.67-.96-1.01-.74-.79-1.45-1.62-2.11-2.46-.15-.18-.29-.35-.43-.53a.2092.2092,0,0,1-.04-.06,45.5787,45.5787,0,0,1,11.39-17.19,33.5234,33.5234,0,0,1,3.55-2.85.8794.8794,0,0,0,.1-.06,21.7039,21.7039,0,0,1,5.39-2.83.11.11,0,0,1,.06-.03C50.125,70.176,62.165,111.026,62.165,111.026Z"/><path class="cls-2" d="M73.0516,57.4212a5.8526,5.8526,0,0,1-2.957-1.48.5019.5019,0,0,1-.1426-.5577.51.51,0,0,1,.4766-.3222l4.6152.0844a.5005.5005,0,0,1,.3506.8482,7.8,7.8,0,0,1-1.7256,1.2827A1.2859,1.2859,0,0,1,73.0516,57.4212Zm-.9893-1.33c.4961.2671.9336.4082,1.1338.3042.1621-.0874.3155-.1806.459-.2753Z"/><path class="cls-5" d="M58.9509,57.6616a2.3652,2.3652,0,1,1-2.3651-2.3651A2.3651,2.3651,0,0,1,58.9509,57.6616Z"/></svg>