<?xml version="1.0" encoding="utf-8"?>
<!-- Generator: Adobe Illustrator 24.3.0, SVG Export Plug-In . SVG Version: 6.00 Build 0)  -->
<svg version="1.1" id="Calque_1" xmlns="http://www.w3.org/2000/svg" xmlns:xlink="http://www.w3.org/1999/xlink" x="0px" y="0px"
	 viewBox="0 0 134 123" style="enable-background:new 0 0 134 123;" xml:space="preserve">
<style type="text/css">
	.st0{fill:#EDDDD6;}
	.st1{fill:#474780;}
	.st2{fill:#FCB45D;}
	.st3{fill:#F8A398;}
	.st4{fill:#010101;}
	.st5{fill:#FFFFFF;}
	.st6{fill:#FCB35B;}
	.st7{fill:#D19865;}
	.st8{fill:#7772D3;}
	.st9{fill:#46467F;}
	.st10{fill:#C49576;}
	.st11{fill:#F7734F;}
	.st12{fill:#2D328F;}
	.st13{fill:#9492C7;}
	.st14{fill:#7470B3;}
	.st15{fill:#2F3180;}
	.st16{fill:#F3C0BC;}
	.st17{fill:#65477F;}
	.st18{fill:#E56445;}
	.st19{fill:#FCD69F;}
	.st20{fill:#FEBF6A;}
	.st21{fill:#4485A5;}
	.st22{fill:#E24786;}
	.st23{fill:#FCA397;}
	.st24{fill:#7A491D;}
	.st25{fill:#EFADA3;}
	.st26{fill:#273339;}
	.st27{fill:#F47351;}
	.st28{fill:#B77E34;}
	.st29{fill:#C48C4E;}
	.st30{fill:#F7CBA4;}
	.st31{fill:#7C3C1D;}
	.st32{fill:#A85527;}
	.st33{fill:#CC997F;}
	.st34{fill:#D8B7A9;}
	.st35{fill:#F7C29A;}
	.st36{fill:#E5AC39;}
</style>
<polygon class="st0" points="25.5,25.7 20.6,66.9 26,107 67.3,111.8 108.5,106.5 113.4,66.1 108,25.2 66.7,20.4 "/>
<g id="Calque_2_3_">
	<g>
		<path class="st21" d="M30.9,104.8c1.2,1,2.4,1.9,3.6,2.7c0.9,0.7,1.9,1.2,2.9,1.8c5.5,3.2,11.6,5.4,18.2,6.4
			c2,0.3,4.1,0.4,6.1,0.4c0.3,0,0.7,0,1,0c4.1,0,8-0.4,11.8-1.4c5.5-1.3,10.7-3.6,15.4-6.6c1.6-1.1,3.3-2.3,4.8-3.5
			c2.2-1.8,4.2-3.7,6-5.9c0.9-1,1.6-2,2.4-3.1c-3.4-8.1-9.8-19.8-18.3-22.7c-13.5-4.5-42.2,1.9-42.2,1.9S33,79.8,30.9,104.8z"/>
	</g>
	<g>
		<path class="st21" d="M37.3,109.3c5.5,3.2,11.6,5.4,18.2,6.4c2,0.3,4.1,0.4,6.1,0.4c0.3,0,0.7,0,1,0c4.1,0,8-0.4,11.8-1.4
			c5.5-1.3,10.7-3.6,15.4-6.6c1.6-1.1,3.3-2.3,4.8-3.5c-0.1-13.2-1.1-25.2-4.3-28.1c-1.6-1.4-3.5-2.6-5.6-3.5c-4.7-2-9.9-2.7-13.4-3
			c-2.3-0.1-3.7-0.1-3.7-0.1s-3.1,0.1-7.1,0.5c-1.1,0.1-2.3,0.3-3.5,0.4c-7,1-15.2,3-17.3,6.7C38.1,81,37.4,95.3,37.3,109.3z"/>
	</g>
	<g>
		<path class="st29" d="M53.1,43.7c0,0-6.6-11.1-1.1-13.4c5.4-2.4,11.8,3.6,11.8,3.6s12.2,1.1,16.8,7.6c4.6,6.5-6.8,17.9-6.8,17.9
			L53.1,43.7z"/>
	</g>
	<g>
		<g>
			<path class="st30" d="M71.8,61.9l0.7,11.2c0,0-1.9,3.3-8.3,4.3c-4.8,0.7-6.7-0.3-6.7-0.3l0.3-5.7l0.3-5.6l11.6-3.3L71.8,61.9z"/>
		</g>
	</g>
	<g>
		<g>
			<path class="st4" d="M69.8,62.5c0,0.3-0.1,0.7-0.2,1.1c-2.2,5.7-9,7.3-11.7,7.8l0.3-5.6L69.8,62.5z"/>
		</g>
	</g>
	<g>
		<g>
			<path class="st30" d="M54.1,40.4c0,0-5,14.4-2.2,22s9.9,5.9,14,4.1c4.2-1.9,5.9-4.6,5.9-4.6s4.1,1.1,6.5-2.9c2.4-3.9,0.4-8-2-8.9
				c-2.3-0.8-4.9,1.1-4.9,1.1l1.9-4.2C73.2,47,62.7,27.2,54.1,40.4z"/>
		</g>
	</g>
	<g>
		<path class="st4" d="M72.1,57.4c0.1,0,0.2,0,0.3-0.1l4.8-3.9c0.2-0.2,0.2-0.5,0.1-0.8c-0.2-0.2-0.5-0.2-0.8-0.1l-4.8,3.9
			c-0.2,0.2-0.2,0.5-0.1,0.8C71.9,57.3,72,57.4,72.1,57.4z"/>
	</g>
	<g>
		<path class="st4" d="M76.7,57.1c0.2,0,0.4-0.2,0.5-0.4c0.1-0.3-0.1-0.5-0.4-0.7l-3.4-0.7c-0.3-0.1-0.5,0.1-0.7,0.4
			c-0.1,0.3,0.1,0.5,0.4,0.7L76.7,57.1C76.7,57,76.7,57.1,76.7,57.1z"/>
	</g>
	<g>
		<path class="st4" d="M63.8,46.5c0.1,0,0.2,0,0.3-0.1c0.2-0.2,0.2-0.5,0-0.8c-1.6-2-3.7-1.4-4.6-0.9c-0.2,0.1-0.3,0.4-0.2,0.8
			c0.1,0.2,0.4,0.3,0.8,0.2c0.2-0.1,1.8-1,3.2,0.7C63.4,46.4,63.7,46.5,63.8,46.5z"/>
	</g>
	<g>
		<path class="st4" d="M52.9,46c0.1,0,0.2,0,0.3-0.1c1.1-1,2.3-0.4,2.3-0.4c0.2,0.1,0.5,0,0.8-0.2c0.1-0.2,0-0.5-0.2-0.8
			c-0.1,0-2-1-3.6,0.5c-0.2,0.2-0.2,0.5,0,0.8C52.6,45.9,52.8,46,52.9,46z"/>
	</g>
	<g>
		<path class="st4" d="M55.4,56.6c0.1,0,0.1,0,0.2,0c0.3-0.1,0.4-0.4,0.3-0.7c-1.4-3.9,0.4-6.3,0.5-6.3c0.2-0.2,0.2-0.5-0.1-0.8
			c-0.2-0.2-0.5-0.2-0.8,0.1c-0.1,0.1-2.3,2.9-0.7,7.3C55,56.4,55.2,56.6,55.4,56.6z"/>
	</g>
	<g>
		<path class="st4" d="M53.2,51.4c0.2,0,0.4-0.2,0.5-0.4l0.5-2.6c0.1-0.3-0.1-0.5-0.4-0.7c-0.3-0.1-0.5,0.1-0.7,0.4l-0.5,2.6
			c-0.1,0.3,0.1,0.5,0.4,0.7C53.2,51.4,53.2,51.4,53.2,51.4z"/>
	</g>
	<g>
		<path class="st4" d="M61.5,51.6c0.2,0,0.4-0.2,0.5-0.4l0.5-2.6c0.1-0.3-0.1-0.5-0.4-0.7s-0.5,0.1-0.7,0.4L60.9,51
			c-0.1,0.3,0.1,0.5,0.4,0.7C61.4,51.6,61.5,51.6,61.5,51.6z"/>
	</g>
	<g>
		<path class="st29" d="M53.1,43.7c0,0,1.1-2.3,3.8-2.5c2.7-0.2,4.5,1.6,4.5,1.6s-1,4.8,3.1,7c3.9,2.3,6.8,1.4,6.8,1.4l2.7-1.2
			l1.8-4.1l-8.6-8.1l-10.6-4.8l-4.9,5L53.1,43.7z"/>
	</g>
	<g>
		<path class="st4" d="M58.5,60.8c0.4,0,3.1-0.1,4.1-2.6c0.1-0.3,0-0.5-0.3-0.7s-0.5,0-0.7,0.3c-0.8,2-3,2-3.1,2
			c-0.3,0-0.5,0.2-0.5,0.5C58,60.6,58.2,60.8,58.5,60.8L58.5,60.8z"/>
	</g>
	<g>
		<path class="st5" d="M60.6,78.3c7.3,0,12.9-5,13.2-5.4c0.2-0.2,0.2-0.5,0-0.8c-0.2-0.2-0.5-0.2-0.8,0c-0.1,0.1-7.3,6.7-15.9,4.6
			c-0.3-0.1-0.5,0.1-0.7,0.4s0.1,0.5,0.4,0.7C58.1,78.2,59.4,78.3,60.6,78.3z"/>
	</g>
</g>
</svg>
