<?xml version="1.0" encoding="utf-8"?>
<!-- Generator: Adobe Illustrator 24.3.0, SVG Export Plug-In . SVG Version: 6.00 Build 0)  -->
<svg version="1.1" id="Calque_1" xmlns="http://www.w3.org/2000/svg" xmlns:xlink="http://www.w3.org/1999/xlink" x="0px" y="0px"
	 viewBox="0 0 134 123" style="enable-background:new 0 0 134 123;" xml:space="preserve">
<style type="text/css">
	.st0{fill:#EDDDD6;}
	.st1{fill:#474780;}
	.st2{fill:#FCB45D;}
	.st3{fill:#F8A398;}
	.st4{fill:#010101;}
	.st5{fill:#FFFFFF;}
	.st6{fill:#FCB35B;}
	.st7{fill:#D19865;}
	.st8{fill:#7772D3;}
	.st9{fill:#46467F;}
	.st10{fill:#C49576;}
	.st11{fill:#F7734F;}
	.st12{fill:#2D328F;}
	.st13{fill:#9492C7;}
	.st14{fill:#7470B3;}
	.st15{fill:#2F3180;}
	.st16{fill:#F3C0BC;}
	.st17{fill:#65477F;}
	.st18{fill:#E56445;}
	.st19{fill:#FCD69F;}
	.st20{fill:#FEBF6A;}
	.st21{fill:#4485A5;}
	.st22{fill:#E24786;}
	.st23{fill:#FCA397;}
	.st24{fill:#7A491D;}
	.st25{fill:#EFADA3;}
	.st26{fill:#273339;}
	.st27{fill:#F47351;}
	.st28{fill:#B77E34;}
	.st29{fill:#C48C4E;}
	.st30{fill:#F7CBA4;}
	.st31{fill:#7C3C1D;}
	.st32{fill:#A85527;}
	.st33{fill:#CC997F;}
	.st34{fill:#D8B7A9;}
	.st35{fill:#F7C29A;}
	.st36{fill:#E5AC39;}
</style>
<polygon class="st0" points="25.5,26.7 20.6,67.9 26,108 67.3,112.8 108.5,107.5 113.4,67.1 108,26.2 66.7,21.4 "/>
<g>
	<path class="st26" d="M83.1,105.6l-1,0.4l-3,1.3l-17.7,7.5c-2.1-0.2-4.1-0.6-6.1-1.1c-1.5-0.4-2.9-0.8-4.3-1.3
		c-0.2-0.1-0.5-0.2-0.7-0.2c-0.5-0.2-1.1-0.4-1.6-0.6c-1.4-0.6-2.7-1.2-4-1.9c-0.6-0.3-1.1-0.6-1.7-0.9c-0.1-0.1-0.3-0.2-0.4-0.2
		c-1.1-0.6-2.1-1.3-3.2-2.1c-0.6-0.4-1.2-0.9-1.8-1.4c-2.9-2.3-5.5-4.9-7.8-7.8c-0.3-0.4-0.6-0.8-0.9-1.3c5.8-9,17.1-23.5,30.6-25.3
		c1.9-0.3,3.7-0.1,5.3,0.3c4,1,7.1,3.9,9.6,7.6c0.4,0.6,0.8,1.1,1.1,1.7C81.6,90.6,83.1,105.6,83.1,105.6z"/>
</g>
<g>
	<path class="st4" d="M54.9,49.7c0,0-3.6-10.3-0.5-14.9c2.7-4.1,16.2-1.9,21,1.2s5,7.2,5,7.2s2.3,0.6,2.9,2.6c0.5,2-1.2,5.3-1.2,5.3
		s-2.4-3-5.8-1.1C72.9,52.1,54.9,49.7,54.9,49.7z"/>
</g>
<g>
	<g>
		<path class="st5" d="M83.6,111.9c-0.6,0.2-1.2,0.5-1.9,0.7c-0.6,0.2-1.1,0.4-1.7,0.6s-1.2,0.3-1.8,0.5c-3.7,1-7.7,1.5-11.7,1.5
			c-1.7,0-3.5-0.1-5.2-0.3c-2.1-0.2-4.1-0.6-6.1-1.1c-1.5-0.4-2.9-0.8-4.3-1.3c-0.2-0.1-0.5-0.2-0.7-0.2c-0.5-0.2-1.1-0.4-1.6-0.6
			c-1.4-0.6-2.7-1.2-4-1.9c0.6-5.5,1.1-9.1,1.1-9.1l13.7-29.8l5.3,0.3l8.4,0.4v0.1l2.3,8.8l6.6,25.8L83.6,111.9z"/>
	</g>
</g>
<g>
	<g>
		<g>
			<g>
				<g>
					<path class="st3" d="M73.3,64.5l0.5,9c0,0-3.4,2.8-7.2,3c-5.1,0.3-7-3.6-7-3.6v-9.2L73.3,64.5z"/>
				</g>
			</g>
		</g>
	</g>
</g>
<g>
	<g>
		<g>
			<g>
				<g>
					<path class="st4" d="M73,65.8c0,0-1.6,6.2-7.4,5.5c-4.7-0.5-6.2-6.8-6.2-6.8L73,65.8z"/>
				</g>
			</g>
		</g>
	</g>
</g>
<g>
	<g>
		<g>
			<g>
				<g>
					<path class="st3" d="M56.3,43.9c0,0-2.2,14.2,2.6,20.8s10.7,4.4,13.3,2.3c3.5-2.9,4.1-6.8,4.1-6.8s5,0.8,6.5-3.3
						c1.6-4.3-1.6-7.6-4.1-7.7c-2.5-0.1-2.8,0.3-2.8,0.3l0.6-4.5C76.5,45,60.9,28.8,56.3,43.9z"/>
				</g>
			</g>
		</g>
	</g>
</g>
<g>
	<g>
		<g>
			<g>
				<g>
					<path class="st3" d="M58.9,50.5c0,0-7.6-2.9-8,2.9c-0.5,6.7,7.6,6.5,7.6,6.5L58.9,50.5z"/>
				</g>
			</g>
		</g>
	</g>
</g>
<g>
	<g>
		<path class="st4" d="M77.2,50c0,0-2.6,1.2-8.2-2.7c-5.7-3.8-4.2-8.7-4.2-8.7s-7.4,5-8.9,10.9c-1.5,6-2.9-13.8,5.7-13.7
			C70.1,36,83.1,41.1,77.2,50z"/>
	</g>
</g>
<g>
	<g>
		<path class="st26" d="M59.5,70.7c0,0-4.9,14.1-8.4,41.6c0,0.1,0,0.1,0,0.2c-0.2-0.1-0.5-0.2-0.7-0.2c-0.5-0.2-1.1-0.4-1.6-0.6
			c-1.4-0.6-2.7-1.2-4-1.9c-0.6-0.3-1.1-0.6-1.7-0.9c-0.1-0.1-0.3-0.2-0.4-0.2c-1.1-0.6-2.1-1.3-3.2-2.1c0.2-3.6,0.4-5.8,0.4-5.8
			L59.5,70.7z"/>
	</g>
</g>
<g>
	<g>
		<path class="st26" d="M107.9,90.1c0,0.1-0.1,0.1-0.1,0.2c-0.2,0.4-0.4,0.7-0.6,1.1c-5.2,9.3-13.6,16.6-23.6,20.5
			c-0.6,0.2-1.2,0.5-1.9,0.7c-0.6,0.2-1.1,0.4-1.7,0.6c-0.3-1.8-0.6-3.7-0.9-5.8c-1.4-8.6-3.1-19.3-4.7-28.8
			c-0.4-2.4-0.7-8.4-0.8-8.7c0,0,18.7-0.9,33.6,19.3C107.5,89.4,107.7,89.8,107.9,90.1z"/>
	</g>
</g>
<g>
	<path class="st4" d="M77,56.8c-0.1,0-0.2,0-0.3-0.1c-0.2-0.2-0.2-0.5-0.1-0.7l3.2-3.8c0.2-0.2,0.5-0.2,0.7-0.1
		c0.2,0.2,0.2,0.5,0.1,0.7l-3.2,3.8C77.3,56.7,77.1,56.8,77,56.8z"/>
</g>
<g>
	<path class="st4" d="M80.6,55.7C80.6,55.7,80.5,55.7,80.6,55.7l-2.4-0.2c-0.3,0-0.5-0.3-0.4-0.5c0-0.3,0.3-0.5,0.5-0.4l2.4,0.2
		c0.3,0,0.5,0.3,0.4,0.5C81,55.5,80.8,55.7,80.6,55.7z"/>
</g>
<g>
	<path class="st4" d="M69.4,52.2c-0.3,0-0.5-0.2-0.5-0.5v-2.4c0-0.3,0.2-0.5,0.5-0.5s0.5,0.2,0.5,0.5v2.4
		C69.9,51.9,69.7,52.2,69.4,52.2L69.4,52.2z"/>
</g>
<g>
	<path class="st4" d="M60.6,52.6c-0.3,0-0.5-0.2-0.5-0.5v-2.4c0-0.3,0.2-0.5,0.5-0.5s0.5,0.2,0.5,0.5v2.4
		C61.1,52.4,60.8,52.6,60.6,52.6z"/>
</g>
<g>
	<path class="st4" d="M55.5,56.6c-0.2,0-0.3-0.1-0.4-0.2l-2.8-3.8c-0.2-0.2-0.1-0.5,0.1-0.7c0.2-0.2,0.5-0.1,0.7,0.1l2.8,3.8
		c0.2,0.2,0.1,0.5-0.1,0.7C55.7,56.5,55.6,56.6,55.5,56.6z"/>
</g>
<g>
	<path class="st4" d="M52.3,55.5c-0.2,0-0.5-0.2-0.5-0.4c0-0.3,0.2-0.5,0.4-0.6l2.2-0.3c0.3,0,0.5,0.2,0.6,0.4
		c0,0.3-0.2,0.5-0.4,0.6L52.3,55.5L52.3,55.5z"/>
</g>
<g>
	<path class="st4" d="M65.1,59.4c-0.2,0-0.3-0.1-0.4-0.2c-2-2.8-0.4-6.5-0.4-6.6c0.1-0.3,0.4-0.4,0.7-0.3c0.3,0.1,0.4,0.4,0.3,0.7
		c0,0-1.4,3.3,0.3,5.7c0.2,0.2,0.1,0.5-0.1,0.7C65.3,59.3,65.2,59.4,65.1,59.4z"/>
</g>
<g>
	<path class="st4" d="M68.4,62.3c-0.8,0-1.5-0.4-1.6-0.5s-0.2-0.2-0.2-0.4s0.1-0.3,0.2-0.4l2.7-2c0.1-0.1,0.3-0.1,0.5-0.1
		c0.2,0.1,0.3,0.2,0.3,0.4c0.1,1.4-0.3,2.3-1,2.8C69,62.2,68.7,62.3,68.4,62.3z M68,61.2c0.3,0.1,0.6,0.1,0.8,0
		c0.2-0.1,0.4-0.4,0.4-0.8L68,61.2z"/>
</g>
<g>
	<path class="st4" d="M59.2,47.9c-0.2,0-0.3-0.1-0.4-0.3c-0.1-0.2,0-0.5,0.2-0.7l2-1.1c0.2-0.1,0.5,0,0.7,0.2c0.1,0.2,0,0.5-0.2,0.7
		l-2,1.1C59.3,47.9,59.2,47.9,59.2,47.9z"/>
</g>
<g>
	<path class="st4" d="M70.2,47.7c-0.1,0-0.1,0-0.2,0l-3-1.2c-0.3-0.1-0.4-0.4-0.3-0.6c0.1-0.3,0.4-0.4,0.6-0.3l3,1.2
		c0.3,0.1,0.4,0.4,0.3,0.6C70.5,47.6,70.4,47.7,70.2,47.7z"/>
</g>
<g>
	<path class="st27" d="M80.1,53.4c0,0,0.8,1.8-0.2,2.5S77.8,56,77.8,56L80.1,53.4z"/>
</g>
<g>
	<path class="st27" d="M52.8,53.2c0,0-0.9,1.7,0,2.5s2.1,0.3,2.1,0.3L52.8,53.2z"/>
</g>
<g>
	<path class="st27" d="M66.3,82.7c-8.4,0-13-26-13.2-27.1c0-0.3,0.1-0.5,0.4-0.6c0.3-0.1,0.5,0.1,0.6,0.4c1.3,7.4,6,26.3,12.2,26.3
		c0.1,0,0.1,0,0.2,0c8.8-0.6,12.3-26.3,12.3-26.6s0.3-0.5,0.6-0.4c0.3,0,0.5,0.3,0.4,0.6c-0.1,1.1-3.7,26.8-13.2,27.4
		C66.5,82.7,66.4,82.7,66.3,82.7z"/>
</g>
<g>
	<g>
		<path class="st27" d="M72.2,114.8c-0.4,0.1-0.8,0.1-1.1,0.1c-6.5-9.5-5-31.7-4.9-32.7c0-0.3,0.3-0.5,0.5-0.5
			c0.3,0,0.5,0.3,0.5,0.5C67.1,82.5,65.5,105.8,72.2,114.8z"/>
	</g>
</g>
</svg>
