<?xml version="1.0" encoding="utf-8"?>
<!-- Generator: Adobe Illustrator 24.3.0, SVG Export Plug-In . SVG Version: 6.00 Build 0)  -->
<svg version="1.1" id="Calque_1" xmlns="http://www.w3.org/2000/svg" xmlns:xlink="http://www.w3.org/1999/xlink" x="0px" y="0px"
	 viewBox="0 0 134 123" style="enable-background:new 0 0 134 123;" xml:space="preserve">
<style type="text/css">
	.st0{fill:#EDDDD6;}
	.st1{fill:#474780;}
	.st2{fill:#FCB45D;}
	.st3{fill:#F8A398;}
	.st4{fill:#010101;}
	.st5{fill:#FFFFFF;}
	.st6{fill:#FCB35B;}
	.st7{fill:#D19865;}
	.st8{fill:#7772D3;}
	.st9{fill:#46467F;}
	.st10{fill:#C49576;}
	.st11{fill:#F7734F;}
	.st12{fill:#2D328F;}
	.st13{fill:#9492C7;}
	.st14{fill:#7470B3;}
	.st15{fill:#2F3180;}
	.st16{fill:#F3C0BC;}
	.st17{fill:#65477F;}
	.st18{fill:#E56445;}
	.st19{fill:#FCD69F;}
	.st20{fill:#FEBF6A;}
	.st21{fill:#4485A5;}
	.st22{fill:#E24786;}
	.st23{fill:#FCA397;}
	.st24{fill:#7A491D;}
	.st25{fill:#EFADA3;}
	.st26{fill:#273339;}
	.st27{fill:#F47351;}
	.st28{fill:#B77E34;}
	.st29{fill:#C48C4E;}
	.st30{fill:#F7CBA4;}
	.st31{fill:#7C3C1D;}
	.st32{fill:#A85527;}
	.st33{fill:#CC997F;}
	.st34{fill:#D8B7A9;}
	.st35{fill:#F7C29A;}
	.st36{fill:#E5AC39;}
</style>
<polygon class="st0" points="25.5,21.8 20.6,63 26,103.1 67.3,108 108.5,102.7 113.4,62.3 108,21.4 66.7,16.5 "/>
<g>
	<path class="st17" d="M104.4,104.1c-1.9,1.5-3.8,2.9-5.9,4.2c-0.9,0.6-1.8,1.1-2.8,1.6c-0.3,0.1-0.5,0.3-0.8,0.4
		c-7,3.5-14.8,5.5-23.2,5.5c-2.8,0-5.6-0.2-8.4-0.7c-2-0.3-3.9-0.7-5.7-1.3c-6.2-1.8-11.9-4.7-16.9-8.5c-1.2-0.9-2.4-1.9-3.5-2.9
		c-1.9-1.7-3.6-3.5-5.3-5.5c-0.6-0.7-1.1-1.4-1.6-2.1c3.4-5.2,9.2-11.9,17.8-15.4c2.4-0.9,5-1.7,7.8-2c0.2,0,0.3,0,0.5-0.1
		c0.3,0,0.5-0.1,0.7-0.1c0,0,0,0,0.1,0c0.2,0,0.4,0,0.6,0c0.3,0,0.7,0,0.9-0.1c0.7-0.1,1.4-0.1,2.1-0.1C80,76.4,90.2,84,90.8,84.5
		c0.1,0,0.1,0.1,0.1,0.1c0.2,0.2,0.7,0.7,1.3,1.5C94.7,89,100.1,95.6,104.4,104.1z"/>
</g>
<g>
	<path class="st18" d="M64.4,51.3c0,0,4.3-1.1,6.4-3.6c2-2.5,2.4-8.7,2.4-8.7s7.8,4.1,9.9,3.6c2.1-0.5,6.1-9.7,3.4-13.7
		c-2.7-4-8.2,1-8.2,1s-1.1-5.7-7.2-4.4c-7.1,1.6-8.9,8.7-8.9,8.7s-0.5-7.8-5.4-4.4c-4.9,3.4-3.1,12.4-3.1,12.4s-3.9,1.7-3.1,5.4
		c0.8,3.7,6.1,7.3,6.1,7.3L64.4,51.3z"/>
</g>
<g>
	<g>
		<path class="st19" d="M63.7,62.5l-1,11.8c0,0,1.9,3.6,9,4.7c5.3,0.9,7.2-0.2,7.2-0.2l-0.2-6l-0.2-5.9l-12.6-3.8L63.7,62.5z"/>
	</g>
</g>
<g>
	<g>
		<path class="st4" d="M65.8,63.1c0,0.3,0.1,0.7,0.3,1.2c2.2,6.1,9.5,8,12.6,8.5l-0.2-5.9L65.8,63.1z"/>
	</g>
</g>
<g>
	<g>
		<path class="st19" d="M83.5,40.3c0,0,5.1,15.3,1.9,23.2c-3.2,8-10.8,5.9-15.3,3.9c-4.5-2-6.3-5-6.3-5s-4.5,1-7-3.2
			c-2.5-4.2-0.2-8.5,2.3-9.2c2.6-0.8,5.3,1.2,5.3,1.2l-1.9-4.5C62.5,46.8,74.5,26.2,83.5,40.3z"/>
	</g>
</g>
<g>
	<path class="st4" d="M63.4,59.9c-0.1,0-0.2,0-0.3-0.1l-4.7-3.9c-0.2-0.2-0.2-0.5-0.1-0.7c0.2-0.2,0.5-0.2,0.7-0.1l4.7,3.9
		c0.2,0.2,0.2,0.5,0.1,0.7C63.7,59.9,63.6,59.9,63.4,59.9z"/>
</g>
<g>
	<path class="st4" d="M72.8,45.8c-0.1,0-0.3-0.1-0.4-0.2c-0.2-0.2-0.2-0.6,0-0.8c1.9-2,4.1-1.4,5-0.8c0.3,0.2,0.3,0.5,0.2,0.8
		C77.4,45,77,45.1,76.8,45c-0.1,0-1.9-1.1-3.6,0.6C73.1,45.7,73,45.8,72.8,45.8z"/>
</g>
<g>
	<path class="st4" d="M84.7,46.2c-0.1,0-0.3-0.1-0.4-0.2c-1.2-1.1-2.5-0.5-2.6-0.5c-0.3,0.1-0.6,0-0.7-0.3c-0.1-0.3,0-0.6,0.3-0.7
		c0.1,0,2.1-1,3.8,0.7c0.2,0.2,0.2,0.6,0,0.8C85,46.1,84.8,46.2,84.7,46.2z"/>
</g>
<g>
	<path class="st4" d="M81.6,57.2c-0.1,0-0.1,0-0.2,0c-0.3-0.1-0.4-0.4-0.3-0.7c1.6-3.9-1.1-5.3-1.2-5.4c-0.3-0.1-0.4-0.5-0.2-0.7
		c0.1-0.3,0.5-0.4,0.7-0.3c0,0,3.8,1.9,1.8,6.8C82.1,57.1,81.8,57.2,81.6,57.2z"/>
</g>
<g>
	<path class="st4" d="M84.1,51.8c-0.3,0-0.5-0.2-0.5-0.4L83,48.6C83,48.3,83.2,48,83.5,48c0.3-0.1,0.6,0.1,0.6,0.4l0.5,2.8
		c0.1,0.3-0.1,0.6-0.4,0.6C84.2,51.8,84.1,51.8,84.1,51.8z"/>
</g>
<g>
	<path class="st4" d="M75.3,51.3c-0.3,0-0.5-0.2-0.5-0.4l-0.5-2.8c-0.1-0.3,0.1-0.6,0.4-0.6c0.3-0.1,0.6,0.1,0.6,0.4l0.5,2.8
		c0.1,0.3-0.1,0.6-0.4,0.6C75.4,51.3,75.3,51.3,75.3,51.3z"/>
</g>
<g>
	<path class="st4" d="M78.2,61.6c-0.3,0-3.3-0.1-4.3-2.9c-0.1-0.3,0-0.6,0.3-0.7c0.3-0.1,0.6,0,0.7,0.3c0.8,2.1,3.2,2.1,3.3,2.2
		c0.3,0,0.6,0.2,0.6,0.5C78.8,61.4,78.5,61.6,78.2,61.6C78.2,61.6,78.2,61.6,78.2,61.6z"/>
</g>
<g>
	<path class="st18" d="M64.4,51.3c0,0,4.6-0.8,6.4-4.6c1.7-3.8,1.5-7.2,1.5-7.2s2.3,2.6,6.4,2.1c4.1-0.4,5.2-4.6,5.2-4.6l-3.7-4.4
		c0,0-15.3,3.2-15.7,2.8c-0.4-0.5-6,9.5-6,9.5L64.4,51.3z"/>
</g>
<g>
	<path class="st17" d="M94.9,110.3c-7,3.5-14.8,5.5-23.2,5.5c-2.8,0-5.6-0.2-8.4-0.7c-2-0.3-3.9-0.7-5.7-1.3
		c-6.2-1.8-11.9-4.7-16.9-8.5c2.1-13.1,4.4-23.9,6.2-25.1c0.4-0.3,0.8-0.5,1.3-0.7c2.4-1.2,5.3-1.7,7.8-2c0.2,0,0.3,0,0.5-0.1
		c0.3,0,0.5-0.1,0.7-0.1c0.2,0,0.5,0,0.7-0.1c0.3,0,0.7,0,0.9-0.1c1.3-0.1,2.1-0.1,2.1-0.1s0,0,0-0.1c0.1-0.7,0.6-6.4,2.1-6.3
		c1.6,0.1,5.6,2.9,9.8,3.2c4.2,0.3,6.5,0,7.3,0c0.8,0,1,4.5,1,4.5s5.6,1.9,9.7,5.9c0.1,0,0.1,0.1,0.1,0.1c0.2,0.2,0.7,0.7,1.3,1.5
		c0.5,0.6,0.9,1.3,1.3,2C94.7,90.4,95,99.5,94.9,110.3z"/>
</g>
<g>
	<path class="st20" d="M69.8,79.7c-3.9,0-8.9-1.8-9.1-1.9c-0.3-0.1-0.4-0.4-0.3-0.7c0.1-0.3,0.4-0.4,0.7-0.3c0.1,0,6.9,2.5,10.5,1.7
		c0.3-0.1,0.6,0.1,0.7,0.4c0.1,0.3-0.1,0.6-0.4,0.7C71.2,79.6,70.5,79.7,69.8,79.7z"/>
</g>
<g>
	<path class="st4" d="M58.9,59.8c-0.2,0-0.4-0.1-0.4-0.3c-0.1-0.2,0-0.5,0.2-0.7l2.7-1.4c0.2-0.1,0.5,0,0.7,0.2
		c0.1,0.2,0,0.5-0.2,0.7l-2.7,1.4C59.1,59.8,59,59.8,58.9,59.8z"/>
</g>
<g>
	<path class="st4" d="M76.2,54.5h-3.1c-1.3,0-2.4-1.1-2.4-2.4V49c0-0.5,0.4-0.9,0.9-0.9h6.2c0.5,0,0.9,0.4,0.9,0.9V52
		C78.6,53.4,77.5,54.5,76.2,54.5z"/>
</g>
<g>
	<path class="st4" d="M78.6,52.3c-0.1,0-0.3-0.1-0.4-0.2c-0.2-0.2-0.2-0.6,0-0.8c0.1-0.1,1.9-1.8,4.9-1.1c0.3,0.1,0.5,0.4,0.4,0.7
		c-0.1,0.3-0.4,0.5-0.7,0.4c-2.5-0.5-3.9,0.8-3.9,0.9C78.9,52.3,78.8,52.3,78.6,52.3z"/>
</g>
<g>
	<path class="st4" d="M60.9,50c-0.3,0-0.5-0.2-0.5-0.4c-0.1-0.3,0.1-0.6,0.4-0.7c6.8-1.5,10.9-0.1,11.1,0c0.3,0.1,0.4,0.4,0.3,0.7
		c-0.1,0.3-0.4,0.4-0.7,0.3c0,0-4-1.4-10.5,0.1C61,50,60.9,50,60.9,50z"/>
</g>
</svg>
