<svg id="Calque_1" data-name="Calque 1" xmlns="http://www.w3.org/2000/svg" width="134" height="123" viewBox="0 0 134 123"><defs><style>.cls-1{fill:#edddd6;}.cls-2{fill:#46467f;}.cls-3{fill:#fcb35b;}.cls-4{fill:#c49576;}.cls-5{fill:#f7734f;}.cls-6{fill:#7772d3;}</style></defs><polygon class="cls-1" points="25.54 19.646 20.617 60.847 26.005 100.935 67.259 105.78 108.461 100.463 113.383 60.061 107.995 19.174 66.741 14.329 25.54 19.646"/><path class="cls-2" d="M42.77,73.0807l-5.27,28.31-.01.08c-.11-.08-.23-.16-.34-.24-.78-.56-1.55-1.15-2.29-1.76a1.0592,1.0592,0,0,1-.12-.1,45.7725,45.7725,0,0,1-5.18-4.96C33.5733,83.4074,42.77,73.0807,42.77,73.0807Z"/><path class="cls-3" d="M110.07,72.3207a46.2619,46.2619,0,0,1-10.18,21.12c-.52.62-1.06,1.22-1.61,1.81a46.43,46.43,0,0,1-7.68,6.58,50.3754,50.3754,0,0,1-7.65-1.15c-1.57-.35-3.14-.77-4.7-1.24-1.71-.52-3.4-1.1-5.07-1.72-2.43-.9-4.79-1.9-7.05-2.93a136.0375,136.0375,0,0,1-20.15-11.48,34.0848,34.0848,0,0,1-1.63-4.1,44.2145,44.2145,0,0,1-1.26-4.53c-.04-.17-.08-.35-.11-.52a.4169.4169,0,0,0-.02-.06c-.06-.33-.13-.67-.19-1.02a38.2876,38.2876,0,0,1-.53-10.44c.32-3.57,2.7-8.25,5.09-13.43.73-1.62,1.46-3.25,2.13-4.92.45-1.11.87-2.23,1.24-3.36a32.9585,32.9585,0,0,0,1.57-6.62,14.3472,14.3472,0,0,0,.15-1.57,19.7811,19.7811,0,0,0-.05-3.08,14.87,14.87,0,0,1,16.41.51,11.39,11.39,0,0,1,4.31,5.08,21.4661,21.4661,0,0,1,1.28,5.87c.35,2.78.78,5.21,3.56,6.63,6.31,3.24,12.36,7.06,12.11,13.54-.26,6.47,3.35,14.07,8.48,10.48C101.58,69.6307,106.25,70.0607,110.07,72.3207Z"/><path class="cls-2" d="M78.35,107.7907a45.3484,45.3484,0,0,1-6.31,1.52,46.8814,46.8814,0,0,1-7.73.64,46.3518,46.3518,0,0,1-23.42-6.3c-1.17-.67-2.3-1.4-3.4-2.18-.11-.08-.23-.16-.34-.24-.78-.56-1.55-1.15-2.29-1.76.19-1.52.41-3.02.65-4.51.02-.13.05-.27.07-.4.26-1.55.56-3.07.89-4.56.01-.07.03-.13.04-.19a50.8726,50.8726,0,0,1,3.94-11.67,24.9494,24.9494,0,0,1,2.51-4.04c.1-.13.21-.26.31-.39a16.7761,16.7761,0,0,1,1.56-1.67c.7-.65,1.4-1.24,2.11-1.79.04-.02.07-.03.08-.05a25.472,25.472,0,0,1,6.77-3.73,27.197,27.197,0,0,1,13.92-1.08c.24.04.47.08.69.13a33.28,33.28,0,0,1,4.35,1.14,28.8871,28.8871,0,0,1,5.13,2.19l.37,30.59Z"/><path class="cls-3" d="M110.44,70.1407c-.11.74-.24,1.46-.37,2.18a46.3515,46.3515,0,0,1-5.1,13.84,115.07,115.07,0,0,1-11.12-5.51c-6.12-3.35-11.45-6.67-11.45-6.67l-2.03-4.05-7.96-15.9-2.02-4.04-.63-1.27-1.88-3.74-.37-.74-.19-.39-1.45-2.89,1.29-1.02c.01,0,1.26-1,1.26-1l4.67-3.69a15.0982,15.0982,0,0,0,1.28,5.87,7.3507,7.3507,0,0,0,4.76,4.27c4.86,1.34,9.16,1.65,11.95,7.96,2.74,6.18-.92,10.59,4.27,14s7.04-1.2,14.52,2.49Q110.17,69.9907,110.44,70.1407Z"/><path class="cls-4" d="M67.0257,55.8081l.7582,10.62s-1.6974,3.19-7.8744,4.1382c-4.6015.7066-6.2367-1.5657-6.2367-1.5657l.4576-9.3736,11.0428-3.2687Z"/><path d="M65.1732,56.3587a3.4984,3.4984,0,0,1-.2355,1.0468C62.94,62.88,56.5247,64.488,53.8686,64.9181l.2618-5.2907Z"/><path class="cls-4" d="M50.0343,35.5884s-4.6233,13.7137-1.898,20.9551,9.3862,5.4851,13.3075,3.6983A13.4422,13.4422,0,0,0,67.0273,55.81a5.726,5.726,0,0,0,6.1133-2.7816c2.2223-3.7345.3147-7.6352-1.9238-8.3724s-4.6692,1.0442-4.6692,1.0442l1.6774-4.0144S58.0655,22.91,50.0343,35.5884Z"/><path class="cls-3" d="M66.5476,45.7005S60.982,47.3946,56.4284,41.459s-4.4422-8.5646-4.4422-8.5646l-3.2985,6.9007s-1.3153-4.4367.2145-7.4938,3.465-2.6412,3.465-2.6412l12.8176,1.9175L69.45,41.2909Z"/><path d="M54.5554,55.8559a2.2779,2.2779,0,0,1-.3222-.02.5.5,0,0,1,.1484-.9888,3.4489,3.4489,0,0,0,3.0957-1.7636.5.5,0,0,1,.82.5732A4.5827,4.5827,0,0,1,54.5554,55.8559Z"/><path d="M52.0652,52.4013a.5.5,0,0,1-.4619-.3081c-1.1533-2.7763.5849-5.8662.66-5.9965a.5.5,0,0,1,.8682.4965c-.0166.0279-1.5674,2.7989-.6045,5.1163a.5.5,0,0,1-.4619.6918Z"/><path d="M58.031,45.9365a.5006.5006,0,0,1-.4258-.2378,1.2352,1.2352,0,0,0-.8359-.6455,2.245,2.245,0,0,0-1.5264.5107.5.5,0,0,1-.6308-.7758,3.2941,3.2941,0,0,1,2.32-.7217,2.2021,2.2021,0,0,1,1.5244,1.1079.5.5,0,0,1-.1641.688A.4948.4948,0,0,1,58.031,45.9365Z"/><path d="M50.5662,46.0337A.5024.5024,0,0,1,50.11,45.74c-.1836-.4038-.5976-.9707-.8984-.9849-.1856-.0024-.4473.2447-.6934.6758a.5.5,0,0,1-.8691-.4961c.4638-.8105,1.01-1.2,1.6113-1.1782,1.0479.05,1.6914,1.4165,1.7617,1.5723a.5.5,0,0,1-.456.7046Z"/><path d="M57.3777,42.1a.5009.5009,0,0,1-.3184-.1143c-1.6513-1.3593-2.4511-.6308-2.4843-.5991a.5052.5052,0,0,1-.7032-.0063.495.495,0,0,1-.01-.6949c.0576-.06,1.4375-1.4453,3.834.5288a.5.5,0,0,1-.3184.8858Z"/><path d="M48.74,42.4258a.5.5,0,0,1-.3945-.8062c.1875-.2412,1.1718-1.4424,2.1367-1.3071a1.2391,1.2391,0,0,1,.9814.8584.5.5,0,0,1-.9238.3828c-.0234-.0562-.1055-.2388-.19-.2505-.2774-.03-.8506.4634-1.2149.93A.4994.4994,0,0,1,48.74,42.4258Z"/><path d="M67.65,51.92a.5.5,0,0,1-.3946-.8076l3.23-4.1367a.5.5,0,0,1,.7891.6152l-3.23,4.1367A.4991.4991,0,0,1,67.65,51.92Z"/><path d="M71.3513,50.5454c-.0283-.001-2.5449-.1441-2.5449-.1441a.5.5,0,0,1-.4707-.5273.49.49,0,0,1,.5273-.4707l2.5166.1431a.5.5,0,0,1-.0283.999Z"/><path class="cls-5" d="M83.75,105.7107a46.7915,46.7915,0,0,1-11.71,3.6,46.8814,46.8814,0,0,1-7.73.64,46.3518,46.3518,0,0,1-23.42-6.3c-1.17-.67-2.3-1.4-3.4-2.18-.11-.08-.23-.16-.34-.24-.78-.56-1.55-1.15-2.29-1.76a1.0592,1.0592,0,0,1-.12-.1c.25-1.5,7.47-25.83,8.03-26.29l1.26-.84a14.28,14.28,0,0,1,2.91-1.99c.04-.02.07-.03.08-.05.03-.01-4.84,25.99-4.84,25.99l23.93-1.4c.02,0,1.15-.07,1.15-.07s.66-5.8513,2.19-13.31c1.901-9.2662,3.3-14.75,3.3-14.75,2.4067-.0578,5.13,2.19,5.13,2.19l5.07,31.83Z"/><path class="cls-2" d="M99.89,93.4407c-.52.62-1.06,1.22-1.61,1.81a46.66,46.66,0,0,1-14.53,10.46,46.7915,46.7915,0,0,1-11.71,3.6L74.3233,89.324c.35-4.32,3.5567-20.4733,3.5567-20.4733s.96.34,2.49,1.08a38.918,38.918,0,0,1,13.47,10.72,29.6477,29.6477,0,0,1,4.53,8.09C98.96,90.3307,99.46,91.9007,99.89,93.4407Z"/><path class="cls-6" d="M58.2771,71.1557c-3.6719,0-4.9512-1.7773-5.0156-1.87a.5.5,0,0,1,.8193-.5722c.03.039,1.7022,2.2207,6.9336,1.1367,5.35-1.1123,6.8643-4.3926,6.9258-4.5313a.5.5,0,0,1,.916.4c-.0683.1582-1.7539,3.8867-7.6387,5.1094A14.46,14.46,0,0,1,58.2771,71.1557Z"/></svg>