<svg id="Calque_1" data-name="Calque 1" xmlns="http://www.w3.org/2000/svg" width="134" height="123" viewBox="0 0 134 123"><defs><style>.cls-1{fill:#edddd6;}.cls-2{fill:#fcb35b;}.cls-3{fill:#d19865;}.cls-4{fill:#7772d3;}</style></defs><polygon class="cls-1" points="25.54 21.091 20.617 62.292 26.005 102.381 67.259 107.226 108.461 101.909 113.383 61.506 107.995 20.619 66.741 15.774 25.54 21.091"/><path d="M65.1779,38.0968S48.252,24.3749,33.3321,51.031s-.0267,43.4066,18.9424,36.15,13.9589-41.3,13.9589-41.3Z"/><path d="M84.5766,46.81s3.04-7.0858,2.4578-10.1956-12.9056-12.2576-23.233-7.29-10.86,18.6308-8.45,24.2505C61.5571,68.0452,74.0091,61.2,74.0091,61.2S93.9062,54.8721,84.5766,46.81Z"/><path class="cls-2" d="M99.7471,96.2767a46.517,46.517,0,0,1-19.64,11.25c-.22.06-.45.12-.67.18a46.8208,46.8208,0,0,1-21.62.54,43.6509,43.6509,0,0,1-5.57-1.54c.68-15.89,1.74-31.72,3.4-33.53a5.51,5.51,0,0,1,1.18-.93c.11-.06.17-.09.17-.09,4.62-2.68,17.16-4.83,27.61-1.47a25.27,25.27,0,0,1,7.46,3.75C96.0971,77.4467,98.6271,86.2467,99.7471,96.2767Z"/><path class="cls-3" d="M82.9725,63.2792l.0132.2818.0486,5.3218.055,4.172s.4076.9487-4.4551.8951c-6.5184-.0968-9.563-2.9465-9.563-2.9465v-9.571l1.989.2694Z"/><path d="M82.9857,63.561l.0486,5.3218c-3.1763-.2136-8.9937-1.2711-11.5809-6.11a4.0369,4.0369,0,0,1-.3922-1.05l11.9006,1.76Z"/><path class="cls-3" d="M83.6786,38.0409s6.7827,13.4985,5.0242,21.3815-8.9,7.041-13.214,5.7673A14.0328,14.0328,0,0,1,69.07,61.4253a5.9771,5.9771,0,0,1-6.7251-1.9817c-2.8427-3.535-1.4412-7.8455.7648-8.9345s4.9787.3968,4.9787.3968l-2.32-3.9041S73.5247,26.11,83.6786,38.0409Z"/><path d="M83.9644,55.6923a.4766.4766,0,0,1-.1239-.0159.4931.4931,0,0,1-.3544-.6012c.6591-2.55-1.3576-5.1984-1.3778-5.225a.4936.4936,0,0,1,.78-.605c.0955.1229,2.3357,3.0521,1.5533,6.0769A.4934.4934,0,0,1,83.9644,55.6923Z"/><path d="M67.7851,57.4722a.4917.4917,0,0,1-.3429-.1383L63.4987,53.53a.4937.4937,0,0,1,.6855-.7107l3.9437,3.8039a.4936.4936,0,0,1-.3428.8489Z"/><path d="M63.7586,56.5924a.4937.4937,0,0,1-.0965-.9777l2.5792-.5159a.4937.4937,0,0,1,.1939.9681l-2.5793.5159A.4862.4862,0,0,1,63.7586,56.5924Z"/><path d="M81.5881,61.26a1.7688,1.7688,0,0,1-.7192-.1611c-1.7964-.7945-3.4211-3.8057-3.4895-3.9335a.4939.4939,0,0,1,.5689-.7082l5.4906,1.5423a.4944.4944,0,0,1,.351.5712c-.04.1982-.4147,1.9526-1.4969,2.5157A1.5152,1.5152,0,0,1,81.5881,61.26Zm-2.7016-3.5136a7.1544,7.1544,0,0,0,2.3815,2.45.6033.6033,0,0,0,.5694.0135,2.5,2.5,0,0,0,.8668-1.3913Z"/><path d="M74.8223,46.003a.4934.4934,0,0,1-.4488-.6985c.8683-1.902,3.2387-1.5283,3.3385-1.5119a.4936.4936,0,0,1-.1615.9739c-.0708-.0116-1.7274-.2628-2.2784.9478A.4938.4938,0,0,1,74.8223,46.003Z"/><path d="M83.2036,44.06a.4937.4937,0,0,1-.4194-.753,2.11,2.11,0,0,1,1.46-1.05,3.5428,3.5428,0,0,1,2.4525.7743.4938.4938,0,0,1-.6181.77,2.5293,2.5293,0,0,0-1.67-.5708,1.1522,1.1522,0,0,0-.7843.5945A.4926.4926,0,0,1,83.2036,44.06Z"/><path d="M85.0752,49.855a.4939.4939,0,0,1-.484-.3987l-.499-2.5517a.4935.4935,0,0,1,.0862-.3867l.9233-1.2593a.4936.4936,0,0,1,.7964.5834l-.7954,1.0853.4574,2.3391a.4931.4931,0,0,1-.4849.5886Z"/><path d="M77.4555,50.8294a.4944.4944,0,0,1-.4859-.4084L76.52,47.86a.4939.4939,0,0,1,.1239-.42l1.37-1.4824a.4936.4936,0,1,1,.725.67L77.5346,47.93l.4079,2.3209a.4943.4943,0,0,1-.4011.5717A.5127.5127,0,0,1,77.4555,50.8294Z"/><path d="M68.0885,50.9059s5.8888-3.3773,7.8673-7.8265,1.9573-6.6328,1.9573-6.6328,1.0182,2.8091,3.25,3.3763a16.8139,16.8139,0,0,0,3.6033.5787l1.5949,3.9861-1.3686-9.6186S78.88,31.8635,78.0815,31.901s-10.7833,2.3169-11.3372,2.9506-3.36,8.6046-3.36,8.6046L63.3308,47Z"/><path class="cls-2" d="M57.8171,108.2467a43.6509,43.6509,0,0,1-5.57-1.54,46.3286,46.3286,0,0,1-17.37-10.77,53.3044,53.3044,0,0,1,21.95-23.69c.11-.06.17-.09.17-.09S55.8071,97.5967,57.8171,108.2467Z"/><path class="cls-2" d="M104.9771,90.3167a44.914,44.914,0,0,1-5.23,5.96,46.3324,46.3324,0,0,1-10.21,7.44l-4.93-33.03C85.3671,70.8067,96.4071,72.8267,104.9771,90.3167Z"/><path class="cls-4" d="M78.58,74.428c-.2891,0-.5894-.0044-.9029-.0132a16.5846,16.5846,0,0,1-10.1411-3.7934.5.5,0,0,1,.6758-.7368,15.8707,15.8707,0,0,0,9.4936,3.53c5.5474.1651,6.7706-1.2094,6.7823-1.2226a.5058.5058,0,0,1,.6972-.0747.4928.4928,0,0,1,.0962.6826C85.1519,72.9744,83.9141,74.428,78.58,74.428Z"/></svg>