<?xml version="1.0" encoding="utf-8"?>
<!-- Generator: Adobe Illustrator 24.3.0, SVG Export Plug-In . SVG Version: 6.00 Build 0)  -->
<svg version="1.1" id="Calque_1" xmlns="http://www.w3.org/2000/svg" xmlns:xlink="http://www.w3.org/1999/xlink" x="0px" y="0px"
	 viewBox="0 0 340.6 121.8" style="enable-background:new 0 0 340.6 121.8;" xml:space="preserve">
<style type="text/css">
	.st0{fill:#EDDDD6;}
	.st1{fill:#474780;}
	.st2{fill:#FCB45D;}
	.st3{fill:#F8A398;}
	.st4{fill:#010101;}
	.st5{fill:#FFFFFF;}
	.st6{fill:#FCB35B;}
	.st7{fill:#D19865;}
	.st8{fill:#7772D3;}
	.st9{fill:#46467F;}
	.st10{fill:#C49576;}
	.st11{fill:#F7734F;}
	.st12{fill:#2D328F;}
	.st13{fill:#9492C7;}
	.st14{fill:#7470B3;}
	.st15{fill:#2F3180;}
	.st16{fill:#F3C0BC;}
	.st17{fill:#65477F;}
	.st18{fill:#E56445;}
	.st19{fill:#FCD69F;}
	.st20{fill:#FEBF6A;}
	.st21{fill:#4485A5;}
	.st22{fill:#E24786;}
	.st23{fill:#FCA397;}
	.st24{fill:#7A491D;}
	.st25{fill:#EFADA3;}
	.st26{fill:#273339;}
	.st27{fill:#F47351;}
	.st28{fill:#B77E34;}
	.st29{fill:#C48C4E;}
	.st30{fill:#F7CBA4;}
	.st31{fill:#7C3C1D;}
	.st32{fill:#A85527;}
	.st33{fill:#CC997F;}
	.st34{fill:#D8B7A9;}
	.st35{fill:#F7C29A;}
	.st36{fill:#E5AC39;}
	.st37{fill:#7D6154;}
	.st38{fill:#E18B76;}
	.st39{fill:#B27E50;}
	.st40{fill:#EFCB3A;}
</style>
<polygon class="st0" points="20,22 15.1,63.2 20.5,103.3 61.7,108.2 102.9,102.8 107.9,62.4 102.5,21.6 61.2,16.7 "/>
<polygon class="st0" points="127.6,22 122.7,63.2 128.1,103.3 169.3,108.2 210.6,102.8 215.5,62.4 210.1,21.6 168.8,16.7 "/>
<polygon class="st0" points="235.2,22 230.3,63.2 235.7,103.3 277,108.2 318.2,102.8 323.1,62.4 317.7,21.6 276.4,16.7 "/>
<g>
	<g>
		<path class="st4" d="M49.4,46.9c0,0-14.7,5.6-15.6,22.4c-1,24.1,27.8,18.5,27.8,18.5s16.4,1.7,21-10.3c4.5-12.1-10-19.4-10-19.4
			S55,42.6,49.4,46.9z"/>
	</g>
</g>
<g>
	<path class="st37" d="M91.7,96.8c-0.2,0.2-0.2,0.2-0.3,0.3c-2.6,2.6-5.6,5.1-8.7,7c-0.2,0.2-0.3,0.2-0.5,0.3
		c-0.2,0.2-0.3,0.2-0.7,0.3c-6.6,3.8-14.5,6.1-22.7,6.1c-1.7,0-3.5-0.2-5.2-0.3c-0.2,0-0.5,0-0.7,0l0,0c-2.1-0.3-4.2-0.7-6.3-1.2
		c-2.4-0.7-4.7-1.6-7-2.6c-0.3-0.2-0.7-0.3-1-0.5c-2.3-1-4.4-2.3-6.3-3.8c-1.9-1.4-3.8-3-5.6-4.7c3.3-9.1,11.7-26.2,29.5-29
		c0,0,0,0,0.2,0c1.2-0.2,2.4-0.3,3.7-0.3C80,67.6,88.6,86.5,91.7,96.8z"/>
</g>
<g>
	<path class="st37" d="M82.1,104.5c-6.8,4-14.9,6.5-23.4,6.5c-1.7,0-3.5-0.2-5.2-0.3c-0.2,0-0.5,0-0.7,0l0,0
		c-2.1-0.3-4.2-0.7-6.3-1.2c-2.4-0.7-4.7-1.6-7-2.6c-0.3-0.2-0.7-0.3-1-0.5c-2.3-1-4.4-2.3-6.3-3.8c0-6.8,0-12.1,0-12.1l17.5-12.9
		l8.6-6.3c0.2,0,0.2,0,0.3,0c4.7,0.2,8.7,1,11.9,2.3c0.5,0.2,1,0.3,1.4,0.5c4.4,1.9,6.6,3.8,6.6,3.8S80.4,91.2,82.1,104.5z"/>
</g>
<g>
	<g>
		<path class="st3" d="M56.1,61.8l0.3,9.8c0,0,1.9,2.8,7.5,3c4.2,0.2,5.8-0.9,5.8-0.9L69,68.8l-0.9-4.7l-10.3-1.9L56.1,61.8z"/>
	</g>
</g>
<g>
	<g>
		<path class="st4" d="M56.1,61.5c0,0.3,0.2,0.5,0.3,0.9c2.3,4.7,10.1,6.5,12.6,6.5l-0.9-4.7L56.1,61.5z"/>
	</g>
</g>
<g>
	<g>
		<path class="st3" d="M69.5,41.9c0,0,5.6,12.1,3.8,18.9c-1.7,6.8-8,5.9-11.7,4.7S56.1,62,56.1,62s-3.5,1.2-5.8-1.9
			c-2.4-3.1-1-7,0.9-7.9s4.4,0.5,4.4,0.5l-1.9-3.5C53.6,49.2,61,31,69.5,41.9z"/>
	</g>
</g>
<g>
	<path class="st4" d="M62.5,47.8c-0.2,0-0.3-0.2-0.5-0.3s0-0.5,0.2-0.7l2.8-1.2c0.2-0.2,0.5,0,0.7,0.2c0.2,0.2,0,0.5-0.2,0.7
		l-2.8,1.2C62.5,47.8,62.5,47.8,62.5,47.8z"/>
</g>
<g>
	<path class="st4" d="M65.7,60.8c-0.2,0-0.3,0-0.5,0c-1.6-0.5-1.7-2.3-1.7-2.3c0-0.2,0-0.3,0.2-0.3c0.2-0.2,0.3-0.2,0.5-0.2l3.7,0.9
		c0.2,0,0.3,0.2,0.3,0.3c0,0.2,0,0.3,0,0.5C67.8,59.5,66.9,60.8,65.7,60.8z M64.5,59c0.2,0.3,0.3,0.5,0.9,0.7c0.3,0.2,0.9,0,1-0.2
		L64.5,59z"/>
</g>
<g>
	<path class="st4" d="M55.5,57.6h-0.2l-4.9-2.3c-0.2-0.2-0.3-0.3-0.2-0.7c0.2-0.2,0.3-0.3,0.7-0.2l4.9,2.3c0.2,0.2,0.3,0.3,0.2,0.7
		C55.9,57.6,55.7,57.6,55.5,57.6z"/>
</g>
<g>
	<path class="st4" d="M51.2,58.8c-0.2,0-0.2,0-0.3-0.2c-0.2-0.2-0.2-0.5,0-0.7l2.1-2.1c0.2-0.2,0.5-0.2,0.7,0c0.2,0.2,0.2,0.5,0,0.7
		l-2.1,2.1C51.3,58.8,51.3,58.8,51.2,58.8z"/>
</g>
<g>
	<path class="st4" d="M62.5,42.6c0,0,2.8-0.3,5.8,1.4c3,1.7,3.5,3.5,3.5,3.5s1.7-4.5-2.1-8.6c-4-4-11.5-5.1-15.9-0.3s-4,8.9-4,8.9
		l5.9,5.2C55.5,52.7,64.6,50.8,62.5,42.6z"/>
</g>
<g>
	<path class="st4" d="M52.6,40.5c0,0-5.6-10.7-11.4-6.1c-5.6,4.5,0.7,13.6,6.3,14.2C53.3,49.2,52.6,40.5,52.6,40.5z"/>
</g>
<g>
	<path class="st37" d="M53.6,110.6c-0.2,0-0.5,0-0.7,0l0,0c-2.1-0.3-4.2-0.7-6.3-1.2l3-31.8l0.2-1l6.6-7.7v-0.2l0,0
		c0.2,0.3,0.9,1.4,2.1,2.4c2.3,2.1,6.3,4.5,11.7,2.3c0.9-0.3,1.4-0.2,1.4,0.5C72.2,77.9,61.5,96.9,53.6,110.6z"/>
</g>
<g>
	<path class="st2" d="M65.5,74.7c-6.5,0-9.6-5.9-9.8-5.9c-0.2-0.2,0-0.5,0.2-0.7c0.2-0.2,0.5,0,0.7,0.2c0.2,0.3,4.5,8,13.3,4.5
		c0.2-0.2,0.5,0,0.7,0.3c0.2,0.2,0,0.5-0.3,0.7C68.5,74.4,66.9,74.7,65.5,74.7z"/>
</g>
<g>
	<path class="st14" d="M56.8,61.5c0,1-0.7,1.7-1.7,1.7s-1.7-0.7-1.7-1.7s0.7-1.7,1.7-1.7C55.9,59.7,56.8,60.4,56.8,61.5z"/>
</g>
<g>
	<path class="st4" d="M63.8,52.9c-0.3,0-0.5-0.2-0.5-0.5v-2.1c0-0.2,0-0.2,0.2-0.3l0.9-0.9c0.2-0.2,0.5-0.2,0.7,0
		c0.2,0.2,0.2,0.5,0,0.7l-0.9,0.9v1.9C64.3,52.5,64.1,52.9,63.8,52.9z"/>
</g>
<g>
	<path class="st4" d="M156.9,46.6c0,0-4.4,3.7-4.7,7.2c-0.3,3.7-0.3,3.7-0.3,3.7s-5.1,1.6-6.6,7.9c-2.1,8.4,3.7,11.4,3.7,11.4
		l44.6,4.7c0,0,5.2-4.5,4.2-11.9c-1-7.3-5.4-9.8-5.4-9.8s0.7-4.7-1.7-9.4c-2.8-5.4-8.4-5.6-8.4-5.6L156.9,46.6z"/>
</g>
<g>
	<path class="st38" d="M203.3,93.4c-5.8,7.3-14,12.9-23.3,15.6c-3.8,1-7.9,1.6-12.1,1.6c-1.6,0-3.1,0-4.7-0.2c-1-0.2-1.9-0.2-3-0.3
		c-1-0.2-2.1-0.3-3.3-0.7c-0.2,0-0.3-0.2-0.7-0.2c-1.7-0.5-3.3-1-5.1-1.6c-2.8-1-5.6-2.6-8.2-4.2c0.5-2.6,0.5-4,0.5-4l7.2-22.7
		l0.7-2.3c0.3-1.4,1.2-2.4,2.4-3.1c0.5-0.3,1.2-0.7,1.9-0.9c1.4-0.3,3-0.7,4.9-0.9c0.5,0,1.2-0.2,1.7-0.3c1.9-0.3,4-0.5,6.3-0.5
		c1.4,0,2.6,0,4,0c0.5,0,1.2,0,1.7,0c0.7,0,1.4,0.2,2.1,0.2c0.7,0.2,1.6,0.2,2.3,0.3c1.7,0.3,3.5,0.7,5.1,1.4c4.2,1.6,8,5.1,11,8.9
		C198.9,84.4,201.7,89.9,203.3,93.4z"/>
</g>
<g>
	<path class="st2" d="M174.8,66.5c0,0,3.1,1,4,2.4c1,1.6-0.9,5.9-6.6,9.3c-4.2,2.4-7.7,3.3-7.7,3.3s-3.7-4.9-4.4-8
		c-0.7-3,1.9-7,1.9-7L174.8,66.5z"/>
</g>
<g>
	<path class="st4" d="M158.2,52.2c0,0-3.8-5.8-3.7-8.6c0-2.8,9.4-12.8,19.4-10c10,2.8,12.4,14.7,11.2,19.9
		c-3.1,13.6-15.2,9.6-15.2,9.6S151.2,60.6,158.2,52.2z"/>
</g>
<g>
	<g>
		<g>
			<g>
				<path class="st39" d="M162.2,66.3v0.2l0.7,4.7l0.5,3.7c0,0-0.2,0.9,4,0.2c5.8-1,7.3-3.8,7.3-3.8l-0.9-8.7l-1.7,0.5L162.2,66.3z"
					/>
			</g>
		</g>
	</g>
</g>
<g>
	<g>
		<g>
			<g>
				<path class="st4" d="M162.2,66.5l0.7,4.7c2.8-0.7,7.7-2.4,9.3-7.2c0.2-0.3,0.2-0.7,0.2-1L162.2,66.5L162.2,66.5z"/>
			</g>
		</g>
	</g>
</g>
<g>
	<g>
		<g>
			<g>
				<path class="st39" d="M157.6,44.3c0,0-3.8,12.9-1,19.6c2.8,6.6,8.9,4.7,12.6,3c3.7-1.7,5.1-4.4,5.1-4.4s3.7,0.7,5.6-2.8
					c1.9-3.5,0-7.2-2.1-7.7c-2.1-0.7-4.4,1-4.4,1l1.4-3.8C174.8,49.4,164.6,32.3,157.6,44.3z"/>
			</g>
		</g>
	</g>
</g>
<g>
	<path class="st4" d="M159.9,59.9c-0.2,0-0.3-0.2-0.5-0.3c-1.2-2.6,0.3-5.4,0.3-5.6c0.2-0.2,0.3-0.3,0.7-0.2
		c0.2,0.2,0.3,0.3,0.2,0.7c0,0-1.4,2.6-0.3,4.7c0.2,0.2,0,0.5-0.2,0.7C160.1,59.9,160.1,59.9,159.9,59.9z"/>
</g>
<g>
	<path class="st4" d="M174.4,59c-0.2,0-0.2,0-0.3-0.2c-0.2-0.2-0.2-0.5-0.2-0.7l2.8-4c0.2-0.2,0.5-0.2,0.7-0.2
		c0.2,0.2,0.2,0.5,0.2,0.7l-2.8,4C174.8,58.8,174.6,59,174.4,59z"/>
</g>
<g>
	<path class="st4" d="M177.9,57.6h-2.4c-0.3,0-0.5-0.2-0.5-0.5s0.2-0.5,0.5-0.5h2.3c0.3,0,0.5,0.2,0.5,0.5
		C178.4,57.3,178.1,57.6,177.9,57.6z"/>
</g>
<g>
	<path class="st4" d="M162.7,64.4c-0.2,0-0.3,0-0.3,0c-1-0.3-1.7-1.7-1.7-1.9c-0.2-0.2,0-0.5,0.2-0.5l4.5-2.3c0.2,0,0.3,0,0.5,0
		c0.2,0.2,0.2,0.3,0.2,0.5c0,0.2-1,3-2.4,4C163.4,64.3,163.1,64.4,162.7,64.4z M161.7,62.3c0.2,0.3,0.5,0.9,0.9,1
		c0.2,0,0.2,0,0.5-0.2c0.7-0.5,1.2-1.6,1.6-2.4L161.7,62.3z"/>
</g>
<g>
	<path class="st4" d="M166.6,49.9c-0.2,0-0.3,0-0.3-0.2c-0.7-0.9-2.1-0.5-2.1-0.5c-0.2,0-0.5,0-0.7-0.3c-0.2-0.2,0-0.5,0.3-0.5
		c0.2,0,2.1-0.7,3.1,0.9c0.2,0.2,0.2,0.5-0.2,0.7H166.6z"/>
</g>
<g>
	<path class="st4" d="M156.1,49.9c-0.2,0-0.2,0-0.3-0.2s-0.2-0.5,0-0.7s1-1,2.1-1c0.5,0,1,0.2,1.4,0.7c0.2,0.2,0.2,0.5,0,0.7
		c-0.2,0.2-0.5,0.2-0.7,0c-0.2-0.2-0.5-0.3-0.7-0.3c-0.5,0-1.2,0.5-1.4,0.7C156.2,49.9,156.1,49.9,156.1,49.9z"/>
</g>
<g>
	<path class="st4" d="M173.2,53.2c0,0-5.8-2.1-8.2-5.6c-2.4-3.7-2.8-5.6-2.8-5.6s-0.5,2.6-2.3,3.5c-1.9,0.9-3.1,1-3.1,1l-0.7,3.7
		l-0.3-8.7c0,0,4.9-3.5,5.6-3.7c0.7-0.2,9.8,0.3,10.5,0.9c0.5,0.5,4.4,7,4.4,7l0.5,3.1L173.2,53.2z"/>
</g>
<g>
	<path class="st4" d="M166.4,52.9c-0.2,0-0.3-0.2-0.3-0.3c-0.2-0.3-0.3-0.7-0.7-0.7c-0.5-0.2-1.4,0.3-1.6,0.7
		c-0.2,0.2-0.5,0.2-0.7,0s-0.2-0.5,0-0.7c0.2-0.2,1.2-1,2.4-0.9c0.3,0,1,0.3,1.4,1.2c0.2,0.2,0,0.5-0.2,0.7
		C166.6,52.9,166.6,52.9,166.4,52.9z"/>
</g>
<g>
	<path class="st4" d="M156.8,53.1C156.8,53.1,156.8,52.9,156.8,53.1c-0.3-0.2-0.5-0.3-0.5-0.7c0.3-0.9,0.9-1.4,1.4-1.4
		c1,0,1.6,1,1.7,1.2c0.2,0.2,0,0.5-0.2,0.7c-0.2,0.2-0.5,0-0.7-0.2c-0.2-0.3-0.5-0.7-0.9-0.7c-0.2,0-0.3,0.2-0.5,0.9
		C157.3,52.9,157.1,53.1,156.8,53.1z"/>
</g>
<g>
	<path class="st2" d="M174.4,67.2c0,0-6.1,5.8-9.6,5.8s-3.1-3-3.1-3l0.5,6.8l3.1,1l7.9-3.1l4.4-4.9L174.4,67.2z"/>
</g>
<g>
	<path class="st2" d="M168,78.2c0,0,2.6,3.7,3.1,9.4c0.5,5.8-2.8,12.2-2.8,12.2s-5.4-6.1-6.1-10.7s1.7-11,1.7-11s-2.4,5.4-3,8.9
		c-0.5,3.3-1.4,7.7-1.4,7.7s-3.3-4.4-3-9.4c0.2-5.1,5.8-8.4,5.8-8.4L168,78.2z"/>
</g>
<g>
	<path class="st27" d="M167.3,80c-1.4,0-3.3-0.5-3.7-0.5l0,0c-0.2,0-0.2-0.2-0.2-0.2c-0.3-0.7-1.9-4.7-0.9-5.9
		c0.2-0.3,0.5-0.5,1.2-0.5c0.5,0,1,0.3,1.2,0.7c0.9,1.4-0.2,4-0.5,5.2c1,0.2,2.8,0.5,3.7,0.3s1.4-3.1,1-4.9c0-0.2,0.2-0.5,0.3-0.5
		s0.5,0.2,0.5,0.3c0.3,1.6,0.2,5.4-1.7,5.9C168.1,79.8,167.8,80,167.3,80z M163.6,73.5c-0.2,0-0.3,0.2-0.3,0.2
		c-0.3,0.5,0,2.3,0.5,3.8c0.5-1.4,0.7-3.1,0.3-3.7C164.1,73.5,163.9,73.5,163.6,73.5L163.6,73.5z"/>
</g>
<g>
	<path class="st27" d="M167.1,87.7c-0.3,0-0.7-0.2-1-0.5c-1.2-1.6-0.2-7,0-7.7c0-0.2,0.2-0.3,0.5-0.3c0.2,0,0.3,0.2,0.5,0.3
		c0.3,1,2.1,6.1,1,7.7C168,87.5,167.6,87.7,167.1,87.7L167.1,87.7z M166.7,81.6c-0.3,2.1-0.5,4.4,0.2,5.1c0,0.2,0.2,0.2,0.3,0.2
		s0.2,0,0.2-0.2C167.8,85.9,167.4,83.7,166.7,81.6z"/>
</g>
<g>
	<path class="st38" d="M157.1,109.2c-0.2,0-0.3-0.2-0.7-0.2c-1.7-0.5-3.3-1-5.1-1.6c-2.8-1-5.6-2.6-8.2-4.2c-0.9-0.5-1.6-1-2.3-1.6
		c-1.6-1-3-2.3-4.2-3.7c0-0.2,0-0.2,0-0.3c2.4-11,7.2-17.8,11-21.9c3.5-3.5,6.8-4.9,6.8-4.9c0,0.2-0.5,0.2-0.5,0.3
		c-0.3,1.4-0.5,3.3-0.5,5.8C153.4,85.2,155.2,98.3,157.1,109.2z"/>
</g>
<g>
	<g>
		<path d="M274.6,43.4c0,0-15.9-12.9-30.1,12.2c-14.2,25.2,0,40.9,17.8,34.1c17.8-6.8,13.1-39,13.1-39L274.6,43.4z"/>
	</g>
</g>
<g>
	<g>
		<path d="M293,51.7c0,0,2.8-6.6,2.3-9.6c-0.5-3-12.2-11.5-21.9-6.8c-9.8,4.7-10.3,17.7-8,22.9c5.8,13.6,17.7,7.2,17.7,7.2
			S301.7,59.4,293,51.7z"/>
	</g>
</g>
<g>
	<g>
		<g>
			<path class="st40" d="M307.1,98.3c-2.8,2.8-6.1,5.1-9.6,7c-2.8,1.6-5.8,2.8-8.9,3.7c-0.2,0-0.3,0.2-0.7,0.2
				c-3.7,0.9-7.3,1.4-11.2,1.4c-3.1,0-6.1-0.3-9.1-0.9c-1.7-0.3-3.5-0.9-5.2-1.4c0.7-15,1.6-29.9,3.1-31.6c0.3-0.3,0.7-0.5,1-0.9
				c0.2,0,0.2,0,0.2,0c4.4-2.4,16.3-4.5,26-1.4c2.6,0.9,4.9,1.9,7,3.5C303.8,80.5,306.1,88.9,307.1,98.3z"/>
		</g>
	</g>
</g>
<g>
	<g>
		<g>
			<g>
				<g>
					<path class="st16" d="M291.4,67.2v0.3v5.1v4c0,0,0.3,0.9-4.2,0.9c-6.1-0.2-9.1-2.8-9.1-2.8v-9.1l1.9,0.2L291.4,67.2z"/>
				</g>
			</g>
		</g>
	</g>
</g>
<g>
	<g>
		<g>
			<g>
				<g>
					<path d="M291.4,67.4v5.1c-3-0.2-8.6-1.2-11-5.8c-0.2-0.3-0.3-0.7-0.3-1L291.4,67.4L291.4,67.4z"/>
				</g>
			</g>
		</g>
	</g>
</g>
<g>
	<g>
		<g>
			<g>
				<g>
					<path class="st16" d="M292.1,43.4c0,0,6.5,12.8,4.7,20.1c-1.6,7.5-8.4,6.6-12.4,5.4c-4-1.2-6.1-3.5-6.1-3.5s-3.7,1.4-6.3-1.9
						c-2.6-3.3-1.4-7.3,0.7-8.4c2.1-1,4.7,0.3,4.7,0.3l-2.3-3.7C275.1,51.8,282.5,32.1,292.1,43.4z"/>
				</g>
			</g>
		</g>
	</g>
</g>
<g>
	<g>
		<path d="M292.3,60.1L292.3,60.1c-0.3,0-0.5-0.3-0.5-0.5c0.7-2.4-1.2-4.9-1.2-4.9c-0.2-0.2-0.2-0.5,0-0.7s0.5-0.2,0.7,0
			c0.2,0.2,2.3,2.8,1.4,5.8C292.8,59.9,292.4,60.1,292.3,60.1z"/>
	</g>
</g>
<g>
	<g>
		<path d="M277,61.8c-0.2,0-0.2,0-0.3-0.2L273,58c-0.2-0.2-0.2-0.5,0-0.7c0.2-0.2,0.5-0.2,0.7,0l3.7,3.7c0.2,0.2,0.2,0.5,0,0.7
			C277.2,61.6,277.2,61.8,277,61.8z"/>
	</g>
</g>
<g>
	<g>
		<path d="M273.2,60.9c-0.2,0-0.3-0.2-0.5-0.3c0-0.2,0.2-0.5,0.3-0.5l2.4-0.5c0.2,0,0.5,0.2,0.5,0.3c0,0.2-0.2,0.5-0.3,0.5
			L273.2,60.9C273.4,60.9,273.2,60.9,273.2,60.9z"/>
	</g>
</g>
<g>
	<g>
		<path d="M290,65.3c-0.2,0-0.5,0-0.7-0.2c-1.7-0.7-3.1-3.7-3.3-3.7c-0.2-0.2,0-0.3,0-0.5c0.2-0.2,0.3-0.2,0.5-0.2l5.2,1.4
			c0.2,0,0.3,0.3,0.3,0.5s-0.3,1.9-1.4,2.4C290.5,65.3,290.3,65.3,290,65.3z M287.5,62c0.5,0.9,1.4,1.9,2.3,2.3c0.3,0.2,0.5,0,0.5,0
			c0.3-0.2,0.7-0.9,0.9-1.4L287.5,62z"/>
	</g>
</g>
<g>
	<g>
		<path d="M283.7,51h-0.2c-0.2-0.2-0.3-0.3-0.2-0.7c0.9-1.7,3-1.4,3.1-1.4s0.3,0.3,0.3,0.5s-0.3,0.3-0.5,0.3c0,0-1.6-0.2-2.1,0.9
			C284,50.8,283.9,51,283.7,51z"/>
	</g>
</g>
<g>
	<g>
		<path d="M291.6,49h-0.2c-0.2-0.2-0.3-0.3-0.2-0.7c0.3-0.5,0.9-0.9,1.4-1c1.2-0.2,2.3,0.7,2.3,0.7c0.2,0.2,0.2,0.5,0,0.7
			s-0.5,0.2-0.7,0c-0.2-0.2-1-0.7-1.6-0.5c-0.3,0-0.5,0.2-0.7,0.5C291.9,49,291.7,49,291.6,49z"/>
	</g>
</g>
<g>
	<g>
		<path d="M293.3,54.6c-0.2,0-0.3-0.2-0.5-0.3l-0.5-2.4c0-0.2,0-0.2,0-0.3l0.9-1.2c0.2-0.2,0.5-0.2,0.7-0.2c0.2,0.2,0.2,0.5,0.2,0.7
			l-0.7,1l0.3,2.3C293.8,54.3,293.7,54.5,293.3,54.6C293.5,54.5,293.3,54.6,293.3,54.6z"/>
	</g>
</g>
<g>
	<g>
		<path d="M286.1,55.5c-0.2,0-0.3-0.2-0.5-0.3l-0.3-2.4c0-0.2,0-0.3,0.2-0.3l1.2-1.4c0.2-0.2,0.5-0.2,0.7,0c0.2,0.2,0.2,0.5,0,0.7
			l-1,1.2l0.3,2.3C286.7,55.2,286.5,55.3,286.1,55.5L286.1,55.5z"/>
	</g>
</g>
<g>
	<g>
		<path d="M277.4,55.5c0,0,5.6-3.1,7.3-7.3c1.9-4.2,1.9-6.3,1.9-6.3s0.9,2.6,3.1,3.1c2.1,0.5,3.3,0.5,3.3,0.5l1.6,3.8l-1.2-9.1
			c0,0-5.8-2.8-6.5-2.6c-0.7,0-10.1,2.3-10.7,2.8s-3.1,8-3.1,8v3.3L277.4,55.5z"/>
	</g>
</g>
<g>
	<g>
		<g>
			<path class="st40" d="M267.6,109.7c-1.7-0.3-3.5-0.9-5.2-1.4c-6.3-2.1-11.7-5.6-16.4-10.1c6.8-14.7,19.2-21.5,20.6-22.4
				c0.2,0,0.2,0,0.2,0S265.7,99.6,267.6,109.7z"/>
		</g>
	</g>
</g>
<g>
	<g>
		<path class="st40" d="M312.2,92.7c-1.4,2.1-3.1,3.8-4.9,5.6c-2.8,2.8-6.1,5.1-9.6,7L293,74.2C293.7,74.4,304,76.1,312.2,92.7z"/>
	</g>
</g>
<g>
	<path class="st8" d="M287.2,77.7c-0.3,0-0.5,0-0.9,0c-5.8-0.2-9.4-3.5-9.6-3.5c-0.2-0.2-0.2-0.5,0-0.7s0.5-0.2,0.7,0
		c0,0,3.5,3.1,8.9,3.3c5.2,0.2,6.5-1.2,6.5-1.2c0.2-0.2,0.5-0.2,0.7,0c0.2,0.2,0.2,0.5,0.2,0.7C293.5,76.3,292.3,77.7,287.2,77.7z"
		/>
</g>
</svg>
