<?xml version="1.0" encoding="utf-8"?>
<!-- Generator: Adobe Illustrator 24.3.0, SVG Export Plug-In . SVG Version: 6.00 Build 0)  -->
<svg version="1.1" id="Calque_1" xmlns="http://www.w3.org/2000/svg" xmlns:xlink="http://www.w3.org/1999/xlink" x="0px" y="0px"
	 viewBox="0 0 134 123" style="enable-background:new 0 0 134 123;" xml:space="preserve">
<style type="text/css">
	.st0{fill:#EDDDD6;}
	.st1{fill:#474780;}
	.st2{fill:#FCB45D;}
	.st3{fill:#F8A398;}
	.st4{fill:#010101;}
	.st5{fill:#FFFFFF;}
	.st6{fill:#FCB35B;}
	.st7{fill:#D19865;}
	.st8{fill:#7772D3;}
	.st9{fill:#46467F;}
	.st10{fill:#C49576;}
	.st11{fill:#F7734F;}
	.st12{fill:#2D328F;}
	.st13{fill:#9492C7;}
	.st14{fill:#7470B3;}
	.st15{fill:#2F3180;}
	.st16{fill:#F3C0BC;}
	.st17{fill:#65477F;}
	.st18{fill:#E56445;}
	.st19{fill:#FCD69F;}
	.st20{fill:#FEBF6A;}
	.st21{fill:#4485A5;}
	.st22{fill:#E24786;}
	.st23{fill:#FCA397;}
	.st24{fill:#7A491D;}
	.st25{fill:#EFADA3;}
	.st26{fill:#273339;}
	.st27{fill:#F47351;}
	.st28{fill:#B77E34;}
	.st29{fill:#C48C4E;}
	.st30{fill:#F7CBA4;}
	.st31{fill:#7C3C1D;}
	.st32{fill:#A85527;}
	.st33{fill:#CC997F;}
	.st34{fill:#D8B7A9;}
	.st35{fill:#F7C29A;}
	.st36{fill:#E5AC39;}
</style>
<polygon class="st0" points="25.5,26.7 20.6,67.9 26,108 67.3,112.8 108.5,107.5 113.4,67.1 108,26.2 66.7,21.4 "/>
<g>
	<path class="st6" d="M77.4,114.6c-3.5,0.8-7,1.2-10.7,1.2c-0.8,0-1.6,0-2.3-0.1c-6.8-0.3-13.3-2.1-19-5.1l5.8-30.8L63,74.3
		l13.7,1.9L77.4,114.6z"/>
</g>
<g>
	<path class="st8" d="M56.2,73.9L48,112c-0.9-0.4-1.9-0.8-2.8-1.3c-1.5-0.8-3-1.7-4.4-2.6c-0.2-0.1-0.4-0.3-0.6-0.4
		c-1.7-1.2-3.3-2.4-4.8-3.8c-0.1,0-0.1-0.1-0.1-0.1c-0.1-0.1-0.2-0.2-0.4-0.3c-1.1-1-2-2-3-3l-0.1-0.1c-0.7-0.8-1.4-1.6-2-2.4
		c4.3-8.5,12.8-15.5,15.6-17.9C51.2,74.9,56.2,73.9,56.2,73.9z"/>
</g>
<g>
	<path class="st6" d="M54.1,43.3c0,0,0.2-8.6,12.9-9.7c12.8-1.1,17.1,10.6,16.4,11.8c-0.7,1.3-1.7,1.7-1.7,1.7s0.3,8.6-4.9,10.1
		c-5.2,1.5-11-1.8-11-1.8L54.1,43.3z"/>
</g>
<g>
	<g>
		<g>
			<g>
				<path class="st25" d="M69.4,64.5V75c0,0-1.9,3-8,3.5c-4.6,0.4-6.2-0.7-6.2-0.7l0.6-5.3l0.6-5.2l11.1-2.4L69.4,64.5z"/>
			</g>
		</g>
	</g>
</g>
<g>
	<g>
		<g>
			<g>
				<path d="M67.5,64.9c0,0.3-0.1,0.6-0.3,1c-2.4,5.2-8.8,6.4-11.4,6.6l0.6-5.2L67.5,64.9z"/>
			</g>
		</g>
	</g>
</g>
<g>
	<g>
		<g>
			<g>
				<path class="st25" d="M54.1,43.3c0,0-5.5,13.2-3.4,20.5c2.2,7.3,8.9,6.1,12.8,4.6c4-1.5,5.8-4,5.8-4s3.8,1.2,6.2-2.3
					c2.5-3.5,0.9-7.5-1.3-8.4c-2-0.8-4.5,0.8-4.5,0.8l1.9-3.8C71.6,50.6,62.9,31.4,54.1,43.3z"/>
			</g>
		</g>
	</g>
</g>
<g>
	<path d="M54.9,60.1c-0.2,0-0.4-0.1-0.5-0.3c-0.9-2.8,1-5.7,1.1-5.9c0.2-0.2,0.5-0.3,0.7-0.1s0.3,0.5,0.1,0.7c0,0-1.7,2.6-1,5
		C55.4,59.8,55.2,60,54.9,60.1C55.1,60,55,60.1,54.9,60.1z"/>
</g>
<g>
	<path d="M70.3,60.7c-0.1,0-0.2,0-0.3-0.1c-0.2-0.2-0.2-0.5,0-0.7l3.5-3.8c0.2-0.2,0.5-0.2,0.7,0s0.2,0.5,0,0.7l-3.5,3.7
		C70.6,60.6,70.5,60.7,70.3,60.7z"/>
</g>
<g>
	<path d="M74.1,59.6C74.1,59.6,74,59.6,74.1,59.6l-2.5-0.3c-0.3,0-0.5-0.3-0.4-0.6c0-0.3,0.3-0.5,0.6-0.4l2.5,0.3
		c0.3,0,0.5,0.3,0.4,0.6C74.5,59.4,74.3,59.6,74.1,59.6z"/>
</g>
<g>
	<path d="M60.8,55C60.8,55,60.7,55,60.8,55c-0.3,0-0.5-0.3-0.5-0.6l0.3-2.4c0-0.3,0.3-0.5,0.5-0.4c0.3,0,0.5,0.3,0.4,0.5l-0.3,2.4
		C61.2,54.9,61,55,60.8,55z"/>
</g>
<g>
	<path d="M53.5,54.6L53.5,54.6c-0.3,0-0.5-0.3-0.5-0.6l0.3-2.4c0-0.3,0.3-0.5,0.6-0.4c0.3,0,0.5,0.3,0.4,0.6L54,54.2
		C54,54.4,53.8,54.6,53.5,54.6z"/>
</g>
<g>
	<g>
		<path class="st5" d="M66.5,77c-0.1-0.3-0.4-0.4-0.7-0.3c-5.4,2.1-10.5,0.6-10.6,0.6s-0.3,0-0.4,0c0,0.2-0.1,0.3-0.1,0.4l-7.2,34
			c0.2,0.1,0.4,0.2,0.6,0.2c0.1,0.1,0.2,0.1,0.4,0.2l7.1-33.7c1.5,0.3,5.9,1,10.7-0.8C66.5,77.6,66.6,77.3,66.5,77z"/>
	</g>
</g>
<g>
	<path d="M71.8,55.4c0,0-4.2-0.8-5.5-3.7c-2-4.4,0.7-6.3,0.7-6.3s-3,0.7-5.5-0.6c-3.1-1.6-3.6-4.1-3.6-4.1l-3.8,2.6
		c0,0-1.1-5.6,2.4-6.6s7.5,2.2,7.5,2.2l12.7,9.7l-1.2,6.1C75.5,54.7,74.8,54.4,71.8,55.4z"/>
</g>
<g>
	<path d="M59.1,64.1c-0.1,0-0.3,0-0.4,0c-1.2-0.2-2-1.5-2.1-1.6s-0.1-0.3-0.1-0.4c0-0.1,0.1-0.2,0.3-0.3l4.6-2.3
		c0.1-0.1,0.3-0.1,0.4,0c0.1,0.1,0.2,0.2,0.3,0.4c0,0.1,0.4,2.3-1.6,3.8C60.1,63.9,59.6,64.1,59.1,64.1z M57.8,62.4
		c0.3,0.3,0.6,0.6,1.1,0.7c0.3,0.1,0.7,0,1.1-0.3c0.9-0.7,1.2-1.5,1.2-2.1L57.8,62.4z"/>
</g>
<g>
	<path class="st6" d="M59.1,37c0,0,5.6,0.6,9,8.1c2.8,6.1,3.7,10.3,3.7,10.3l5,1.8l1.5-12l-11.5-9.1C66.8,36.2,62.1,34.6,59.1,37z"
		/>
</g>
<g>
	<path class="st8" d="M106.8,93c-1,1.6-2,3.2-3.2,4.7c-0.5,0.6-1,1.2-1.5,1.8c-2.9,3.4-6.2,6.4-10,8.8c-1,0.7-2,1.3-3.1,1.8
		c-6.7,3.7-14.3,5.7-22.4,5.7c-0.8,0-1.6,0-2.3-0.1C63,98.1,63,77.2,69.4,71C73,67.6,93.1,75.7,106.8,93z"/>
</g>
<g>
	<path class="st9" d="M72.2,55.8c-0.2,0-0.5-0.2-0.5-0.4c0-0.3,0.2-0.5,0.4-0.6c0,0,3.2-0.5,5.5-2.8c2.2-2.3,3.2-4.4,3.2-4.4
		c0.1-0.2,0.4-0.4,0.7-0.2c0.2,0.1,0.4,0.4,0.2,0.7c0,0.1-1.1,2.3-3.4,4.7C75.8,55.3,72.4,55.8,72.2,55.8
		C72.3,55.8,72.2,55.8,72.2,55.8z"/>
</g>
<g>
	<path class="st9" d="M70.7,50.9c-0.2,0-0.4-0.1-0.5-0.3c-0.1-0.3,0.1-0.5,0.3-0.6c0,0,4.8-1.5,7.2-3.1c2.6-1.7,5-1.8,5.1-1.9
		c0.3,0,0.5,0.2,0.5,0.5S83.1,46,82.8,46c0,0-2.3,0.1-4.6,1.7c-2.5,1.7-7.2,3.2-7.4,3.3C70.8,50.9,70.8,50.9,70.7,50.9z"/>
</g>
</svg>
