<svg id="Calque_1" data-name="Calque 1" xmlns="http://www.w3.org/2000/svg" width="134" height="123" viewBox="0 0 134 123"><defs><style>.cls-1{fill:#edddd6;}.cls-2{fill:#474780;}.cls-3{fill:#fcb45d;}.cls-4{fill:#f8a398;}.cls-5{fill:#010101;}.cls-6{fill:#fff;}</style></defs><polygon class="cls-1" points="25.54 21.091 20.617 62.292 26.005 102.381 67.259 107.226 108.461 101.909 113.383 61.506 107.995 20.619 66.741 15.774 25.54 21.091"/><g id="Calque_2" data-name="Calque 2"><path class="cls-2" d="M100.9828,97.7486c-1.2062.9869-2.4125,1.8641-3.6187,2.7414a24.792,24.792,0,0,1-2.851,1.7545,51.4065,51.4065,0,0,1-18.203,6.36,37.6609,37.6609,0,0,1-6.1407.4387h-.9869A47.3311,47.3311,0,0,1,57.34,107.6176a50.4071,50.4071,0,0,1-15.3518-6.5793c-1.6449-1.0966-3.29-2.3028-4.8249-3.509a43.9167,43.9167,0,0,1-6.0311-5.9215,33.0521,33.0521,0,0,1-2.4124-3.07C32.1187,80.4229,38.4788,68.69,47.032,65.8387,60.52,61.3428,89.25,67.7028,89.25,67.7028S98.8993,72.747,100.9828,97.7486Z"/><path class="cls-2" d="M94.5131,102.2445a51.4065,51.4065,0,0,1-18.203,6.36,37.6609,37.6609,0,0,1-6.1407.4387h-.9869A47.3311,47.3311,0,0,1,57.34,107.6176a50.4071,50.4071,0,0,1-15.3518-6.5793c-1.6449-1.0966-3.29-2.3028-4.8249-3.509.11-13.1588,1.0966-25.2209,4.2766-28.072a20.961,20.961,0,0,1,5.5925-3.509A43.05,43.05,0,0,1,60.41,62.9876c2.3028-.11,3.7283-.11,3.7283-.11s3.07.11,7.1277.5482c1.0965.11,2.3027.329,3.509.4387,7.018.9869,15.2422,2.9607,17.3256,6.689C93.7455,73.9532,94.4034,88.2085,94.5131,102.2445Z"/><path class="cls-3" d="M78.7226,36.67s6.5794-11.0752,1.0965-13.378C74.446,20.88,67.9763,26.9107,67.9763,26.9107S55.8045,28.0073,51.1989,34.477s6.7987,17.874,6.7987,17.874Z"/><path class="cls-4" d="M60.081,54.873l-.6579,11.185s1.8642,3.29,8.3339,4.2766c4.8248.6579,6.689-.329,6.689-.329l-.329-5.7021-.3289-5.5925-11.6236-3.29Z"/><path class="cls-5" d="M62.0549,55.4213a4.8232,4.8232,0,0,0,.2193,1.0966c2.1931,5.7021,8.9918,7.3469,11.7332,7.7856l-.329-5.5925Z"/><path class="cls-4" d="M77.7357,33.3805S82.78,47.7454,79.9288,55.4213s-9.869,5.9215-14.036,4.0573a14.1709,14.1709,0,0,1-5.9214-4.6056,5.9547,5.9547,0,0,1-6.47-2.851c-2.4125-3.9476-.4386-8.0049,1.9738-8.8822,2.3028-.7676,4.9345,1.0966,4.9345,1.0966L58.5459,40.07C58.6555,39.96,69.1825,20.1121,77.7357,33.3805Z"/><path class="cls-5" d="M59.7521,50.3771a.403.403,0,0,1-.329-.11L54.5982,46.32a.5483.5483,0,0,1,.658-.8773L60.0811,49.39a.6754.6754,0,0,1,.11.7676C59.9714,50.2675,59.8617,50.3771,59.7521,50.3771Z"/><path class="cls-5" d="M55.1465,50.0482a.7287.7287,0,0,1-.5483-.4386c-.11-.329.11-.5483.4387-.658l3.3993-.6579c.329-.11.5483.11.6579.4386s-.11.5483-.4386.6579l-3.509.658Z"/><path class="cls-5" d="M68.0859,39.4115a.4028.4028,0,0,1-.3289-.11.53.53,0,0,1,0-.7676,3.4867,3.4867,0,0,1,4.6055-.8773.5645.5645,0,1,1-.5483.9869,2.43,2.43,0,0,0-3.18.658A4.7544,4.7544,0,0,0,68.0859,39.4115Z"/><path class="cls-5" d="M78.9419,38.9729a.403.403,0,0,1-.329-.11,2.2009,2.2009,0,0,0-2.3028-.4387.5645.5645,0,0,1-.5482-.9869,3.3288,3.3288,0,0,1,3.6186.5483.53.53,0,0,1,0,.7676A.8309.8309,0,0,1,78.9419,38.9729Z"/><path class="cls-5" d="M76.42,49.5h-.2193a.4887.4887,0,0,1-.329-.6579c1.4256-3.9477-.4386-6.25-.5483-6.25a.5483.5483,0,0,1,.8773-.658c.11.11,2.3028,2.8511.6579,7.347C76.8584,49.39,76.6391,49.5,76.42,49.5Z"/><path class="cls-5" d="M78.6129,44.3461a.7286.7286,0,0,1-.5483-.4387l-.5482-2.6317c-.11-.329.11-.5483.4386-.6579s.5483.11.6579.4386l.5483,2.6317c.11.329-.11.5483-.4386.658Z"/><path class="cls-5" d="M70.3887,44.5654a.7286.7286,0,0,1-.5483-.4387l-.5482-2.6317c-.11-.329.11-.5483.4386-.6579s.5483.11.6579.4386l.5483,2.6317c.11.329-.11.5483-.4386.658Z"/><path class="cls-3" d="M78.7226,36.67a4.8261,4.8261,0,0,0-3.838-2.5221,5.925,5.925,0,0,0-4.4959,1.6449s.9869,4.8249-3.07,7.018c-3.9477,2.3028-6.7987,1.4255-6.7987,1.4255L57.7783,43.03l-1.7545-4.0573,8.5531-8.1145,10.6367-4.8249,4.9345,5.0442Z"/><path class="cls-5" d="M73.3494,53.7765a4.3383,4.3383,0,0,1-4.0572-2.6318.52.52,0,1,1,.9869-.3289,3.3273,3.3273,0,0,0,3.07,1.9738.518.518,0,0,1,.5483.5483.5017.5017,0,0,1-.5483.4386Z"/><path class="cls-6" d="M71.266,71.2118a20.5407,20.5407,0,0,1-13.1588-5.3731.5428.5428,0,0,1,.7676-.7676c.11.11,7.347,6.689,15.9,4.6055.3289-.11.5482.11.6579.4386s-.11.5483-.4386.658A14.4371,14.4371,0,0,1,71.266,71.2118Z"/></g></svg>