<svg id="Calque_1" data-name="Calque 1" xmlns="http://www.w3.org/2000/svg" width="134" height="123" viewBox="0 0 134 123"><defs><style>.cls-1{fill:#edddd6;}.cls-2{fill:#474780;}.cls-3{fill:#2d328f;}.cls-4{fill:#9492c7;}.cls-5{fill:#7470b3;}.cls-6{fill:#f8a398;}.cls-7{fill:#010101;}.cls-8{fill:#fff;}</style></defs><polygon class="cls-1" points="25.54 21.837 20.617 63.038 26.005 103.126 67.259 107.971 108.461 102.654 113.383 62.251 107.995 21.365 66.741 16.52 25.54 21.837"/><path class="cls-2" d="M79.3324,52.8011c-.73-3.26-3.19-5.4837-5.4957-4.9677l-1.2007.18a3.07,3.07,0,0,0-.4354.0651c-2.3058.516-3.5835,3.5767-2.854,6.8363s3.19,5.4837,5.4957,4.9677l1.2007-.1795a3.0735,3.0735,0,0,0,.4355-.0651C78.7841,59.1214,80.0619,56.0607,79.3324,52.8011Z"/><path class="cls-3" d="M106.245,85.9946a44.5349,44.5349,0,0,1-2.78,4.52,46.1429,46.1429,0,0,1-10.62,10.89c-.02.03-.05.04-.07.06-.27.2-.54.4-.82.58a46.6044,46.6044,0,0,1-57.81-3.42,48.0872,48.0872,0,0,1-4.56-4.69q-.96-1.125-1.83-2.31c7.41-8.92,13.93-10.72,13.93-10.72-.21-.23-2.5-2.93,0-7.79,3.29-6.42,13.51-10.39,13.51-10.39l18.04-1.07a21.1577,21.1577,0,0,1,13.21,7.01c4.65,5.32,3.82,8.7,3.38,9.73a1.4519,1.4519,0,0,1-.16.33A115.9592,115.9592,0,0,1,106.245,85.9946Z"/><path class="cls-4" d="M89.8273,78.3925a56.76,56.76,0,0,1-18.1966,7.1882c-15.82,3.493-29.9458-4.6766-29.9458-4.6766-.2117-.231-2.5019-2.9253,0-7.7945,3.2909-6.4183,13.51-10.3829,13.51-10.3829l18.0426-1.0681A21.18,21.18,0,0,1,86.45,68.6639C91.0975,73.9853,90.27,77.3629,89.8273,78.3925Z"/><path class="cls-5" d="M57.8144,74.5785s-7.1483-3.7311-6.7207-5.9129,7.3646-3.6451,11.8082-2.8065,14.9511.969,14.9511,4.7926c0,3.38-4.8217,6.6321-4.8217,6.6321L62.9019,74.3614Z"/><path class="cls-6" d="M57.566,63.3919l.2484,11.1866s2.0888,3.1709,8.6449,3.5575c4.8839.2879,6.572-.8522,6.572-.8522l-.8055-5.65-.7928-5.51L59.5583,63.7863Z"/><path class="cls-7" d="M59.5583,63.7863a3.678,3.678,0,0,0,.3491,1.0722c2.6273,5.5323,9.4972,6.5852,12.3184,6.7748l-.7928-5.51Z"/><path class="cls-6" d="M73.3611,40.57s6.1824,13.8952,4.0411,21.7392-9.2828,6.66-13.5609,5.1747a14.1265,14.1265,0,0,1-6.2768-4.089,6.0173,6.0173,0,0,1-6.6691-2.3109c-2.6915-3.6894-1.0782-7.9578,1.1917-8.9487s4.9879.6346,4.9879.6346l-2.1489-4.0358S63.7145,28.0914,73.3611,40.57Z"/><path class="cls-7" d="M72.8367,58.3372a.4889.4889,0,0,1-.148-.0224.4994.4994,0,0,1-.33-.625c.7832-2.5323-1.1191-5.2891-1.1387-5.3174a.5.5,0,0,1,.8179-.5752c.0908.1289,2.2061,3.1816,1.2759,6.1875A.5.5,0,0,1,72.8367,58.3372Z"/><path class="cls-7" d="M56.4827,59.3431a.4791.4791,0,0,1-.35-.1514L52.3469,55.18a.4812.4812,0,0,1,.7-.66l3.7857,4.0118a.4818.4818,0,0,1-.35.8115Z"/><path class="cls-7" d="M52.4748,58.2679a.4812.4812,0,0,1-.0717-.957l2.6186-.3965a.481.481,0,1,1,.1446.9511l-2.6187.3965A.462.462,0,0,1,52.4748,58.2679Z"/><path class="cls-7" d="M57.075,52.7694a1.7372,1.7372,0,0,0,2.4833-.6914c1.0452-1.6355-1.2416-6.4688-1.2416-6.4688s4.3148.98,6.982-.4475,3.9761-5.3538,3.9761-5.3538,1.9633,4.09,7.8532,2.2905,7.0128-9.8165.725-11.4526S68.13,31.7911,68.13,31.7911s-.7971-5.8181-8.5712-2.945c-7.083,2.6177-8.2805,11.4912-8.2805,11.4912a5.6015,5.6015,0,0,0-5.0719,4.8244c-.818,4.6263,4.5949,7.9739,4.5949,7.9739A7.4024,7.4024,0,0,1,57.075,52.7694Z"/><path class="cls-7" d="M66.5212,53.139a.5006.5006,0,0,1-.4956-.4365l-.331-2.5967a.5.5,0,0,1,.9922-.127l.331,2.5967a.5.5,0,0,1-.4326.56A.479.479,0,0,1,66.5212,53.139Z"/><path class="cls-7" d="M74.23,52.52a.5.5,0,0,1-.4941-.4267l-.3814-2.59a.5011.5011,0,0,1,.4219-.5683.5068.5068,0,0,1,.5674.4218l.3813,2.59a.5012.5012,0,0,1-.4218.5684A.6306.6306,0,0,1,74.23,52.52Z"/><path class="cls-7" d="M64.1018,48.1614a.4891.4891,0,0,1-.228-.0556.5.5,0,0,1-.2163-.6729c.9648-1.875,3.3325-1.3867,3.4321-1.3642a.5.5,0,0,1-.21.9775c-.0718-.0176-1.7217-.3457-2.333.8438A.5.5,0,0,1,64.1018,48.1614Z"/><path class="cls-7" d="M71.6291,46.5569a.4937.4937,0,0,1-.2817-.0878.4994.4994,0,0,1-.13-.6944,2.126,2.126,0,0,1,1.52-.9873,3.5289,3.5289,0,0,1,2.4321.8955.5.5,0,0,1-.6616.749,2.5587,2.5587,0,0,0-1.65-.6513,1.1565,1.1565,0,0,0-.8145.5586A.4989.4989,0,0,1,71.6291,46.5569Z"/><path class="cls-2" d="M65.5437,87.3235c-14.8291-.8291-20.5879-4.2294-20.8257-4.374a.5.5,0,0,1,.5181-.8554c.0566.0341,5.8291,3.4179,20.3349,4.23a.5.5,0,0,1-.0273.999Z"/><path class="cls-2" d="M65.949,104.1917a.5033.5033,0,0,1-.5-.5166l.4077-12.0088a.513.513,0,0,1,.5166-.4834.5.5,0,0,1,.4824.5166l-.4077,12.0088A.5.5,0,0,1,65.949,104.1917Z"/><path class="cls-2" d="M85.5222,100.56a.5.5,0,0,1-.4307-.2451L79.1042,90.19a.5.5,0,1,1,.86-.51l5.9873,10.125a.5.5,0,0,1-.43.7549Z"/><path class="cls-2" d="M85.5222,81.4007a.5.5,0,0,1-.2334-.9424l4.1421-2.1807a.5.5,0,1,1,.4658.8848l-4.1421,2.1807A.4982.4982,0,0,1,85.5222,81.4007Z"/><path class="cls-2" d="M60.148,56.8809c.4246,3.3131-1.131,6.2424-3.4746,6.5427s-4.5876-2.142-5.0122-5.4551,1.131-6.2424,3.4746-6.5427S59.7234,53.5678,60.148,56.8809Z"/><polygon class="cls-2" points="55.136 51.426 53.514 51.753 55.052 63.751 56.673 63.424 58.444 61.519 58.958 54.867 55.136 51.426"/><path class="cls-8" d="M58.5264,57.2083c.4246,3.3131-1.131,6.2424-3.4746,6.5428s-4.5876-2.142-5.0122-5.4551,1.131-6.2424,3.4746-6.5427S58.1018,53.8952,58.5264,57.2083Z"/><path class="cls-8" d="M52.3386,36.5614a13.2087,13.2087,0,0,0-2.2922,4.0309c-.503,1.8883,2.4289,13.81,2.4289,13.81l3.7007-.8393Z"/><path class="cls-7" d="M69.5212,62.265a4.224,4.224,0,0,1-3.43-2.0538.5.5,0,0,1,.86-.5107,3.0865,3.0865,0,0,0,3.2524,1.4746.5.5,0,1,1,.252.9668A3.6791,3.6791,0,0,1,69.5212,62.265Z"/></svg>