<svg id="Calque_1" data-name="Calque 1" xmlns="http://www.w3.org/2000/svg" width="134" height="123" viewBox="0 0 134 123"><defs><style>.cls-1{fill:#edddd6;}.cls-2{fill:#010101;}.cls-3{fill:#7470b3;}.cls-4{fill:#7a491d;}.cls-5{fill:#fff;}.cls-6{fill:#fcb45d;}.cls-7{fill:#474780;}</style></defs><polygon class="cls-1" points="25.54 21.091 20.617 62.292 26.005 102.381 67.259 107.226 108.461 101.909 113.383 61.506 107.995 20.619 66.741 15.774 25.54 21.091"/><path class="cls-2" d="M79.1631,41.4275S89.7845,43.168,93.6468,56.49s1.5787,30.56,1.5787,30.56L75.6226,81.1637l.8516-23.66Z"/><path class="cls-3" d="M102.09,94.011a46.0818,46.0818,0,0,1-6.67,6.94,46.5926,46.5926,0,0,1-63.51-3.09c.24-1.63.56-3.54.98-5.58.21-1,.44-2.04.7-3.1a64.6114,64.6114,0,0,1,2.62-8.26c.38-.94.79-1.87,1.22-2.77,2.84-5.87,6.96-10.65,12.88-11.45.23-.03.47-.06.7-.09,14.49-1.83,29.44.64,33.09,1.32.55.1.84.16.84.16s5.71,3.22,10.92,11.39c.52.82,1.04,1.7,1.55,2.62a49.7944,49.7944,0,0,1,3.47,7.9c.33.93.63,1.88.9,2.88C101.89,93.251,101.99,93.631,102.09,94.011Z"/><path class="cls-2" d="M70.105,60.6881s6.0538.27,9.5407-8.18a16.9294,16.9294,0,0,0-.8755-15.06l-7.6,3.98L67.04,56.5209Z"/><path class="cls-3" d="M91.06,104.231a46.651,46.651,0,0,1-51.04.28c0-14.05.41-30.03,2.26-33.26,1.22-2.14,4.72-3.62,8.73-4.64a91.8843,91.8843,0,0,1,16.16-2.2s9.81-.33,16.93,3.52a16.3422,16.3422,0,0,1,3.24,2.26C90.89,73.411,91.4,89.471,91.06,104.231Z"/><path class="cls-4" d="M69.89,57.036l.8433,9.9491s-1.5519,3.0121-7.3321,3.9784c-4.3059.72-5.9122-.1311-5.9122-.1311l.1774-5.09.18-4.9643L68.16,57.5754Z"/><path class="cls-2" d="M68.16,57.5754a3.2819,3.2819,0,0,1-.2078.9845c-1.8051,5.1584-7.8,6.7459-10.2856,7.1824l.18-4.9643Z"/><path class="cls-4" d="M53.7055,38.2882S49.5412,51.2049,52.187,57.961s8.87,5.0262,12.5242,3.302a12.6051,12.6051,0,0,0,5.18-4.2249,5.37,5.37,0,0,0,5.6976-2.6845c2.0373-3.5294.2-7.1633-1.9082-7.8266s-4.3652,1.0373-4.3652,1.0373l1.5228-3.7851S61.0782,26.3,53.7055,38.2882Z"/><path class="cls-2" d="M70.105,53.0081a.5.5,0,0,1-.3252-.88l4.209-3.603a.5.5,0,1,1,.65.76L70.43,52.888A.5.5,0,0,1,70.105,53.0081Z"/><path class="cls-2" d="M74.1871,52.6067a.5406.5406,0,0,1-.084-.0068l-3.0166-.51a.5007.5007,0,0,1-.41-.5767.5091.5091,0,0,1,.5762-.41l3.0166.51a.5.5,0,0,1-.082.9932Z"/><path class="cls-2" d="M62.45,42.9334a.5012.5012,0,0,1-.3692-.1621,2.1676,2.1676,0,0,0-2.8447-.5376.5.5,0,0,1-.5459-.8379,3.1856,3.1856,0,0,1,4.1289.7.5.5,0,0,1-.3691.8379Z"/><path class="cls-2" d="M52.76,43.2835a.5.5,0,0,1-.35-.8575c1.3818-1.352,2.4541-1.0087,2.57-.9638a.5.5,0,0,1-.3349.9419c-.0459-.0132-.6358-.1446-1.5362.7368A.499.499,0,0,1,52.76,43.2835Z"/><path class="cls-2" d="M55.0328,53.4578a.5.5,0,0,1-.4864-.3848c-1.0214-4.31,1.5059-6.4028,1.6143-6.49a.5.5,0,0,1,.6289.7773c-.0879.0723-2.14,1.81-1.27,5.4819a.5.5,0,0,1-.3711.6016A.4937.4937,0,0,1,55.0328,53.4578Z"/><path class="cls-2" d="M53.2115,48.06a.472.472,0,0,1-.0908-.0083.5.5,0,0,1-.4024-.582l.3877-2.11-.6191-.7739a.5.5,0,0,1,.7812-.625l.7617.9522a.502.502,0,0,1,.1016.4028L53.7027,47.65A.5006.5006,0,0,1,53.2115,48.06Z"/><path class="cls-2" d="M59.4761,56.9519a3.0846,3.0846,0,0,1-1.7627-.7138.5.5,0,0,1,.045-.7925l3.1191-2.1245a.4994.4994,0,0,1,.7783.4638c-.1719,1.6812-.6924,2.7066-1.5478,3.0479A1.6922,1.6922,0,0,1,59.4761,56.9519ZM58.96,55.8367a1.0605,1.0605,0,0,0,.7793.0669,1.5532,1.5532,0,0,0,.7178-1.086Z"/><path class="cls-2" d="M60.5181,47.65a.4816.4816,0,0,1-.0908-.0083.5.5,0,0,1-.4023-.5821l.3838-2.0888-.8116-.8784a.5.5,0,0,1,.7344-.6788l.9814,1.0621a.5015.5015,0,0,1,.125.43l-.4287,2.335A.5006.5006,0,0,1,60.5181,47.65Z"/><path class="cls-2" d="M69.3157,47.5643,68.16,48.905l.5779-1.9322a13.1587,13.1587,0,0,1-6.2875-2.27c-3.5644-2.253-4.4106-7.7247-4.4106-7.7247a19.0185,19.0185,0,0,0-3.2332,2.0385,5.6356,5.6356,0,0,0-2.0459,2.7225S48.2932,29.36,57.6664,27.751s16.025,6.336,16.025,6.336,5.3644.7449,5.9008,6.002-3.1366,9.3339-3.1366,9.3339A5.1028,5.1028,0,0,0,69.3157,47.5643Z"/><path class="cls-4" d="M57.489,70.8324l-.5612,4.4735s12.3535-5.1732,13.1772-7.495S58.04,69.11,58.04,69.11Z"/><path class="cls-5" d="M56.9283,75.8059a.4991.4991,0,0,1-.499-.5293l.4775-8.0468a.4922.4922,0,0,1,.5283-.47.5.5,0,0,1,.47.5283l-.4277,7.2081c2.6279-1.2452,11.2686-5.4649,12.8418-7.792a.5.5,0,1,1,.8281.56c-2.0058,2.9678-13.5215,8.2715-14.0107,8.4951A.4842.4842,0,0,1,56.9283,75.8059Z"/><path class="cls-6" d="M97.41,82.101c-1.6.66-3.87,1.52-6.63,2.4a80.68,80.68,0,0,1-24.02,4.12c-.92,0-1.84-.03-2.77-.07a67.9917,67.9917,0,0,1-23.49-5.58c-1.7-.73-3.14-1.44-4.29-2.05.38-.94.79-1.87,1.22-2.77.9.48,2.01,1.03,3.3,1.61a65.5538,65.5538,0,0,0,23.41,5.79c9.78.48,19.69-1.97,26.38-4.15,2.15-.7,3.97-1.37,5.34-1.92C96.38,80.301,96.9,81.181,97.41,82.101Z"/><path class="cls-6" d="M101.78,92.881c-2.25.94-6.03,2.44-10.63,3.93-7.55,2.45-17.31,4.9-26.19,4.9-.76,0-1.51-.02-2.25-.05a64.4649,64.4649,0,0,1-22.64-5.66,68.9767,68.9767,0,0,1-7.18-3.72c.21-1,.44-2.04.7-3.1a67.4393,67.4393,0,0,0,6.54,3.5,61.9142,61.9142,0,0,0,22.73,5.98c9.28.47,20.2-2.34,28.27-5.03,4.27-1.41,7.74-2.79,9.75-3.63C101.21,90.931,101.51,91.881,101.78,92.881Z"/><path class="cls-7" d="M43.41,87.111l-2.23,18.12c-.31-.18-.62-.38-.93-.58l2.17-17.66a.5009.5009,0,0,1,.55-.44A.51.51,0,0,1,43.41,87.111Z"/></svg>