<?xml version="1.0" encoding="utf-8"?>
<!-- Generator: Adobe Illustrator 24.3.0, SVG Export Plug-In . SVG Version: 6.00 Build 0)  -->
<svg version="1.1" id="Calque_1" xmlns="http://www.w3.org/2000/svg" xmlns:xlink="http://www.w3.org/1999/xlink" x="0px" y="0px"
	 viewBox="0 0 134 123" style="enable-background:new 0 0 134 123;" xml:space="preserve">
<style type="text/css">
	.st0{fill:#EDDDD6;}
	.st1{fill:#474780;}
	.st2{fill:#FCB45D;}
	.st3{fill:#F8A398;}
	.st4{fill:#010101;}
	.st5{fill:#FFFFFF;}
	.st6{fill:#FCB35B;}
	.st7{fill:#D19865;}
	.st8{fill:#7772D3;}
	.st9{fill:#46467F;}
	.st10{fill:#C49576;}
	.st11{fill:#F7734F;}
	.st12{fill:#2D328F;}
	.st13{fill:#9492C7;}
	.st14{fill:#7470B3;}
	.st15{fill:#2F3180;}
	.st16{fill:#F3C0BC;}
	.st17{fill:#65477F;}
	.st18{fill:#E56445;}
	.st19{fill:#FCD69F;}
	.st20{fill:#FEBF6A;}
	.st21{fill:#4485A5;}
	.st22{fill:#E24786;}
	.st23{fill:#FCA397;}
	.st24{fill:#7A491D;}
	.st25{fill:#EFADA3;}
	.st26{fill:#273339;}
	.st27{fill:#F47351;}
	.st28{fill:#B77E34;}
	.st29{fill:#C48C4E;}
	.st30{fill:#F7CBA4;}
	.st31{fill:#7C3C1D;}
	.st32{fill:#A85527;}
	.st33{fill:#CC997F;}
	.st34{fill:#D8B7A9;}
	.st35{fill:#F7C29A;}
	.st36{fill:#E5AC39;}
</style>
<polygon class="st0" points="25.5,24.8 20.6,66 26,106.1 67.3,110.9 108.5,105.6 113.4,65.2 108,24.3 66.7,19.5 "/>
<g>
	<path class="st18" d="M59.3,42.7c0,0,6.5-13.1,17.4-6.8s1.8,19,18.3,22.4c8.6,1.8,14,8.9,11.7,17.2C104.6,83.6,95,84,95,84
		S84.5,99,72.6,94.6c-11.9-4.5-17.5-11.5-16.5-22.8C57.1,60.5,59.3,42.7,59.3,42.7z"/>
</g>
<g>
	<path class="st18" d="M47.7,54.2c0,0-6.9-9.8,6.7-17.9c13.7-8,23.9,2.6,24.1,8.3c0.2,5.8-3.1,8.5-3.1,8.5s1.5,12.5-10.6,11.8
		C52.8,64.2,47.7,54.2,47.7,54.2z"/>
</g>
<g>
	<g>
		<path class="st28" d="M66,62.9L66.4,73c0,0-1.7,3-7.6,3.7c-4.4,0.5-6-0.4-6-0.4l0.4-5.1l0.4-5l10.6-2.8L66,62.9z"/>
	</g>
</g>
<g>
	<g>
		<path class="st4" d="M65.9,62.4c0,0.3-0.1,0.6-0.3,1c-2.1,5.1-9.9,7.4-12.5,7.7l0.4-5L65.9,62.4z"/>
	</g>
</g>
<g>
	<g>
		<path class="st28" d="M50.5,43.2c0,0-4.8,12.9-2.4,19.8c2.4,7,8.7,5.5,12.5,3.9s5.4-4,5.4-4s3.7,1,5.9-2.5c2.2-3.5,0.5-7.2-1.6-8
			s-4.5,0.8-4.5,0.8l1.7-3.8C67.5,49.5,58.5,31.4,50.5,43.2z"/>
	</g>
</g>
<g>
	<path class="st4" d="M51.7,58.6c-0.2,0-0.4-0.2-0.5-0.4c-0.8-4.3,0.9-6.6,1-6.7c0.2-0.2,0.5-0.3,0.7-0.1s0.3,0.5,0.1,0.7
		c0,0-1.5,2.1-0.8,5.9C52.2,58.3,52,58.5,51.7,58.6L51.7,58.6z"/>
</g>
<g>
	<path class="st4" d="M66.2,58.5c-0.2,0-0.3-0.1-0.4-0.3s0-0.5,0.2-0.7l4.9-2.7c0.2-0.1,0.5,0,0.7,0.2c0.1,0.2,0,0.5-0.2,0.7
		l-4.9,2.7C66.3,58.5,66.3,58.5,66.2,58.5z"/>
</g>
<g>
	<path class="st4" d="M70.8,59.3c-0.1,0-0.2,0-0.3-0.1l-2.4-2c-0.2-0.2-0.2-0.5-0.1-0.7c0.2-0.2,0.5-0.2,0.7-0.1l2.4,2
		c0.2,0.2,0.2,0.5,0.1,0.7C71.1,59.3,70.9,59.3,70.8,59.3z"/>
</g>
<g>
	<path class="st18" d="M47.7,54.2c0,0,0.7-3.9,4.4-8.4s3.7-4.5,3.7-4.5s0.2,7.9,4,11.1c3.8,3.1,6.1,0.9,6.1,0.9l6.3-6.5L59.3,36.7
		C59.3,36.7,45.7,37.2,47.7,54.2z"/>
</g>
<g>
	<path class="st2" d="M83.8,110.2c-5.1,1.9-10.6,3-16.4,3c-0.7,0-1.5,0-2.2-0.1c-8.7-0.4-16.7-3.2-23.5-7.6
		c-1.1-0.7-2.1-1.4-3.1-2.2c-0.4-2.1-0.9-4.9-1-8.2c-0.3-4.7,1.3-9.2,3-12.8c1.4-3,3.8-5.4,6.8-6.8c1-0.5,2.1-0.9,3.2-1.1l3-0.6
		c0,0,21.6-1.9,25.6-0.1c0,0,0,0,0.1,0c0.3,0.2,0.5,0.4,0.6,0.6C79.9,76.8,82.1,95.8,83.8,110.2z"/>
</g>
<g>
	<path class="st2" d="M105.9,92.9c-1.4,2-2.9,3.9-4.6,5.7c-4.7,4.9-10.4,8.8-16.8,11.3c-0.2,0.1-0.4,0.2-0.6,0.2
		c-5.1,1.9-10.6,3-16.4,3c-0.7,0-1.5,0-2.2-0.1l-0.2-1.3l14.1-38.1c0,0,0,0,0.1,0C80,74,98.7,77.4,105.9,92.9z"/>
</g>
<g>
	<path class="st28" d="M53,73.2l-3.8,1.5c0,0-0.7,7.6,8.2,7.3c9.5-0.2,16.3-9.1,16.3-9.1l-8.3-0.7L53,73.2z"/>
</g>
<g>
	<path class="st5" d="M57.1,82.5c-2.7,0-4.8-0.7-6.3-2.2c-2.3-2.3-2.1-5.6-2.1-5.7c0-0.3,0.3-0.5,0.5-0.5c0.3,0,0.5,0.3,0.5,0.5
		c0,0-0.2,2.9,1.8,4.9c1.5,1.5,3.7,2.1,6.8,1.8c9.4-0.7,15-8.8,15-8.8c0.2-0.2,0.5-0.3,0.7-0.1c0.2,0.2,0.3,0.5,0.1,0.7
		c-0.2,0.3-5.9,8.5-15.8,9.3C57.9,82.5,57.5,82.5,57.1,82.5z"/>
</g>
<g>
	<path class="st4" d="M54.9,62.2c-0.2,0-0.4-0.1-0.5-0.3c-0.1-0.3,0-0.5,0.3-0.6c0,0,1.2-0.5,2-1.8c0.1-0.2,0.4-0.3,0.7-0.2
		c0.2,0.1,0.3,0.4,0.2,0.7c-1,1.7-2.5,2.2-2.6,2.3C55,62.2,54.9,62.2,54.9,62.2z"/>
</g>
<g>
	<path class="st2" d="M78.3,47.8c-0.3,0-0.5-0.2-0.5-0.5c0.2-9.8-7.9-12.8-8.2-12.9c-0.3-0.1-0.4-0.4-0.3-0.6
		c0.1-0.3,0.4-0.4,0.6-0.3c0.1,0,9.1,3.3,8.9,13.9C78.8,47.6,78.6,47.8,78.3,47.8z"/>
</g>
<g>
	<path class="st2" d="M47.4,75.5L45,104.8l-3.2,0.6c-1.1-0.7-2.1-1.4-3.1-2.2c-3.8-3-7.1-6.5-9.8-10.5c0-0.1-0.1-0.1-0.1-0.2
		c2.3-3,5.9-7.3,9.5-10.5C44.6,76.3,47.4,75.5,47.4,75.5z"/>
</g>
<g>
	<path class="st5" d="M38.4,102.7c-0.2,0-0.4-0.2-0.5-0.4c-3.3-14.7,3.9-22.1,4.2-22.4c0.2-0.2,0.5-0.2,0.7,0s0.2,0.5,0,0.7
		c-0.1,0.1-7.1,7.4-3.9,21.5C39,102.4,38.8,102.6,38.4,102.7C38.5,102.7,38.5,102.7,38.4,102.7z"/>
</g>
<g>
	<path class="st4" d="M49,48.5c-0.2,0-0.4-0.2-0.5-0.4c-0.1-0.3,0.1-0.5,0.4-0.6l2.4-0.6c0.3-0.1,0.5,0.1,0.6,0.4
		c0.1,0.3-0.1,0.5-0.4,0.6L49,48.5C49,48.5,49,48.5,49,48.5z"/>
</g>
<g>
	<path class="st4" d="M58.2,48.8c-0.1,0-0.1,0-0.2,0l-2.9-1c-0.3-0.1-0.4-0.4-0.3-0.6c0.1-0.3,0.4-0.4,0.6-0.3l2.9,1
		c0.3,0.1,0.4,0.4,0.3,0.6C58.6,48.7,58.4,48.8,58.2,48.8z"/>
</g>
<g>
	<path class="st4" d="M49.8,53.3C49.8,53.3,49.7,53.3,49.8,53.3c-0.4-0.1-0.5-0.3-0.5-0.6l0.3-1.8L49,50.2c-0.2-0.2-0.2-0.5,0.1-0.7
		c0.2-0.2,0.5-0.2,0.7,0.1l0.8,0.9c0.1,0.1,0.1,0.3,0.1,0.4l-0.4,2C50.3,53.1,50,53.3,49.8,53.3z"/>
</g>
<g>
	<path class="st4" d="M56.6,53.5C56.5,53.5,56.5,53.5,56.6,53.5c-0.4-0.1-0.5-0.3-0.5-0.6l0.3-1.8l-0.7-0.7c-0.2-0.2-0.2-0.5,0-0.7
		s0.5-0.2,0.7,0l0.9,0.9c0.1,0.1,0.2,0.3,0.1,0.5L57,53.2C57,53.3,56.8,53.5,56.6,53.5z"/>
</g>
</svg>
