<svg id="Calque_1" data-name="Calque 1" xmlns="http://www.w3.org/2000/svg" width="134" height="123" viewBox="0 0 134 123"><defs><style>.cls-1{fill:#edddd6;}.cls-2{fill:#507849;}.cls-3{fill:#e56445;}.cls-4{fill:#fca397;}.cls-5{fill:#fff;}</style></defs><polygon class="cls-1" points="25.54 24.799 20.617 65.999 26.005 106.088 67.259 110.933 108.461 105.616 113.383 65.213 107.995 24.327 66.741 19.482 25.54 24.799"/><path d="M66.6828,37.2259s-9.1966-1.3748-15.7864,2.7494-3.6064,15.1-3.6064,15.1S36.733,63.3293,36.1592,72.3879s7.6883,12.3808,7.6883,12.3808l21.77-3.3223Z"/><path class="cls-2" d="M106.795,89.789a46.5109,46.5109,0,0,1-8.97,11.84q-1.545,1.4826-3.23,2.8154a42.43,42.43,0,0,1-4.2,2.9651l-3.83-32.736s3.8.7987,12.59,8.4161C102.985,86.4046,105.345,88.4811,106.795,89.789Z"/><path class="cls-2" d="M94.595,104.4448a42.43,42.43,0,0,1-4.2,2.9651c-.54.3494-1.09.6789-1.65.9983a46.6422,46.6422,0,0,1-28.32,5.85c-1.02-.11-2.03-.25-3.03-.4293a43.9109,43.9109,0,0,1-6.17-1.5475c-.43-.14-.86-.2795-1.28-.4392-.37-16.4928-.47-32.9856.51-34.3733,1.58-2.2463,7.01-4.5425,13.15-5.471a36.0394,36.0394,0,0,1,4.88-.4392c7.94-.17,18.08,3.1148,18.08,3.1148Z"/><path class="cls-2" d="M65.615,90.9271l-5.19,23.3315c-1.02-.11-2.03-.25-3.03-.4293a43.9109,43.9109,0,0,1-6.17-1.5475c-.43-.14-.86-.2795-1.28-.4392a46.759,46.759,0,0,1-20.33-14.2365c13.48-25.3781,33.94-26.057,33.94-26.057l.05.4492Z"/><path class="cls-3" d="M63.5052,72.813a44.3494,44.3494,0,0,0,8.2363,8.92c4.4369,3.3509,6.4643,3.7466,6.4643,3.7466l-.2833-10.8063Z"/><path class="cls-4" d="M63.724,61.6811l-.1849,10.7068S65.42,75.499,71.6852,76.116c4.6671.46,6.3272-.5668,6.3272-.5668l-.5579-5.4338-.5512-5.2992L65.6174,62.1333Z"/><path d="M65.6174,62.1333a3.512,3.512,0,0,0,.2939,1.0385c2.3074,5.39,8.848,6.6557,11.5432,6.9436l-.5512-5.2992Z"/><path class="cls-4" d="M79.716,40.4525s5.3967,13.521,3.0491,20.9413S73.6218,67.4119,69.58,65.83a13.5387,13.5387,0,0,1-5.8576-4.147,5.7736,5.7736,0,0,1-6.3008-2.4616c-2.4385-3.63-.7319-7.6505,1.48-8.5124s4.7537.7951,4.7537.7951l-1.9057-3.94S70.9475,28.156,79.716,40.4525Z"/><path d="M70.6421,45.0178a.5.5,0,0,1-.39-.8112A3.39,3.39,0,0,1,74.58,43.1693a.5.5,0,0,1-.4883.8716,2.4042,2.4042,0,0,0-3.0586.79A.5.5,0,0,1,70.6421,45.0178Z"/><path d="M81.0538,44.6941a.4973.4973,0,0,1-.3252-.12,2.0621,2.0621,0,0,0-2.2789-.2711.5025.5025,0,0,1-.6792-.1931.4972.4972,0,0,1,.1885-.6765,3.0475,3.0475,0,0,1,3.42.3821.4992.4992,0,0,1-.3251.8785Z"/><path d="M79.0723,55.8482a.5.5,0,0,1-.4946-.5752,9.3867,9.3867,0,0,0-.9907-5.8907.5.5,0,0,1,.85-.5244,10.2811,10.2811,0,0,1,1.1285,6.5672A.5.5,0,0,1,79.0723,55.8482Z"/><path d="M80.9165,50.837a.5.5,0,0,1-.4838-.3764l-.6289-2.4666a.4967.4967,0,0,1,.0478-.3666l.7656-1.3659a.5.5,0,0,1,.8731.4874l-.6685,1.1925.58,2.2735a.4983.4983,0,0,1-.3608.6064A.491.491,0,0,1,80.9165,50.837Z"/><path d="M73.127,50.8526a.5.5,0,0,1-.4839-.3764L72.0142,48.01a.4964.4964,0,0,1,.0923-.4319l1.0928-1.3815a.5.5,0,1,1,.7851.6181l-.94,1.1885.5679,2.2278a.5.5,0,0,1-.4849.622Z"/><path d="M63.6551,51.82l1.9623,2.59s4.1867-5.795,4.1752-9.0248,0-4.3532,0-4.3532a24.8174,24.8174,0,0,0,7.6619,1.43c3.4573-.1021,5.6376-1.94,5.4081-3.5743s-2.272-6.6379-13.07-5.0039S58.7915,48.1066,63.6551,51.82Z"/><path class="cls-5" d="M83.3575,87.2378c-.4883-.0293-11.3267-.8433-20.2378-14.5784a.4994.4994,0,1,1,.8388-.5421c8.62,13.2856,19.3228,14.1163,19.43,14.1231a.4992.4992,0,0,1-.0307.9974Z"/><path class="cls-5" d="M78.2056,85.9782a.5.5,0,0,1-.5-.4865l-.2832-10.8055a.5006.5006,0,0,1,.4868-.5118.5079.5079,0,0,1,.5132.4866l.2832,10.8053a.5006.5006,0,0,1-.4868.5119Z"/><path d="M77.5406,59.5891a5.1654,5.1654,0,0,1-2.5967-1.1806.5.5,0,0,1,.6152-.7878c.7486.583,1.8145,1.1105,2.1265.9447a.4994.4994,0,1,1,.4736.8794A1.2878,1.2878,0,0,1,77.5406,59.5891Z"/></svg>