<?xml version="1.0" encoding="utf-8"?>
<!-- Generator: Adobe Illustrator 24.3.0, SVG Export Plug-In . SVG Version: 6.00 Build 0)  -->
<svg version="1.1" id="Calque_1" xmlns="http://www.w3.org/2000/svg" xmlns:xlink="http://www.w3.org/1999/xlink" x="0px" y="0px"
	 viewBox="0 0 800 800" style="enable-background:new 0 0 800 800;" xml:space="preserve">
<style type="text/css">
	.st0{fill:#000091;}
</style>
<g>
	<path class="st0" d="M208,583.8c2-3.6,5-4.6,9-4.6c16.7,0.1,33.4,0.1,50.1,0.1c1.4,0,2.7,0,4.7,0c0-1.9,0-3.6,0-5.3
		c0-118.2,0-236.5,0-354.7c0-1.7,0.1-3.5,0.3-5.2c0.5-3.1,2.6-4.7,5.6-5.2c1.2-0.2,2.5-0.1,3.7-0.1c53.3,0,106.5,0,159.8,0
		c7.6,0,9.4,1.8,9.4,9.5c0,46.3,0,92.5,0,138.8c0,1.5,0,3,0,5c1.7,0,3.1,0,4.6,0c27.2,0,54.4,0,81.6,0c8,0,9.7,1.6,9.7,9.6
		c0,67.5,0,135,0,202.4c0,1.6,0,3.2,0,5.1c7.1,0,13.8,0,20.5,0c5.2,0,10.5,0.1,15.7,0c3.6-0.1,6.8,0.6,8.1,4.5
		c1.3,4-1.2,6.3-4.1,8.3c-126.3,0-252.5,0-378.8,0C208,589.3,208,586.5,208,583.8z M437.8,221.8c-51.2,0-102,0-152.9,0
		c0,119.2,0,238.2,0,357.2c6.4,0,12.6,0,19,0c0-1.6,0-2.9,0-4.3c0-17.3-0.1-34.7,0-52c0.1-11.4,7.3-19.2,18.5-20
		c3.7-0.3,7.5-0.2,11.2-0.1c13.7,0.1,21.3,7.6,21.3,21.3c0,17,0,33.9,0,50.9c0,1.3,0,2.7,0,4.2c4.4,0,8.4,0,12.8,0c0-1.8,0-3.4,0-5
		c0-67.5,0-135,0-202.5c0-7.5,1.9-9.4,9.2-9.4c19,0,37.9,0,56.9,0c1.3,0,2.6,0,4,0C437.8,315,437.8,268.5,437.8,221.8z M533.5,375.2
		c-51.2,0-102,0-152.9,0c0,68.1,0,135.9,0,203.9c51,0,101.9,0,152.9,0C533.5,511,533.5,443.2,533.5,375.2z M341.6,579.1
		c0.2-0.4,0.4-0.6,0.4-0.8c0-18.8,0.1-37.6,0-56.4c0-3.8-2.3-6-6.1-6.3c-3.5-0.2-7-0.1-10.5-0.1c-6.9,0-8.9,2.1-8.9,8.9
		c0,17.1,0,34.1,0,51.2c0,1.2,0,2.4,0,3.5C325.3,579.1,333.5,579.1,341.6,579.1z"/>
	<path class="st0" d="M418.8,323.6c0,5.9,0.1,11.7,0,17.6c-0.1,5.8-2.5,8.1-8.3,8.1c-11.6,0.1-23.2,0.1-34.8,0
		c-5.7,0-8.1-2.5-8.1-8.3c-0.1-11.6-0.1-23.2,0-34.8c0-5.7,2.3-8,7.9-8.1c11.8-0.1,23.7-0.1,35.5,0c5.4,0,7.6,2.4,7.7,7.9
		C418.9,311.9,418.8,317.8,418.8,323.6z M380.7,311.1c0,8.5,0,16.7,0,25.1c8.5,0,16.7,0,25,0c0-8.5,0-16.7,0-25.1
		C397.3,311.1,389.3,311.1,380.7,311.1z"/>
	<path class="st0" d="M303.8,323.6c0-6-0.1-12,0-17.9c0.1-5,2.3-7.4,7.3-7.5c12.2-0.1,24.4-0.1,36.6,0c4.8,0.1,7,2.5,7.1,7.3
		c0.1,12.2,0.1,24.4,0,36.6c0,4.5-2.3,7.1-6.9,7.1c-12.3,0.2-24.7,0.2-37,0c-4.9-0.1-7.1-2.7-7.1-7.7
		C303.8,335.6,303.8,329.6,303.8,323.6z M341.7,336.4c0-8.7,0-16.9,0-25.2c-8.5,0-16.7,0-24.9,0c0,8.5,0,16.7,0,25.2
		C325.2,336.4,333.4,336.4,341.7,336.4z"/>
	<path class="st0" d="M392.9,285.4c-5.9,0-11.7,0.1-17.6,0c-5.2-0.1-7.6-2.3-7.6-7.5c-0.1-12-0.1-23.9,0-35.9c0-5.3,2.6-7.6,8-7.7
		c11.7-0.1,23.4-0.1,35.1,0c5.6,0,8,2.4,8,8c0.1,11.7,0.1,23.4,0,35.1c0,5.7-2.3,7.9-8,8C404.8,285.4,398.9,285.4,392.9,285.4z
		 M405.8,247.3c-8.5,0-16.7,0-25.1,0c0,8.5,0,16.8,0,25.1c8.5,0,16.7,0,25.1,0C405.8,263.9,405.8,255.7,405.8,247.3z"/>
	<path class="st0" d="M329.5,362.1c6,0,12-0.1,17.9,0c5.1,0.1,7.4,2.3,7.4,7.3c0.1,12.2,0.1,24.4,0,36.6c0,4.7-2.5,7.1-7.2,7.1
		c-12.1,0.1-24.2,0.1-36.2,0c-5.1,0-7.5-2.4-7.5-7.7c-0.1-11.8,0-23.7,0-35.5c0-5.5,2.3-7.8,7.7-7.8
		C317.5,362.1,323.5,362.1,329.5,362.1z M341.9,375.1c-8.5,0-16.8,0-25,0c0,8.5,0,16.8,0,25.1c8.5,0,16.7,0,25,0
		C341.9,391.8,341.9,383.6,341.9,375.1z"/>
	<path class="st0" d="M354.9,260c0,6,0.1,12,0,17.9c-0.1,5-2.3,7.3-7.4,7.3c-12.1,0.1-24.2,0.1-36.2,0c-5.1,0-7.4-2.5-7.4-7.7
		c0-11.8,0-23.7,0-35.5c0-5.3,2.4-7.8,7.8-7.8c11.8-0.1,23.7-0.1,35.5,0c5.4,0,7.7,2.4,7.7,7.8C354.9,248.1,354.9,254,354.9,260z
		 M316.8,272.3c8.5,0,16.8,0,25,0c0-8.5,0-16.8,0-25.1c-8.5,0-16.6,0-25,0C316.8,255.6,316.8,263.8,316.8,272.3z"/>
	<path class="st0" d="M354.9,451.6c0,6,0.1,12,0,17.9c-0.1,5-2.3,7.3-7.3,7.4c-12.1,0.1-24.2,0.1-36.2,0c-5.2,0-7.4-2.5-7.4-7.7
		c0-11.8,0-23.7,0-35.5c0-5.4,2.4-7.8,7.8-7.8c11.8-0.1,23.7-0.1,35.5,0c5.4,0,7.7,2.4,7.8,7.8C354.9,439.7,354.9,445.7,354.9,451.6
		z M341.8,438.9c-8.5,0-16.8,0-25,0c0,8.5,0,16.8,0,25.1c8.5,0,16.6,0,25,0C341.8,455.5,341.8,447.3,341.8,438.9z"/>
	<path class="st0" d="M489.3,451.4c5.6,0,11.2,0,16.8,0c6.1,0,8.5,2.3,8.5,8.3c0.1,11.6,0.1,23.2,0,34.8c0,5.8-2.4,8.1-8.3,8.1
		c-11.6,0.1-23.2,0.1-34.8,0c-5.8,0-8.1-2.4-8.1-8.2c-0.1-11.6-0.1-23.2,0-34.8c0-5.8,2.5-8.1,8.3-8.2
		C477.6,451.4,483.4,451.4,489.3,451.4z M476.5,464.4c0,8.6,0,16.8,0,25.1c8.5,0,16.7,0,25.1,0c0-8.5,0-16.8,0-25.1
		C493.1,464.4,485,464.4,476.5,464.4z"/>
	<path class="st0" d="M450.7,476.9c0,6,0.1,12,0,17.9c-0.1,5.3-2.2,7.6-7.5,7.7c-12,0.1-23.9,0.1-35.9,0c-5.4,0-7.7-2.5-7.7-7.9
		c0-11.8,0-23.7,0-35.5c0-5.1,2.4-7.7,7.5-7.7c12-0.1,23.9-0.1,35.9,0c5.3,0,7.6,2.5,7.6,7.9C450.7,465.2,450.7,471.1,450.7,476.9z
		 M412.6,489.5c8.5,0,16.8,0,25,0c0-8.5,0-16.8,0-25.1c-8.5,0-16.6,0-25,0C412.6,472.8,412.6,480.9,412.6,489.5z"/>
	<path class="st0" d="M488.7,438.6c-5.9,0-11.7,0-17.6,0c-5-0.1-7.6-2.2-7.6-7.1c-0.1-12.2-0.1-24.4,0-36.6c0.1-4.9,2.6-7.2,7.6-7.2
		c12-0.1,23.9-0.1,35.9,0c5.1,0,7.6,2.3,7.6,7.5c0.1,12,0.1,23.9,0,35.9c-0.1,5.4-2.5,7.5-8,7.6
		C500.7,438.7,494.7,438.6,488.7,438.6z M501.6,425.7c0-8.5,0-16.8,0-25c-8.5,0-16.8,0-25,0c0,8.5,0,16.8,0,25
		C485.1,425.7,493.3,425.7,501.6,425.7z"/>
	<path class="st0" d="M489.5,515.4c5.9,0,11.7-0.1,17.6,0c5.2,0.1,7.5,2.3,7.6,7.6c0.1,12,0.1,23.9,0,35.9c-0.1,5.2-2.5,7.6-7.6,7.6
		c-12,0.1-23.9,0.1-35.9,0c-5.1,0-7.6-2.5-7.6-7.7c-0.1-12-0.1-23.9,0-35.9c0-5.2,2.4-7.4,7.7-7.5
		C477.2,515.3,483.3,515.4,489.5,515.4z M476.6,528.3c0,8.5,0,16.9,0,25.2c8.5,0,16.7,0,25,0c0-8.5,0-16.8,0-25.2
		C493.2,528.3,485.2,528.3,476.6,528.3z"/>
	<path class="st0" d="M450.7,413.1c0,6,0.1,12,0,17.9c-0.1,5.3-2.3,7.6-7.5,7.6c-12,0.1-23.9,0.1-35.9,0c-5.4,0-7.6-2.4-7.7-7.8
		c0-11.7,0-23.4,0-35.1c0-5.7,2.3-8,7.9-8c11.7,0,23.4,0,35.1,0c5.7,0,7.9,2.2,8,7.9C450.7,401.4,450.7,407.2,450.7,413.1z
		 M437.7,400.7c-8.6,0-16.9,0-25.2,0c0,8.5,0,16.7,0,25c8.5,0,16.7,0,25.2,0C437.7,417.2,437.7,409.1,437.7,400.7z"/>
	<path class="st0" d="M425.3,515.4c5.9,0,11.7-0.1,17.6,0c5.6,0.1,7.8,2.2,7.8,7.7c0.1,11.8,0.1,23.7,0,35.5c0,5.6-2.3,7.9-8,7.9
		c-11.7,0-23.4,0.1-35.1,0c-5.4,0-7.8-2.4-7.8-7.8c-0.1-12-0.1-23.9,0-35.9c0-5,2.3-7.3,7.3-7.4
		C413.1,515.3,419.2,515.4,425.3,515.4z M437.7,553.5c0-8.5,0-16.7,0-25.1c-8.5,0-16.8,0-25,0c0,8.5,0,16.8,0,25.1
		C421.2,553.5,429.3,553.5,437.7,553.5z"/>
</g>
</svg>
